<?xml version="1.0" encoding="utf-8"?>
<!-- Generator: Adobe Illustrator 17.1.0, SVG Export Plug-In . SVG Version: 6.00 Build 0)  -->
<!DOCTYPE svg PUBLIC "-//W3C//DTD SVG 1.1//EN" "http://www.w3.org/Graphics/SVG/1.1/DTD/svg11.dtd">
<svg version="1.1" id="Layer_1" xmlns="http://www.w3.org/2000/svg" xmlns:xlink="http://www.w3.org/1999/xlink" x="0px" y="0px"
	 viewBox="81 169 450 450" enable-background="new 81 169 450 450" xml:space="preserve">
<g>
	<path fill="none" stroke="#FFFFFF" stroke-width="2.6465" d="M306.7,614.1c120.7,0,218.7-98,218.7-218.7
		c0-120.7-98-218.7-218.7-218.7C186,176.7,88,274.7,88,395.4C88,516.5,186,614.1,306.7,614.1z"/>
	<path fill="none" stroke="#FFFFFF" stroke-width="2.6465" d="M306.7,395.9"/>
</g>
<g>
	<path fill="#ECECEC" d="M306.7,616.4c-122.1,0-221-98.9-221-221s98.9-221,221-221s221,98.9,221,221
		C527.7,517.5,428.8,616.4,306.7,616.4z M306.7,179.5c-119.3,0-216.4,97.1-216.4,216.4s97.1,216.4,216.4,216.4
		s216.4-97.1,216.4-216.4S426,179.5,306.7,179.5z"/>
	<path fill="none" stroke="#000000" stroke-width="4.6234" d="M306.7,395.9"/>
</g>
<g>
	<path fill="#ECECEC" d="M306.7,603.9c-115.1,0-208.5-93.4-208.5-208.5s93.4-208.5,208.5-208.5s208.5,93.4,208.5,208.5
		C515.2,510.5,421.8,603.9,306.7,603.9z M306.7,188.3c-114.2,0-207.1,92.9-207.1,207.1c0,114.2,92.9,207.1,207.1,207.1
		c114.2,0,207.1-92.9,207.1-207.1S420.9,188.3,306.7,188.3z"/>
	<path fill="none" stroke="#000000" stroke-width="1.3232" d="M306.7,395.9"/>
</g>
<g>
	<g>
		<path fill="#ECECEC" d="M335.8,279.4"/>
		<g>
			<g>
				<g>
					<path fill="#ECECEC" d="M206.4,526.2l-0.5,0.5c-0.9,1.4,0.9,1.4,0,2.8c-0.5,0.5-1.4,1.4-1.8,1.4l-2.3,1.8l-6.9-5.5l1.4-3.2
						c0-0.5,0.5-1.4,0.9-2.3c0.9-1.4,1.4,0.9,2.8-0.5l0.5-0.5l-5.5-4.6l-0.5,0.5c-1.4,1.4,0.9,0-0.5,4.2l-10.2,25.4l-0.5,0.9h1.4
						c0.5,0,1.4,0,1.8-0.5c0.5-0.5,0.5-1.4,0.9-1.8l0.5-1.4l18-12c4.2-2.8,3.7,0,5.1-1.8l0.5-0.5L206.4,526.2z M188.3,541.5
						l5.1-12.5l6,5.1L188.3,541.5z"/>
				</g>
			</g>
			<g>
				<path fill="#ECECEC" d="M181.9,503.1"/>
				<path fill="#ECECEC" d="M181.4,502.2l-0.5,0.5c-1.4,1.4-0.9-1.8-3.7,0.5l-17.1,14.3c-2.8,2.3,0,2.3-1.4,3.2l-0.5,0.5l-4.6-5.1
					l0.5-0.5c1.4-1.4,0.9,1.8,3.7-0.5l17.1-14.3c2.8-2.3,0-2.3,1.4-3.2l0.5-0.5L181.4,502.2z"/>
				<path fill="#ECECEC" d="M176.3,496.2"/>
			</g>
			<g>
				<path fill="#ECECEC" d="M146.7,436.1"/>
				<path fill="#ECECEC" d="M145.8,435.2c-1.8,0.5,0-1.8-3.2-1.4l-22.2,4.2c-3.7,0.5-0.9,1.8-2.8,2.3h-0.9l-1.4-6.9h0.9
					c1.8-0.5,0,1.8,3.2,0.9l24-4.6l-0.9-5.1c-0.9-5.1-6-2.3-6.5-4.2v-0.9l7.4-1.4l3.2,16.2L145.8,435.2z"/>
				<path fill="#ECECEC" d="M143.5,418.5"/>
			</g>
			<path fill="#ECECEC" d="M222.1,543.8c3.2-5.1-0.5-3.7,0.9-5.5l0.5-0.5l5.1,3.2l-0.5,0.5c-1.4,2.3-1.4-1.8-4.6,3.2l-10.6,17.1
				c-1.8,3.2,0.9,1.8,0,3.7l-0.5,0.5l-5.1-3.2l2.3-24l-8.3,13.4c-3.2,5.1,0.5,3.2-0.9,5.5l-0.5,0.5l-5.1-3.2l0.5-0.5
				c1.4-2.3,1.4,1.8,4.6-3.2l12.9-20.8l1.4,0.9l-3.2,30.1L222.1,543.8z"/>
			<g>
				<g>
					<path fill="#ECECEC" d="M171.2,486.9c-3.2-5.5-12-5.1-19.4-0.9c-6.9,4.2-11.6,11.6-8.3,17.1c3.2,5.5,12,5.1,19.4,0.9
						C169.8,499.9,174.5,493,171.2,486.9z M160.6,501.3c-5.1,3.2-12.9,6.5-15.7,1.4c-2.8-5.1,4.2-10.2,8.8-13.4
						c5.1-3.2,12.9-6.5,15.7-1.4C172.6,493,165.7,498,160.6,501.3z"/>
				</g>
			</g>
			<g>
				<path fill="#ECECEC" d="M196.2,517.9"/>
				<path fill="#ECECEC" d="M185.1,512.4c2.8-2.3-0.5-2.3,0.9-3.7l0.5-0.5l5.1,5.1l-0.5,0.5c-1.4,1.4-0.9-1.8-3.7,0.9l-17.6,17.1
					l1.4,1.4c4.2,4.2,5.5-1.4,7.4,0.5l0.5,0.5l-5.5,5.5c0-0.9-0.5-1.4-0.9-1.8l-10.2-10.6c-0.5-0.5-1.4-0.9-1.8-0.9l5.5-5.5l0.5,0.5
					c1.8,1.8-4.2,3.2,0,7.4l1.4,1.4L185.1,512.4z"/>
				<path fill="#ECECEC" d="M181.9,503.1"/>
			</g>
			<g>
				<g>
					<path fill="#ECECEC" d="M152.3,453.2l-0.9,0.5c-1.8,0.5,0,1.8-1.8,2.3c-0.5,0-1.8,0.5-2.8,0.5H144l-2.8-8.3l2.8-1.8
						c0.5-0.5,1.4-0.9,1.8-1.4c1.4-0.5,0.9,1.4,2.3,0.9l0.9-0.5l-2.3-6.9l-0.9,0.5c-1.8,0.5,0.9,0.9-2.3,3.2l-22.2,16.2l-0.5,0.5
						l1.4,0.9c0,0,1.4,0.9,1.8,0.9s1.4-0.9,1.4-0.9l0.9-0.9l21.7-0.9c5.1,0,3.2,1.8,5.1,1.4l0.9-0.5L152.3,453.2z M129.2,456.9
						l10.6-7.9l2.3,7.4L129.2,456.9z"/>
				</g>
			</g>
			<g>
				<path fill="#ECECEC" d="M163.8,478.2"/>
				<path fill="#ECECEC" d="M156.4,476.8c5.5-2.8,1.4-3.2,3.7-4.2l0.9-0.5l2.8,5.5l-0.5,0.5c-2.3,0.9,0-2.3-5.5,0.5l-18.5,8.8
					c-3.2,1.4-0.5,2.3-1.8,3.2l-0.5,0.5l-2.8-5.5l14.8-19l-13.9,6.9c-5.5,2.8-1.4,2.8-3.7,4.2l-0.9,0.5l-2.3-5.1l0.9-0.5
					c2.3-0.9,0,2.3,5.5-0.5l21.7-10.6l0.5,1.4l-18.5,24L156.4,476.8z"/>
				<path fill="#ECECEC" d="M154.1,457.8"/>
			</g>
		</g>
		<g>
			<g>
				<g>
					<path fill="#ECECEC" d="M137.5,387.5c0.5,0,1.8-0.5,2.3-0.5c1.8,0,0.5,1.8,1.8,1.8h0.9l0.5-7.4h-0.9c-1.8,0,0.5,0.9-3.7,2.3
						l-26.8,7.4c0,0-0.9,0-0.9,0.5l0.9,1.4c0,0,0.9,1.4,1.4,1.4c0.5,0,1.4-0.5,1.8-0.5l1.4-0.5l20.3,6.9c4.6,1.8,2.3,2.8,4.2,2.8
						h0.9v-5.5h-0.9c-1.8,0-0.5,1.8-2.3,1.4c-0.5,0-1.8-0.5-2.3-0.5l-2.8-0.9l0.5-8.8L137.5,387.5z M131.9,396.8l-12.5-4.2l12.9-3.7
						L131.9,396.8z"/>
				</g>
			</g>
			<g>
				<path fill="#ECECEC" d="M146.3,358.4"/>
				<path fill="#ECECEC" d="M130.1,335.3v0.9c-0.5,1.8-7.9-1.4-9.2,4.2c-1.4,5.1,6.9,8.3,12,9.7c5.5,1.4,13.9,1.8,15.3-3.7
					c0.9-3.2-1.4-5.1-3.2-6.9l1.4-0.9c3.2,2.8,4.6,5.5,3.7,8.8c-1.4,6.5-10.2,7.9-18,6c-6.9-1.8-14.8-6.9-12.9-13.4
					c0.9-3.2,3.2-4.2,3.7-4.6c0-0.5,0-0.5-0.5-0.5l0.5-1.4L130.1,335.3z"/>
				<path fill="#ECECEC" d="M151.4,338.5"/>
			</g>
			<g>
				<path fill="#ECECEC" d="M181.4,289.1"/>
				<path fill="#ECECEC" d="M181.4,287.7c-1.4-1.4,1.4-0.9-0.9-3.2l-16.6-15.3c-2.8-2.3-2.3,0.5-3.7-0.9l-0.5-0.5l8.8-9.7
					c0.5-0.5,0.9-1.4,0.9-1.8l5.5,5.1l-0.5,0.5c-1.4,1.4-3.7-3.2-6.9,0l-3.2,3.2l8.3,7.9l1.8-1.8c2.3-2.3-1.4-2.8,0-4.6l0.5-0.5
					l6,5.5l-0.5,0.5c-1.4,1.4-2.3-1.8-4.6,0.5l-1.8,1.8l9.2,8.8l3.7-4.2c4.2-4.6-2.3-6.5-0.5-8.3l0.5-0.5l5.5,5.5l-11.6,12
					L181.4,287.7z"/>
				<path fill="#ECECEC" d="M193.9,275.7"/>
			</g>
			<g>
				<path fill="#ECECEC" d="M152.3,338.1"/>
				<path fill="#ECECEC" d="M143.5,316.3l-8.8-4.2c-3.2-1.4-1.8,0.9-3.7,0.5l-0.9-0.5l2.8-6.5l0.9,0.5c1.8,0.9-0.9,1.4,2.3,2.8
					l20.8,9.2c3.2,1.4,1.8-0.9,3.7-0.5l0.9,0.5l-2.8,6.5l-0.9-0.5c-1.8-0.9,1.4-1.4-2.3-2.8l-9.7-4.2l-4.2,9.2l9.7,4.2
					c3.2,1.4,1.8-0.9,3.7-0.5l0.9,0.5l-2.8,6.5l-0.9-0.5c-1.8-0.9,1.4-1.4-2.3-2.8l-20.8-9.2c-3.2-1.4-1.8,0.9-3.7,0.5l-0.9-0.5
					l2.8-6.5l0.9,0.5c1.8,0.9-1.4,1.4,2.3,2.8l8.8,4.2L143.5,316.3z"/>
				<path fill="#ECECEC" d="M161.5,317.7"/>
			</g>
			<g>
				<path fill="#ECECEC" d="M162.4,315.9"/>
				<path fill="#ECECEC" d="M162.9,315l-0.5-0.5c-1.8-0.9,1.4-1.4-1.8-3.2l-19.9-11.1c-3.2-1.8-1.8,0.9-3.7,0l-0.5-0.5l3.2-6
					l0.5,0.5c1.8,0.9-1.4,1.4,1.8,3.2l19.9,11.1c3.2,1.8,1.8-0.9,3.7,0l0.5,0.5L162.9,315z"/>
				<path fill="#ECECEC" d="M167.1,308"/>
			</g>
			<g>
				<g>
					<path fill="#ECECEC" d="M135.6,365.8l10.2-2.8l0.9-4.6h-0.9c-1.8-0.5,0.5,0.9-3.7,2.3l-8.8,2.3c-1.8,0.5-2.8,0.9-3.2,2.3l0,0
						c0.5-3.2-1.4-6.9-6.5-7.9c-5.5-0.9-7.9,3.2-8.3,5.5l-1.4,10.2h0.9c1.8,0.5,0-1.8,3.2-1.4l22.2,3.7c3.7,0.5,0.9,1.8,2.8,2.3h0.9
						l0.9-6.9H144c-1.8-0.5,0,1.8-3.2,1.4l-10.6-1.8v-0.9C129.6,367.2,131,367.2,135.6,365.8z M128.2,367.2l-0.5,3.2l-12-1.8
						l0.5-4.2c0.5-1.8,2.3-4.2,6.5-3.2C127.3,361.6,128.2,364.4,128.2,367.2z"/>
				</g>
			</g>
			<g>
				<path fill="#ECECEC" d="M195.3,273.8"/>
				<path fill="#ECECEC" d="M192,266.4c0.9-0.9,5.1,4.6,8.8,1.4c1.8-1.8,2.3-5.1,0-7.9c-5.5-6.5-12,3.7-19-4.6
					c-2.8-3.7-2.8-7.9-0.5-10.2c1.8-1.4,3.7-0.9,4.2-1.4c0,0,0-0.5,0-0.9l0.9-0.9l4.6,5.1l-0.9,0.5c-0.9,0.9-4.6-4.2-7.9-1.4
					c-1.4,1.4-1.8,3.7,0,6c4.6,5.5,11.6-4.2,19,4.6c3.7,4.2,3.7,9.7,0.5,12.5c-1.4,1.4-4.2,1.4-4.6,1.8s0,0.9,0,1.4l-0.9,0.9l-5.1-6
					L192,266.4z"/>
				<path fill="#ECECEC" d="M208.2,263.2"/>
			</g>
			<g>
				<path fill="#ECECEC" d="M168,306.6"/>
				<path fill="#ECECEC" d="M169.4,293.7l-12.5-15.3c-0.5-0.5-0.9-1.4-1.8-1.8c-1.4-0.9-1.4,0.9-2.8,0l-0.5-0.5l3.2-4.6l0.5,0.5
					c1.4,0.9-1.4,0.5,1.8,4.2l17.1,21.3l-0.9,1.4l-26.4-9.2c-3.2-0.9-1.8,0.9-3.7,0l-0.5-0.5l3.7-5.5l0.5,0.5
					c1.4,0.9-0.5,1.4,0.9,2.3c0.5,0.5,0.9,0.5,1.4,0.5L169.4,293.7z"/>
				<path fill="#ECECEC" d="M180,289.1"/>
			</g>
		</g>
		<g>
			<g>
				<g>
					<path fill="#ECECEC" d="M236.9,245.1c-0.9-1.8-0.5,0.9-3.7-1.8l-19.9-19l-0.5-0.5l-0.5,1.4c0,0.5-0.9,1.4-0.5,1.8
						c0,0.5,0.9,0.9,1.4,1.4l0.9,0.9l4.6,21.3c0.9,5.1-1.4,3.7-0.5,5.1l0.5,0.5l5.1-2.8l-0.5-0.5c-0.9-1.4-1.8,0.5-2.8-1.4
						c-0.5-0.5-0.5-1.8-0.9-2.3l-0.5-2.8l7.9-4.2l2.3,2.3c0.5,0.5,1.4,1.4,1.4,1.8c0.9,1.4-1.4,1.4-0.5,2.8l0.5,0.5l6.5-3.7
						L236.9,245.1z M218.4,244.2l-2.8-12.9l9.7,9.2L218.4,244.2z"/>
				</g>
			</g>
			<g>
				<g>
					<path fill="#ECECEC" d="M276.2,217.4c-1.8-8.3-7.4-13.4-13.9-12l-9.2,2.3v0.9c0.5,1.8,1.8-0.9,2.3,2.8l5.5,21.7
						c0.9,3.7-1.4,1.4-0.9,3.2v0.9l9.2-2.3C274.8,234,278.5,227.1,276.2,217.4z M268.3,233.6l-3.2,0.9l-6.5-25.9l3.7-0.9
						c5.5-1.4,8.8,4.6,10.2,11.1C274.8,227.1,273.4,232.2,268.3,233.6z"/>
				</g>
			</g>
			<g>
				<path fill="#ECECEC" d="M237.8,246.1"/>
				<path fill="#ECECEC" d="M240.1,238.7c2.3,5.5,3.2,1.8,4.2,4.2l0.5,0.9l-6,1.8l-0.5-0.9c-0.9-2.3,2.3,0,0-5.5l-7.4-19
					c-1.4-3.2-2.3-0.5-2.8-2.3l-0.5-0.9l5.5-2.3l17.6,16.2l-5.5-14.3c-2.3-5.5-2.8-1.8-3.7-4.2l-0.5-0.9l5.5-1.8l0.5,0.9
					c0.9,2.3-2.3,0,0,5.5l8.8,22.7l-1.4,0.5l-22.2-20.3L240.1,238.7z"/>
				<path fill="#ECECEC" d="M259.1,237.7"/>
			</g>
		</g>
		<path fill="#ECECEC" d="M412.1,268.3"/>
		<g>
			<g>
				<path fill="#ECECEC" d="M332.6,232.2"/>
				<path fill="#ECECEC" d="M356.2,216h-0.9c-1.8-0.5,1.4-7.9-4.2-9.2c-5.1-1.4-8.3,6.5-9.7,12c-1.4,5.5-1.8,13.9,3.2,15.3
					c3.2,0.9,5.1-1.4,6.9-3.2l0.9,1.4c-2.8,3.2-5.5,4.6-8.8,3.7c-6.5-1.8-7.9-10.2-5.5-18c1.8-6.9,7.4-14.3,13.4-12.9
					c3.2,0.9,4.2,3.7,4.6,3.7s0.5,0,0.5-0.5l1.4,0.5L356.2,216z"/>
				<path fill="#ECECEC" d="M352.5,237.3"/>
			</g>
			<path fill="#ECECEC" d="M394.1,255.8"/>
			<g>
				<g>
					<path fill="#ECECEC" d="M419.5,236.4l-7.9-5.1l-0.5,0.5c-0.9,1.4,1.8,0.5,0,3.7l-12.5,18.5c-1.8,2.8-2.3,0-3.2,1.4l-0.5,0.5
						l7.9,5.1c4.2,2.8,11.6,0.9,17.1-6.9C424.6,247.5,424.6,240.1,419.5,236.4z M416.7,252.5c-5.1,7.4-9.7,10.2-14.3,6.9l-2.8-1.8
						l14.8-22.2l3.2,2.3C422.7,241,420.4,247,416.7,252.5z"/>
				</g>
			</g>
			<g>
				<path fill="#ECECEC" d="M314.1,230.8"/>
				<path fill="#ECECEC" d="M315.5,230.3c0-1.8,1.8,0.5,2.3-2.8l2.3-22.7c0.5-3.7-1.4-1.4-1.4-3.2v-0.9l12.9,1.4
					c0.5,0,1.4,0,2.3-0.5l-0.9,7.4h-0.5c-2.3,0,0.5-5.1-4.2-5.5l-4.6-0.5l-1.4,11.6l2.3,0.5c3.2,0.5,1.8-2.8,3.7-2.3h0.5l-0.9,7.9
					h-0.5c-2.3,0,0-3.2-2.8-3.2l-2.3-0.5l-1.4,12.9l5.5,0.5c6,0.5,3.7-5.5,6-5.5h0.5l-0.9,7.9l-16.6-1.8L315.5,230.3z"/>
				<path fill="#ECECEC" d="M333.1,232.7"/>
			</g>
			<path fill="#ECECEC" d="M352,236.4"/>
			<g>
				<g>
					<path fill="#ECECEC" d="M374.7,211.8c-6-2.3-12.9,3.2-15.7,11.1c-2.8,7.9-2.3,16.2,4.2,18.5c6,2.3,12.9-3.2,15.7-11.1
						C381.6,222.5,380.7,214.2,374.7,211.8z M375.1,229c-2.3,5.5-6,12.9-11.6,10.6c-5.5-1.8-3.2-10.6-0.9-15.7
						c2.3-5.5,6-12.9,11.6-10.6C379.3,215.1,377,223.9,375.1,229z"/>
				</g>
			</g>
			<path fill="#ECECEC" d="M374.7,245.1"/>
			<g>
				<g>
					<path fill="#ECECEC" d="M310.9,229.9c0-1.8-0.9,0.5-2.8-3.2l-4.2-7.9c-0.9-1.4-1.4-2.8-2.8-2.8l0,0c3.2,0,6.9-2.8,6.5-7.9
						c0-6-4.6-7.4-6.9-6.9l-10.2,0.5v0.9c0,1.8,1.8-0.5,1.8,3.2l0.9,22.7c0,3.7-1.8,1.4-1.8,3.2v0.9l6.9-0.5v-0.9
						c0-1.8-1.8,0.5-1.8-3.2l-0.5-11.1h0.9c2.3,0,2.8,0.9,4.6,5.1l4.6,9.2h5.1L310.9,229.9z M299.3,214.6h-3.2l-0.5-12h4.2
						c1.8,0,4.2,1.8,4.6,5.5C304.4,212.8,301.6,214.6,299.3,214.6z"/>
				</g>
			</g>
			<g>
				<path fill="#ECECEC" d="M412.1,268.7"/>
				<path fill="#ECECEC" d="M419,264.6c0.9,0.9-4.2,5.1-0.5,9.2c1.8,1.8,5.1,1.8,7.9-0.9c6-6-4.6-11.6,3.2-19.4
					c3.2-3.2,7.9-3.7,10.2-1.4c1.8,1.8,1.4,3.7,1.8,4.2c0,0,0.5,0,0.9,0l0.9,0.9l-5.1,4.6l-0.9-0.9c-0.9-0.9,4.2-5.1,0.9-7.9
					c-1.4-1.4-4.2-1.4-6,0.5c-5.1,5.1,5.1,11.1-2.8,19c-4.2,4.2-9.2,4.6-12.5,1.8c-1.4-1.4-1.8-4.2-2.3-4.2c-0.5-0.5-0.9,0-1.4,0
					l-0.9-0.9l5.5-5.5L419,264.6z"/>
				<path fill="#ECECEC" d="M424.1,280.7"/>
			</g>
			<path fill="#ECECEC" d="M373.7,245.1"/>
			<g>
				<g>
					<path fill="#ECECEC" d="M397.8,222.9l-9.2-4.6l-0.5,0.5c-0.9,1.8,1.8,0.5,0,3.7l-10.2,20.3c-1.8,3.2-2.3,0.5-3.2,1.8l-0.5,0.5
						l6,3.2l0.5-0.5c0.9-1.8-1.8-0.5,0-3.7l5.1-9.7l0.9,0.5c1.8,0.9,1.8,1.8,1.8,6.9l-0.5,10.2l4.2,2.3l0.5-0.9
						c0.9-1.8-0.9,0-0.9-4.2l0.5-8.8c0-1.8,0-3.2-1.4-3.7l0,0c3.2,1.4,7.4,0.9,9.7-3.7C403.3,227.6,399.6,224.3,397.8,222.9z
						 M397.3,231.3c-2.3,4.2-5.1,4.2-7.4,3.2l-2.8-1.4l5.5-10.6l3.7,1.8C397.8,225.3,399.2,228,397.3,231.3z"/>
				</g>
			</g>
			<path fill="#ECECEC" d="M392.2,254.4"/>
		</g>
		<g>
			<path fill="#ECECEC" d="M434.3,291.4"/>
			<g>
				<g>
					<path fill="#ECECEC" d="M464.8,281.2c-0.5,0-1.4-0.5-1.8,0s-0.9,0.9-0.9,1.4l-0.9,0.9l-20.3,6.9c-4.6,1.8-3.7-0.9-5.1,0.5
						l-0.5,0.5l3.2,4.6l0.5-0.5c1.4-0.9-0.5-1.4,0.9-2.8c0.5-0.5,1.8-0.9,2.3-0.9l2.8-0.9l5.1,7.4l-1.8,2.8
						c-0.5,0.5-0.9,1.4-1.4,1.8c-1.4,0.9-1.4-0.9-2.8,0l-0.5,0.5l4.2,6l0.5-0.5c1.4-1.4-0.9-0.5,1.4-3.7l16.6-22.2
						c0,0,0.5-0.5,0.5-0.9C466.2,281.7,464.8,281.2,464.8,281.2z M451,296.5l-4.6-6.5l12.5-4.2L451,296.5z"/>
				</g>
			</g>
			<path fill="#ECECEC" d="M447.3,308.9"/>
			<path fill="#ECECEC" d="M449.1,312.2"/>
			<g>
				<g>
					<path fill="#ECECEC" d="M480.5,306.6l-4.6-8.3l-0.5,0.5c-1.8,0.9,1.4,1.4-1.8,3.2l-19.9,11.1c-3.2,1.8-1.8-0.9-3.7,0l-0.5,0.5
						l4.6,8.3c2.3,4.6,10.2,6.5,18.5,1.4C480.1,318.7,483.8,312.2,480.5,306.6z M470.8,319.6c-7.9,4.2-12.9,4.6-15.7-0.5l-1.4-2.8
						l23.6-12.9l1.8,3.2C481.5,311.7,476.4,316.3,470.8,319.6z"/>
				</g>
			</g>
			<path fill="#ECECEC" d="M459.7,331.1"/>
			<g>
				<path fill="#ECECEC" d="M467.6,358.4"/>
				<path fill="#ECECEC" d="M467.6,359.3h0.9c1.8-0.5,0,1.8,3.2,0.9l22.2-4.2c3.7-0.5,0.9-1.8,2.8-2.3h0.9l1.4,6.9h-0.9
					c-1.8,0.5,0-1.8-3.2-0.9l-22.2,4.2c-3.7,0.5-0.9,1.8-2.8,2.3H469L467.6,359.3z"/>
				<path fill="#ECECEC" d="M469,367.2"/>
			</g>
			<g>
				<path fill="#ECECEC" d="M458.3,329.7"/>
				<path fill="#ECECEC" d="M490.7,341.8L490.7,341.8l-27.7,1.4l-0.5-1.8l23.1-15.3l0,0l-19.4,6.5c-5.5,1.8-1.8,2.8-4.2,3.7
					l-0.9,0.5l-1.8-5.5l0.9-0.5c2.3-0.9,0,2.3,5.5,0.5l19.4-6.5c3.2-0.9,0.5-2.3,2.3-2.8l0.9-0.5l1.8,6l-20.3,13.4l24-1.4l1.8,6
					l-0.9,0.5c-1.8,0.5,0-1.8-3.7-0.9l-21.3,6.9c-3.2,0.9-0.5,2.3-2.3,2.8h-0.9l-2.3-6.5l0.9-0.5c1.8-0.5,0,1.8,3.7,0.9L490.7,341.8
					z"/>
				<path fill="#ECECEC" d="M467.1,356.1"/>
			</g>
			<g>
				<path fill="#ECECEC" d="M469.4,370.4"/>
				<path fill="#ECECEC" d="M475.9,375.1c-6,0.5-2.3,2.3-5.1,2.8h-0.9l-0.5-6h0.9c2.3,0-0.5,2.3,5.5,1.4l20.3-1.8
					c3.7-0.5,0.9-1.8,2.8-2.3h0.9l0.5,6l-20.8,12.5l15.7-1.4c6-0.5,2.3-2.3,5.1-2.3h0.9l0.5,5.5h-0.9c-2.3,0,0.5-1.8-5.5-1.4
					l-24,2.3v-1.4l25.9-15.7L475.9,375.1z"/>
				<path fill="#ECECEC" d="M471.8,393.1"/>
			</g>
			<g>
				<g>
					<path fill="#ECECEC" d="M491.2,456c-1.8-0.5,0,1.8-3.7,0.5l-21.3-7.4c-3.2-1.4-0.5-2.3-2.3-2.8l-0.9-0.5l-2.3,6.5l0.9,0.5
						c1.8,0.5,0-1.8,3.7-0.5l10.2,3.7l-0.5,0.9c-0.9,2.3-1.8,2.3-6.5,2.8l-10.2,0.9l-1.4,4.6l0.9,0.5c1.8,0.5,0-0.9,4.2-1.4l8.8-0.9
						c1.8,0,2.8-0.5,3.7-1.8l0,0c-0.9,3.2,0,7.4,5.1,8.8c5.5,1.8,8.3-1.8,9.2-4.2l3.2-9.7L491.2,456z M487.5,464.3
						c-0.5,1.8-3.2,3.2-6.9,2.3c-4.6-1.4-5.1-4.6-4.2-6.9l0.9-3.2l11.1,3.7L487.5,464.3z"/>
				</g>
			</g>
			<path fill="#ECECEC" d="M457,464.8"/>
			<g>
				<path fill="#ECECEC" d="M471.3,406.5"/>
				<path fill="#ECECEC" d="M479.2,409.7c0,1.4-6.9,0-7.4,5.1c-0.5,2.8,1.8,5.1,5.5,5.5c8.3,0.9,6.5-10.6,17.1-9.2
					c4.6,0.5,7.9,3.7,7.4,7.4c-0.5,2.3-2.3,3.2-2.3,3.7c0,0.5,0.5,0.5,0.5,0.9v1.4l-6.9-0.9v-0.9c0-1.4,6.5,0,6.9-4.2
					c0.5-1.8-1.4-4.2-4.2-4.2c-7.4-0.9-5.5,11.1-16.6,9.7c-5.5-0.5-9.2-4.6-8.8-8.8c0.5-1.8,1.8-4.2,1.8-4.6s-0.5-0.9-0.9-0.9v-1.4
					l7.9,0.9L479.2,409.7z"/>
				<path fill="#ECECEC" d="M469.4,423.1"/>
			</g>
			<g>
				<path fill="#ECECEC" d="M469.4,423.6"/>
				<path fill="#ECECEC" d="M470.4,436.1c-3.7-0.9-1.4,1.8-3.2,1.4h-0.9l1.4-6.9h0.9c1.8,0.5-0.9,1.8,2.8,2.8l24,5.1l0.5-1.8
					c1.4-6-4.6-3.7-3.7-6.5v-0.5l7.4,1.8c-0.5,0.5-0.9,1.4-0.9,1.8l-3.2,14.3c0,0.5,0,1.4,0,2.3l-7.4-1.8v-0.5
					c0.5-2.8,5.1,1.8,6-4.2l0.5-1.8L470.4,436.1z"/>
				<path fill="#ECECEC" d="M464.8,443.9"/>
			</g>
			<path fill="#ECECEC" d="M455.6,467.1"/>
			<g>
				<g>
					<path fill="#ECECEC" d="M477.3,490.2c0-0.5,0-1.4-0.5-1.8c-0.5,0-1.4-0.5-1.8-0.5l-1.4-0.5l-14.8-15.7
						c-3.7-3.7-0.9-3.7-2.3-4.6l-0.5-0.5l-2.8,5.1l0.5,0.5c1.4,0.9,1.4-1.4,2.8-0.5c0.5,0.5,1.4,1.4,1.8,1.8l1.8,2.3l-4.6,7.9
						l-3.2-0.9c-0.5,0-1.8-0.5-2.3-0.9c-1.4-0.9,0.5-1.8-0.9-2.3l-0.5-0.5l-3.7,6.5l0.5,0.5c1.8,0.9,0-0.9,4.2-0.5l26.8,6
						c0,0,0.9,0.5,0.9,0C477.8,491.6,477.3,490.6,477.3,490.2z M457.9,484.2l3.7-6.9l9.2,9.7L457.9,484.2z"/>
				</g>
			</g>
			<path fill="#ECECEC" d="M444.9,485.6"/>
			<g>
				<path fill="#ECECEC" d="M471.3,394.5"/>
				<path fill="#ECECEC" d="M471.3,395.4h0.9c1.8,0-0.5,1.8,3.2,1.8l22.7,0.5c3.7,0,1.4-1.8,3.2-1.8h0.9v6.9h-0.9
					c-1.8,0,0.5-1.8-3.2-1.8l-22.7-0.5c-3.7,0-1.4,1.8-3.2,1.8h-0.9V395.4z"/>
				<path fill="#ECECEC" d="M471.3,403.3"/>
			</g>
			<g>
				<path fill="#ECECEC" d="M409.3,524.9"/>
				<path fill="#ECECEC" d="M408.4,532.7c-3.2-5.1-3.2-0.9-4.6-3.2l-0.5-0.5l5.1-3.7l0.5,0.5c1.4,2.3-2.3,0.5,1.4,5.5l11.6,16.6
					c1.8,2.8,2.3,0,3.2,1.4l0.5,0.5l-5.1,3.7L399.2,542l8.8,12.9c3.7,5.1,3.2,0.9,4.6,3.2l0.5,0.5l-4.6,3.2l-0.5-0.5
					c-1.4-2.3,1.8-0.5-1.4-5.5L392.7,536l1.4-0.9l26.4,14.3L408.4,532.7z"/>
				<path fill="#ECECEC" d="M390.4,537.8"/>
			</g>
			<path fill="#ECECEC" d="M426.9,508.7"/>
			<g>
				<g>
					<path fill="#ECECEC" d="M436.2,521.2c-5.5-6-13.9-9.2-18.5-4.6c-4.6,4.6-2.8,12.9,2.8,19c5.5,6,13.9,9.2,18.5,4.6
						C444,535.5,441.7,527.2,436.2,521.2z M438.5,538.7c-4.2,4.2-10.6-1.8-14.8-6c-4.2-4.6-8.8-11.1-4.6-15.3
						c4.2-3.7,10.6,1.8,14.8,6C438,528.1,442.6,535,438.5,538.7z"/>
				</g>
			</g>
			<path fill="#ECECEC" d="M409.3,525.3"/>
			<g>
				<path fill="#ECECEC" d="M446.3,483.7"/>
				<path fill="#ECECEC" d="M442.6,495.7c-2.8-1.8-2.3,0.9-3.7,0l-0.5-0.5l4.2-6l0.5,0.5c1.4,0.9-1.4,1.4,1.4,3.2l20.3,13.9l0.9-1.4
					c3.2-5.1-2.8-5.1-1.4-7.4l0.5-0.5l6.5,4.2c-0.9,0.5-1.4,0.9-1.8,1.4l-8.3,12c-0.5,0.5-0.9,1.4-0.5,2.3l-6.5-4.2l0.5-0.5
					c1.4-2.3,3.7,3.2,7.4-1.4l0.9-1.4L442.6,495.7z"/>
				<path fill="#ECECEC" d="M434.8,500.8"/>
			</g>
			<g>
				<path fill="#ECECEC" d="M433.4,501.3"/>
				<path fill="#ECECEC" d="M432.5,502.2l0.5,0.5c1.4,1.4-1.4,0.9,1.4,3.2l17.1,14.3c2.8,2.3,1.8-0.5,3.7,0.5l0.5,0.5l-4.6,5.1
					l-0.5-0.5c-1.4-1.4,1.4-0.9-1.4-3.2L432,508.2c-2.8-2.3-1.8,0.5-3.7-0.5l-0.5-0.5L432.5,502.2z"/>
				<path fill="#ECECEC" d="M427.4,508.2"/>
			</g>
		</g>
		<g>
			<path fill="#ECECEC" d="M277.1,560.5l5.1-1.8l1.8,0.5l-3.7,25.9c-0.5,3.2,2.8,1.4,2.3,3.7v0.9l-8.8-1.4v-0.9
				c0.5-2.3,2.8,0.5,3.2-2.8l3.2-22.2l-3.2-0.5L277.1,560.5z"/>
			<path fill="#ECECEC" d="M340,557.2c2.3-0.5,0.9-1.8,2.3-1.8h0.5l0.9,5.5l-9.2,1.4l1.4,9.2c0.9-1.4,2.3-2.3,3.7-2.8
				c4.2-0.5,7.9,3.2,8.3,8.3c0.9,6-1.8,10.6-6.5,11.6c-2.3,0.5-6-0.9-6.5-4.6c-0.5-1.4,0.5-2.8,1.4-2.8c0.9,0,1.8,0.9,2.3,1.8
				c0,1.4-0.5,1.4-0.5,2.3c0.5,1.4,2.3,1.8,3.2,1.4c3.2-0.5,4.2-4.6,3.2-8.8c-0.5-3.7-2.3-7.9-5.5-7.4c-1.4,0.5-2.8,1.4-3.2,3.2
				l-1.4-0.5l-1.8-14.8L340,557.2z"/>
			<g>
				<g>
					<path fill="#ECECEC" d="M321.5,573.4L321.5,573.4L321.5,573.4c2.3-2.3,3.7-4.2,3.7-7.9c-0.5-4.6-3.7-6.9-6.9-6.5
						c-3.7,0.5-6.5,3.7-6,8.8c0.5,3.2,2.3,6,4.6,7.4c-2.3,1.8-5.1,3.7-4.6,7.9c0.5,4.2,2.8,7.9,7.9,7.4c5.5-0.5,7.4-6,6.9-9.7
						C326.6,576.6,324.3,574.8,321.5,573.4z M314.6,566c0-3.2,0.9-5.1,3.2-5.1c2.8,0,4.2,1.8,4.2,5.5c0,2.8-0.9,4.6-2.8,6.5
						l-0.5-0.5C316.9,570.6,315,569.2,314.6,566z M319.6,589.1c-2.8,0-4.6-1.8-5.1-5.5c-0.5-3.7,0.9-5.5,3.2-7.4l0.9,0.5
						c2.3,1.4,5.1,2.3,5.1,6.5C324.3,586.8,322.4,588.7,319.6,589.1z"/>
				</g>
			</g>
			<g>
				<g>
					<path fill="#ECECEC" d="M297.5,559.1c-4.2,0-6.9,4.6-7.4,9.7c-0.5,5.1,1.8,9.2,5.5,9.7c1.8,0,3.2-0.9,4.6-2.3
						c-0.5,4.2-1.4,13.4-5.5,12.9c-0.5,0-1.4-0.5-1.4-1.8c0-0.5,0-0.9,0-1.4c0-1.4-0.9-2.3-1.8-2.3c-0.9,0-1.8,0.9-1.8,2.3
						c0,2.8,2.3,4.2,3.7,4.2c5.5,0.5,9.7-6.9,10.2-17.1C304.4,567.4,303,559.5,297.5,559.1z M300.7,572v1.8
						c-0.5,1.8-2.8,2.8-4.2,2.8c-3.2,0-3.7-4.6-3.2-7.9c0-3.2,0.9-7.9,4.2-7.9C301.2,560.9,301.2,568.3,300.7,572z"/>
				</g>
			</g>
		</g>
		<path fill="#ECECEC" d="M383.9,486c-0.5,0.5,0,1.4,0.9,1.4c0.9,0.5,1.8,0.5,2.8,0c0.9,0,1.4-0.9,0.9-1.8
			C386.7,483.7,385.3,485.1,383.9,486z"/>
	</g>
	<g>
		<g>
			<g>
				<g>
					<path fill="#ECECEC" d="M361.7,330.2c0,0-1.4-2.3-4.6-0.5c-0.9,0.5-1.4,0.5-1.4,0.5s-2.8-1.8-4.6-2.8c-1.8-0.5-5.1,0-5.1-1.8
						s0-3.2,0-3.2c-0.9-1.4,0-2.3,0.9-3.2c0,0-2.3-2.3-2.3-3.7l1.8-0.9c0,0-1.8-1.8-2.3-3.2c-0.5-1.8,2.3-2.8,2.3-2.8
						c-0.9-0.5-1.8-0.9-1.4-1.4v-1.8l1.8-0.9l-1.8-2.3c0-0.5,0.9-1.8,1.8-1.4c0,0-0.5-0.9-1.4-2.8c-0.5-1.8,1.8-1.8,1.8-1.8
						s-0.5-0.5-1.4-2.3c-0.9-1.8,0-2.3,0.9-2.8c0,0-0.5-0.5-1.4-2.3c-0.9-1.8,1.8-1.8,1.8-1.8l-1.8-3.2c1.4-0.5,1.4-1.8,0.9-2.3
						c-0.9-0.9,0-2.3-1.4-2.8c1.4-0.5,1.4-1.8,0.9-2.3c-2.8-2.3-2.8-5.5-1.8-7.9c0.9-2.8,5.5-4.6,3.7-7.9c-1.4-2.3-2.8-5.5-6-4.6
						c-0.9,0.5-1.8,2.3-2.8,2.3c-29.1,1.4-56.4,1.4-85.5,0.9c-1.4,0-3.7-2.3-5.1-0.9c-2.8,2.8-1.8,9.2,2.3,9.7c0,0,1.8,0,3.2-1.4
						l0,0l0,0l2.8,0.5h0.5c5.1,0.9,4.6,3.7,6,12.9c1.4,8.8-1.8,29.6-0.5,51.3c0,2.3-3.7,0.5-4.2,3.7c-0.5,2.8-1.8,4.6,1.8,6.5
						l4.6-0.5c0,2.3,3.7,1.8,3.7,1.8c0.9,1.8,4.6,1.4,4.6,1.4c27.3,0,50.4,0,77.2,0c1.4,0,5.1-0.5,6.5-4.2c2.3,2.3,5.1,0,6-1.8
						C363.1,334.4,363.1,330.7,361.7,330.2z M249.8,265c0,0-2.3-1.8-2.3-3.2c0-1.8,0.5-2.3,1.8-3.7c2.3,0.5,2.8,2.8,2.3,4.2
						C251.2,263.2,250.8,265.5,249.8,265z M254,263.6c-0.5,0-2.3-1.8-0.9-3.2c0.5-0.5,2.8-0.9,2.3,1.4
						C255.8,262.7,255.4,263.6,254,263.6z M342.3,257.6c0.9-0.5,1.4,1.4,1.8,2.3c0.5,1.4-1.8,3.2-1.8,3.7
						C340.9,262.2,340.9,258.1,342.3,257.6z M339.5,258.5c0.5,0,0.5,0.9,0.5,1.8c0,0.9-0.9,0.9-1.4,0.9c-0.9,0-2.3-0.9-2.3-1.8
						C336.8,257.6,338.6,258.1,339.5,258.5z M262.8,336.7c-0.5,0.5-1.4,1.4-2.3,0.9c-1.4-0.5-0.9-2.3-0.9-3.2c0-1.4,1.8-0.9,2.3-0.9
						C263.7,333.9,263.2,335.8,262.8,336.7z M268.3,337.6c-0.9,0.5-1.8,0.5-2.8-0.9c-0.5-0.9,0-1.4,0.9-1.8c0.9,0,2.3-0.5,2.8,0.9
						C269.3,336.7,268.8,337.1,268.3,337.6z M268.3,331.6c-0.9,0.9-1.8,2.8-2.8,1.4c-2.8-4.2-2.3-6-2.3-10.6
						c-0.5-5.5,6.9-60.6-5.5-60.1c-0.9,0-0.5-2.8-0.5-2.8c26.4-0.5,49.9-0.5,75.4,0c5.1,0,8.3,7.9,9.2,13.4
						c3.2,17.6,0.9,33.8,1.8,51.3c0,0.5,0,2.3-1.4,2.3h-69.4l-2.3,1.4C269.7,329.3,269.3,330.2,268.3,331.6z M273.4,339.9
						c-0.9,0-2.8-0.9-2.3-1.4c1.4-2.8,0.9-5.5,0.5-8.3c-0.5-1.4,3.2-1.8,4.6,0C277.6,333.4,278,339.5,273.4,339.9z M352.9,337.6
						c-0.9,2.3-3.7,2.8-6,2.8c-23.6,0-69.8,0-69.8,0c6-6-1.4-11.6,0.5-11.6c25,0,68,0,68,0C350.6,328.8,355.2,331.1,352.9,337.6z
						 M361.3,334.8c0,0.5-0.9,1.4-0.9,1.4c-2.8-0.5-2.8-4.2,0-4.6C361.3,331.6,361.3,333.9,361.3,334.8z"/>
				</g>
			</g>
			<g>
				<path fill="#ECECEC" d="M327.5,279.4"/>
				<g>
					<g>
						<path fill="#ECECEC" d="M335.4,278.4l-3.2-9.2c0-0.5-0.5-0.9-0.9-0.9s-0.9,0.5-0.9,0.9l-3.2,9.2v0.5c0,0.5,0.5,0.5,0.5,0.5
							c0.5,0,0.5,0,0.5-0.5l0.5-1.8h4.6l0.5,1.8c0,0.5,0.5,0.5,0.5,0.5c0.5,0,0.5,0,0.5-0.5C335.8,278.9,335.8,278.4,335.4,278.4z
							 M329.8,276.1l1.8-6l0,0l1.8,6H329.8z"/>
					</g>
				</g>
				<g>
					<path fill="#ECECEC" d="M309,279.4"/>
					<path fill="#ECECEC" d="M311.3,278h2.8c0.5,0,0.5,0,0.5,0.5s-0.5,0.5-0.5,0.5h-3.7c-0.5,0-0.5-0.5-0.5-0.9v-9.7
						c0-0.5,0-0.9,0.5-0.9h3.7c0.5,0,0.5,0,0.5,0.5s-0.5,0.5-0.5,0.5h-2.8v3.7h2.8c0.5,0,0.5,0,0.5,0.5s-0.5,0.5-0.5,0.5h-2.8V278z"
						/>
					<path fill="#ECECEC" d="M315.5,279.4"/>
				</g>
				<g>
					<path fill="#ECECEC" d="M284,279.4"/>
					<path fill="#ECECEC" d="M285.9,278.9c0,0.5-0.5,0.9-0.5,0.9c-0.5,0-0.5-0.5-0.5-0.9v-9.7c0-0.5,0.5-0.9,0.5-0.9
						c0.5,0,0.5,0.5,0.5,0.9V278.9z"/>
					<path fill="#ECECEC" d="M286.8,279.4"/>
				</g>
				<g>
					<path fill="#ECECEC" d="M274.8,279.4"/>
					<path fill="#ECECEC" d="M276.6,278.4h2.8c0.5,0,0.5,0,0.5,0.5s-0.5,0.5-0.5,0.5h-3.2c-0.5,0-0.5-0.5-0.5-0.9v-9.7
						c0-0.5,0.5-0.9,0.5-0.9c0.5,0,0.5,0.5,0.5,0.9V278.4z"/>
					<path fill="#ECECEC" d="M279.9,279.4"/>
				</g>
				<path fill="#ECECEC" d="M318.3,279.8"/>
				<g>
					<g>
						<path fill="#ECECEC" d="M324.7,278.4l-3.2-3.7h0.5c1.4,0,2.8-0.9,2.8-3.2c0-1.8-1.4-2.8-3.2-2.8h-2.3c-0.5,0-0.5,0.5-0.5,0.9
							v9.7c0,0.5,0.5,0.9,0.5,0.9c0.5,0,0.5-0.5,0.5-0.9v-4.2l3.7,4.6l0.5,0.5c0.5,0,0.5,0,0.5-0.5
							C325.2,278.9,325.2,278.9,324.7,278.4z M320.1,269.6h1.8c0.9,0,1.8,0.9,1.8,1.8c0,1.4-0.5,1.8-1.8,1.8h-1.8V269.6z"/>
					</g>
				</g>
				<path fill="#ECECEC" d="M325.2,279.8"/>
				<g>
					<path fill="#ECECEC" d="M289.6,279.4"/>
					<path fill="#ECECEC" d="M292.4,269.6h-1.8c-0.5,0-0.5,0-0.5-0.5s0.5-0.5,0.5-0.5h5.1c0.5,0,0.5,0,0.5,0.5s-0.5,0.5-0.5,0.5
						h-1.8v9.2c0,0.5,0,0.9-0.5,0.9s-0.5-0.5-0.5-0.9v-9.2H292.4z"/>
					<path fill="#ECECEC" d="M296.1,279.4"/>
				</g>
				<g>
					<path fill="#ECECEC" d="M298.8,279.4"/>
					<path fill="#ECECEC" d="M301.2,269.6h-1.8c-0.5,0-0.5,0-0.5-0.5s0.5-0.5,0.5-0.5h5.1c0.5,0,0.5,0,0.5,0.5s-0.5,0.5-0.5,0.5
						h-1.8v9.2c0,0.5-0.5,0.9-0.5,0.9c-0.5,0-0.5-0.5-0.5-0.9v-9.2H301.2z"/>
					<path fill="#ECECEC" d="M304.9,279.4"/>
				</g>
				<path fill="#ECECEC" d="M327,300.6"/>
				<g>
					<g>
						<path fill="#ECECEC" d="M335.4,299.2l-3.2-9.2c0-0.5-0.5-0.9-0.9-0.9s-0.9,0.5-0.9,0.9l-3.2,9.2v0.5c0,0.5,0.5,0.5,0.5,0.5
							c0.5,0,0.5,0,0.5-0.5l0.5-1.8h4.6l0.5,1.8c0,0.5,0.5,0.5,0.5,0.5c0.5,0,0.5,0,0.5-0.5C335.8,299.7,335.4,299.7,335.4,299.2z
							 M329.4,296.9l1.8-6l0,0l1.8,6H329.4z"/>
					</g>
				</g>
				<path fill="#ECECEC" d="M335.8,300.6"/>
				<g>
					<path fill="#ECECEC" d="M284,300.6"/>
					<path fill="#ECECEC" d="M289.1,299.2c1.4,0,2.3-0.9,2.8-0.9s0.5,0.5,0.5,0.5c0,0.9-1.4,1.4-3.2,1.4c-2.8,0-4.2-2.8-4.2-5.5
						s1.4-5.5,4.6-5.5c1.8,0,2.8,0.9,2.8,1.4c0,0.5,0,0.5-0.5,0.5s-0.9-0.9-2.3-0.9c-2.3,0-3.2,2.3-3.2,4.6
						C285.9,296.9,286.8,299.2,289.1,299.2z"/>
					<path fill="#ECECEC" d="M292.4,300.6"/>
				</g>
				<g>
					<path fill="#ECECEC" d="M305.3,300.6"/>
					<path fill="#ECECEC" d="M307.2,299.7c0,0.5-0.5,0.9-0.5,0.9c-0.5,0-0.5-0.5-0.5-0.9V290c0-0.5,0.5-0.9,0.5-0.9
						c0.5,0,0.5,0.5,0.5,0.9V299.7z"/>
					<path fill="#ECECEC" d="M308.1,300.6"/>
				</g>
				<path fill="#ECECEC" d="M310.9,300.6"/>
				<g>
					<g>
						<path fill="#ECECEC" d="M314.6,289.5h-2.3c-0.5,0-0.5,0.5-0.5,0.9v9.7c0,0.5,0.5,0.9,0.5,0.9c0.5,0,0.5-0.5,0.5-0.9v-3.7h1.8
							c1.8,0,3.2-1.4,3.2-3.2C317.8,290.9,316.9,289.5,314.6,289.5z M314.6,295.1h-1.8v-4.6h1.8c1.4,0,2.3,1.4,2.3,2.3
							C316.9,294.1,315.9,295.1,314.6,295.1z"/>
					</g>
				</g>
				<path fill="#ECECEC" d="M317.8,300.6"/>
				<path fill="#ECECEC" d="M294.7,300.6"/>
				<g>
					<g>
						<path fill="#ECECEC" d="M301.6,299.7l-3.2-3.7h0.5c1.4,0,2.8-0.9,2.8-3.2c0-1.8-1.4-2.8-3.2-2.8h-2.3c-0.5,0-0.5,0.5-0.5,0.9
							v9.7c0,0.5,0.5,0.9,0.5,0.9c0.5,0,0.5-0.5,0.5-0.9v-4.2l3.7,4.6l0.5,0.5c0.5,0,0.5,0,0.5-0.5
							C301.6,299.7,301.6,299.7,301.6,299.7z M296.5,290.4h1.8c0.9,0,1.8,0.9,1.8,1.8c0,1.4-0.5,1.8-1.8,1.8h-1.8V290.4z"/>
					</g>
				</g>
				<path fill="#ECECEC" d="M302.1,300.6"/>
				<g>
					<path fill="#ECECEC" d="M274.8,300.6"/>
					<path fill="#ECECEC" d="M280.3,290.9c0,0.5,0,0.5-0.5,0.5s-0.9-0.9-1.8-0.9c-0.9,0-1.4,0.5-1.4,1.4c0,2.3,4.6,1.4,4.6,5.1
						c0,1.8-1.4,3.7-3.2,3.7c-1.4,0-2.8-0.5-2.8-1.4c0-0.5,0-0.9,0.5-0.9s0.9,0.9,2.3,0.9c1.4,0,1.8-0.9,1.8-2.3
						c0-2.8-4.6-1.4-4.6-5.1c0-1.4,0.9-2.8,2.8-2.8C279,289.5,280.3,290,280.3,290.9z"/>
					<path fill="#ECECEC" d="M281.3,300.6"/>
				</g>
				<g>
					<path fill="#ECECEC" d="M320.1,300.6"/>
					<path fill="#ECECEC" d="M322.4,290.9h-1.8c-0.5,0-0.5,0-0.5-0.5s0.5-0.5,0.5-0.5h5.1c0.5,0,0.5,0,0.5,0.5s-0.5,0.5-0.5,0.5
						h-1.8v9.2c0,0.5,0,0.9-0.5,0.9s-0.5-0.5-0.5-0.9v-9.2H322.4z"/>
					<path fill="#ECECEC" d="M326.1,300.6"/>
				</g>
				<path fill="#ECECEC" d="M291.4,321.4"/>
				<g>
					<g>
						<path fill="#ECECEC" d="M299.8,320l-3.2-9.2c0-0.5-0.5-0.9-0.9-0.9s-0.9,0.5-0.9,0.9l-3.2,9.2v0.5c0,0.5,0.5,0.5,0.5,0.5
							c0.5,0,0.5,0,0.5-0.5l0.5-1.8h4.6l0.5,1.8c0,0.5,0.5,0.5,0.5,0.5c0.5,0,0.5,0,0.5-0.5C299.8,320.5,299.8,320.5,299.8,320z
							 M293.8,317.7l1.8-6l0,0l1.8,6H293.8z"/>
					</g>
				</g>
				<path fill="#ECECEC" d="M299.8,321.4"/>
				<g>
					<path fill="#ECECEC" d="M315.9,321.4"/>
					<path fill="#ECECEC" d="M318.3,320h2.8c0.5,0,0.5,0,0.5,0.5S321,321,321,321h-3.7c-0.5,0-0.5-0.5-0.5-0.9v-9.7
						c0-0.5,0-0.9,0.5-0.9h3.7c0.5,0,0.5,0,0.5,0.5s-0.5,0.5-0.5,0.5h-2.8v3.7h2.8c0.5,0,0.5,0,0.5,0.5S321,315,321,315h-2.8
						L318.3,320L318.3,320z"/>
					<path fill="#ECECEC" d="M322.4,321.4"/>
				</g>
				<g>
					<path fill="#ECECEC" d="M276.2,321.4"/>
					<path fill="#ECECEC" d="M277.6,321c0,0.5-0.5,0.5-0.5,0.5c-0.5,0-0.5-0.5-0.5-0.5v-0.5l1.4-8.8c0-0.9,0.5-0.9,0.9-0.9
						s0.9,0,0.9,0.9l2.3,8.3l0,0l2.3-8.3c0-0.5,0.5-0.9,0.9-0.9s0.9,0.5,0.9,0.9l1.4,8.8c0,0.5,0,0.5,0,0.5c0,0.5,0,0.5-0.5,0.5
						s-0.5,0-0.5-0.5l-1.4-8.8l0,0l-2.3,8.8c0,0.5-0.5,0.5-0.5,0.5c-0.5,0-0.5,0-0.5-0.5l-2.3-8.8l0,0L277.6,321z"/>
					<path fill="#ECECEC" d="M287.7,321.4"/>
				</g>
				<g>
					<path fill="#ECECEC" d="M303,321.4"/>
					<path fill="#ECECEC" d="M304.9,320.5c0,0.5-0.5,0.9-0.5,0.9c-0.5,0-0.5-0.5-0.5-0.9v-9.7c0-0.5,0-0.9,0.5-0.9s0.5,0,0.9,0.9
						l5.1,7.9l0,0v-7.9c0-0.5,0.5-0.9,0.5-0.9c0.5,0,0.5,0.5,0.5,0.9v9.7c0,0.5,0,0.9-0.5,0.9s-0.5,0-0.9-0.9l-5.1-7.9l0,0V320.5z"
						/>
					<path fill="#ECECEC" d="M312.2,321.4"/>
				</g>
				<g>
					<path fill="#ECECEC" d="M326.1,321.4"/>
					<path fill="#ECECEC" d="M328.9,311.7H327c-0.5,0-0.5,0-0.5-0.5s0.5-0.5,0.5-0.5h5.1c0.5,0,0.5,0,0.5,0.5s-0.5,0.5-0.5,0.5h-1.8
						v9.2c0,0.5-0.5,0.9-0.5,0.9c-0.5,0-0.5-0.5-0.5-0.9v-9.2H328.9z"/>
					<path fill="#ECECEC" d="M332.6,321.4"/>
				</g>
			</g>
		</g>
		<g>
			<g>
				<g>
					<path fill="#ECECEC" d="M306.7,477.2C306.7,477.2,306.7,476.8,306.7,477.2c-0.5-4.6,5.5-5.1,5.5-5.1h17.6c3.2,0,6-0.9,7.4-2.8
						c1.8-2.3,1.8-5.1,1.8-5.1v-68h-32.4c0,0-0.5,0-0.5-0.5s0-0.5,0.5-0.5h32.8v68.9c0,0,0.5,3.2-1.8,5.5c-1.8,1.8-4.2,2.8-7.9,2.8
						h-17.6C312.2,472.6,307.2,473.1,306.7,477.2C307.2,476.8,307.2,477.2,306.7,477.2z"/>
				</g>
				<g>
					<g>
						<path fill="#ECECEC" d="M306.7,477.2C306.7,477.2,306.2,476.8,306.7,477.2c-0.5-4.2-5.5-4.6-5.5-4.6h-17.6
							c-3.7,0-6.5-0.9-7.9-2.8c-2.3-2.3-1.8-5.5-1.8-5.5v-68.4h32.8c0,0,0.5,0,0.5,0.5s0,0.5-0.5,0.5h-32.4v68c0,0-0.5,2.8,1.8,5.1
							c1.4,1.8,4.2,2.8,7.4,2.8h17.6C301.2,471.7,307.2,472.6,306.7,477.2C307.2,476.8,306.7,477.2,306.7,477.2z"/>
					</g>
					<g>
						<path fill="#ECECEC" d="M339.5,419.9h-65.7c0,0-0.5,0-0.5-0.5s0-0.5,0.5-0.5h65.7C339.5,419.4,340,419.4,339.5,419.9
							C340,419.9,339.5,419.9,339.5,419.9z"/>
					</g>
					<g>
						<path fill="#ECECEC" d="M339.5,416.7h-65.7c0,0-0.5,0-0.5-0.5s0-0.5,0.5-0.5h65.7C339.5,415.7,340,415.7,339.5,416.7
							C340,416.2,339.5,416.7,339.5,416.7z"/>
					</g>
					<g>
						<path fill="#ECECEC" d="M339.5,413h-65.7c0,0-0.5,0-0.5-0.5s0-0.5,0.5-0.5h65.7C339.5,412.5,340,412.5,339.5,413
							C340,413,339.5,413,339.5,413z"/>
					</g>
					<g>
						<path fill="#ECECEC" d="M339.5,409.7h-65.7c0,0-0.5,0-0.5-0.5s0-0.5,0.5-0.5h65.7C339.5,408.8,340,409.3,339.5,409.7
							C340,409.3,339.5,409.7,339.5,409.7z"/>
					</g>
					<g>
						<path fill="#ECECEC" d="M339.5,406h-65.7c0,0-0.5,0-0.5-0.5s0-0.5,0.5-0.5h65.7C339.5,405.6,340,405.6,339.5,406
							C340,406,339.5,406,339.5,406z"/>
					</g>
					<g>
						<path fill="#ECECEC" d="M339.5,402.8h-65.7c0,0-0.5,0-0.5-0.5s0-0.5,0.5-0.5h65.7C339.5,401.9,340,402.3,339.5,402.8
							C340,402.3,339.5,402.8,339.5,402.8z"/>
					</g>
					<g>
						<path fill="#ECECEC" d="M339.5,399.1h-65.7c0,0-0.5,0-0.5-0.5s0-0.5,0.5-0.5h65.7C339.5,398.6,340,398.6,339.5,399.1
							C340,399.1,339.5,399.1,339.5,399.1z"/>
					</g>
					<g>
						<path fill="#ECECEC" d="M333.1,472.1C333.1,472.1,332.6,472.1,333.1,472.1l-0.5-52.7c0,0,0-0.5,0.5-0.5s0.5,0,0.5,0.5
							L333.1,472.1C333.5,472.1,333.1,472.1,333.1,472.1z"/>
						<path fill="#ECECEC" d="M329.8,472.1C329.4,472.1,329.4,472.1,329.8,472.1l-0.5-52.7c0,0,0-0.5,0.5-0.5s0.5,0,0.5,0.5
							L329.8,472.1L329.8,472.1z"/>
						<path fill="#ECECEC" d="M323.3,472.1L323.3,472.1l-0.5-52.7c0,0,0-0.5,0.5-0.5s0.5,0,0.5,0.5L323.3,472.1
							C323.8,472.1,323.8,472.1,323.3,472.1z"/>
						<path fill="#ECECEC" d="M320.1,472.1C320.1,472.1,319.6,472.1,320.1,472.1l-0.5-52.7c0,0,0-0.5,0.5-0.5s0.5,0,0.5,0.5
							L320.1,472.1C320.6,472.1,320.1,472.1,320.1,472.1z"/>
						<path fill="#ECECEC" d="M314.1,472.1C314.1,472.1,313.6,472.1,314.1,472.1l-0.5-52.7c0,0,0-0.5,0.5-0.5s0.5,0,0.5,0.5
							L314.1,472.1C314.6,472.1,314.1,472.1,314.1,472.1z"/>
						<path fill="#ECECEC" d="M310.4,473.1C310.4,473.1,310.4,472.6,310.4,473.1l-0.5-53.2c0,0,0-0.5,0.5-0.5s0.5,0,0.5,0.5
							L310.4,473.1C310.9,472.6,310.9,473.1,310.4,473.1z"/>
					</g>
					<g>
						<path fill="#ECECEC" d="M280.3,472.1L280.3,472.1l-0.5-52.7c0,0,0-0.5,0.5-0.5s0.5,0,0.5,0.5L280.3,472.1
							C280.8,472.1,280.8,472.1,280.3,472.1z"/>
						<path fill="#ECECEC" d="M284,472.1C283.6,472.1,283.6,472.1,284,472.1l-0.5-52.7c0,0,0-0.5,0.5-0.5s0.5,0,0.5,0.5L284,472.1
							C284.5,472.1,284,472.1,284,472.1z"/>
						<path fill="#ECECEC" d="M290.1,472.1C290.1,472.1,289.6,472.1,290.1,472.1l-0.5-52.7c0,0,0-0.5,0.5-0.5s0.5,0,0.5,0.5
							L290.1,472.1C290.5,472.1,290.1,472.1,290.1,472.1z"/>
						<path fill="#ECECEC" d="M293.3,472.1L293.3,472.1l-0.5-52.7c0,0,0-0.5,0.5-0.5c0.5,0,0.5,0,0.5,0.5L293.3,472.1
							C293.8,472.1,293.8,472.1,293.3,472.1z"/>
						<path fill="#ECECEC" d="M299.3,472.1L299.3,472.1l-0.5-52.7c0,0,0-0.5,0.5-0.5s0.5,0,0.5,0.5L299.3,472.1
							C299.8,472.1,299.8,472.1,299.3,472.1z"/>
						<path fill="#ECECEC" d="M303,473.1C302.5,473.1,302.5,472.6,303,473.1l-0.5-53.2c0,0,0-0.5,0.5-0.5s0.5,0,0.5,0.5L303,473.1
							C303.5,472.6,303,473.1,303,473.1z"/>
					</g>
				</g>
			</g>
			<g>
				<g>
					<path fill="#ECECEC" d="M256.8,391.2c-1.4-2.3,1.4-14.8,1.4-14.8s3.7-5.5,4.6-9.2c0.5-3.2,0.9-5.1-4.6-12.5
						c-13.4-18-38.8-28.7-38.8-28.7c-9.2-11.1-28.7-14.8-32.4-14.8c-3.7,0-4.6,0.9-5.1,2.8s13.9,13.4,13.9,13.4l-1.4,0.9
						c0,0-0.5,0.9,0,2.8s10.2,8.3,8.3,9.2c-1.8,0.9-2.8,1.8-2.3,3.2c0.5,1.4,7.9,8.8,7.9,8.8l-2.8,3.2c0,0,6.5,6,5.1,6
						c-1.4,0-4.2,4.6-4.2,4.6l3.2,4.6l-2.8,3.7l3.7,4.6c0,0-2.3,3.7-2.3,4.6c0,1.4,5.5,4.2,5.5,4.2c-1.8,0.5-3.2,4.6-3.2,4.6
						l4.2,4.2c0,0-1.8,2.8-1.4,4.2c0.5,1.4,4.2,3.2,4.2,3.2s-1.8,2.8-2.3,4.2c-0.5,1.4,6,4.2,6,4.2l-0.5,4.2l4.6,1.8l0.5,6.5l6,1.8
						l0.9,4.2l5.1,0.5l0.9,6l5.5,0.5l1.4,4.2l7.9-0.5c0,0,1.8,5.1,2.8,5.5s5.1-3.2,5.1-3.2s3.2,3.7,4.6,3.7c1.4,0,6.5-6,6.5-6V406
						C264.6,403.3,258.2,393.6,256.8,391.2z M186,314.5c0,0,0-1.4,1.4-1.4c1.8,0,26.8,7.4,29.6,12.9c0,0,0,1.8-0.9,1.4
						c-0.5-0.5-21.7-12.5-25-11.1c0,0-0.5,0.5,0,0.9s12.9,8.8,15.3,9.7c2.3,1.4,2.3,2.3,2.3,2.3C204.5,328.8,186.5,319.1,186,314.5z
						 M212.4,328.4L212.4,328.4c-0.5,0-8.3-3.7-9.7-5.1c-1.4-1.4-1.4-0.9-0.5-0.9c0.5,0,0.9,0,1.4,0c0.5,0,8.3,3.7,9.2,4.6
						C213.3,327.9,212.4,328.4,212.4,328.4z M196.7,329.7c6.9-2.3,15.3,1.4,20.3,6.5c0.5,0.5-0.5,1.8-0.5,1.4
						c-4.6-1.8-9.2-3.7-13.4-6c0.9,4.6,5.5,3.7,8.3,5.5c2.3,1.8,5.1,2.3,7.4,4.2l-0.5,1.4C210.1,339.9,201.7,337.1,196.7,329.7z
						 M204.1,342.7c-0.5-1.4,0.9-2.3,1.8-2.3c6.5-0.5,11.1,3.7,16.6,6.9c0.5,0.5,0,1.4-0.9,1.4c-4.6-0.5-7.9-3.2-12.5-4.2
						c0.5,4.2,5.1,3.2,7.4,5.1c1.8,1.4,5.5,0.5,7.4,2.3c0,0-0.5,1.4-0.9,1.4C215.6,351.9,207.3,351,204.1,342.7z M226.7,342.2
						c0,0.5,0.5,0.9,0.9,1.4c0.9,0.5,8.3,2.8,9.7,5.1c1.4,2.3,1.4,1.8,1.4,1.8c-2.3,0-16.2-4.2-17.6-9.7c0,0,0-1.4,0.9-1.4
						c0.9-0.5,6.9-1.4,10.6,1.8c0,0,1.4,1.8,0.9,2.3c-0.5,0-2.8,0-3.7-0.5c-0.5-0.5-3.2-1.8-3.2-1.4
						C226.3,342.2,226.3,341.8,226.7,342.2z M245.7,405.6c0,0.9-1.4,2.8-3.2,2.8c-3.7-0.5-1.4-3.2-2.3-5.1c-0.5-0.9-1.4,1.4-2.3,1.4
						c-1.8-0.5-2.3-2.3-1.8-4.2c0.5-1.4,2.3-1.8,3.7-2.8c0.9-0.5,1.4,0,1.8,0.9c-0.5,0.5-1.4,0.9-0.9,1.8c1.4,1.4,4.2-1.8,3.7,0
						C244.3,402.8,246.1,403.7,245.7,405.6z M248.9,410.2c0-0.5,0.5-1.8,0.9-1.8c2.3,0,1.4,4.6,1.4,6c0,2.3,4.6-4.2,4.2-0.9
						c0,1.4-0.9,3.2-3.7,4.6c-0.9,0.5-1.8,1.4-2.8,0.5c-2.3-1.8,0-4.6,0.5-6.9C249.8,411.1,248.9,410.7,248.9,410.2z M259.5,414.4
						c1.8,4.6-2.3,7.9-3.2,7.4c-5.5-3.2,0-4.6,0.5-7.4c1.4,0.5,0.5,2.8,0.5,3.7C257.2,416.7,259.1,415.3,259.5,414.4z M248.4,410.7
						c-0.9,0.9-2.8,1.4-3.7,2.8c-0.5-0.5-1.4-0.9-1.8-1.8c-0.9-2.8,1.8-3.7,3.7-5.1c0.5-0.5,1.4,0,1.8,0.9s-0.5,1.4-0.9,1.8
						C247.1,409.7,247.5,410.2,248.4,410.7z M243.4,394.9c0.5,2.3-2.3,1.8-4.2,2.3c-2.3,0.9-6.5-0.5-5.1-3.2
						c0.5-0.9,2.3-3.2,4.2-0.9c0,0-0.5,0.5-0.9,0.9C239.2,395.4,242.4,392.2,243.4,394.9z M242.9,388c-1.8,0.5-3.7,0-5.1,0
						c1.4,1.8,5.5,0.5,4.6,2.3c-1.4,2.8-7.9,1.4-8.3-1.4c-0.9-3.7,6.5-5.1,9.7-2.3C244.3,386.6,243.4,387.5,242.9,388z M239.2,364
						c-3.7,0.9-7.9,0.5-9.7-2.8c-0.9-1.4,0-3.7,1.8-4.2c3.7-1.4,6.5,1.4,9.7,3.2c-0.5,0.5-0.5,0.5-0.9,0.9c-1.4,1.8-3.7-2.3-4.2,0
						C236,362.6,238.3,362.6,239.2,364z M238.3,366.3c0.9,0.5,2.8,0,3.7,1.4c0.5,0.9,0,1.4-0.9,1.8c-1.8,0.9-3.7-1.4-5.1-0.5
						c-0.5,0.5,0,1.4,0.9,1.4c1.4,0.5,6.5,0.9,4.2,2.3c-0.9,0.5-8.8,0.5-9.7-3.2C229,364.9,235.5,365.3,238.3,366.3z M232.3,374.6
						c0.5-0.5,0.5-0.9,1.4-0.9c0.5,0,1.4-0.5,2.3,0s2.3,0.5,2.3,1.4h-1.8c0,0-1.4-0.5-1.8,0c0,0.5-0.5,0.9,0,0.9s1.4,0,1.8,0
						c0.9,0,1.4,0.5,1.4,0.5c0,0.9-1.4,0.9-3.2,0.5c-1.8-0.5-1.8,0.5-2.8-0.5C232.3,376,231.8,375.1,232.3,374.6z M237.3,378.3
						c0.5,0,1.4,0.9,0.9,1.4c-0.5,0.5-3.7,1.4-2.8,1.8c0.5,0.5,4.6,0,4.6,0.9c-1.8,2.8-6.5,2.8-6.9-0.9
						C232.3,379.7,235,378.3,237.3,378.3z M242,357c-0.5,0-2.3-1.4-3.2-1.8s-3.7-2.3-4.6-2.8s-2.3-1.4-3.2-0.9
						c-0.9,0.5-1.4,0-0.9,0.5c0.5,0.5,0.5,0.9,1.4,1.4c0.9,0.5,1.8,0.9,2.8,1.4c0.5,0,1.4,0.9,2.3,0.9c0.5,0,1.8,0.5,2.3,0.9
						s0.9,0.9,0.9,0.9c-1.4,0-6-0.9-9.2-2.3c-3.2-1.8-4.6-3.2-4.2-4.2c0-0.9,1.4-0.9,2.3-1.4c0.9,0,6,0.5,8.3,1.8s5.5,3.2,6,4.2
						C242.9,357,242.4,356.6,242,357z M209.6,355.2c-0.9-1.4,1.8-2.8,2.3-2.8c5.1,0.5,9.7,2.3,14.3,4.6c-0.5,0.5-1.4,1.8-1.8,1.4
						c-3.2-0.9-6.5-2.8-9.7-3.2c2.3,5.5,10.2,2.8,14.3,6.9C221.2,363.5,213.3,361.2,209.6,355.2z M213.8,362.1
						c5.1,1.4,10.6,1.4,14.8,4.6c-3.7,4.6-8.3-3.7-13.4-0.9c3.2,1.4,6.5,2.3,9.7,4.6c-5.1,0.5-13.4,0.5-13.9-6
						C211,362.6,213.3,363.5,213.8,362.1z M210.5,373.2c0,0-0.5-0.5,0-0.9c0.5,0,0.9-0.9,1.8-0.9c0.9,0,8.8,0.5,10.2,0.9
						c1.4,0.5,6,1.8,6,2.3s0,0.9-0.5,0.9c-0.5,0-0.9,0-1.4,0c-0.5,0-4.2-1.4-4.6-1.4s-3.7-0.9-4.2-0.9s-2.8-0.5-3.7-0.5
						c-0.9,0-1.4,0-1.4,0s0,0.5,0,0.9s0,0.9,0,1.4c0.5,0,0.5,0,1.4,0.5c0.9,0.5,1.4,0.5,2.3,0.9s1.4,0.5,2.3,0.5s5.5,1.4,6,1.4
						c0.5,0,2.3,0.9,2.3,1.4c0,0,0,0.9-0.9,0.9s-0.9,0-1.8,0C224.9,379.7,211.5,377.4,210.5,373.2z M213.8,383.4
						c-0.5-0.9-0.9-1.4-0.5-2.3c0-0.9,0-1.4,0.9-1.4s2.3,0,2.8,0.5c0.9,0,6.5,0.9,6.9,1.4c0.5,0.9,0,0.9,0,1.4c0,0-0.5,0.5-1.4,0.5
						c-0.9,0-1.4-0.5-1.8-0.5s-2.3-0.5-2.3-0.5s-1.8-0.9-2.3-0.5s-0.5,0.5-0.5,0.9c0.5,0.9,0.5,0.9,0.9,0.9c0,0.5,4.6,0.9,5.1,1.4
						c0.9,0,0.9,0.5,1.4,0.5l0.5,0.9c-0.5,0.5,0,0.5-0.9,0.5s-2.3,0-2.8,0c-0.5-0.5-2.8,0-4.2-0.9
						C215.2,384.8,214.2,383.8,213.8,383.4z M215.2,390.3c0-0.9,0-1.8,0.5-1.8c0.9,0,6.9-0.5,8.8,0c1.8,0.5,1.4,0.9,1.8,0.9
						c0,0.5,0,0.5-0.5,0.5c0,0-6.9-0.5-7.4,0c-0.5,0.9-0.5,0.5-0.5,0.9c0,0,0,0.5,0.5,0.9c0.5,0,5.1,0,6,0c0.9,0,2.3-0.5,2.3,0
						c0.5,0.5,0,0.5-0.5,0.5s-3.7,0-3.7,0c-0.5,0-4.6,0.5-6-0.5C215.6,391.2,215.2,391.2,215.2,390.3z M217.9,399.1
						c0-0.5-1.4-0.9-1.4-1.4c0-0.5,0.5-1.8,0.9-1.8s3.2-0.5,4.2-0.5c0.9,0,2.3-0.9,3.7-0.9s1.4,0.5,1.4,0.5s-0.5,0.5-0.9,0.5
						s-0.9,0.5-1.4,0.5c-0.5,0-2.3,0-2.8,0.5s-0.9,0-0.9,0.9c0,0.5,0,0.5,0.5,0.9s0,0,0.9,0.5s5.1-0.5,5.5-0.5
						c0.9,0,3.2-0.5,3.7-0.5c0.5,0,0.9,0.9,0.9,0.9c0,0.5,0,0.9-0.5,0.9s-3.2,0.9-3.7,0.9c-0.5,0-6.9,0.5-7.4,0
						C218.9,399.6,217.9,399.6,217.9,399.1z M220.2,405.6L220.2,405.6c0,0,0-0.5,0-1.4c0-2.3,6.9-2.8,8.8-2.8c1.8,0,2.3,0.5,2.3,0.5
						s-1.4,0.5-1.8,0.9c-0.5,0-0.9,0.5-1.8,0.5c-0.9,0-0.9,0-1.8,0c-0.9,0-1.4,0-2.3,0.5c-0.5,0.5-0.5,0.5-0.5,1.4
						c0,0.9,0.5,0.5,0.9,0.5c0.5,0,1.8,0,2.3-0.5c0.5,0,1.4-0.5,1.8-0.5c0.9,0,0.9,0,1.8,0c0.9,0,0.5,0,0.9,0.5
						c0,0.5-0.5,0.5-0.9,0.9s-4.2,0.9-4.6,1.4c-0.5,0.5-1.8,0-3.2-0.5C221.2,407.4,220.7,406,220.2,405.6z M225.3,413.4
						c-0.9-0.5-0.9-1.4-0.5-2.3c0-0.9,1.8-2.3,2.8-2.8s3.2,0,3.2,0.5c0,0-0.5,0.9-0.9,0.9c-0.5,0.5-0.5,0-1.4,0.5
						c-0.5,0-0.9,0-1.4,0c-0.5,0,0,0,0,0.9c0,0.5,0,0.5,0.5,0.9c0.5,0,1.8,0,2.8,0s3.2-1.8,3.7-1.8c0.5,0,1.4,0,1.8,0s0,0.5,0,0.9
						c-0.5,0.5-3.7,2.8-5.1,2.8S226.3,413.9,225.3,413.4z M231.8,421.3c-2.8-0.5-2.8-0.9-2.8-1.4c0-0.5,0.5-2.3,1.8-3.2
						s5.1-3.7,5.5-3.2c0.9,0.5,0.5,0.5,0.5,0.5s-1.4,1.4-1.8,1.8s-1.8,0.9-2.3,1.4c-0.5,0.5-1.4,0.5-0.9,0.9c0,0.5,0,0.9,0.5,0.9
						s0.9,0.5,1.4,0c0.5,0,4.2-3.2,4.6-3.7c0.5-0.5,0.5-0.9,1.8-0.5c0.5,0,0.5,1.4,0,1.4C240.1,416.7,234.6,421.8,231.8,421.3z
						 M237.3,427.3c-1.8-0.5-2.3-0.9-2.3-1.8c0-0.9,0-1.8,0.5-2.8c0.9-0.9,6.5-5.5,7.4-5.5c0.9,0,0.9,0,0.9,0c0,0.5,0,0.9,0,0.9
						c-0.5,0.5-5.1,3.7-5.1,4.6s0,0.9,0,0.9s1.4,0.9,5.5-2.3c1.4-1.4,1.8-0.5,1.8,0c0,0,0,0.5,0,0.9
						C245.7,421.8,239.2,427.8,237.3,427.3z M244.3,433.3c-1.4-0.5-2.3-1.4-2.3-2.3c-0.5-0.9,0.5-2.8,0.9-3.2
						c0.5-0.9,5.5-5.5,5.5-5.5s1.8-0.5,1.8,0s0,0.9-0.5,0.9c-0.5,0.5-5.1,4.6-5.1,5.1c0,0.9,0,0.9,0,1.4c0,0.5,0.9,0.5,1.8,0
						c0.9-0.5,1.8-1.8,2.3-2.3s1.4-0.9,1.8-0.9c0,0.5,0.5,1.4,0,1.8C250.8,428.2,245.7,433.8,244.3,433.3z M254.5,435.6
						c-3.2,1.8-2.8,1.4-3.2,1.4s-1.8-0.9-1.8-1.8c0-1.4-0.5-1.8,0.9-2.8c1.4-0.9,4.2-5.1,4.6-4.6c0.5,0,0.5-0.5,0.9,0
						c0,0.5,0,0.9,0,0.9s-0.5,1.4-0.9,1.4c-0.5,0.5-3.2,2.3-3.2,3.7c0,0.9-0.5,1.4,0,1.8c0.5,0,0.9,0.5,1.4,0c0.5,0,2.3-1.4,3.2-3.2
						c1.4-1.8,2.8-6,3.2-5.5c0.5,0.5,0.5,1.4,0.9,1.4C260,428.2,257.7,433.8,254.5,435.6z M263.2,438.4c-0.9,0.9-0.9,1.4-1.8,1.8
						c-0.9,0.5-1.8,1.4-1.8,1.4h-1.4c0,0-0.5-1.8-0.5-4.6s0.5-2.8,1.4-4.2c0.9-1.4,1.8-3.2,2.3-3.7c0.5-0.5,1.4-1.4,1.4-1.4l0.5,0.9
						c0,0-1.8,2.3-3.2,4.6c-0.9,2.3-1.4,3.2-1.4,4.6c0,1.4,0,1.8,0,1.8s0.9-0.5,1.8-1.4c0.5-0.9,1.4-1.8,1.8-2.8s0.5-0.5,0.9-2.3
						c0.5-1.4,0.9-2.8,0.9-2.8l0.9-0.5c0,0,0.5,1.4,0,3.7C265.1,435.2,264.2,437.5,263.2,438.4z M262.8,419c2.3,1.4,0.9-2.3,2.8-2.8
						c0.9-0.5,1.8,0.5,1.4,0.9c-1.8,2.3-0.5,3.2-1.4,6.5c-0.9,2.3-4.6,0.9-5.1-0.9c-0.9-2.3,0-4.2,1.8-6
						C262.8,415.7,262.3,418.5,262.8,419z M272.9,436.5c0,0.9-1.4,3.7-1.8,4.2c-1.4,1.4-2.3,1.4-3.2,1.8c-0.9,0-2.3-1.8-2.3-1.8
						s-0.9-1.4-0.5-2.3s3.2-7.4,4.2-8.3c0.9-0.5,1.4,1.4,1.4,1.4l-2.3,4.2c0,0-0.9,1.8-0.5,4.2c0,0.9,0.5,0.9,0.5,0.9
						s0.9-1.4,1.8-3.2c0.9-1.8,1.4-3.7,1.4-3.7s-0.5-1.8,0.9-1.4C272.5,433.3,272.9,435.6,272.9,436.5z M272,425
						c-1.8,1.4-3.7,0.9-4.2-0.9c-0.5-2.8-0.9-6.9,1.8-7.4c1.4-0.5,0.5,3.7,0.9,5.1c1.4-0.5,1.8-5.1,2.3-3.7
						C273.4,419.4,273.9,423.1,272,425z M271.6,414.4c-2.3,0.9-4.6,0-6-1.8c-0.5-0.9,0-2.3,0-3.2c-3.2,2.3-4.6-1.8-6.9-2.3
						c0,0-0.9,0.9-1.4,0.5c-2.3-2.3-5.5-4.2-4.6-7.9c-1.8,0.5-3.2-0.5-3.2-1.8c-0.5-1.8-0.5-3.2-1.8-4.2c1.4-1.4,2.8-2.8,2.3-4.2
						c0-0.5-0.9,0-1.4,0.9c-1.4-1.4-2.3-3.2-2.3-5.1c0-2.3,4.6-2.8,3.7-5.1c-0.5-0.5-2.8-0.9-2.8-1.8c-0.5-3.2,3.7-3.7,0-6.9
						c-0.9-0.9,3.7-1.4,3.7-3.2c-0.5-1.8-3.2-3.7-1.8-6c1.4-2.3,5.1-2.8,2.3-5.1c-1.4-0.9-3.7-1.4-5.1-3.2c-0.5-0.5,0-1.8-0.5-2.3
						c-6-4.2-9.7-9.2-15.3-12.5c-2.8-1.4-6.9-2.3-8.8-5.5c-0.5-0.5-0.5-2.3,0.9-2.3c1.8,0,5.1,0.5,4.6,3.2c5.1,0.5,8.8,2.8,12.5,6
						c-0.5,0.5-1.4,1.4-0.9,1.4c2.8,0.5,5.1,1.4,6.9,3.2c0.5,0.5,0,1.8,0,2.3c1.4,0,2.8,0.9,3.2,1.4c2.3,2.3,5.1,4.2,7.4,6.9
						c-0.5,0.5-1.4,0.9-0.9,1.8c0.5,1.4,2.8,1.4,3.2,2.8c0.5,0.9,0,1.4-0.9,1.8c-0.5,0-0.9,0-1.8,0c0.5,2.3,3.2,2.3,3.7,4.6
						c0,0.9-0.5,1.8-0.9,1.4c-1.8-0.5-3.2-1.8-5.5-2.3c0.5,3.2,5.1,2.8,5.1,5.1c0,3.2-3.7-1.8-5.1,0.9c1.8,0.5,3.7,1.4,5.1,2.8
						c0.5,0.5-0.5,1.4-0.9,1.4c-2.3-0.9-3.7-2.3-6.5-2.3c0.9,2.8,4.6,1.8,6,4.6c0.5,0.9-0.5,1.8-0.9,1.4c-1.4-0.9-3.2-0.9-4.6-2.3
						c-1.4,3.2,3.7,2.3,3.2,4.2c-0.5,2.3,0,4.6-1.4,6.5c-0.5-1.4-2.3-0.5-2.8-1.8c-0.9,3.7,3.7,4.2,3.2,6.9c0,1.4-1.8,2.3-1.4,3.2
						c0.9,0.9,3.2-0.5,4.2,0.9c0.9,1.8-2.3,1.8-1.4,2.3c0.9,0.9,2.8,0.5,4.2,0.5c0,0.9,3.2,0.9,0.9,2.3c-0.9,0.5-1.8-0.5-2.8,0.9
						c-0.5,0.9,0.5,1.8,0.9,1.4c2.3-0.5,5.1-3.2,6.9-0.5c0.9,1.4-2.3,1.8-1.4,2.3c1.4,0.9,3.2,0,5.1,0.5c2.3,0.5,1.8,2.3,0.9,4.2
						c0.9,0,1.8-0.5,2.8,0C274.8,411.1,273.4,413.9,271.6,414.4z"/>
				</g>
			</g>
			<g>
				<g>
					<path fill="#ECECEC" d="M329.8,391.2c-4.2-1.8-5.5-7.9-6-10.2c-0.5-2.8,0.9-5.1,0.5-6.5c-0.5-1.4-0.5-2.3-0.9-4.2
						s-0.5-3.7,0-4.2c0-0.5,1.8-0.9,2.8-2.3c0.9-0.9,0-1.4-1.4-4.2c-1.8-2.3-1.4-3.2-1.4-3.2l0.5-1.8h1.8l1.4-0.5c0,0,0-0.9,0-1.4
						c0-0.5,0-0.5-3.2-0.5s-13.9-4.6-14.8-5.1s-5.5,0-7.4,0c-1.8,0-1.8,0.5-3.7,1.4c-1.8,0.9-2.8,2.3-4.2,2.8c-0.9,0.5-2.8,0-4.2,0
						c-1.4,0-4.2,0.5-6.9,2.3c-2.8,1.8-2.8,5.1-2.8,7.4c0.5,2.3,2.8,4.2,2.8,4.2h1.4c0,0,0,0,0.5-0.9c0.5-3.2,3.7-2.3,3.7-2.3
						c7.9,1.4,11.6,5.5,12.5,6.5c0.9,0.9,0,6.5-1.4,7.4c-0.9,0.9-0.5,0.5-1.4,0.9c-11.1,3.7-8.3,7.4-8.3,7.4
						c-7.4,6-5.5,12.9-5.5,12.9h52.7C336.3,394.5,334,393.6,329.8,391.2z M284,360.3c0,0-1.4-0.5-1.4-0.9c-1.4-3.7,2.8-6.9,6-7.9
						c3.7-0.9,4.6,1.8,5.5,4.2C295.1,359.8,287.7,354.7,284,360.3z M295.1,360.7h-0.9c0,0-0.9-2.3-1.8-1.8c0,0,1.8,0,2.8,0.5
						C296.1,359.8,295.1,360.7,295.1,360.7z M297.9,355.2c-3.2,0.5-3.7-2.8-3.2-3.2c9.2-5.1,14.8-2.3,25.4,0
						c2.8,0.5-0.5,4.2-1.4,3.7c-13.4-6.5-12-2.8-18.5-4.2c0,0.9-0.5,1.8,0,2.8c3.2,5.1,8.8,1.4,12.9,1.8c5.1,0.5,9.7,9.2,6.5,10.6
						c-0.9,0.5-0.5-4.6-2.8-3.7c-1.4,0.5,2.3,3.7,0,3.7c-1.8,0-2.8-6.5-4.6-4.6c0.5,2.8,0.5,6-2.3,7.4c-0.9,0.5-1.4,0-1.4-0.9
						c0.5-3.7-1.8-6.9-4.6-8.8c-0.5-0.5-1.8,0-2.3-0.5C299.3,358.9,297.5,358,297.9,355.2z M315.9,370.9c-0.5,0.9-1.8,1.8-2.3,0
						c-0.5-0.9-0.5-2.3,0.9-2.8c0.9-0.5,1.4,0,1.8,0.9C315.9,370,315.9,370.9,315.9,370.9z M300.7,363c0.5-2.3,3.2-0.5,4.2,0.9
						c0.5,0.9,0,1.4-0.9,1.4C302.1,365.8,300.2,364,300.7,363z M291,388c-0.5,0.5-1.4,0.5-1.4,1.4c-0.5,0.9-0.5,2.8-1.8,2.3
						c-0.5-0.5-1.4-0.9-0.9-1.8c0.9-1.4,2.3-2.8,3.7-3.2C291,386.2,291.4,387.1,291,388z M307.2,393.1c-0.5,0.5-2.3-0.5-1.4-1.4
						c0.5-0.5,0.9-3.7,2.3-0.9C308.1,391.2,308.1,392.2,307.2,393.1z M311.3,388c-0.5,0.9-1.4,1.8-2.3,0c-0.9-1.8,2.3-3.2,0-4.6
						c-0.5,1.4-0.9,3.7-1.4,3.2c-2.8-0.9,0.9-3.7,0-5.5c-4.6,3.2-1.8,8.3-4.6,9.2c-0.5,0-1.4-0.9-1.4-1.4c-0.9-1.8,2.8-3.7,0-5.1
						c-0.9,1.8-0.5,4.6-1.8,4.6c-2.3,0.5-1.8-2.8-0.9-4.6c-0.9-0.5-1.8,0-1.8,0.5c0,2.3-0.5,6-3.2,5.1c-2.8-0.9-0.5-8.3,4.2-8.3
						c0.5,0,0-2.8,0.5-2.8c3.7,2.3,9.7,0,12.5,0.5C313.2,380.1,312.7,385.2,311.3,388z M313.6,393.6c-0.5,0-0.9-0.5-0.9-0.9
						s0.5-0.9,0.9-0.9s0.9,0.5,0.9,0.9S314.1,393.6,313.6,393.6z M316.9,388.9c0,1.4-1.8,1.4-2.3,0.9c-2.8-3.7,0.5-6.5,0.9-9.7
						C318.3,382,316.9,385.7,316.9,388.9z M314.1,378.8c-0.9,0-1.8-1.8-2.8-2.3s-1.8-0.5-2.8,0.9c-2.3-2.3-3.7-0.5-6.5,0.9
						c-1.8,0.9-1.4-1.8-2.8-2.3c1.4-1.4,3.2-0.9,4.6-2.8c1.8-2.3-1.8-4.6,0.9-6.5c1.4,6.5,8.3,4.6,12,8.3
						C318.3,376,315.9,378.8,314.1,378.8z M318.7,368.6c1.4,0,2.8,1.8,1.4,3.2c-0.5,0.5-1.8,0.5-2.3-0.9
						C317.8,370.4,317.3,368.6,318.7,368.6z M318.3,376.4c0.9,0,2.3-3.2,1.8-0.5c-0.9,3.2,3.2,5.5,0.5,6.5
						C317.3,382.9,318.3,378.8,318.3,376.4z M318.7,388c-0.5-0.9-0.5-1.8,0.9-2.8c0.9-0.5,1.4,0,1.4,0.5c0,0.9,0,0.9-0.5,2.8
						C320.1,389.4,318.7,388.5,318.7,388z M321.5,393.1c-0.5,0-0.9-0.5-0.9-0.9s0.5-0.9,0.9-0.9s0.9,0.5,0.9,0.9
						C322,392.6,321.5,393.1,321.5,393.1z M322,377.8c-0.9-0.5-0.9,0-0.9-1.4c0-1.4,0-1.8,0.5-1.8c0,0,0.5-0.5,0.5,0s0,0.5,0.5,0.9
						C322.4,376.4,322,377.8,322,377.8z M321.5,361.2c-0.9-1.8-3.2-2.8,0-4.2c0.9,1.4,2.8,2.8,2.3,4.2
						C323.3,362.1,322.4,363.5,321.5,361.2z"/>
				</g>
			</g>
			<g>
				<g>
					<path fill="#ECECEC" d="M431.1,314c-0.5-1.8-1.4-2.8-4.6-2.8c-3.7,0-23.1,4.2-32.4,14.8c0,0-25.4,10.6-38.8,28.7
						c-5.5,7.4-5.1,8.8-4.6,12.5c0.5,3.7,4.6,9.2,4.6,9.2s2.8,12.9,1.4,14.8c-1.4,2.3-7.9,12-17.1,12v35.6c0,0,5.1,6,6.5,6
						c1.4,0,4.6-3.7,4.6-3.7s4.2,3.7,5.1,3.2c0.9-0.5,2.8-5.5,2.8-5.5l7.9,0.5l1.4-4.2l5.5-0.5l0.9-6l5.1-0.5l0.9-4.2l6-1.8l0.5-6.5
						l4.6-1.8l-0.5-4.2c0,0,6.5-2.8,6-4.2c-0.5-1.4-2.3-4.2-2.3-4.2s3.7-1.8,4.2-3.2c0.5-1.4-1.4-4.2-1.4-4.2l4.2-4.2
						c0,0-1.4-4.2-3.2-4.6c0,0,5.5-2.8,5.5-4.2s-2.3-4.6-2.3-4.6l3.7-4.6l-2.8-3.7l3.2-4.6c0,0-2.8-4.6-4.2-4.6c-1.4,0,5.1-6,5.1-6
						l-2.8-3.2c0,0,7.4-7.4,7.9-8.8c0.5-1.4-0.5-2.3-2.3-3.2c-1.8-0.9,7.9-7.4,8.3-9.2c0.5-1.8,0-2.8,0-2.8l-1.4-0.9
						C417.7,327,431.5,315.4,431.1,314z M340.9,410.2c0.9-0.5,1.8,0,2.8,0c-0.9-1.8-1.4-3.7,0.9-4.2c1.8-0.5,3.7,0.5,5.1-0.5
						c0.9-0.5-2.8-0.9-1.4-2.3c1.8-2.3,4.6,0,6.9,0.5c0.5,0,0.9-0.9,0.9-1.4c-0.5-1.4-1.8-0.5-2.8-0.9c-2.3-1.4,0.9-1.4,0.9-2.3
						c1.4,0,3.2,0.5,4.2-0.5c0.9-0.9-2.3-0.9-1.4-2.3c0.9-1.8,3.2,0,4.2-0.9c0.5-0.9-0.9-2.3-1.4-3.2c-0.5-2.8,4.2-3.7,3.2-6.9
						c-0.5,1.4-2.3,0.5-2.8,1.8c-1.4-1.8-0.9-4.2-1.4-6.5c-0.5-1.8,4.6-0.9,3.2-4.2c-1.4,1.4-2.8,1.8-4.6,2.3
						c-0.5,0-0.9-0.9-0.9-1.4c1.4-2.3,5.1-1.8,6-4.6c-2.3,0-4.2,1.8-6.5,2.3c-0.5,0-1.4-0.9-0.9-1.4c1.4-1.4,3.2-2.3,5.1-2.8
						c-1.4-2.8-4.6,2.3-5.1-0.9c0-2.3,4.6-2.3,5.1-5.1c-1.8,0.5-3.7,1.8-5.5,2.3c-0.5,0-0.9-0.5-0.9-1.4c0.5-2.3,3.2-2.3,3.7-4.6
						c-0.5,0-1.4,0-1.8,0c-0.5-0.5-1.4-0.9-0.9-1.8c0.9-1.4,2.8-1.4,3.2-2.8c0.5-0.9,0-1.4-0.9-1.8c2.3-2.3,4.6-4.6,7.4-6.9
						c0.5-0.5,1.8-1.4,3.2-1.4c0-0.9-0.5-1.8,0-2.3c1.8-1.8,4.2-2.3,6.9-3.2c0.5,0,0-0.9-0.9-1.4c3.7-3.2,7.4-6,12.5-6
						c-0.9-2.8,2.8-3.2,4.6-3.2c1.4,0,0.9,1.8,0.9,2.3c-2.3,3.2-6.5,3.7-8.8,5.5c-5.5,3.7-9.2,8.3-15.3,12.5c-0.5,0.5,0,1.8-0.5,2.3
						c-0.9,1.8-3.2,1.8-5.1,3.2c-3.2,2.3,0.5,2.3,2.3,5.1c1.4,2.3-1.8,4.2-1.8,6c-0.5,1.8,4.6,2.3,3.7,3.2c-3.7,3.2,0.5,4.2,0,6.9
						c0,0.9-2.8,1.4-2.8,1.8c-0.9,2.3,3.7,2.8,3.7,5.1c0,1.8-1.4,3.7-2.3,5.1c-0.5-0.5-1.4-1.4-1.4-0.9c-0.5,1.8,0.9,3.2,2.3,4.2
						c-1.8,0.9-1.4,2.8-1.8,4.2s-1.4,2.3-3.2,1.8c0.9,3.7-2.3,5.5-4.6,7.9c-0.5,0.5-1.4-0.5-1.4-0.5c-2.8,0.9-4.2,4.6-6.9,2.3
						c0,1.4,0.5,2.8,0,3.2c-1.4,1.8-3.7,2.3-6,1.8C340.5,413.9,338.6,411.1,340.9,410.2z M371,408.3c-1.8,0.5-2.8-1.8-3.2-2.8
						c-0.5-1.8,1.8-2.8,1.4-5.5c-0.5-1.8,2.3,1.4,3.7,0c0.5-0.5,0-1.4-0.9-1.8c0.5-0.5,0.9-1.4,1.8-0.9c1.4,0.9,2.8,0.9,3.7,2.8
						c0.5,1.8,0,3.7-1.8,4.2c-0.9,0-1.8-2.3-2.3-1.4C372.4,405.1,374.2,407.9,371,408.3z M356.6,414.4c0.5,2.8,6.5,4.2,0.5,7.4
						c-0.9,0.5-5.1-2.8-3.2-7.4c0.5,0.9,2.3,2.3,1.8,3.7C356.2,417.1,355.7,414.8,356.6,414.4z M358,413.4c-0.5-3.2,4.6,3.2,4.2,0.9
						c0-1.8-0.9-6.5,1.4-6c0.5,0,0.9,0.9,0.9,1.8c0,0.5-0.9,1.4-0.5,1.4c0.9,2.3,2.8,5.1,0.5,6.9c-0.9,0.5-1.8-0.5-2.8-0.5
						C358.9,416.7,358.5,414.8,358,413.4z M365.4,410.7c0.5-0.5,1.4-0.9,0.9-1.8c-0.5-0.5-0.9-0.9-0.9-1.8c0.5-0.5,0.9-1.4,1.8-0.9
						c1.4,1.4,4.2,2.3,3.7,5.1c0,0.9-0.9,1.4-1.8,1.8C368.2,412,366.3,412,365.4,410.7z M374.2,397.7c-1.4-0.5-4.6,0-4.2-2.3
						c0.9-2.8,4.2,0.5,6-0.9c-0.5-0.5-0.9-0.9-0.9-0.9c1.8-2.3,3.7,0,4.2,0.9C380.7,397.2,376.5,398.2,374.2,397.7z M371.4,390.3
						c-0.9-1.8,3.7-0.5,4.6-2.3c-1.8,0-3.7,0-5.1,0c-0.9,0-1.4-0.9-0.9-1.4c3.2-2.3,10.6-0.9,9.7,2.3
						C379.3,391.7,372.8,393.1,371.4,390.3z M373.7,382.5c-0.5-0.5,3.7-0.5,4.6-0.9c0.5-0.5-2.3-0.9-2.8-1.8c-0.5-0.9,0-1.4,0.9-1.4
						c2.3,0,5.1,1.4,4.6,3.2C380.2,385.2,375.6,385.2,373.7,382.5z M380.7,376.4c-1.4,0.9-0.9,0-2.8,0.5c-1.8,0.5-3.2,0.5-3.2-0.5
						c0,0,0.9-0.5,1.4-0.5c0.9,0,1.4,0,1.8,0s0.5-0.5,0-0.9c0-0.5-1.8,0-1.8,0h-1.8c0-0.9,1.4-0.9,2.3-1.4c0.9-0.5,1.8,0,2.3,0
						c0.9,0,0.9,0.5,1.4,0.9C381.6,375.1,381.6,376,380.7,376.4z M372.8,372.3c-2.3-1.4,2.8-1.8,4.2-2.3c0.9,0,1.4-1.4,0.9-1.4
						c-1.4-0.9-3.2,1.4-5.1,0.5c-0.5-0.5-1.4-0.9-0.9-1.8c0.5-1.4,2.3-0.9,3.7-1.4c2.8-0.9,8.8-0.9,7.4,3.2
						C381.6,372.7,373.7,372.7,372.8,372.3z M374.2,364c0.9-1.4,3.2-1.8,3.2-2.8c-0.5-2.3-2.3,1.8-4.2,0c-0.5-0.5-0.5-0.5-0.9-0.9
						c3.2-1.8,6-4.6,9.7-3.2c1.8,0.5,2.3,2.8,1.8,4.2C382.1,364.4,377.9,364.9,374.2,364z M383.4,355.2c-3.2,1.8-7.9,2.8-9.2,2.3
						c0,0,0.5-0.5,0.9-0.9s1.8-0.9,2.3-0.9s1.4-0.9,2.3-0.9c0.5,0,1.8-0.9,2.8-1.4c0.9-0.5,0.9-0.9,1.4-1.4c0.5-0.5,0-0.5-0.9-0.5
						c-0.9-0.5-2.3,0.5-3.2,0.9s-3.7,2.3-4.6,2.8s-3.2,1.8-3.2,1.8c-0.5,0-0.5,0,0-1.4c0.5-1.4,3.7-2.8,6-4.2
						c2.3-1.4,7.4-1.8,8.3-1.8c0.9,0,2.3,0.5,2.3,1.4C388.1,351.5,386.7,353.3,383.4,355.2z M374.7,350.6c0,0-0.5,0.5,1.4-1.8
						c1.4-2.3,9.2-4.6,9.7-5.1c0.9-0.5,0.9-0.5,0.9-1.4c0-0.5,0-0.5,0-0.9c-0.5-0.5-2.8,0.9-3.2,1.4c-0.5,0.5-3.2,0.5-3.7,0.5
						c-0.5,0,0.9-2.3,0.9-2.3c3.7-3.2,9.2-2.3,10.6-1.8c0.9,0.5,0.9,1.4,0.9,1.4C390.8,346.4,377,350.1,374.7,350.6z M351.5,416.7
						c1.8,1.4,2.3,3.7,1.8,6c-0.5,1.8-4.6,3.2-5.1,0.9c-0.9-3.2,0-4.2-1.4-6.5c0,0,0.9-0.9,1.4-0.9c1.8,0.5,0.5,4.6,2.8,2.8
						C351.1,418.5,350.6,415.7,351.5,416.7z M340.9,418.1c0.9-1.4,0.9,3.2,2.3,3.7c0.5-1.8-0.9-5.5,0.9-5.1c2.8,0.5,2.3,4.6,1.8,7.4
						c-0.5,1.8-2.3,2.8-4.2,0.9C339.5,423.1,340.5,419.4,340.9,418.1z M347.8,440.7c0,0-1.4,1.8-2.3,1.8s-1.8-0.5-3.2-1.8
						c-0.5-0.5-1.4-3.2-1.8-4.2c0-0.9,0.5-3.7,0.5-3.7c1.8-0.5,0.9,1.4,0.9,1.4s0.5,1.8,1.4,3.7c0.9,1.8,1.8,3.2,1.8,3.2
						s0,0,0.5-0.9c0.5-2.3-0.5-4.2-0.5-4.2l-2.3-4.2c0,0,0.5-1.8,1.4-1.4c0.9,0.5,3.7,6.9,4.2,8.3
						C348.8,439.3,347.8,440.7,347.8,440.7z M355.2,441.2h-1.4c0,0-0.9-0.5-1.8-1.4c-0.9-0.5-0.9-0.9-1.8-1.8
						c-0.9-0.9-1.8-2.8-2.3-4.6c-0.5-1.8,0-3.7,0-3.7l0.9,0.5c0,0,0.5,1.4,0.9,2.8c0.5,1.8,0.5,0.9,0.9,2.3c0.5,0.9,1.4,1.8,1.8,2.8
						c0.5,0.9,1.8,1.4,1.8,1.4s0,0,0-1.8c0-1.4,0-2.3-1.4-4.6c-0.9-2.3-3.2-4.6-3.2-4.6l0.5-0.9c0,0,0.9,0.9,1.4,1.4
						c0.5,0.5,1.8,2.3,2.3,3.7c0.9,1.4,0.9,1.4,1.4,4.2C356.2,439.3,355.2,441.2,355.2,441.2z M364.5,435.2c0,1.4-1.8,1.8-1.8,1.8
						s0,0.5-3.2-1.4c-3.2-1.8-5.1-7.4-5.1-7.9s0-0.9,0.9-1.4c0.5-0.5,1.8,3.7,3.2,5.5c1.4,1.8,2.8,3.2,3.2,3.2s0.9,0,1.4,0
						c0.5,0,0-0.5,0-1.8c0-0.9-2.8-3.2-3.2-3.7c-0.5-0.5-0.9-1.4-0.9-1.4s0-0.5,0-0.9s0.5,0,0.9,0s3.2,3.7,4.6,4.6
						C364.5,432.8,364.5,433.8,364.5,435.2z M371.9,430.5c-0.5,0.9-0.9,2.3-2.3,2.3c-1.4,0.5-6.5-5.1-6.9-5.5s0-1.4,0-1.8
						s1.4,0,1.8,0.9c0.5,0.5,1.4,1.8,2.3,2.3c0.9,0.5,1.8,0.5,1.8,0s0-0.5,0-1.4c0-0.9-4.6-4.6-5.1-5.1s-0.5-0.5-0.5-0.9
						s1.8,0,1.8,0s5.1,4.6,5.5,5.5C371.4,428.2,372.4,429.6,371.9,430.5z M376.1,427.3c-1.8,0.5-8.3-5.1-8.3-5.5c0,0,0-0.5,0-0.9
						s0.5-0.9,1.8,0c4.2,3.7,5.5,2.3,5.5,2.3s0,0,0-0.9c0-0.9-4.6-4.2-5.1-4.6s0-0.9,0-0.9c0-0.5,0-0.5,0.9,0c0.9,0,6.5,4.6,7.4,5.5
						c0.9,0.9,0.5,1.8,0.5,2.8C378.4,425.9,377.9,426.8,376.1,427.3z M381.6,421.3c-2.8,0.5-8.3-5.1-8.3-5.1c-0.5,0-0.5-1.4,0-1.4
						c1.4-0.5,1.4,0,1.8,0.5s4.2,3.7,4.6,3.7s0.9,0,1.4,0c0.5,0,0.5-0.5,0.5-0.9c0-0.5-0.5-0.9-0.9-0.9c-0.5-0.5-1.8-0.9-2.3-1.4
						c-0.5-0.5-1.8-1.8-1.8-1.8s-0.5,0,0.5-0.5s4.6,2.3,5.5,3.2c1.4,0.9,1.8,2.8,1.8,3.2C384.4,420.8,384.4,420.8,381.6,421.3z
						 M388.1,413.4c-0.9,0.5-4.2,0.5-5.5,0.5c-1.4,0-4.6-2.3-5.1-2.8s-0.5-0.9,0-0.9s1.4,0,1.8,0s2.8,1.8,3.7,1.8c0.9,0,2.3,0,2.8,0
						s0.5,0,0.5-0.9c0-0.5,0.5-0.5,0-0.9c-0.5,0-0.9,0-1.4,0c-0.5,0-0.9,0-1.4-0.5c-0.5-0.5-0.9-0.9-0.9-0.9s2.8-0.9,3.2-0.5
						c0.9,0.5,2.8,1.8,2.8,2.8C389,412,389.5,413,388.1,413.4z M393.2,405.6c-0.5,0.5-1.4,1.4-2.3,1.8c-1.4,0-2.8,0.5-3.2,0.5
						c-0.5-0.5-4.2-0.9-4.6-1.4c-0.5-0.5-0.9-0.5-0.9-0.9s0-0.5,0.9-0.5s0.9,0,1.8,0c0.9,0,1.4,0.5,1.8,0.5s1.8,0.5,2.3,0.5
						s0.9,0,0.9-0.5c0-0.9,0-0.9-0.5-1.4c-0.5-0.5-1.4-0.5-2.3-0.5s-1.4,0-1.8,0c-0.9,0-1.4-0.5-1.8-0.5s-1.8-0.9-1.8-0.9
						s0.9-0.5,2.3-0.5c1.8,0,8.3,0.5,8.8,2.8C393.2,405.6,393.2,405.6,393.2,405.6C393.6,405.6,393.2,405.6,393.2,405.6z
						 M395.9,399.1c0,0.5-1.4,0.5-1.8,0.9c-0.5,0-6.9,0-7.4,0s-3.2-0.9-3.7-0.9c-0.5,0-0.5,0-0.5-0.9c0,0,0.9-0.9,1.4-0.9
						c0.5,0,2.8,0.5,3.7,0.5c0.9,0,5.1,0.9,5.5,0.5c0.9-0.5,0.5,0,0.9-0.5s0.5-0.5,0.5-0.9s-0.5-0.5-0.9-0.9s-2.8-0.5-2.8-0.5
						c-0.5,0-0.9-0.5-1.4-0.5c-0.5,0-0.9-0.5-0.9-0.5s0-0.5,1.4-0.5c1.4,0,2.3,0.5,3.7,0.9c0.9,0,3.7,0.5,4.2,0.5s0.9,1.4,0.9,1.8
						C396.9,398.2,395.9,398.6,395.9,399.1z M396.9,392.2c-1.4,0.9-5.5,0.5-6,0.5c-0.5,0-3.2,0-3.7,0c-0.5,0-0.9,0-0.5-0.5
						s1.4,0,2.3,0s5.5,0,6,0c0.5,0,0.5-0.5,0.5-0.9c0,0,0,0-0.5-0.9s-7.4,0-7.4,0s-0.5,0-0.5-0.5s0-0.5,1.8-0.9c1.8-0.5,8.3,0,8.8,0
						c0.9,0,0.5,1.4,0.5,1.8C398.7,391.2,398.2,391.2,396.9,392.2z M400.1,383.4c-0.5,0.9-1.4,1.4-2.8,2.3c-0.9,0.5-3.7,0.5-4.2,0.9
						s-1.8,0-2.8,0s-0.5,0-0.9-0.5l0.5-0.9c0,0,0.5-0.5,1.4-0.5c0.9,0,5.1-0.9,5.1-1.4c0-0.5,0.5-0.5,0.9-0.9c0.5-0.9,0-0.5-0.5-0.9
						s-2.3,0.5-2.3,0.5s-1.4,0.5-2.3,0.5c-0.5,0-1.4,0.5-1.8,0.5c-0.9,0-0.9,0-1.4-0.5c0,0-0.5-0.5,0-1.4c0.5-0.9,6-1.4,6.9-1.4
						s1.8-0.5,2.8-0.5c0.9,0,0.5,0.5,0.9,1.4C400.6,382,400.6,382.5,400.1,383.4z M402.9,373.2c-0.9,4.2-14.3,6.5-14.8,6.9
						s-0.9,0.5-1.8,0c-0.9,0-0.9-0.9-0.9-0.9c0-0.5,1.8-0.9,2.3-1.4c0.5,0,5.1-1.4,6-1.4c0.9,0,1.4,0,2.3-0.5s1.4-0.5,2.3-0.9
						s0.9-0.5,1.4-0.5c0.5,0,0-0.9,0-1.4c0-0.5,0-0.9,0-0.9s-0.5,0-1.4,0c-0.9,0-3.2,0.5-3.7,0.5c-0.5,0-3.7,0.9-4.2,0.9
						s-4.2,1.4-4.6,1.4s-0.9,0.5-1.4,0c-0.5,0-0.5-0.5-0.5-0.9s4.6-1.8,6-2.3c1.4-0.5,9.7-0.9,10.2-0.9c0.9,0,1.4,0.5,1.8,0.9
						C403.3,372.7,402.9,373.2,402.9,373.2z M402.4,364c-0.5,6.5-8.8,6.5-13.9,6c3.2-1.8,6.5-2.8,9.7-4.6c-5.1-2.8-9.7,5.5-13.4,0.9
						c4.6-2.8,10.2-3.2,14.8-4.6C400.1,363.5,402.4,362.6,402.4,364z M404.3,355.2c-4.2,6-11.6,8.8-19,7.4c3.7-4.2,12-1.4,14.3-6.9
						c-3.7,0.5-6.5,2.3-9.7,3.2c-0.5,0-0.9-0.9-1.8-1.4c4.6-2.3,9.2-4.6,14.3-4.6C402.4,351.9,405.2,353.8,404.3,355.2z
						 M409.3,342.7c-3.7,7.9-11.6,9.2-19.4,10.6l-0.9-1.4c2.3-1.8,5.5-0.9,7.4-2.3c2.3-1.8,6.5-0.9,7.4-5.1
						c-4.2,0.9-7.9,3.7-12.5,4.2c-0.5,0-1.4-0.9-0.9-1.4c5.1-3.2,10.2-7.4,16.6-6.9C408.4,340.8,410.3,341.3,409.3,342.7z
						 M395.5,342.7c0,0-0.9-1.4-0.5-1.4c2.3-1.8,5.1-2.3,7.4-4.2c2.8-1.8,7.4-1.4,8.3-5.5c-4.2,2.3-8.8,4.2-13.4,6
						c-0.5,0-1.4-0.9-0.9-1.4c5.1-5.1,12.9-8.3,20.3-6.5C412.1,337.1,403.3,339.9,395.5,342.7z M400.6,327c0.5-0.9,8.3-4.6,9.2-4.6
						c0.5,0,0.9-0.5,1.4,0c0.5,0,0.5-0.5-0.5,0.9c-1.4,1.4-9.2,5.1-9.2,5.1H401C401,328.4,400.1,327.9,400.6,327z M427.4,314.5
						c-0.5,4.6-18,14.3-22.7,14.3c0,0,0-0.9,2.3-2.3c2.3-1.4,14.8-9.2,15.3-9.7c0.5-0.5,0-0.9,0-0.9c-2.8-1.4-24,10.6-25,11.1
						c-0.5,0.5-0.9-1.4-0.9-1.4c2.8-5.1,28.2-12.5,29.6-12.9C427.8,313.1,427.4,314.5,427.4,314.5z"/>
				</g>
			</g>
			<path fill="#FFFFFF" d="M359.9,459.2c0.5-0.5,1.4-0.9,0.9-1.8c-0.9-1.4-2.3-2.3-4.2-1.8c-0.5,0-1.4,0.9-0.9,1.8
				c0.5,0.9,1.4,2.3,2.8,2.8C358.9,460.1,359.4,459.7,359.9,459.2z"/>
			<path fill="#FFFFFF" d="M353.9,473.5c-0.5-1.8-1.8-4.2-3.2-4.2c-2.8,0.5,0,4.6,1.8,5.5C352.5,474.9,353.9,474,353.9,473.5z"/>
			<g>
				<g>
					<path fill="#ECECEC" d="M310.4,532.7L310.4,532.7L310.4,532.7z M342.3,495.3c-4.2-5.1-13.4-14.3-15.3-14.3v-1.8
						c0,0,0-0.5,0.9-0.5s0.9-1.4,0.9-1.4l0.5-4.6h-16.2c0,0-5.5,0-6,4.6c0,0-0.5-3.7-5.5-4.6c-0.5,0-13.9,0-13.9,0s0,5.1,1.4,6.5
						c1.8,1.4,0.9,1.4,0.9,1.4s-18,12-17.6,28.2l1.4,0.9l3.2-0.5c0,0-0.5,9.7,0.9,10.2c1.4,0.5,6-0.9,6-0.9s-0.9,4.6,2.8,7.4
						c3.7,2.3,7.9-2.3,7.9-2.3s1.4,6.5,2.8,7.4c1.4,0.9,3.7-1.4,5.5-3.7c1.8-1.8,1.4,0,1.4,0s2.8,4.6,4.6,5.5
						c0.5,0.5,0.9,0.5,0.9,0.5l3.2-6c0,0,6,3.7,7.9,2.8c1.8-0.9,0.9-0.5,0.9-0.5s0.5-3.2,1.4-7.4c0,0,5.1,1.8,7.4,1.4
						c2.8-0.5,2.3-6,2.8-6s6,0.5,6.5,0c0.5-0.5,0-8.3,0-8.3h4.6C344.6,508.7,346.5,500.4,342.3,495.3z M316.9,474.5
						c1.4,0,3.2-0.9,4.2,0.9c0.5,0.9,0,1.4-0.9,1.8c-1.4,0.9-3.2,1.8-4.2,0C315.5,476.3,315.5,474.5,316.9,474.5z M320.1,497.1
						c0,0-0.5-0.5-0.9-0.9c-0.9-1.4-1.8-3.7,0-4.2C321,492,322.4,495.7,320.1,497.1z M320.1,504.1c0,0-0.5-0.9-0.9-1.4
						c-0.9-1.4-0.5-2.8-1.4-3.7c-0.5-0.5,0.5-1.4,0.5-1.4C321,498.5,323.3,502.2,320.1,504.1z M318.7,488.3
						c-2.3-0.5-0.9-3.7,0.9-5.1c0.5,0.9,2.3,1.4,1.8,2.8C320.6,486.9,319.2,488.3,318.7,488.3z M315,487.4c0.9-0.5,1.4,0,1.8,0.9
						c0,0.5,0,1.4,0,1.8c-0.9,2.8-3.7,1.8-4.2,0c-0.5-1.8-1.4-4.6,0.9-6c0.5-0.5,1.4,0,1.4,0.9C315.5,486,315,486.5,315,487.4z
						 M313.2,476.3c0,0.9,3.2,0.9,0.9,2.8c-0.9,0.5-2.3,0.5-2.3-0.9C311.8,477.2,312.7,476.8,313.2,476.3z M307.6,490.2
						c0.9-0.9-0.5-3.2,0.9-4.2c0.9-0.5,1.4,0,1.4,0.9c0.5,3.2,0.5,7.9-2.8,8.3c-1.4,0-6-3.7-2.3-6.5
						C307.2,487.4,307.2,490.6,307.6,490.2z M303.5,478.2c0.9,0,2.3-0.5,2.3,0.9c0,0.5-0.5,0.5-0.9,0.9c-0.9,0.5-1.8,1.4-2.8,0
						C302.5,478.6,303,478.2,303.5,478.2z M302.5,486c1.4,0.9,0.9,2.3,0.9,3.7c-1.4,0-0.9,3.7-3.7,1.8c1.4-1.4-2.8-3.2,0-4.2
						C301.2,486.5,302.1,486.9,302.5,486z M300.2,475.4c0.9-0.5,1.4,0,1.4,0.9c0,1.4-0.9,3.2-1.8,3.2
						C297.5,479.1,298.4,476.3,300.2,475.4z M293.8,476.3c0.5-0.9,0.9-1.4,1.8-1.8c0.5,0.9,2.3,1.4,1.8,2.8
						c-0.5,0.9-1.4,1.4-2.3,0.9C294.2,477.7,293.3,476.8,293.8,476.3z M297.5,486c0,0.5-0.5,1.4-0.9,1.8c-0.9,0.5-1.4,0-1.8-0.9
						s0-1.4,0.9-1.8C296.5,484.6,297,485.1,297.5,486z M289.6,476.8c-0.5-0.9,0-1.4,0.9-1.8s1.4,0,1.8,0.9c0,0.5-0.5,1.4-0.9,1.8
						C290.5,478.2,290.1,477.7,289.6,476.8z M277.1,506.8c-0.5,0.5-2.3,0.5-2.3-0.9c0.5-6,3.7-12.9,8.8-15.3
						c1.4-0.5-3.7,6.9-2.8,6.5c4.2-0.9,6.9-10.6,11.6-12.5c0.5,0,1.4,0.9,0.9,1.4C288.7,494.3,281.7,499.4,277.1,506.8z
						 M282.2,515.6c-0.5,0.5-1.4,0.9-1.8,0.9c-3.2-1.4-2.3-5.5-1.4-8.8c1.4-5.1,5.1-9.2,9.7-12c0,0,0.9,0.9,0.5,1.4
						c-0.5,0.5-4.6,8.3-4.6,8.3c4.6,0,6.5-13.9,10.2-15.3c0.9-0.5,0.9,1.4,0.5,2.3C290.5,500.8,289.6,509.6,282.2,515.6z
						 M289.6,523.5c-1.4,0-3.2-2.3-3.2-4.2c0-7.4,4.6-13.9,8.3-20.3l3.7-6.9l0.9,0.5c0,0,0.5,0,0,0.5s-6.9,18.5-6.9,18.5h0.5
						c2.3-2.3,5.1-13.9,6.5-16.2c2.8,7.9-3.2,14.8-3.7,23.1C295.1,521.2,291.9,523.5,289.6,523.5z M303.5,523c0,1.8-2.3,5.1-4.2,4.6
						c-1.8,0-2.8-3.2-2.8-5.5c0.5-5.5,0.5-11.6,4.2-15.3c0.5-0.9-0.5,11.1,0.5,10.2c2.3-2.8,0.9-15.7,3.7-19.4
						C307.2,505.9,303.9,514.2,303.5,523z M311.3,527.2c0,0.9-0.9,2.3-2.3,1.8c-2.3-1.4-4.2-4.2-3.7-6.9c0.9-6.9,0-14.3,1.8-21.3
						c2.8,3.2-0.5,14.3,2.3,17.1c0.5-4.6,0-15.3,0.5-19.9C312.2,507.7,314.1,517.5,311.3,527.2z M321,525.3
						c-0.5,1.4-1.8,0.9-2.3,0.9c-1.8-0.9-4.2-3.2-4.2-5.1c-0.5-6.9-3.2-13.9-2.3-21.3c1.8,2.3,1.8,12.5,5.5,13.9
						c0.5-4.6-6.9-14.8-4.2-19C319.2,503.6,323.8,514.2,321,525.3z M330.7,519.8c-1.4,0.5-3.7,0.9-5.1-0.5
						c-4.2-4.2-3.2-11.1-4.2-15.7c1.4,0.5,4.6,8.8,6,8.8c0.5,0-3.2-6.9-3.2-7.9c-0.9-1.8-3.2-6-1.8-5.1c5.5,2.3,7.4,9.7,9.7,16.2
						C332.1,516.5,333.1,519.3,330.7,519.8z M332.1,512.4c-2.8-6-6-11.6-9.7-16.6c-0.5-0.5,0.5-1.8,0.9-1.4c2.3,2.3,5.5,8.3,9.7,9.2
						c-1.8-3.7-9.7-10.2-11.1-13.9c-0.5-0.9,0.5-2.8,0.5-2.3c7.9,7.4,16.6,15.3,17.1,26.4C339.1,516.1,333.5,515.1,332.1,512.4z
						 M340.9,505c-7.4-4.6-10.6-12.5-16.6-18.5c-0.5-0.5,0.5-1.4,0.5-1.4c2.8,1.8,7.9,6.9,10.2,9.7c0-4.6-7.9-7.9-9.7-11.6
						c-0.5-0.9,0.5-1.8,0.5-1.4c7.4,6.5,16.6,12.5,17.6,22.7C343.2,505.4,341.4,505.4,340.9,505z"/>
				</g>
			</g>
			<g>
				<g>
					<path fill="#ECECEC" d="M277.6,471.2c-3.7-2.3-3.7-6-3.7-6v-18.5l-2.8,0.5c0,0-3.2,0.9-4.2,1.4c-0.5,0.5-2.3,0.9-3.7,0.9
						s-3.7,4.6-3.7,4.6c-5.5,0-5.1,3.2-5.1,3.2c-0.5,11.6-6.9,12-7.9,13.4l-6,0.5c0,0-1.8,0-2.3-0.5c-0.5-0.9-0.5-4.2-0.5-4.6
						s-0.5-2.3-0.9-3.2c-0.5-0.5-2.8-1.4-4.2-1.4s-3.2,2.3-3.7,2.8c-0.5,0-1.4,0.5-1.4,0.5v-3.2c0,0,9.2-4.6,9.7-8.3
						c0.5-3.7,0-4.6,0-6c0.5-1.4,2.3-3.2,2.8-3.7c0.5-0.5,0-3.2,0-3.2s-10.6,3.7-12,6.5c0,0-0.9-10.6-1.4-11.6
						c-0.5-0.9-8.8,3.2-9.7,8.8l-0.9-10.6c0,0-5.5-0.5-8.3,5.1c-2.3,5.5-1.8,7.4-5.1,9.2c0,0-1.4-0.5-1.4-1.4c0-0.5,0.9-1.8,1.8-2.8
						c0.9-0.9,0.5-3.7,0.5-4.6s-1.8-1.8-1.8-1.8s7.4-0.9,7.9-22.2c0,0-2.8-0.5-6.5,2.8c0,0-1.8-12.9-0.5-15.7c0,0-7.9,0.5-9.2,8.8
						c0,0-6.5-14.3-7.4-13.9c-1.4,0.9-6.5,12.5-2.8,23.6c0,0-7.9-2.8-10.2-2.3c-1.4,0.5,3.7,16.6,12.9,19.4c0,0-9.7,1.4-10.6,0.5
						c-0.9-0.9,0.9,5.1,9.7,8.8v0.9c0,0-5.5,1.8-6,3.2s8.3,4.6,9.7,6c0.9,0.9,0.5,0.9,0.5,0.9s-1.8-0.9-1.4,4.2c0,0-0.9,1.4-3.2,1.4
						c-2.3,0-0.9,2.8-0.9,2.8l9.2,4.6c0,0-0.5,3.7-5.1,4.6c-4.6,1.4-0.5,1.8-0.5,1.8s9.2,1.4,11.6,0.5c0,0,5.1-3.7,6.5-3.2
						c1.4,0,1.8,0.5,1.8,1.4c0,0.9-1.4,0-2.8,0.9c-1.4,0.9-6,6.9-6,12.9c0,3.7,0,4.6,0,5.1c0.5-0.5,8.3-7.4,9.2-6.5s2.3,9.2,4.2,9.7
						c1.8,0.9,2.8-1.4,2.8-1.4s4.6-4.2,4.6-10.2c0,0,1.4,0,2.3-0.5c0.9-0.9,3.2,0.5,3.2,0.5l0,0c0,0,0.9,0.9,1.8,1.4
						c0.9,0.5,3.2,0,4.6-0.9c1.4-0.5,0.9,1.4,2.8,2.8c1.8,1.4,6-1.8,8.3-0.9c1.8,0.5,4.6,7.9,5.1,9.2c0.9,0.9,0.5,5.1-0.5,6
						c-0.9,0.5,0,5.1,0,5.1c1.8,0.5,12.9,11.1,12.9,11.1h1.8c0-1.8-3.7-6.9-4.6-8.3c0,0,0,0-0.9-5.5c-3.2-17.6-14.3-25.9-14.3-25.9
						c-1.4-0.9-0.5-2.3-0.5-2.3l12.9-0.9l0.9,1.8c0,0,2.3,0,3.2,0s0.9,3.2,0.9,3.2h2.8l2.8-1.8l4.2-0.5c2.3,0,1.8-1.4,3.7-1.4
						c1.8,0,1.8-0.9,2.3-0.9C279.4,477.7,277.6,471.2,277.6,471.2z M247.1,505.4c2.3-2.8-0.9-6,0.9-8.8c3.2,5.1,3.7,11.1,5.5,16.2
						C250.3,511,250.3,506.8,247.1,505.4z M248,496.2h-1.4c-0.5-1.4-2.3-3.7,0-4.2C248,492,248.4,494.8,248,496.2z M245.2,490.6
						c0.5,0,1.4,1.8,0,1.8C244.3,492.5,244.3,490.6,245.2,490.6z M242.4,486c0,0.5-1.8,1.4-1.8,0C240.6,484.6,242.4,484.6,242.4,486
						z M270.2,452.7c0.5-1.4,2.8,2.8,0.9,3.7c-0.9,0.5-1.8,0.9-3.2-0.5C266.5,454.6,269.7,453.7,270.2,452.7z M268.3,459.2
						c0-0.9,1.4-2.3,1.4-1.8c4.6,3.2-1.8,10.2-5.1,13.4c-0.5,0.5-2.8-0.9-2.3-1.8C264.2,466.6,268.3,463.4,268.3,459.2z
						 M262.3,464.8c-0.5-2.3-0.9-5.5,1.4-5.5c3.7-0.5,2.8,4.2,0,5.5C263.2,464.8,262.3,464.8,262.3,464.8z M266.5,453.7
						c0,0.5,0.5,3.2-0.5,3.2c-1.8,0-2.8,1.8-4.6,0C263.2,456,266,450.4,266.5,453.7z M256.3,460.6c0-0.5,0.5-0.5,0.9-0.9
						c0.5-0.9,0.9-1.8,0.9-2.3s0.5-0.5,0.5-0.5s0.9,2.8,0.5,3.2s-1.4,0.5-1.4,0.5l-0.5,0.9c0,0-0.9,0.5-0.9,0
						C256.3,461.1,255.8,461.1,256.3,460.6z M257.7,462.9c0.9-0.5,1.4,0,1.8,0.9s0,1.8-0.9,1.8s-2.3,3.2-3.2,0.9
						C255.4,465.7,256.3,463.4,257.7,462.9z M234.1,464.8c0.5,0,1.4,0.5,1.8,0.9c0.5,0.9,0,1.4-0.9,1.8c-0.9-1.8-4.2,0-4.2-1.8
						C230.4,464.3,232.7,464.8,234.1,464.8z M234.6,468.9c0,0.5-0.9,0.9-1.4,0.9c-1.4,0-3.2,1.8-3.2,0
						C230,468,233.6,466.1,234.6,468.9z M235.5,444.4c2.3,6-2.3,12-6.9,15.7c-0.9,0.9-2.3,1.8-2.3,0c-0.5-4.2,4.6-5.1,5.1-8.8
						c-0.5,0-1.4,0-1.8,0c-0.9,0.9-1.4,2.3-1.8,3.2c-0.9,0.9-2.3,4.2-2.8,1.8C223.5,450,231.3,447.6,235.5,444.4z M223.9,468
						c-1.4,0.9-2.8-0.5-3.2-1.8c-0.5-1.8,1.4-2.8,3.2-2.3C227.2,464.8,225.8,467.1,223.9,468z M223.5,438.9c2.8,6,0.9,10.2-1.8,17.6
						c-5.5-4.6,1.8-7.9-0.9-12.5c-2.8,1.8-0.9,6.5-3.7,8.8C214.2,447.6,219.3,442.1,223.5,438.9z M217,459.7
						c1.4-0.9,2.8,0.5,3.2,1.8c0.9,2.3-0.9,3.7-2.3,5.1c-0.5-1.4-2.3-0.5-2.8-1.8C215.2,462.4,215.2,460.6,217,459.7z M215.2,457.8
						c0.9,1.8,0,3.7-1.8,4.2c-2.3,0.5-3.7-3.7-1.4-4.6C212.8,456.4,214.7,456,215.2,457.8z M207.8,475.4c1.4-2.3,5.1-0.9,5.1,1.8
						c0,0.5-0.9,0.9-1.8,0.9C209.1,478.2,206.4,477.2,207.8,475.4z M205.9,468.9c0.5-0.9,1.4-2.3,2.3-2.3c1.8-0.5,2.8,1.4,2.3,3.2
						c0,0.5-0.5,1.4-0.9,1.8C208.2,472.1,205.4,471.7,205.9,468.9z M209.1,440.2c1.4-1.4,1.8-3.2,3.2-4.6c0.9,4.2,2.8,11.6,0,15.7
						c0,0-1.4-0.5-1.4-0.9c-0.9-3.2,1.4-6.5,0.5-9.7c0-0.5-0.9,0.5-1.4,0.5C209.6,441.6,208.7,440.7,209.1,440.2z M202.2,450
						c0.5-0.9,1.8-1.8,3.2-1.8c1.8,0.5,2.3,2.8,1.4,4.2C205.9,454.6,201.3,452.7,202.2,450z M203.1,456c0.9,0.5,1.8,0.9,2.8,1.8
						c-1.4,0.5-0.5,2.3-1.8,2.8c-1.8,0.5-3.7-0.5-3.2-2.3C200.8,456.9,201.7,455.5,203.1,456z M201.3,440.7
						c-0.9,0.9-0.9,3.2-3.7,2.8c-2.8-0.9-1.8-3.7,0-4.2C199.4,438.4,200.4,439.8,201.3,440.7z M195.7,428.2
						c-2.8,0.5-2.8-0.5-2.3-1.8c0.5-0.9,0.9-1.4,1.8-1.8c0.5,0.5,1.4,0.9,1.8,1.8C197.1,427.3,196.7,428.2,195.7,428.2z
						 M197.6,428.7c1.4,0,0.9,1.4,0.9,2.3h-1.8C197.1,430.1,196.7,428.7,197.6,428.7z M195.3,437c-1.4,0-1.4-1.8,0-3.2
						C195.7,435.2,196.7,437,195.3,437z M195.3,447.2c0.9,0,0.9,0.9,0.9,1.8c0,0.9,0,2.3-0.9,2.8c-1.8,0.5-2.8-0.5-3.2-1.8
						C191.6,447.6,193,446.7,195.3,447.2z M197.6,456.9c0.5,0,1.4,0.5,1.8,0.9c0.9,2.8-2.3,4.2-4.2,3.2c-1.4-0.5-2.3-1.8-1.8-3.2
						C194.4,456,196.2,456.9,197.6,456.9z M204.1,419c0.5-0.5,1.8,0,1.4,0.9c-1.8,5.1,0,9.7-3.7,13.9c-0.9,0.9-2.3,3.2-3.2,0.9
						c-0.9-2.8,2.3-5.5,1.4-8.8c-0.5,0.5-0.5,0.9-0.9,0.9c-1.4-0.5-1.4-1.8-0.9-2.3C199.9,422.2,201.7,420.4,204.1,419z
						 M197.6,405.6c1.4,4.6,1.8,8.8,1.4,13.4c0,0.9-1.8,3.2-3.2,0.9c-1.4-2.3,2.8-5.1-0.5-6.9c0,0-0.5,0-0.5,0.5
						C193,410.7,196.2,407.4,197.6,405.6z M194.4,412.5c1.4,3.2,1.4,6.5,0,9.7c-0.5-0.5-0.9-0.5-0.9-0.9
						C193.4,418.5,192,415.3,194.4,412.5z M185.6,400.9c3.7,7.9,6.9,16.2,7.9,24.5c0,0-1.4,0.9-1.4,0.5c-6-4.2-2.3-12-6.5-17.6
						c-0.5,4.2,1.4,6.9,0.5,11.6c-0.5,2.8-1.4-2.8-1.4-4.2C182.8,412,183.7,406,185.6,400.9z M191.1,431.5c0.5,0.9,1.4,3.7-0.5,4.2
						c-0.5,0-1.4-0.9-1.4-1.4c-1.8-4.2-5.5-6.9-8.8-9.7C185.6,420.8,189.7,427.8,191.1,431.5z M191.6,441.6c0,0.9-0.9,0.9-1.8,0.9
						c-0.9,0-2.3,0-2.8-0.9c-0.5-1.8,0.5-2.8,1.8-3.2C191.1,437.9,192,439.8,191.6,441.6z M174.9,422.2c0-0.5,0.9-1.4,1.4-0.5
						c3.7,5.1,8.3,8.3,11.6,12.9C180.9,437.5,177.7,427.3,174.9,422.2z M179.6,440.7c-0.5-0.9,2.3-0.9,2.8-0.5
						c2.8,3.7,6.9,2.8,8.8,6c0.5,0.9-1.8,0.9-3.2,0.5C184.2,446.3,180.9,443.9,179.6,440.7z M183.3,451.8c-2.3-0.9,3.7-2.8,5.5-2.8
						c1.4,0,1.8,2.3,1.8,4.2c1.8-0.5,3.7,0,4.2,1.8c0,0.5-0.9,1.4-1.4,1.4C189.3,456.9,186,453.2,183.3,451.8z M187.9,460.1
						c0.5-0.9,0.9-1.4,1.8-1.8c0.9-0.5,1.4,0,1.8,0.9c0.5,0.9,0.5,2.3-0.9,2.8c-0.5,0-1.4,0-1.8,0
						C188.3,461.5,187.4,461.1,187.9,460.1z M187,466.6c4.2-4.2,11.1-5.5,16.6-3.7c-3.2,2.3-7.4,0.5-10.6,2.8
						c1.4,0.5,3.2-0.9,4.2,0.9c0,0-0.5,0.5-0.9,0.9C193.9,470.3,189.7,468,187,466.6z M200.4,475.4c-1.4,0.9-2.8,1.8-4.6,0
						c2.3-1.8,6.9-6.5,8.3-3.2C204.1,471.2,202.7,474,200.4,475.4z M198.5,470.8c-1.8,0.5-2.3,2.8-4.2,3.7c-0.5,0,0,0.9,0.9,1.4
						c0.5,0,0.9,0,0,0l0,0c-0.9,0.5-3.7,1.4-3.7,0.9c0-5.1,7.9-12.5,13.4-9.7C203.1,469.4,200.8,469.8,198.5,470.8z M205,461.1
						c1.4-0.5,0.5-2.8,2.8-2.8c1.8,0,1.4,2.3,2.8,2.8C209.1,463.4,205.9,463.4,205,461.1z M200.4,490.2c-2.8-4.6,1.8-10.6,6.5-12
						c0.5,0,1.4,0.9,0.9,1.4c-1.8,2.3-4.6,3.7-4.2,6.9c2.8-2.8,5.1-5.1,7.9-7.9c0.5,0.5,1.8,1.4,1.4,1.8c-0.5,2.3-2.3,3.7-4.2,5.5
						C205.9,487.9,202.7,487.9,200.4,490.2z M214.2,492c-0.5,0.9-1.8,2.3-2.3,2.3c-0.9,0-2.3-1.4-2.3-2.3c-0.5-2.3-0.9-6.5,1.4-6.5
						c1.8,0,0,3.7,0.9,4.2C214.2,490.6,214.7,491.1,214.2,492z M216.1,480.5c0.5,3.2,0,6.5-1.8,9.7c-1.8-4.2-1.8-9.2,0.9-12
						c0.5-0.5,1.4,0,1.8,0.9C216.5,479.1,216.1,479.5,216.1,480.5z M215.2,472.1c-0.9,0.5-1.8-0.5-2.3-1.4c-0.5-1.4,0.9-1.8,1.8-2.3
						c1.4-0.9,1.8,0.9,2.3,1.8C217.9,471.2,216.1,472.1,215.2,472.1z M218.9,470.8c1.4-0.5,2.8,0.5,3.2,1.8c0,0.5-0.9,1.4-1.4,1.8
						c-0.5,0.5-1.4,0.9-1.8,0.9C216.5,474.5,216.5,471.7,218.9,470.8z M218.4,482.3c0-2.3,5.1-2.3,4.6,0.9
						C222.1,486.9,218.4,483.7,218.4,482.3z M223.5,479.5c-1.8,0.9-2.8-0.5-3.2-1.8c-0.5-0.9,0.5-1.8,0.9-1.4
						c1.4,0.5,3.2,0.9,3.7,2.3C223.9,479.1,223.5,479.5,223.5,479.5z M223.5,474.5c0.5-1.8,2.3-0.9,3.2-0.9c0.5,0,1.4,0.9,0.9,1.4
						c-0.5,0.9-0.9,2.3-2.3,1.8C222.1,476.3,223.5,475.4,223.5,474.5z M226.7,486.5c-0.5,0-1.4-0.5-1.4-0.9c-0.5-0.9,0-1.4,0.9-1.8
						C225.8,485.1,229,485.1,226.7,486.5z M228.6,484.2c-0.9-0.5-3.2-0.5-2.8-2.3c0.9-3.2,3.7-0.9,5.1,0.9
						C230.4,482.8,230,484.6,228.6,484.2z M230.4,479.5c-0.9-0.5-1.4-0.9-1.4-1.8c0-0.5,0.9-1.4,1.4-1.8c0.5,0.5,1.4,0.9,1.4,1.8
						C232.3,478.6,231.8,480,230.4,479.5z M231.3,473.5c-0.5-0.9,0-1.4,0.9-1.8c0.9,0,2.3-0.5,2.8,0.9c0.5,0.9,0,1.4-0.9,1.8
						C232.7,474.5,231.8,474.5,231.3,473.5z M237.3,487.4c-1.4,1.8-3.2,0.9-4.2-0.9c0.9-0.5,1.4-2.3,2.3-1.4
						C236.4,485.6,237.8,486,237.3,487.4z M236.4,481.9c-1.8-0.5-2.3-3.2,0-3.7c0.5,0,0.9,0.9,0.9,1.4
						C237.3,480.5,237.3,482.3,236.4,481.9z M240.1,476.8c-0.9,0.5-2.3,0.5-2.8-0.9c0-0.5,0-1.4,0-1.8c1.4-2.3,3.7-0.5,4.2,0.9
						C241.5,475.8,240.6,476.8,240.1,476.8z M243.8,477.7c-2.3-0.9-0.5-3.7,0.9-4.2c0.9-0.5,2.3-0.5,2.3,0.9
						C247.5,477.2,244.3,478.2,243.8,477.7z M253.1,476.3l-2.3,0.5c-1.4-0.5-2.3-0.9-1.4-2.3c0.5-0.9,1.8-2.8,3.2-0.9
						C252.6,473.5,253.1,475.4,253.1,476.3z M251.7,472.1c0-0.9-3.2-1.4-0.9-2.3c1.4-0.5,2.8,0.9,5.1-0.9c0.5-0.5,1.4,0.9,0.9,1.4
						C255.4,473.1,253.5,471.7,251.7,472.1z M257.7,475.8c-0.5,0.9-0.9,3.2-2.3,0.9c-0.9-1.4,0.5-2.8,1.8-3.2
						C258.2,473.5,258.2,475.4,257.7,475.8z M257.7,468c0.5-0.9,0.9-1.4,1.8-1.8c0.5,0,1.4,0.9,0.9,1.4c-0.5,0.9-0.9,1.4-1.8,1.8
						C258.2,469.8,257.2,468.9,257.7,468z M259.5,476.3c-2.3-0.5,0.5-4.2,1.8-5.5C263.2,473.1,261.4,476.8,259.5,476.3z
						 M266.5,476.3c-0.9,0.9-4.2,1.8-4.6,1.8l1.8-2.8l0.9-2.8l2.3-1.8c0,0,0.9,1.4,0.9,2.3C267.9,474,267.4,475.4,266.5,476.3z
						 M268.3,469.8c0.5-0.5,3.2-3.2,3.7-4.2c0,0,0.5,0.9,0.5,1.4c0.5,0.5,0.5,1.4,0.5,1.8s-1.8,1.4-1.8,1.4l-1.8,2.3l-0.5-0.5
						c0-0.5-0.5-0.5-0.9-0.9C267.9,470.3,267.9,470.3,268.3,469.8z M273.4,473.5c-1.8,0.5-2.3,2.8-3.7,4.2c-0.5,0.5-1.4-0.5-1.4-0.5
						c1.4-2.8,2.3-5.5,5.1-6.9c0.5,0,1.4,0.9,0.9,1.4C273.9,472.1,274.3,473.1,273.4,473.5z M277.1,474.5c0,0.9,0,0.9-0.9,1.4
						c-0.5,0.5-1.4-0.5-1.8-0.9c-0.5-0.9,0-1.4,0.9-1.8c0.5-0.5,0.5-0.5,1.4-0.5C277.1,473.1,277.1,474,277.1,474.5z"/>
				</g>
			</g>
			<g>
				<g>
					<path fill="#ECECEC" d="M439.4,426.4l1.8-8.3h-2.8l3.7-13.4l-7.4,4.6l-1.4-8.8l-11.1,9.7l3.7,1.8l-5.1,6l-3.2-5.1l-9.7,9.2v0.9
						l-12,13.4l2.8,0.9l-6.9,25.4c0,0-3.7-2.3-6-0.9c-2.8,1.4-5.1,7.9-6.5,8.8c-1.4,0.9-7.4,2.3-8.3,0.9c-0.9-1.4-8.3-9.7-7.9-13.9
						c0,0-0.9-3.7-6.9-3.7c0,0-3.2-4.6-4.6-4.6c-1.4,0-3.7,0-4.6-0.5c-0.5-0.5-4.2-1.4-4.2-1.4l-2.8-0.5v18.5c0,0,0,3.7-3.7,6
						c0,0,0,5.5,6.5,6c6.5,0,5.1,2.3,6.5,0.9c1.4-1.4,5.1,1.4,5.1,0c0-1.8,6,1.4,6,1.4l0.9-1.8l19.4,0.5c0,0,0.9,2.8,0,3.7
						c-1.4,0.9-4.2,3.2-4.2,3.2h-5.1l-14.3,13.9v1.4h3.7v3.7l2.8,0.5v4.6h6l2.8,4.2l4.6-1.4l5.1,6l3.2-3.7l2.3,1.4l4.2-5.1l-0.5-25
						c0,0,2.3-0.5,3.2,0c0.9,0.9,3.2,0.5,3.2,0.5s4.6-4.2,3.2-7.4c0,0,6-1.8,5.5-4.6c0-2.8-2.3-2.8-2.8-4.6l13.4-12.5l2.8,0.9l6-9.2
						l3.7,2.3l2.3-10.2h1.8l0.5-5.1l3.7,1.8l4.6-12.9L439.4,426.4z M359.4,464.8c1.8-2.8,5.5,0,5.1,2.3c0,0.5-0.9,1.4-1.4,1.8
						C361.7,467.1,358,467.5,359.4,464.8z M343.2,448.6c2.3,2.3,6.5,5.1,4.6,7.4C344.6,459.7,340.5,452.7,343.2,448.6z M344.1,472.6
						c0,0.5-0.5,1.4-0.9,1.8c-0.9-1.8-3.2-6-0.9-6.5C344.1,467.5,344.6,470.3,344.1,472.6z M342.8,464.8c-0.5-1.8-1.4-5.1,0.9-5.5
						c1.8-0.5,3.2,3.2,2.8,4.6C345.5,467.1,342.8,465.7,342.8,464.8z M348.3,474c-2.8,1.4-2.3-1.8-3.7-3.2c1.4-0.5,0.5-2.8,1.8-2.3
						c1.4,0.5,1.8,2.8,2.8,4.2C349.7,473.1,348.8,474,348.3,474z M352.9,466.6c0,0.9-0.9,0.9-1.8,0.9c-2.3-0.5-3.2-2.8-4.2-4.6
						c-0.5-0.9,0-1.4,0.9-1.4c1.8,0,3.7,0.9,5.1,2.8C353.4,464.3,352.9,465.7,352.9,466.6z M352.9,459.2c-2.3-1.4-6-6-2.3-6.9
						c1.4-0.5,3.7,2.8,4.2,5.5C354.8,458.3,354.3,460.1,352.9,459.2z M353.9,462.9c0-0.9,0.9-1.4,1.8-0.9c2.8,1.8,3.7,4.2,3.2,6.9
						c0,0.5-1.4,1.4-2.3,0.9C354.3,468.5,353.4,465.7,353.9,462.9z M358.9,477.7c-1.4-1.4-5.1-0.9-4.2-4.6c0.5-1.4,1.8-0.9,2.3-0.9
						c1.4,0.9,2.3,2.3,3.7,3.2C360.3,476.8,359.9,477.2,358.9,477.7z M365,473.1c-1.4,0.9-3.2-0.5-3.2-2.3c0-0.5,0.9-1.4,1.4-0.9
						C365,470.8,366.3,472.1,365,473.1z M369.6,473.5c0,0.5-0.5,1.4-0.9,1.8c-0.9,0.5-1.4,0-1.8-0.9c0-0.5,0-1.4,0-1.8
						c0.5-0.5,0.9-1.4,1.8-0.9C369.6,472.1,370,472.6,369.6,473.5z M374.2,475.4c-0.9,0.5-1.8,1.4-2.8,0c0-0.5,0-1.4,0-1.8
						c0.5-0.5,1.4-1.4,1.4-0.9C373.7,473.5,376.5,473.5,374.2,475.4z M377,475.8c-2.3-0.9-0.5-3.2,0.9-4.2c0.5,0.9,2.3,0.9,1.8,2.8
						C378.8,477.2,377.4,476.3,377,475.8z M433.8,411.1l4.6-2.3l-0.9,4.6h-1.8l-6,8.3l-1.4-0.9l6.5-7.9L433.8,411.1z M437.1,416.2
						v3.7h-2.8v-1.8L437.1,416.2z M431.5,424.1l-0.5,2.8l-4.6,3.2v-3.2l2.3-3.2L431.5,424.1z M427.8,415.7v-1.8h3.2v1.4L427.8,415.7
						z M425.1,409.7l6.5-5.1l0.5,4.2l-4.6,3.2L425.1,409.7z M426.4,413.4l0.5,2.8l-1.8,2.3h-2.3L426.4,413.4z M422.7,419.9h4.2v4.6
						l-16.2,21.7l-0.5-0.9l14.3-21.3l-1.8-0.9V419.9z M410.3,453.7l-6.5,7.4l-0.9-0.5l6.5-7.4L410.3,453.7z M420.4,421.3l0.5,3.7
						l-7.9,10.2l-9.2,20.8h-1.8l0.9-1.8l3.2-5.1l1.4-4.6l6-12.5l3.7-6.9l-1.8-0.9l4.6-4.2L420.4,421.3z M398.2,466.6
						c-0.9-2.3,1.4-3.7,2.8-4.2c2.3,0,1.4,2.3,0,4.2C399.6,467.1,398.7,468,398.2,466.6z M397.8,472.6c-1.8,2.3-4.6,0.5-4.6-1.4
						c0-0.9,1.4-2.3,2.3-2.3C397.3,468.5,399.2,470.3,397.8,472.6z M416.3,416.2l1.4,2.3l-3.7,3.2l-1.8-2.3L416.3,416.2z
						 M413.5,426.8l-0.9,2.8l-1.8,2.8l-0.9-3.7l1.4-1.8L413.5,426.8z M410.7,422.2v2.8h-1.8l-0.5-1.8L410.7,422.2z M405.2,429.6
						l1.8-2.8l0.9,1.4v4.2l-1.4,1.4l-1.8-1.4L405.2,429.6z M406.6,435.6l2.3,0.5l-0.9,2.3l-1.8,3.2l-0.9,4.6h-1.8l1.8-4.2
						L406.6,435.6z M400.6,437l-1.4-1.4l4.2-3.7l1.4,3.2l-9.7,30.1l-2.3-1.4L400.6,437z M392.7,476.8c-0.5,0.9-0.9,1.4-1.8,1.8
						c-1.8,0.5-2.8-0.9-2.3-2.3c0-0.9,0.9-1.4,1.4-1.8C390.4,475.8,393.2,474.9,392.7,476.8z M387.6,468c0-0.9,0.9-1.4,1.8-0.9
						c0.9,0.5,1.8,1.4,2.8,2.8c0.5,0.9,0,1.4-0.9,1.8c-0.5,0.5-1.4,0.9-1.8,0.9C387.6,471.7,387.1,469.8,387.6,468z M382.1,477.2
						c0-0.5,0.9-1.4,1.4-0.9c0.9,0.9,1.8,1.8,1.8,3.2c0,0.9-0.9,1.8-1.4,1.4C382.1,480.9,381.6,478.6,382.1,477.2z M361.7,499.9
						c-0.5,0-1.4-0.9-0.9-1.4c3.2-3.2,5.1-5.5,8.8-8.8c0.5-0.5,1.8,0.5,0.9,0.9c-2.3,3.2-4.6,5.1-7.4,8.3
						C363.1,499.4,362.2,499.9,361.7,499.9z M363.6,503.6c-0.5-0.9-0.5-2.8,0-3.2c3.7-3.2,7.9-6,9.7-10.6c-0.9,0-2.8,0-2.3-0.5
						c1.4-1.8,6.9-2.3,6-0.5c-3.2,5.1-6.5,10.2-10.6,15.3C365.4,504.1,364,505,363.6,503.6z M365.9,506.4c5.1-6.9,9.7-12.5,14.3-19
						c-1.8,7.4-6.9,12.5-10.2,19.4C369.6,508.7,364,508.7,365.9,506.4z M373.3,509.6c-0.9-0.5-2.3-0.9-1.8-2.3
						c3.7-5.5,5.5-12,10.6-15.3c1.4-0.9-0.5,2.8-0.9,3.7c-2.3,4.6-5.1,8.3-6.9,13.4C374.7,509.1,373.7,509.6,373.3,509.6z M377,511
						c-0.5,0-1.8-1.4-1.4-1.4c2.3-3.7,3.2-7.9,6-10.6c0.9,4.2-1.4,6.9-2.8,10.6C378.4,510.5,377.4,511,377,511z M382.5,514.7
						c-0.5,1.4-2.8-0.5-2.8-1.4c0-7.4,6.9-14.3,4.2-22.2c1.4-0.5,0.5-2.8,1.8-2.3c0.5,0,1.8,0.9,1.4,1.4
						C384.8,498.5,385.3,505.9,382.5,514.7z M388.1,511.4c-0.5,0.9-2.3,0.5-2.3-0.9c0.9-6.5,0.9-12.9,2.8-19.4c0-0.5,1.4,0,1.4,0.9
						C389.5,498.5,389.9,505,388.1,511.4z M391.8,482.3c-0.5,0-1.4-0.9-0.9-1.4c0.5-0.9,0.9-1.8,2.8-1.8c0.9,0,2.8,0,2.3,0.9
						C395.5,480.9,394.1,482.8,391.8,482.3z M398.7,483.2c-0.5,0.9-1.8,1.8-3.2,1.8c-0.5,0-1.4-0.9-0.9-1.4c0.5-0.9,1.8-2.3,2.8-2.3
						C400.1,480.9,398.7,482.3,398.7,483.2z M400.6,474.5c-0.5,0-0.9,0-1.8,0c0-0.9-0.5-2.3,0.9-2.8c0.9-0.5,1.4,0,1.8,0.9
						C401.9,473.5,401.5,474,400.6,474.5z M404.3,474.5c0,0.5-0.5,0.5-0.9,0.9c-0.5,0-1.4,0.5-1.8,0s0-1.4,0.9-1.8
						S403.8,473.5,404.3,474.5z M419.5,456.4l-2.8-0.5l-12.5,10.6l-1.4-0.9l12.9-11.1l-0.5-1.8l7.4-2.3L419.5,456.4z M417.2,448.1
						l3.2-3.7l1.4,1.4l-3.2,3.2L417.2,448.1z M422.3,438.9l-9.7,12.5l-2.3-0.9l10.2-12.5l-0.5-1.8l5.1-2.8l-0.9,6.5L422.3,438.9z
						 M427.8,448.1l-3.2-1.4l4.6-4.6L427.8,448.1z M430.1,440.2l-2.8-0.9l-0.9-2.3l4.6-1.4L430.1,440.2z M436.6,435.6l-3.7-2.3
						l5.5-4.2L436.6,435.6z M438,425.5l-6.5,6.5l-0.9-0.9l4.6-6.9l-1.4-2.8l5.1-0.5L438,425.5z"/>
				</g>
			</g>
		</g>
	</g>
</g>
<linearGradient id="Gradient__x28_for_png_x29__1_" gradientUnits="userSpaceOnUse" x1="306" y1="619" x2="306" y2="216.7041">
	<stop  offset="0" style="stop-color:#FFFFFF"/>
	<stop  offset="0.5508" style="stop-color:#FFFFFF;stop-opacity:0.5"/>
	<stop  offset="1" style="stop-color:#FFFFFF;stop-opacity:0"/>
</linearGradient>
<rect id="Gradient__x28_for_png_x29_" x="81" y="216.7" display="none" fill="url(#Gradient__x28_for_png_x29__1_)" width="450" height="402.3"/>
</svg>
