<?xml version="1.0" encoding="utf-8"?>
<!-- Generator: Adobe Illustrator 19.2.0, SVG Export Plug-In . SVG Version: 6.00 Build 0)  -->
<svg version="1.1" xmlns="http://www.w3.org/2000/svg" xmlns:xlink="http://www.w3.org/1999/xlink" x="0px" y="0px"
	 viewBox="0 0 575 120" enable-background="new 0 0 575 120" xml:space="preserve">
<g id="ReaderAids">
	<g>
		<g>
			<path fill="#77888D" d="M153.6,85.8h-3.2v4.7h-1.7V77.6h4.9c2.8,0,3.7,1.2,3.7,3.2v1.9c0,1.5-0.6,2.6-2.1,3l3.3,4.9h-1.9
				L153.6,85.8z M153.7,79.1h-3.2v5.3h3.2c1.6,0,2.1-0.4,2.1-1.7v-1.9C155.8,79.5,155.3,79.1,153.7,79.1z"/>
			<path fill="#77888D" d="M165.9,89.3c0.9,0,2-0.2,3-0.4l0.2,1.3c-0.9,0.3-2.1,0.5-3.3,0.5c-2.8,0-3.7-1.3-3.7-3.5v-2.8
				c0-2,0.9-3.5,3.7-3.5c2.8,0,3.5,1.6,3.5,3.6v2h-5.6v0.8C163.7,88.7,164.1,89.3,165.9,89.3z M163.7,85.1h4v-0.8
				c0-1.3-0.4-2.1-2-2.1c-1.5,0-2.1,0.7-2.1,2.1V85.1z"/>
			<path fill="#77888D" d="M180.2,90.5h-1.4l-0.1-0.7c-0.8,0.6-1.9,0.9-3.1,0.9c-1.8,0-2.5-1-2.5-2.7c0-2,1-2.7,2.9-2.7h2.5v-1.5
				c0-1.2-0.5-1.6-2.1-1.6c-0.9,0-2.1,0.2-2.8,0.3l-0.2-1.3c0.9-0.2,2.1-0.4,3.1-0.4c2.7,0,3.6,1,3.6,3.1V90.5z M178.6,86.7h-2.4
				c-1,0-1.4,0.3-1.4,1.3c0,1,0.2,1.4,1.3,1.4c0.8,0,1.7-0.3,2.4-0.8V86.7z"/>
			<path fill="#77888D" d="M184.5,84c0-1.9,0.9-3.1,3.1-3.1c0.8,0,1.9,0.1,2.7,0.3v-4l1.6-0.2v13.5h-1.4l-0.1-0.9
				c-0.8,0.6-1.9,1-3.1,1c-1.9,0-2.7-1-2.7-2.9V84z M190.3,82.6c-0.9-0.2-1.9-0.3-2.6-0.3c-1.1,0-1.5,0.5-1.5,1.6v3.9
				c0,1,0.3,1.5,1.5,1.5c0.9,0,2-0.5,2.7-1.1V82.6z"/>
			<path fill="#77888D" d="M200.1,89.3c0.9,0,2-0.2,3-0.4l0.2,1.3c-0.9,0.3-2.1,0.5-3.3,0.5c-2.8,0-3.7-1.3-3.7-3.5v-2.8
				c0-2,0.9-3.5,3.7-3.5c2.8,0,3.5,1.6,3.5,3.6v2h-5.6v0.8C197.9,88.7,198.3,89.3,200.1,89.3z M197.9,85.1h4v-0.8
				c0-1.3-0.4-2.1-2-2.1c-1.5,0-2.1,0.7-2.1,2.1V85.1z"/>
			<path fill="#77888D" d="M212.1,82.4c-0.9,0.4-1.9,1.1-2.7,1.6v6.5h-1.6v-9.4h1.4l0.1,1.3c0.7-0.5,1.7-1.1,2.6-1.5L212.1,82.4z"/>
			<path fill="#77888D" d="M232.1,90.5h-1.7l-1.1-3.1h-5.5l-1,3.1h-1.7l4.4-12.9h2.2L232.1,90.5z M226.6,78.8l-2.3,7.1h4.6
				L226.6,78.8z"/>
			<path fill="#77888D" d="M235.9,79.6v-2.3h1.6v2.3H235.9z M235.9,90.5v-9.4h1.6v9.4H235.9z"/>
			<path fill="#77888D" d="M242,84c0-1.9,0.9-3.1,3.1-3.1c0.8,0,1.9,0.1,2.7,0.3v-4l1.6-0.2v13.5H248l-0.1-0.9c-0.8,0.6-1.9,1-3.1,1
				c-1.9,0-2.7-1-2.7-2.9V84z M247.8,82.6c-0.9-0.2-1.9-0.3-2.6-0.3c-1.1,0-1.5,0.5-1.5,1.6v3.9c0,1,0.3,1.5,1.5,1.5
				c0.9,0,2-0.5,2.7-1.1V82.6z"/>
			<path fill="#77888D" d="M256.9,90.7c-1,0-2.2-0.2-3-0.5l0.2-1.3c0.8,0.2,1.9,0.4,2.7,0.4c1.5,0,1.7-0.3,1.7-1.3s-0.1-1.1-2-1.6
				c-2.3-0.6-2.6-1.1-2.6-3c0-1.7,0.8-2.5,3.3-2.5c0.9,0,1.9,0.1,2.7,0.3l-0.1,1.3c-0.8-0.2-1.8-0.3-2.6-0.3c-1.4,0-1.6,0.3-1.6,1.2
				c0,1,0,1.2,1.6,1.6c2.7,0.7,2.9,1,2.9,2.9C260.1,89.8,259.6,90.7,256.9,90.7z"/>
			<path fill="#77888D" d="M272.6,82.4h1.7v2.2h-1.7V82.4z M272.6,88.3h1.7v2.2h-1.7V88.3z"/>
			<path fill="#77888D" d="M280.5,82.4h1.7v2.2h-1.7V82.4z M280.5,88.3h1.7v2.2h-1.7V88.3z"/>
			<path fill="#77888D" d="M299.1,90.5h-1.7V77.6h1.7V90.5z"/>
			<path fill="#77888D" d="M309.8,90.5v-7.2c0-0.6-0.3-0.9-0.9-0.9c-0.7,0-2.1,0.4-3.2,0.9v7.1h-1.6v-9.4h1.3l0.2,0.8
				c1-0.5,2.7-1,3.8-1c1.5,0,2.1,0.9,2.1,2.4v7.2H309.8z"/>
			<path fill="#77888D" d="M318.8,90.7c-1,0-2.2-0.2-3-0.5l0.2-1.3c0.8,0.2,1.9,0.4,2.7,0.4c1.5,0,1.7-0.3,1.7-1.3s-0.1-1.1-2-1.6
				c-2.3-0.6-2.6-1.1-2.6-3c0-1.7,0.8-2.5,3.3-2.5c0.9,0,1.9,0.1,2.7,0.3l-0.1,1.3c-0.8-0.2-1.8-0.3-2.6-0.3c-1.4,0-1.6,0.3-1.6,1.2
				c0,1,0,1.2,1.6,1.6c2.7,0.7,2.9,1,2.9,2.9C322.1,89.8,321.5,90.7,318.8,90.7z"/>
			<path fill="#77888D" d="M326.4,79.6v-2.3h1.6v2.3H326.4z M326.4,90.5v-9.4h1.6v9.4H326.4z"/>
			<path fill="#77888D" d="M340.2,82l-1.1,0.2c0.3,0.5,0.5,1.1,0.5,1.9v0.4c0,2-1.2,3.2-3.7,3.2c-0.3,0-0.7,0-1-0.1
				c-0.3,0.3-0.7,0.6-0.7,1c0,0.4,0.2,0.5,0.6,0.5c1,0.1,1.5,0.2,2.7,0.3c1.7,0.2,2.4,0.8,2.4,2.3c0,2.1-0.7,2.7-4.1,2.7
				c-0.9,0-2.4-0.2-3.4-0.4l0.2-1.3c1,0.2,2.2,0.4,3.2,0.4c2.4,0,2.6-0.3,2.6-1.3c0-0.8-0.3-0.9-1.4-1c-1-0.1-1.4-0.1-2.5-0.2
				c-1.4-0.1-1.8-0.9-1.8-1.7c0-0.7,0.4-1.3,0.9-1.7c-0.9-0.5-1.3-1.4-1.3-2.7v-0.4c0-2.1,1-3.2,3.7-3.2c0.5,0,1.1,0.1,1.6,0.2h2.7
				V82z M335.9,82.2c-1.6,0-2.1,0.5-2.1,1.9v0.4c0,1.4,0.6,1.9,2.1,1.9c1.5,0,2.1-0.6,2.1-1.9v-0.4
				C338.1,82.8,337.5,82.2,335.9,82.2z"/>
			<path fill="#77888D" d="M349.8,90.5v-7.2c0-0.6-0.3-0.9-0.9-0.9c-0.7,0-2.1,0.4-3.2,1v7.1h-1.6V77.2l1.6-0.2v4.9
				c1-0.5,2.5-1,3.6-1c1.5,0,2.1,0.9,2.1,2.4v7.2H349.8z"/>
			<path fill="#77888D" d="M361.1,90.3c-0.6,0.2-1.3,0.3-2,0.3c-1.6,0-2.3-0.6-2.3-2.1v-6.1h-1.7v-1.4h1.7v-2.3l1.6-0.2v2.6h2.7
				l-0.1,1.4h-2.5v5.8c0,0.7,0.1,1,1,1c0.4,0,0.9-0.1,1.5-0.2L361.1,90.3z"/>
			<path fill="#77888D" d="M374,90.5h-1.7V77.6h1.7V90.5z"/>
			<path fill="#77888D" d="M385.1,90.5v-7.2c0-0.6-0.3-0.9-0.9-0.9c-0.7,0-2.1,0.4-3.2,0.9v7.1h-1.6v-9.4h1.3l0.2,0.8
				c1-0.5,2.7-1,3.8-1c1.5,0,2.1,0.9,2.1,2.4v7.2H385.1z"/>
			<path fill="#77888D" d="M396.4,90.3c-0.6,0.2-1.3,0.3-2,0.3c-1.6,0-2.3-0.6-2.3-2.1v-6.1h-1.7v-1.4h1.7v-2.3l1.6-0.2v2.6h2.7
				l-0.1,1.4h-2.5v5.8c0,0.7,0.1,1,1,1c0.4,0,0.9-0.1,1.5-0.2L396.4,90.3z"/>
			<path fill="#77888D" d="M403.7,90.7c-2.8,0-3.8-1.6-3.8-3.5v-2.7c0-2,1.1-3.5,3.8-3.5c2.7,0,3.8,1.6,3.8,3.5v2.7
				C407.5,89.1,406.4,90.7,403.7,90.7z M403.7,82.3c-1.5,0-2.2,0.7-2.2,2.1v2.8c0,1.4,0.7,2.1,2.2,2.1c1.5,0,2.2-0.7,2.2-2.1v-2.8
				C405.9,83,405.1,82.3,403.7,82.3z"/>
			<path fill="#77888D" d="M419.4,90.5V77.6h7.7v1.5h-6v4.3h5.6v1.5h-5.6v5.6H419.4z"/>
			<path fill="#77888D" d="M436.4,85.8h-3.2v4.7h-1.7V77.6h4.9c2.8,0,3.7,1.2,3.7,3.2v1.9c0,1.5-0.6,2.6-2.1,3l3.3,4.9h-1.9
				L436.4,85.8z M436.5,79.1h-3.2v5.3h3.2c1.6,0,2.1-0.4,2.1-1.7v-1.9C438.6,79.5,438.1,79.1,436.5,79.1z"/>
			<path fill="#77888D" d="M453,77.6h4.7c2.8,0,3.7,1.2,3.7,3.2v1.9c0,2-1,3.2-3.7,3.2h-3v4.6H453V77.6z M457.7,79.1h-2.9v5.3h2.9
				c1.6,0,2.1-0.4,2.1-1.7v-1.9C459.8,79.5,459.2,79.1,457.7,79.1z"/>
			<path fill="#77888D" d="M467.4,81.1v7.2c0,0.6,0.3,0.9,0.9,0.9c0.7,0,2.1-0.4,3.2-0.9v-7.1h1.6v9.4h-1.3l-0.2-0.8
				c-1,0.5-2.7,1-3.8,1c-1.5,0-2.1-0.9-2.1-2.4v-7.2H467.4z"/>
			<path fill="#77888D" d="M485.3,87.2c0,2.1-0.8,3.5-4,3.5c-0.9,0-2.3-0.1-3.4-0.4V77.2l1.6-0.2v4.6c0.7-0.3,1.8-0.7,3-0.7
				c2,0,2.8,1.1,2.8,2.9V87.2z M479.5,89.1c0.6,0.1,1.3,0.1,1.9,0.1c1.9,0,2.3-0.8,2.3-2v-3.5c0-1-0.4-1.5-1.5-1.5
				c-0.8,0-2,0.4-2.6,0.7V89.1z"/>
			<path fill="#77888D" d="M489.7,90.5V77.2l1.6-0.2v13.5H489.7z"/>
			<path fill="#77888D" d="M496.2,79.6v-2.3h1.6v2.3H496.2z M496.2,90.5v-9.4h1.6v9.4H496.2z"/>
			<path fill="#77888D" d="M502.1,87.3v-3c0-2.2,0.8-3.4,3.8-3.4c0.8,0,1.8,0.1,2.2,0.3l-0.1,1.4c-0.7-0.2-1.4-0.2-2.1-0.2
				c-1.6,0-2.2,0.5-2.2,1.9v3.1c0,1.5,0.5,1.9,2.2,1.9c0.7,0,1.3-0.1,2.1-0.2l0.2,1.4c-0.5,0.2-1.4,0.3-2.3,0.3
				C502.8,90.7,502.1,89.4,502.1,87.3z"/>
			<path fill="#77888D" d="M519,90.5h-1.4l-0.1-0.7c-0.8,0.6-1.9,0.9-3.1,0.9c-1.8,0-2.5-1-2.5-2.7c0-2,1-2.7,2.9-2.7h2.5v-1.5
				c0-1.2-0.5-1.6-2.1-1.6c-0.9,0-2.1,0.2-2.8,0.3l-0.2-1.3c0.9-0.2,2.1-0.4,3.1-0.4c2.7,0,3.6,1,3.6,3.1V90.5z M517.3,86.7h-2.4
				c-1,0-1.4,0.3-1.4,1.3c0,1,0.2,1.4,1.3,1.4c0.8,0,1.7-0.3,2.4-0.8V86.7z"/>
			<path fill="#77888D" d="M528.5,90.3c-0.6,0.2-1.3,0.3-2,0.3c-1.6,0-2.3-0.6-2.3-2.1v-6.1h-1.7v-1.4h1.7v-2.3l1.6-0.2v2.6h2.7
				l-0.1,1.4h-2.5v5.8c0,0.7,0.1,1,1,1c0.4,0,0.9-0.1,1.5-0.2L528.5,90.3z"/>
			<path fill="#77888D" d="M532.5,79.6v-2.3h1.6v2.3H532.5z M532.5,90.5v-9.4h1.6v9.4H532.5z"/>
			<path fill="#77888D" d="M542.3,90.7c-2.8,0-3.8-1.6-3.8-3.5v-2.7c0-2,1.1-3.5,3.8-3.5c2.7,0,3.8,1.6,3.8,3.5v2.7
				C546.1,89.1,545,90.7,542.3,90.7z M542.3,82.3c-1.5,0-2.2,0.7-2.2,2.1v2.8c0,1.4,0.7,2.1,2.2,2.1c1.5,0,2.2-0.7,2.2-2.1v-2.8
				C544.5,83,543.7,82.3,542.3,82.3z"/>
			<path fill="#77888D" d="M556.2,90.5v-7.2c0-0.6-0.3-0.9-0.9-0.9c-0.7,0-2.1,0.4-3.2,0.9v7.1h-1.6v-9.4h1.3l0.2,0.8
				c1-0.5,2.7-1,3.8-1c1.5,0,2.1,0.9,2.1,2.4v7.2H556.2z"/>
			<path fill="#77888D" d="M565.1,90.7c-1,0-2.2-0.2-3-0.5l0.2-1.3c0.8,0.2,1.9,0.4,2.7,0.4c1.5,0,1.7-0.3,1.7-1.3s-0.1-1.1-2-1.6
				c-2.3-0.6-2.6-1.1-2.6-3c0-1.7,0.8-2.5,3.3-2.5c0.9,0,1.9,0.1,2.7,0.3l-0.1,1.3c-0.8-0.2-1.8-0.3-2.6-0.3c-1.4,0-1.6,0.3-1.6,1.2
				c0,1,0,1.2,1.6,1.6c2.7,0.7,2.9,1,2.9,2.9C568.4,89.8,567.8,90.7,565.1,90.7z"/>
		</g>
		<g>
			<path fill="#5C5D5E" d="M147.6,26.1h19.7v5.1h-13.5v9.4h12.5v5.1h-12.5v14.5h-6.2V26.1z"/>
			<path fill="#5C5D5E" d="M192.4,45.1h-12.9v10h14.4v5.1h-20.6V26.1h19.8v5.1h-13.6V40h12.9V45.1z"/>
			<path fill="#5C5D5E" d="M199.4,26.6c2.7-0.5,6.2-0.7,9.9-0.7c6.4,0,10.8,1.3,13.9,3.9c3.3,2.7,5.3,6.7,5.3,12.5
				c0,6.1-2.1,10.6-5.3,13.6c-3.4,3.1-8.8,4.7-15.4,4.7c-3.6,0-6.4-0.2-8.4-0.5V26.6z M205.6,55.5c0.9,0.2,2.2,0.2,3.4,0.2
				c8.1,0.1,12.9-4.4,12.9-13.1c0.1-7.5-4.3-11.8-12.1-11.8c-2,0-3.4,0.2-4.3,0.4V55.5z"/>
			<path fill="#5C5D5E" d="M253,45.1h-12.9v10h14.4v5.1h-20.6V26.1h19.8v5.1h-13.6V40H253V45.1z"/>
			<path fill="#5C5D5E" d="M260,26.6c2.3-0.4,5.8-0.7,9.4-0.7c4.9,0,8.2,0.8,10.5,2.7c1.9,1.6,2.9,3.9,2.9,6.8c0,4.4-3,7.4-6.2,8.6
				v0.2c2.4,0.9,3.9,3.3,4.8,6.6c1.1,4.3,2,8.2,2.7,9.5h-6.4c-0.5-1-1.3-3.8-2.3-8c-1-4.5-2.6-5.9-6.1-6h-3.1v14H260V26.6z
				 M266.2,41.7h3.7c4.2,0,6.8-2.2,6.8-5.6c0-3.7-2.6-5.5-6.7-5.5c-2,0-3.2,0.2-3.8,0.3V41.7z"/>
			<path fill="#5C5D5E" d="M296,50.6l-2.9,9.7h-6.4l10.9-34.1h7.9l11.1,34.1h-6.7l-3.1-9.7H296z M305.7,45.9l-2.7-8.4
				c-0.7-2.1-1.2-4.4-1.7-6.4h-0.1c-0.5,2-1,4.4-1.6,6.4l-2.6,8.4H305.7z"/>
			<path fill="#5C5D5E" d="M321.3,26.1h6.2V55h14v5.2h-20.2V26.1z"/>
		</g>
		<g>
			<path fill="#5C5D5E" d="M365,26.6c2.3-0.4,5.8-0.7,9.4-0.7c4.9,0,8.2,0.8,10.5,2.7c1.9,1.6,2.9,3.9,2.9,6.8c0,4.4-3,7.4-6.2,8.6
				v0.2c2.4,0.9,3.9,3.3,4.8,6.6c1.1,4.3,2,8.2,2.7,9.5h-6.4c-0.5-1-1.3-3.8-2.3-8c-1-4.5-2.6-5.9-6.1-6h-3.1v14H365V26.6z
				 M371.2,41.7h3.7c4.2,0,6.8-2.2,6.8-5.6c0-3.7-2.6-5.5-6.7-5.5c-2,0-3.2,0.2-3.8,0.3V41.7z"/>
			<path fill="#5C5D5E" d="M412.8,45.1H400v10h14.4v5.1h-20.6V26.1h19.8v5.1H400V40h12.9V45.1z"/>
			<path fill="#5C5D5E" d="M447.2,58.7c-2.2,0.8-6.4,1.9-11,1.9c-5.8,0-10.1-1.5-13.4-4.6c-3-2.9-4.8-7.4-4.8-12.5
				c0-10.8,7.7-17.7,19-17.7c4.2,0,7.5,0.9,9.1,1.6l-1.4,5c-1.9-0.8-4.1-1.5-7.7-1.5c-7.3,0-12.4,4.3-12.4,12.2
				c0,7.7,4.8,12.3,11.8,12.3c2.2,0,3.9-0.3,4.7-0.7v-8.5h-6v-4.9h12V58.7z"/>
			<path fill="#5C5D5E" d="M459.8,26.1v34.1h-6.2V26.1H459.8z"/>
			<path fill="#5C5D5E" d="M466.7,53.4c2,1.2,5.1,2.2,8.2,2.2c4,0,6.2-1.9,6.2-4.7c0-2.6-1.7-4.1-6.1-5.7c-5.6-2-9.2-5-9.2-9.9
				c0-5.6,4.7-9.8,12-9.8c3.7,0,6.4,0.8,8.2,1.7l-1.5,5c-1.2-0.7-3.6-1.6-6.8-1.6c-3.9,0-5.7,2.1-5.7,4.1c0,2.6,2,3.8,6.5,5.6
				c5.9,2.2,8.8,5.2,8.8,10.1c0,5.5-4.1,10.2-13,10.2c-3.6,0-7.3-1-9.2-2.1L466.7,53.4z"/>
			<path fill="#5C5D5E" d="M499.7,31.3H490v-5.2h25.8v5.2h-9.8v28.9h-6.2V31.3z"/>
			<path fill="#5C5D5E" d="M538.8,45.1h-12.9v10h14.4v5.1h-20.6V26.1h19.8v5.1h-13.6V40h12.9V45.1z"/>
			<path fill="#5C5D5E" d="M545.8,26.6c2.3-0.4,5.8-0.7,9.4-0.7c4.9,0,8.2,0.8,10.5,2.7c1.9,1.6,2.9,3.9,2.9,6.8
				c0,4.4-3,7.4-6.2,8.6v0.2c2.4,0.9,3.9,3.3,4.8,6.6c1.1,4.3,2,8.2,2.7,9.5h-6.4c-0.5-1-1.3-3.8-2.3-8c-1-4.5-2.6-5.9-6.1-6h-3.1
				v14h-6.2V26.6z M551.9,41.7h3.7c4.2,0,6.8-2.2,6.8-5.6c0-3.7-2.6-5.5-6.7-5.5c-2,0-3.2,0.2-3.8,0.3V41.7z"/>
		</g>
		<rect x="147.5" y="66.6" fill="#FAB827" width="422.2" height="2.4"/>
	</g>
	<g>
		<g>
			<ellipse fill="none" stroke="#5C5D5E" stroke-width="1.2114" cx="60.3" cy="60.8" rx="57.3" ry="57.3"/>
			<path fill="none" stroke="#5C5D5E" stroke-width="1.2114" d="M60.3,60.8"/>
		</g>
		<g>
			<ellipse fill="none" stroke="#5C5D5E" stroke-width="0.3467" cx="60.3" cy="60.8" rx="54.5" ry="54.5"/>
			<path fill="none" stroke="#5C5D5E" stroke-width="0.3467" d="M60.3,60.8"/>
		</g>
		<g>
			<g>
				<path fill="#5C5D5E" d="M68,30.4"/>
				<g>
					<g>
						<g>
							<path fill="#5C5D5E" d="M34,95l-0.1,0.2c-0.3,0.4,0.3,0.4-0.1,0.8c-0.1,0.1-0.4,0.3-0.5,0.4l-0.6,0.4l-1.8-1.5l0.3-0.8
								c0.1-0.2,0.2-0.4,0.3-0.6c0.3-0.3,0.4,0.2,0.7-0.1l0.1-0.2l-1.5-1.2l-0.1,0.2c-0.3,0.4,0.3,0.1-0.1,1.1l-2.7,6.7
								c0,0-0.1,0.2-0.1,0.2c0,0,0.4,0,0.4,0c0.1,0,0.4,0,0.5-0.1c0.1-0.1,0.2-0.3,0.2-0.4l0.1-0.3l4.7-3.2c1.1-0.7,1-0.1,1.3-0.4
								l0.1-0.2L34,95z M29.3,99.1l1.3-3.2l1.6,1.3L29.3,99.1z"/>
						</g>
					</g>
					<g>
						<path fill="#5C5D5E" d="M27.6,89"/>
						<path fill="#5C5D5E" d="M27.5,88.8l-0.2,0.1c-0.4,0.3-0.2-0.4-0.9,0.2l-4.5,3.8c-0.7,0.6,0.1,0.6-0.3,0.9l-0.2,0.1l-1.2-1.4
							l0.2-0.1c0.4-0.3,0.2,0.4,0.9-0.2l4.5-3.8c0.7-0.6-0.1-0.6,0.3-0.9l0.2-0.1L27.5,88.8z"/>
						<path fill="#5C5D5E" d="M26.1,87.2"/>
					</g>
					<g>
						<path fill="#5C5D5E" d="M18.4,71.5"/>
						<path fill="#5C5D5E" d="M18.2,71.2c-0.5,0.1,0-0.5-0.9-0.3L11.5,72c-0.9,0.2-0.2,0.5-0.7,0.6l-0.2,0l-0.3-1.8l0.2,0
							c0.5-0.1,0,0.5,0.9,0.3l6.3-1.2l-0.3-1.3c-0.3-1.4-1.6-0.5-1.7-1.1l0-0.2l2-0.4l0.8,4.2L18.2,71.2z"/>
						<path fill="#5C5D5E" d="M17.5,66.8"/>
					</g>
					<path fill="#5C5D5E" d="M38.1,99.7c0.8-1.3-0.1-0.9,0.2-1.5l0.1-0.2l1.3,0.8l-0.1,0.2c-0.4,0.6-0.3-0.5-1.2,0.9l-2.8,4.5
						c-0.5,0.8,0.2,0.5,0,0.9l-0.1,0.2l-1.4-0.8l0.6-6.3l-2.2,3.5c-0.8,1.3,0.1,0.9-0.3,1.4l-0.1,0.2l-1.3-0.8l0.1-0.2
						c0.4-0.6,0.3,0.4,1.2-0.9l3.4-5.4l0.3,0.2l-0.8,7.9L38.1,99.7z"/>
					<g>
						<g>
							<path fill="#5C5D5E" d="M24.8,84.8c-0.9-1.5-3.2-1.4-5-0.3c-1.8,1.1-3.1,3-2.2,4.5c0.9,1.5,3.2,1.4,5,0.3
								C24.4,88.2,25.7,86.3,24.8,84.8z M22,88.5c-1.4,0.8-3.3,1.7-4.1,0.4c-0.8-1.3,1.1-2.7,2.4-3.5c1.4-0.8,3.3-1.7,4.1-0.4
								C25.2,86.3,23.3,87.7,22,88.5z"/>
						</g>
					</g>
					<g>
						<path fill="#5C5D5E" d="M31.3,92.9"/>
						<path fill="#5C5D5E" d="M28.4,91.4c0.7-0.7-0.1-0.6,0.2-0.9l0.1-0.1l1.3,1.4L30,91.8c-0.4,0.3-0.3-0.5-0.9,0.2l-4.6,4.5
							l0.3,0.3c1.1,1.1,1.5-0.4,1.9,0.1l0.1,0.1l-1.5,1.4c0-0.2-0.1-0.4-0.3-0.5l-2.6-2.7c-0.1-0.1-0.3-0.3-0.5-0.3l1.5-1.4l0.1,0.1
							c0.5,0.5-1.1,0.8,0,1.9l0.3,0.3L28.4,91.4z"/>
						<path fill="#5C5D5E" d="M27.6,89"/>
					</g>
					<g>
						<g>
							<path fill="#5C5D5E" d="M19.9,75.9L19.7,76c-0.4,0.1,0,0.4-0.4,0.6c-0.2,0.1-0.5,0.1-0.7,0.1l-0.8,0L17,74.5l0.7-0.5
								c0.1-0.1,0.4-0.3,0.5-0.3c0.4-0.1,0.3,0.4,0.7,0.2l0.2-0.1L18.5,72l-0.2,0.1c-0.5,0.2,0.2,0.2-0.7,0.8l-5.8,4.3
								c0,0-0.2,0.1-0.2,0.1c0,0,0.3,0.2,0.3,0.2c0.1,0,0.3,0.3,0.5,0.2c0.1,0,0.3-0.2,0.4-0.3l0.3-0.2l5.7-0.2
								c1.3,0,0.9,0.5,1.3,0.3l0.2-0.1L19.9,75.9z M13.8,76.8l2.8-2.1l0.7,1.9L13.8,76.8z"/>
						</g>
					</g>
					<g>
						<path fill="#5C5D5E" d="M22.9,82.5"/>
						<path fill="#5C5D5E" d="M20.9,82.1c1.4-0.7,0.4-0.8,1-1.1l0.2-0.1l0.7,1.4l-0.2,0.1c-0.6,0.3-0.1-0.6-1.5,0.1l-4.8,2.3
							c-0.8,0.4-0.1,0.6-0.5,0.8l-0.2,0.1l-0.7-1.4l3.9-5l-3.7,1.8c-1.4,0.7-0.4,0.8-1,1.1l-0.2,0.1l-0.7-1.3l0.2-0.1
							c0.6-0.3,0,0.6,1.5-0.1l5.7-2.8l0.2,0.4L16,84.5L20.9,82.1z"/>
						<path fill="#5C5D5E" d="M20.3,77.2"/>
					</g>
				</g>
				<g>
					<g>
						<g>
							<path fill="#5C5D5E" d="M15.9,58.7c0.2,0,0.4-0.1,0.6-0.1c0.4,0,0.1,0.4,0.5,0.5l0.2,0l0.1-1.9l-0.2,0
								c-0.5,0,0.1,0.3-0.9,0.6l-7,1.9c0,0-0.2,0-0.2,0.1c0,0,0.2,0.3,0.2,0.3c0,0.1,0.2,0.4,0.4,0.4c0.1,0,0.4-0.1,0.5-0.1l0.3-0.1
								l5.4,1.9c1.3,0.4,0.6,0.8,1.1,0.8l0.2,0l0.1-1.5l-0.2,0c-0.5,0-0.1,0.4-0.6,0.4c-0.2,0-0.5-0.1-0.7-0.2L15,61.3l0.1-2.3
								L15.9,58.7z M14.5,61.1L11.2,60l3.3-0.9L14.5,61.1z"/>
						</g>
					</g>
					<g>
						<path fill="#5C5D5E" d="M18.3,51.1"/>
						<path fill="#5C5D5E" d="M14,45l-0.1,0.2c-0.1,0.5-2-0.3-2.4,1.1c-0.3,1.3,1.8,2.2,3.2,2.5c1.5,0.4,3.6,0.5,4-0.9
							c0.2-0.8-0.4-1.3-0.8-1.8l0.4-0.2c0.8,0.7,1.2,1.4,1,2.3c-0.4,1.7-2.7,2.1-4.7,1.6c-1.8-0.4-3.8-1.8-3.4-3.5
							c0.2-0.8,0.9-1.1,0.9-1.3c0-0.1,0-0.1-0.1-0.2l0.1-0.3L14,45z"/>
						<path fill="#5C5D5E" d="M19.6,45.8"/>
					</g>
					<g>
						<path fill="#5C5D5E" d="M27.4,32.9"/>
						<path fill="#5C5D5E" d="M27.5,32.6c-0.4-0.3,0.4-0.3-0.3-0.9l-4.3-4c-0.7-0.6-0.5,0.1-0.9-0.2l-0.1-0.1l2.3-2.5
							c0.1-0.1,0.2-0.3,0.3-0.5l1.4,1.3l-0.1,0.1c-0.4,0.4-1-0.8-1.8,0.1l-0.8,0.9l2.2,2.1l0.4-0.5c0.6-0.7-0.3-0.8,0-1.2l0.1-0.1
							l1.5,1.4l-0.1,0.1c-0.4,0.4-0.6-0.5-1.2,0.1l-0.4,0.5l2.5,2.3l1-1c1.1-1.2-0.6-1.7-0.1-2.1l0.1-0.1l1.5,1.4l-3,3.2L27.5,32.6z
							"/>
						<path fill="#5C5D5E" d="M30.8,29.3"/>
					</g>
					<g>
						<path fill="#5C5D5E" d="M19.8,45.8"/>
						<path fill="#5C5D5E" d="M17.5,40.1l-2.3-1c-0.9-0.4-0.5,0.3-0.9,0.1L14.1,39l0.7-1.7l0.2,0.1c0.5,0.2-0.3,0.4,0.6,0.8l5.4,2.4
							c0.9,0.4,0.5-0.3,0.9-0.1l0.2,0.1l-0.7,1.6l-0.2-0.1c-0.5-0.2,0.3-0.4-0.6-0.8l-2.6-1.1L17,42.7l2.6,1.1
							c0.9,0.4,0.5-0.3,0.9-0.1l0.2,0.1l-0.7,1.7l-0.2-0.1c-0.5-0.2,0.3-0.4-0.6-0.8l-5.4-2.4c-0.9-0.4-0.5,0.3-0.9,0.1l-0.2-0.1
							l0.7-1.7l0.2,0.1c0.5,0.2-0.3,0.4,0.6,0.8l2.3,1L17.5,40.1z"/>
						<path fill="#5C5D5E" d="M22.2,40.4"/>
					</g>
					<g>
						<path fill="#5C5D5E" d="M22.5,40"/>
						<path fill="#5C5D5E" d="M22.7,39.7l-0.2-0.1c-0.4-0.2,0.3-0.3-0.5-0.8l-5.2-2.9c-0.8-0.5-0.5,0.3-0.9,0l-0.2-0.1l0.9-1.6
							l0.2,0.1c0.4,0.2-0.3,0.3,0.5,0.8l5.2,2.9c0.8,0.5,0.5-0.3,0.9,0l0.2,0.1L22.7,39.7z"/>
						<path fill="#5C5D5E" d="M23.7,37.9"/>
					</g>
					<g>
						<g>
							<path fill="#5C5D5E" d="M15.4,53l2.6-0.7l0.2-1.3l-0.2,0c-0.5-0.1,0.1,0.3-1,0.6l-2.3,0.6c-0.5,0.1-0.8,0.2-0.9,0.6l0,0
								c0.1-0.9-0.4-1.9-1.7-2.1c-1.5-0.2-2.1,0.9-2.2,1.5l-0.4,2.6l0.2,0c0.5,0.1,0-0.5,0.9-0.3l5.8,0.9c0.9,0.1,0.2,0.5,0.7,0.6
								l0.2,0l0.3-1.8l-0.2,0c-0.5-0.1,0.1,0.5-0.9,0.3l-2.8-0.4l0-0.3C14,53.4,14.2,53.4,15.4,53z M13.5,53.3l-0.1,0.8l-3.1-0.5
								l0.2-1.1c0.1-0.5,0.6-1,1.7-0.9C13.3,51.9,13.6,52.7,13.5,53.3z"/>
						</g>
					</g>
					<g>
						<path fill="#5C5D5E" d="M31.2,28.9"/>
						<path fill="#5C5D5E" d="M30.3,27c0.2-0.2,1.3,1.2,2.4,0.3c0.5-0.4,0.6-1.3,0-2c-1.4-1.7-3.1,1-5-1.3c-0.8-0.9-0.8-2.1-0.1-2.7
							c0.5-0.4,1-0.2,1.1-0.3c0.1,0,0-0.1,0-0.2l0.3-0.2l1.2,1.4l-0.2,0.2c-0.3,0.2-1.2-1.1-2.1-0.4c-0.4,0.3-0.5,1,0,1.6
							c1.3,1.5,3-1.1,4.9,1.2c0.9,1.1,1,2.5,0.2,3.3c-0.4,0.4-1.1,0.4-1.2,0.5c-0.1,0.1-0.1,0.2,0,0.3l-0.3,0.3l-1.4-1.6L30.3,27z"
							/>
						<path fill="#5C5D5E" d="M34.5,26.1"/>
					</g>
					<g>
						<path fill="#5C5D5E" d="M23.9,37.5"/>
						<path fill="#5C5D5E" d="M24.3,34.2l-3.3-4c-0.1-0.1-0.3-0.3-0.4-0.5c-0.4-0.3-0.4,0.2-0.7,0l-0.2-0.1l0.8-1.2l0.2,0.1
							c0.4,0.3-0.3,0.1,0.5,1.1l4.5,5.5l-0.2,0.3L18.5,33c-0.8-0.3-0.5,0.3-0.9,0l-0.2-0.1l1-1.5l0.2,0.1c0.4,0.2-0.2,0.4,0.2,0.6
							c0.1,0.1,0.3,0.1,0.4,0.2L24.3,34.2z"/>
						<path fill="#5C5D5E" d="M27.1,32.9"/>
					</g>
				</g>
				<g>
					<g>
						<g>
							<path fill="#5C5D5E" d="M42,21.5c-0.3-0.5-0.2,0.3-1-0.5l-5.2-5c0,0-0.1-0.2-0.2-0.1c0,0-0.2,0.3-0.2,0.4
								c0,0.1-0.2,0.4-0.1,0.5c0.1,0.1,0.2,0.3,0.3,0.3l0.3,0.2l1.2,5.6c0.3,1.3-0.3,0.9-0.1,1.4l0.1,0.2l1.3-0.7l-0.1-0.2
								c-0.2-0.4-0.4,0.1-0.7-0.3c-0.1-0.2-0.2-0.5-0.2-0.6l-0.2-0.7l2.1-1.1l0.7,0.6c0.1,0.1,0.3,0.3,0.4,0.5
								c0.2,0.4-0.3,0.3-0.1,0.7l0.1,0.2l1.7-0.9L42,21.5z M37.2,21.2l-0.7-3.4l2.5,2.4L37.2,21.2z"/>
						</g>
					</g>
					<g>
						<g>
							<path fill="#5C5D5E" d="M52.3,14.2c-0.5-2.2-2-3.5-3.6-3.1l-2.4,0.6l0.1,0.2c0.1,0.5,0.4-0.2,0.7,0.7l1.4,5.7
								c0.2,0.9-0.4,0.4-0.3,0.9l0,0.2l2.4-0.6C51.9,18.5,52.9,16.7,52.3,14.2z M50.2,18.4l-0.8,0.2l-1.7-6.8l0.9-0.2
								c1.4-0.4,2.3,1.2,2.7,2.9C51.9,16.7,51.6,18.1,50.2,18.4z"/>
						</g>
					</g>
					<g>
						<path fill="#5C5D5E" d="M42.3,21.6"/>
						<path fill="#5C5D5E" d="M42.9,19.7c0.6,1.5,0.8,0.5,1,1.1l0.1,0.2l-1.5,0.6l-0.1-0.2c-0.2-0.6,0.6,0,0-1.5l-1.9-5
							c-0.3-0.9-0.6-0.1-0.7-0.6l-0.1-0.2l1.5-0.6l4.6,4.3L44.4,14c-0.6-1.5-0.7-0.5-1-1.1l-0.1-0.2l1.4-0.5l0.1,0.2
							c0.2,0.6-0.6,0,0,1.5l2.3,5.9l-0.4,0.1l-5.8-5.4L42.9,19.7z"/>
						<path fill="#5C5D5E" d="M47.8,19.5"/>
					</g>
				</g>
				<path fill="#5C5D5E" d="M87.9,27.4"/>
				<g>
					<g>
						<path fill="#5C5D5E" d="M67.1,18"/>
						<path fill="#5C5D5E" d="M73.2,13.8L73,13.7c-0.5-0.1,0.3-2-1.1-2.4c-1.3-0.4-2.2,1.7-2.6,3.1c-0.4,1.5-0.5,3.6,0.9,4
							c0.8,0.2,1.3-0.3,1.9-0.8l0.2,0.4c-0.8,0.8-1.4,1.2-2.3,1c-1.7-0.4-2-2.7-1.5-4.7c0.5-1.8,1.9-3.8,3.5-3.4
							c0.8,0.2,1,0.9,1.2,1c0.1,0,0.1,0,0.2-0.1l0.3,0.1L73.2,13.8z"/>
						<path fill="#5C5D5E" d="M72.3,19.4"/>
					</g>
					<path fill="#5C5D5E" d="M83.1,24.2"/>
					<g>
						<g>
							<path fill="#5C5D5E" d="M89.9,19.1l-2-1.4l-0.1,0.2c-0.3,0.4,0.5,0.2-0.1,0.9l-3.3,4.9c-0.5,0.8-0.6,0-0.8,0.4l-0.1,0.2
								l2.1,1.4c1.1,0.8,3.1,0.3,4.5-1.9C91.2,22,91.2,20.1,89.9,19.1z M89.2,23.4c-1.3,1.9-2.5,2.6-3.7,1.8l-0.7-0.5l3.9-5.8
								l0.8,0.5C90.7,20.3,90.1,21.9,89.2,23.4z"/>
						</g>
					</g>
					<g>
						<path fill="#5C5D5E" d="M62.3,17.7"/>
						<path fill="#5C5D5E" d="M62.6,17.5c0.1-0.5,0.5,0.2,0.5-0.8l0.6-5.9c0.1-0.9-0.4-0.4-0.4-0.9l0-0.2l3.4,0.4
							c0.2,0,0.4,0,0.6-0.1l-0.2,2L67,12c-0.6-0.1,0.1-1.3-1.1-1.4l-1.2-0.1l-0.3,3l0.7,0.1c0.9,0.1,0.4-0.7,0.9-0.7l0.1,0L65.9,15
							l-0.1,0c-0.5-0.1,0-0.8-0.8-0.9L64.3,14l-0.4,3.4l1.4,0.1c1.6,0.2,1-1.5,1.6-1.4l0.2,0l-0.2,2.1l-4.3-0.5L62.6,17.5z"/>
						<path fill="#5C5D5E" d="M67.2,18.2"/>
					</g>
					<path fill="#5C5D5E" d="M72.2,19.1"/>
					<g>
						<g>
							<path fill="#5C5D5E" d="M78.1,12.7c-1.6-0.6-3.4,0.9-4.1,2.9c-0.8,2-0.6,4.3,1,4.9c1.6,0.6,3.4-0.9,4.1-2.9
								C79.9,15.5,79.7,13.3,78.1,12.7z M78.2,17.2c-0.6,1.5-1.6,3.4-3,2.8c-1.4-0.5-0.8-2.8-0.3-4.2c0.6-1.5,1.6-3.4,3-2.8
								C79.4,13.6,78.8,15.8,78.2,17.2z"/>
						</g>
					</g>
					<path fill="#5C5D5E" d="M78.1,21.4"/>
					<g>
						<g>
							<path fill="#5C5D5E" d="M61.5,17.4c0-0.5-0.3,0.1-0.8-0.9l-1.1-2.1c-0.2-0.4-0.4-0.7-0.8-0.7l0,0c0.9-0.1,1.8-0.7,1.7-2.1
								c-0.1-1.5-1.2-1.9-1.9-1.9L56,9.9l0,0.2c0,0.5,0.5-0.1,0.5,0.8l0.2,5.9c0,0.9-0.5,0.3-0.4,0.8l0,0.2l1.8-0.1l0-0.2
								c0-0.5-0.5,0.1-0.5-0.8l-0.1-2.8l0.3,0c0.6,0,0.7,0.2,1.2,1.3l1.2,2.4l1.3,0L61.5,17.4z M58.3,13.4l-0.8,0l-0.1-3.1l1.1,0
								c0.5,0,1.1,0.4,1.2,1.5C59.7,13,59,13.4,58.3,13.4z"/>
						</g>
					</g>
					<g>
						<path fill="#5C5D5E" d="M88,27.6"/>
						<path fill="#5C5D5E" d="M89.8,26.5c0.2,0.2-1.1,1.4-0.1,2.4c0.5,0.5,1.3,0.5,2-0.2c1.6-1.6-1.2-3,0.8-5.1c0.9-0.9,2-1,2.7-0.3
							c0.5,0.5,0.3,1,0.4,1.1c0,0,0.1,0,0.2,0l0.2,0.2l-1.3,1.3l-0.2-0.2c-0.3-0.3,1-1.3,0.2-2.1c-0.4-0.4-1-0.4-1.6,0.2
							c-1.4,1.4,1.4,2.9-0.7,5c-1,1-2.5,1.2-3.2,0.5c-0.4-0.4-0.5-1-0.6-1.1c-0.1-0.1-0.2,0-0.3,0l-0.3-0.3l1.5-1.5L89.8,26.5z"/>
						<path fill="#5C5D5E" d="M91.1,30.7"/>
					</g>
					<path fill="#5C5D5E" d="M77.9,21.4"/>
					<g>
						<g>
							<path fill="#5C5D5E" d="M84.1,15.6l-2.4-1.2l-0.1,0.2c-0.2,0.4,0.5,0.1,0,0.9L79,20.8c-0.4,0.8-0.6,0.1-0.8,0.5l-0.1,0.2
								l1.6,0.8l0.1-0.2c0.2-0.4-0.5-0.1,0-0.9l1.3-2.5l0.2,0.1c0.5,0.3,0.5,0.5,0.4,1.8l-0.1,2.7l1.1,0.6l0.1-0.2
								c0.2-0.5-0.3,0-0.2-1.1l0.1-2.4c0-0.5,0-0.8-0.3-1l0,0c0.8,0.4,1.9,0.2,2.5-1C85.6,16.8,84.7,15.9,84.1,15.6z M84,17.8
								c-0.6,1.1-1.4,1.1-2,0.8l-0.8-0.4l1.4-2.8l1,0.5C84.2,16.2,84.5,16.9,84,17.8z"/>
						</g>
					</g>
					<path fill="#5C5D5E" d="M82.7,23.8"/>
				</g>
				<g>
					<path fill="#5C5D5E" d="M93.8,33.5"/>
					<g>
						<g>
							<path fill="#5C5D5E" d="M101.7,30.9c-0.1,0-0.4-0.1-0.5-0.1c-0.1,0.1-0.2,0.3-0.3,0.4l-0.2,0.3l-5.4,1.9
								c-1.3,0.4-1-0.2-1.4,0.1l-0.2,0.1l0.9,1.2l0.2-0.1c0.4-0.3-0.2-0.4,0.3-0.7c0.1-0.1,0.4-0.2,0.6-0.3l0.7-0.3l1.4,1.9L97.3,36
								c-0.1,0.1-0.3,0.4-0.4,0.5c-0.4,0.3-0.4-0.3-0.7,0L96,36.6l1.1,1.5l0.2-0.1c0.4-0.3-0.3-0.1,0.4-1l4.3-5.8
								c0,0,0.1-0.2,0.1-0.2C102.1,31,101.7,30.9,101.7,30.9z M98.2,34.9L97,33.2l3.3-1.1L98.2,34.9z"/>
						</g>
					</g>
					<path fill="#5C5D5E" d="M97.1,38.1"/>
					<path fill="#5C5D5E" d="M97.6,38.9"/>
					<g>
						<g>
							<path fill="#5C5D5E" d="M105.8,37.5l-1.2-2.2l-0.2,0.1c-0.4,0.2,0.3,0.4-0.5,0.8l-5.2,2.9c-0.8,0.5-0.5-0.3-0.9,0l-0.2,0.1
								l1.2,2.2c0.6,1.2,2.6,1.7,4.9,0.4C105.8,40.7,106.7,39,105.8,37.5z M103.3,41c-2,1.1-3.4,1.2-4.1-0.1l-0.4-0.7l6.1-3.4
								l0.5,0.9C106.1,38.9,104.8,40.1,103.3,41z"/>
						</g>
					</g>
					<path fill="#5C5D5E" d="M100.4,44"/>
					<g>
						<path fill="#5C5D5E" d="M102.4,51.1"/>
						<path fill="#5C5D5E" d="M102.5,51.3l0.2,0c0.5-0.1,0,0.5,0.9,0.3l5.8-1.1c0.9-0.2,0.2-0.5,0.7-0.6l0.2,0l0.3,1.8l-0.2,0
							c-0.5,0.1,0-0.5-0.9-0.3l-5.8,1.1c-0.9,0.2-0.2,0.5-0.7,0.6l-0.2,0L102.5,51.3z"/>
						<path fill="#5C5D5E" d="M102.9,53.4"/>
					</g>
					<g>
						<path fill="#5C5D5E" d="M100.1,43.5"/>
						<path fill="#5C5D5E" d="M108.5,46.7L108.5,46.7l-7.3,0.4l-0.1-0.4l6.1-3.9l0,0l-5.1,1.7c-1.5,0.5-0.5,0.8-1.1,1l-0.2,0.1
							l-0.5-1.5l0.2-0.1c0.6-0.2,0,0.6,1.5,0.1l5.1-1.7c0.9-0.3,0.2-0.6,0.6-0.7l0.2-0.1l0.5,1.6l-5.3,3.5l6.3-0.3l0.5,1.5l-0.2,0.1
							c-0.5,0.2,0-0.5-0.9-0.2l-5.6,1.8c-0.9,0.3-0.1,0.6-0.6,0.7l-0.2,0.1l-0.6-1.8l0.2-0.1c0.5-0.2,0,0.5,0.9,0.2L108.5,46.7z"/>
						<path fill="#5C5D5E" d="M102.3,50.5"/>
					</g>
					<g>
						<path fill="#5C5D5E" d="M103,54.3"/>
						<path fill="#5C5D5E" d="M104.7,55.4c-1.6,0.1-0.7,0.6-1.3,0.7l-0.2,0l-0.1-1.6l0.2,0c0.7-0.1-0.2,0.6,1.4,0.4l5.3-0.5
							c0.9-0.1,0.3-0.5,0.8-0.6l0.2,0l0.1,1.6l-5.4,3.3l4.1-0.4c1.6-0.1,0.7-0.6,1.3-0.6l0.2,0l0.1,1.5l-0.2,0
							c-0.7,0.1,0.2-0.5-1.4-0.4l-6.3,0.6l0-0.4l6.7-4.1L104.7,55.4z"/>
						<path fill="#5C5D5E" d="M103.5,60.2"/>
					</g>
					<g>
						<g>
							<path fill="#5C5D5E" d="M108.7,76.7c-0.5-0.2,0,0.5-0.9,0.2l-5.6-1.9c-0.9-0.3-0.1-0.6-0.6-0.7l-0.2-0.1l-0.6,1.7l0.2,0.1
								c0.5,0.2,0-0.5,0.9-0.2l2.7,0.9l-0.1,0.2c-0.2,0.6-0.5,0.6-1.7,0.7l-2.7,0.2L99.7,79l0.2,0.1c0.5,0.2,0-0.3,1.1-0.4l2.3-0.2
								c0.5,0,0.8-0.1,1-0.5l0,0c-0.3,0.8,0.1,1.9,1.3,2.3c1.4,0.5,2.2-0.5,2.4-1.1l0.9-2.5L108.7,76.7z M107.7,78.9
								c-0.2,0.5-0.8,0.9-1.8,0.6c-1.2-0.4-1.3-1.2-1.1-1.8l0.3-0.8l3,1L107.7,78.9z"/>
						</g>
					</g>
					<path fill="#5C5D5E" d="M99.7,79"/>
					<g>
						<path fill="#5C5D5E" d="M103.5,63.7"/>
						<path fill="#5C5D5E" d="M105.4,64.5c0,0.3-1.8,0-1.9,1.4c-0.1,0.7,0.5,1.3,1.4,1.5c2.2,0.3,1.6-2.8,4.5-2.5
							c1.2,0.1,2,1,1.9,1.9c-0.1,0.6-0.6,0.9-0.6,1c0,0.1,0.1,0.1,0.1,0.2l0,0.3L109,68l0-0.3c0-0.4,1.7,0,1.8-1.1
							c0.1-0.5-0.4-1-1.1-1.1c-1.9-0.2-1.5,2.9-4.4,2.5c-1.4-0.2-2.5-1.2-2.3-2.3c0.1-0.5,0.5-1,0.5-1.2c0-0.1-0.1-0.2-0.2-0.2
							l0-0.4l2.1,0.3L105.4,64.5z"/>
						<path fill="#5C5D5E" d="M102.9,68.1"/>
					</g>
					<g>
						<path fill="#5C5D5E" d="M102.9,68.2"/>
						<path fill="#5C5D5E" d="M103.2,71.4c-0.9-0.2-0.4,0.4-0.9,0.3l-0.2,0l0.4-1.8l0.2,0c0.5,0.1-0.2,0.5,0.7,0.7l6.3,1.4l0.1-0.5
							c0.3-1.5-1.2-1-1-1.7l0-0.2l2,0.4c-0.2,0.1-0.2,0.3-0.3,0.5l-0.8,3.7c0,0.2,0,0.4,0,0.6l-2-0.4l0-0.2c0.1-0.7,1.3,0.4,1.6-1.1
							l0.1-0.5L103.2,71.4z"/>
						<path fill="#5C5D5E" d="M101.7,73.5"/>
					</g>
					<path fill="#5C5D5E" d="M99.3,79.5"/>
					<g>
						<g>
							<path fill="#5C5D5E" d="M105,85.7c0-0.1,0-0.4-0.2-0.5c-0.1-0.1-0.3-0.1-0.5-0.1l-0.3-0.1l-3.9-4.1c-0.9-1-0.2-1-0.6-1.2
								l-0.2-0.1l-0.7,1.3l0.2,0.1c0.4,0.2,0.3-0.3,0.8-0.1c0.2,0.1,0.4,0.3,0.5,0.4l0.5,0.5l-1.2,2l-0.9-0.2
								c-0.2,0-0.4-0.1-0.6-0.2c-0.4-0.2,0.1-0.4-0.3-0.7l-0.2-0.1l-0.9,1.7l0.2,0.1c0.5,0.3,0-0.3,1.1-0.1l7.1,1.5
								c0,0,0.2,0.1,0.2,0C105.1,86,105,85.7,105,85.7z M100,84.1l1-1.8l2.4,2.5L100,84.1z"/>
						</g>
					</g>
					<path fill="#5C5D5E" d="M96.6,84.4"/>
					<g>
						<path fill="#5C5D5E" d="M103.5,60.5"/>
						<path fill="#5C5D5E" d="M103.5,60.8l0.2,0c0.5,0-0.1,0.5,0.8,0.5l5.9,0.1c0.9,0,0.3-0.5,0.8-0.5l0.2,0l0,1.8l-0.2,0
							c-0.5,0,0.1-0.5-0.8-0.5l-5.9-0.1c-0.9,0-0.3,0.5-0.8,0.5l-0.2,0L103.5,60.8z"/>
						<path fill="#5C5D5E" d="M103.4,62.9"/>
					</g>
					<g>
						<path fill="#5C5D5E" d="M87.1,94.7"/>
						<path fill="#5C5D5E" d="M87,96.8c-0.9-1.3-0.9-0.2-1.3-0.8l-0.1-0.2l1.3-0.9l0.1,0.2c0.4,0.5-0.6,0.1,0.4,1.4l3.1,4.4
							c0.5,0.8,0.6,0,0.9,0.4l0.1,0.2l-1.3,0.9l-5.5-3l2.3,3.3c0.9,1.3,0.8,0.3,1.2,0.8l0.1,0.2l-1.2,0.9l-0.1-0.2
							c-0.4-0.5,0.5-0.1-0.4-1.4l-3.7-5.2l0.3-0.2l6.9,3.8L87,96.8z"/>
						<path fill="#5C5D5E" d="M82.3,98.1"/>
					</g>
					<path fill="#5C5D5E" d="M91.8,90.5"/>
					<g>
						<g>
							<path fill="#5C5D5E" d="M94.3,93.7c-1.5-1.6-3.6-2.4-4.8-1.2c-1.3,1.2-0.7,3.4,0.8,5c1.5,1.6,3.6,2.4,4.8,1.2
								C96.3,97.5,95.7,95.3,94.3,93.7z M94.8,98.3c-1.1,1-2.8-0.5-3.9-1.6c-1.1-1.2-2.3-2.9-1.2-4c1.1-1,2.8,0.5,3.9,1.6
								C94.7,95.6,95.9,97.3,94.8,98.3z"/>
						</g>
					</g>
					<path fill="#5C5D5E" d="M87.2,94.8"/>
					<g>
						<path fill="#5C5D5E" d="M96.8,83.9"/>
						<path fill="#5C5D5E" d="M95.9,87.1c-0.8-0.5-0.5,0.2-1,0l-0.2-0.1l1.1-1.6l0.2,0.1c0.4,0.3-0.4,0.4,0.4,0.9l5.3,3.6l0.3-0.4
							c0.9-1.3-0.7-1.3-0.3-1.9l0.1-0.1l1.7,1.1c-0.2,0.1-0.4,0.2-0.5,0.4l-2.1,3.2c-0.1,0.1-0.2,0.4-0.2,0.6L99,91.6l0.1-0.1
							c0.4-0.6,1,0.9,1.9-0.4l0.3-0.4L95.9,87.1z"/>
						<path fill="#5C5D5E" d="M93.8,88.4"/>
					</g>
					<g>
						<path fill="#5C5D5E" d="M93.4,88.5"/>
						<path fill="#5C5D5E" d="M93.3,88.7l0.2,0.1c0.4,0.3-0.4,0.3,0.3,0.9l4.5,3.8c0.7,0.6,0.5-0.2,0.9,0.2l0.2,0.1l-1.2,1.4
							L98,95.1c-0.4-0.3,0.4-0.3-0.3-0.9l-4.5-3.8c-0.7-0.6-0.5,0.2-0.9-0.2l-0.2-0.1L93.3,88.7z"/>
						<path fill="#5C5D5E" d="M91.9,90.3"/>
					</g>
				</g>
				<g>
					<path fill="#5C5D5E" d="M52.6,104l1.3-0.5l0.5,0.1l-1,6.8c-0.1,0.9,0.7,0.4,0.6,1l0,0.2l-2.3-0.3l0-0.2
						c0.1-0.6,0.7,0.1,0.9-0.8l0.9-5.8l-0.9-0.1L52.6,104z"/>
					<path fill="#5C5D5E" d="M69,103.2c0.7-0.1,0.3-0.4,0.6-0.5l0.2,0l0.2,1.4l-2.5,0.4l0.3,2.4c0.3-0.4,0.6-0.6,1-0.7
						c1-0.2,2,0.8,2.2,2.2c0.3,1.6-0.5,2.8-1.7,3c-0.7,0.1-1.6-0.2-1.7-1.2c-0.1-0.4,0.1-0.7,0.4-0.8c0.3,0,0.5,0.2,0.6,0.5
						c0.1,0.4-0.2,0.4-0.1,0.6c0.1,0.4,0.6,0.4,0.8,0.4c0.9-0.1,1.1-1.2,0.9-2.3c-0.2-1-0.6-2-1.5-1.9c-0.4,0.1-0.7,0.4-0.9,0.8
						l-0.3-0.2l-0.5-3.9L69,103.2z"/>
					<g>
						<g>
							<path fill="#5C5D5E" d="M64.1,107.4L64.1,107.4l0-0.1c0.6-0.5,1-0.9,0.9-1.9c-0.1-1.2-0.9-1.8-1.8-1.7
								c-0.9,0.1-1.7,0.9-1.6,2.3c0.1,0.9,0.6,1.6,1.2,1.9c-0.6,0.5-1.3,1-1.2,2.1c0.1,1,0.7,2.1,2,2c1.5-0.1,1.9-1.6,1.9-2.5
								C65.5,108.2,64.9,107.8,64.1,107.4z M62.4,105.4c-0.1-0.8,0.3-1.3,0.9-1.4c0.7,0,1.1,0.5,1.1,1.4c0.1,0.8-0.2,1.3-0.7,1.6
								l-0.2-0.1C63,106.7,62.4,106.4,62.4,105.4z M63.7,111.5c-0.7,0-1.3-0.5-1.3-1.5c-0.1-1,0.3-1.5,0.8-1.9l0.3,0.1
								c0.7,0.4,1.3,0.7,1.4,1.7C65,111,64.4,111.5,63.7,111.5z"/>
						</g>
					</g>
					<g>
						<g>
							<path fill="#5C5D5E" d="M57.9,103.7c-1.1-0.1-1.8,1.2-1.9,2.5c-0.1,1.3,0.5,2.4,1.5,2.5c0.5,0,0.9-0.2,1.2-0.6
								c-0.1,1.1-0.4,3.5-1.5,3.4c-0.2,0-0.4-0.2-0.4-0.4c0-0.1,0.1-0.2,0.1-0.3c0-0.4-0.2-0.6-0.4-0.6c-0.3,0-0.5,0.2-0.5,0.6
								c0,0.8,0.6,1.1,1,1.1c1.5,0.1,2.5-1.9,2.7-4.4C59.7,105.9,59.4,103.8,57.9,103.7z M58.8,107l0,0.4c-0.2,0.4-0.7,0.7-1,0.7
								c-0.9,0-0.9-1.2-0.9-2.1c0-0.8,0.3-2.1,1.1-2C58.8,104.1,58.8,106.1,58.8,107z"/>
						</g>
					</g>
				</g>
				<path fill="#5C5D5E" d="M80.6,84.5c-0.1,0.1,0,0.4,0.2,0.4c0.2,0.1,0.5,0.1,0.7,0c0.2-0.1,0.3-0.2,0.2-0.4
					C81.3,84,80.9,84.2,80.6,84.5z"/>
			</g>
			<g>
				<g>
					<g>
						<g>
							<path fill="#5C5D5E" d="M74.7,43.8c0,0-0.3-0.6-1.2-0.1c-0.3,0.2-0.3,0.1-0.3,0.1S72.5,43.2,72,43c-0.5-0.2-1.3-0.1-1.3-0.5
								c-0.1-0.5,0-0.8,0-0.8c-0.2-0.4,0-0.7,0.3-0.9c0,0-0.7-0.6-0.6-0.9l0.5-0.2c0,0-0.5-0.4-0.6-0.9c-0.1-0.5,0.6-0.7,0.6-0.7
								c-0.3-0.1-0.4-0.2-0.4-0.4v-0.5l0.5-0.2l-0.5-0.6c0-0.1,0.2-0.5,0.4-0.4c0,0-0.2-0.3-0.3-0.8c-0.2-0.5,0.5-0.5,0.5-0.5
								s-0.2-0.2-0.4-0.6c-0.2-0.5,0-0.6,0.2-0.7c0,0-0.1-0.1-0.4-0.6c-0.3-0.5,0.5-0.5,0.5-0.5l-0.5-0.9c0.3-0.1,0.3-0.5,0.2-0.6
								c-0.2-0.2-0.1-0.6-0.4-0.7c0.3-0.1,0.3-0.5,0.2-0.6c-0.7-0.7-0.7-1.5-0.5-2.1c0.2-0.7,1.4-1.2,0.9-2.1
								c-0.3-0.6-0.7-1.4-1.5-1.2c-0.3,0.1-0.5,0.6-0.7,0.6c-7.6,0.3-14.8,0.3-22.4,0.2c-0.4,0-1-0.6-1.3-0.3
								c-0.8,0.7-0.5,2.4,0.6,2.6c0,0,0.5,0.1,0.8-0.4l0,0c0,0,0,0,0,0l0.7,0.1l0.1,0c1.4,0.2,1.3,0.9,1.6,3.4
								c0.3,2.3-0.5,7.7-0.1,13.4c0,0.6-1,0.1-1.1,0.9c-0.1,0.7-0.5,1.2,0.5,1.7l1.2-0.1c0.1,0.6,1,0.5,1,0.5
								c0.3,0.5,1.2,0.4,1.2,0.4c7.2,0,13.2,0,20.2,0c0.3,0,1.4-0.2,1.7-1.1c0.6,0.6,1.4,0,1.6-0.5C75.1,44.8,75.1,43.8,74.7,43.8z
								 M45.4,26.6c0,0-0.7-0.4-0.7-0.9c0-0.5,0.2-0.7,0.4-0.9c0.6,0.1,0.7,0.7,0.7,1.1C45.8,26.1,45.7,26.7,45.4,26.6z M46.5,26.3
								c-0.2,0-0.6-0.5-0.3-0.8c0.2-0.1,0.7-0.3,0.7,0.3C46.9,26,46.8,26.2,46.5,26.3z M69.7,24.7c0.3-0.1,0.4,0.4,0.5,0.6
								c0.2,0.4-0.5,0.8-0.5,1C69.3,25.9,69.2,24.8,69.7,24.7z M69,24.9c0.2,0,0.2,0.2,0.1,0.5c0,0.2-0.2,0.3-0.3,0.2
								c-0.3-0.1-0.6-0.3-0.6-0.5C68.1,24.7,68.7,24.8,69,24.9z M48.8,45.4c-0.1,0.2-0.4,0.3-0.6,0.2c-0.4-0.2-0.3-0.6-0.2-0.9
								c0.1-0.4,0.4-0.3,0.7-0.2C49,44.7,48.9,45.1,48.8,45.4z M50.2,45.6c-0.3,0.1-0.5,0.1-0.7-0.2c-0.1-0.2,0-0.4,0.2-0.4
								c0.2-0.1,0.6-0.1,0.7,0.2C50.6,45.4,50.4,45.6,50.2,45.6z M50.2,44c-0.2,0.2-0.5,0.7-0.7,0.4c-0.8-1.1-0.5-1.6-0.6-2.8
								c-0.1-1.4,1.8-15.9-1.4-15.7c-0.2,0-0.1-0.8-0.1-0.8c6.8-0.1,13.1-0.2,19.7,0c1.3,0,2.2,2,2.4,3.5c0.8,4.6,0.2,8.9,0.4,13.4
								c0,0.1,0,0.7-0.3,0.7H51.5l-0.6,0.3C50.6,43.4,50.5,43.7,50.2,44z M51.6,46.3c-0.2,0-0.7-0.3-0.6-0.4
								c0.4-0.7,0.2-1.5,0.1-2.1c-0.1-0.4,0.9-0.5,1.2,0.1C52.7,44.6,52.8,46.2,51.6,46.3z M72.4,45.6c-0.2,0.6-0.9,0.7-1.6,0.7
								c-6.2,0-18.2,0-18.3,0c1.5-1.6-0.4-3,0.1-3c6.6,0,17.8,0,17.8,0C71.9,43.4,73,44,72.4,45.6z M74.6,45c0,0.2-0.2,0.4-0.3,0.4
								c-0.8-0.2-0.8-1.1,0-1.2C74.7,44.1,74.6,44.6,74.6,45z"/>
						</g>
					</g>
					<g>
						<path fill="#5C5D5E" d="M65.7,30.4"/>
						<g>
							<g>
								<path fill="#5C5D5E" d="M67.9,30.1l-0.8-2.4c0-0.1-0.1-0.2-0.2-0.2c-0.1,0-0.2,0.1-0.2,0.2l-0.8,2.4c0,0,0,0.1,0,0.2
									c0,0.1,0.1,0.1,0.2,0.1c0.1,0,0.1-0.1,0.2-0.1l0.2-0.5h1.2l0.2,0.5c0,0.1,0.1,0.1,0.2,0.1c0.1,0,0.2-0.1,0.2-0.1
									C67.9,30.2,67.9,30.1,67.9,30.1z M66.3,29.5l0.5-1.6h0l0.5,1.6H66.3z"/>
							</g>
						</g>
						<g>
							<path fill="#5C5D5E" d="M60.9,30.4"/>
							<path fill="#5C5D5E" d="M61.5,30.1h0.8c0.1,0,0.2,0.1,0.2,0.2c0,0.1-0.1,0.2-0.2,0.2h-0.9c-0.1,0-0.2-0.1-0.2-0.2v-2.5
								c0-0.1,0.1-0.2,0.2-0.2h0.9c0.1,0,0.2,0.1,0.2,0.2c0,0.1-0.1,0.2-0.2,0.2h-0.8v0.9h0.7c0.1,0,0.2,0.1,0.2,0.2
								c0,0.1-0.1,0.2-0.2,0.2h-0.7V30.1z"/>
							<path fill="#5C5D5E" d="M62.6,30.4"/>
						</g>
						<g>
							<path fill="#5C5D5E" d="M54.3,30.4"/>
							<path fill="#5C5D5E" d="M54.9,30.2c0,0.1-0.1,0.2-0.2,0.2c-0.1,0-0.2-0.1-0.2-0.2v-2.6c0-0.1,0.1-0.2,0.2-0.2
								c0.1,0,0.2,0.1,0.2,0.2V30.2z"/>
							<path fill="#5C5D5E" d="M55.1,30.4"/>
						</g>
						<g>
							<path fill="#5C5D5E" d="M51.9,30.4"/>
							<path fill="#5C5D5E" d="M52.4,30.1h0.7c0.1,0,0.2,0.1,0.2,0.2c0,0.1-0.1,0.2-0.2,0.2h-0.8c-0.1,0-0.2-0.1-0.2-0.2v-2.5
								c0-0.1,0.1-0.2,0.2-0.2c0.1,0,0.2,0.1,0.2,0.2V30.1z"/>
							<path fill="#5C5D5E" d="M53.3,30.4"/>
						</g>
						<path fill="#5C5D5E" d="M63.3,30.4"/>
						<g>
							<g>
								<path fill="#5C5D5E" d="M65.1,30.2l-0.8-1l0.1,0c0.4,0,0.7-0.2,0.7-0.8c0-0.5-0.4-0.8-0.8-0.8h-0.6c-0.1,0-0.2,0.1-0.2,0.2
									v2.5c0,0.1,0.1,0.2,0.2,0.2c0.1,0,0.2-0.1,0.2-0.2v-1.1l1,1.2c0,0,0.1,0.1,0.1,0.1c0.1,0,0.1-0.1,0.1-0.1
									C65.1,30.3,65.1,30.2,65.1,30.2z M63.8,27.8h0.4c0.3,0,0.5,0.2,0.5,0.5c0,0.4-0.1,0.5-0.5,0.5h-0.4V27.8z"/>
							</g>
						</g>
						<path fill="#5C5D5E" d="M65.2,30.4"/>
						<g>
							<path fill="#5C5D5E" d="M55.9,30.4"/>
							<path fill="#5C5D5E" d="M56.5,27.8H56c-0.1,0-0.2-0.1-0.2-0.2c0-0.1,0.1-0.2,0.2-0.2h1.3c0.1,0,0.2,0.1,0.2,0.2
								c0,0.1-0.1,0.2-0.2,0.2h-0.5v2.4c0,0.1-0.1,0.2-0.2,0.2c-0.1,0-0.2-0.1-0.2-0.2V27.8z"/>
							<path fill="#5C5D5E" d="M57.5,30.4"/>
						</g>
						<g>
							<path fill="#5C5D5E" d="M58.2,30.4"/>
							<path fill="#5C5D5E" d="M58.9,27.8h-0.5c-0.1,0-0.2-0.1-0.2-0.2c0-0.1,0.1-0.2,0.2-0.2h1.3c0.1,0,0.2,0.1,0.2,0.2
								c0,0.1-0.1,0.2-0.2,0.2h-0.5v2.4c0,0.1-0.1,0.2-0.2,0.2c-0.1,0-0.2-0.1-0.2-0.2V27.8z"/>
							<path fill="#5C5D5E" d="M59.9,30.4"/>
						</g>
						<path fill="#5C5D5E" d="M65.7,35.9"/>
						<g>
							<g>
								<path fill="#5C5D5E" d="M67.8,35.6L67,33.2c0-0.1-0.1-0.2-0.2-0.2c-0.1,0-0.2,0.1-0.2,0.2l-0.8,2.4c0,0,0,0.1,0,0.2
									c0,0.1,0.1,0.2,0.2,0.2c0.1,0,0.1-0.1,0.2-0.1l0.2-0.5h1.2l0.2,0.5c0,0.1,0.1,0.1,0.2,0.1c0.1,0,0.2-0.1,0.2-0.2
									C67.9,35.8,67.9,35.7,67.8,35.6z M66.3,35l0.5-1.6h0l0.5,1.6H66.3z"/>
							</g>
						</g>
						<path fill="#5C5D5E" d="M67.9,35.9"/>
						<g>
							<path fill="#5C5D5E" d="M54.4,35.9"/>
							<path fill="#5C5D5E" d="M55.7,35.6c0.4,0,0.6-0.3,0.7-0.3c0.1,0,0.1,0.1,0.1,0.2c0,0.2-0.4,0.4-0.8,0.4
								c-0.8,0-1.1-0.7-1.1-1.5c0-0.8,0.4-1.5,1.2-1.5c0.5,0,0.8,0.3,0.8,0.4c0,0.1-0.1,0.2-0.1,0.2c-0.1,0-0.2-0.3-0.6-0.3
								c-0.6,0-0.8,0.6-0.8,1.2C54.9,35,55.1,35.6,55.7,35.6z"/>
							<path fill="#5C5D5E" d="M56.6,35.9"/>
						</g>
						<g>
							<path fill="#5C5D5E" d="M59.9,35.9"/>
							<path fill="#5C5D5E" d="M60.5,35.8c0,0.1-0.1,0.2-0.2,0.2c-0.1,0-0.2-0.1-0.2-0.2v-2.6c0-0.1,0.1-0.2,0.2-0.2
								c0.1,0,0.2,0.1,0.2,0.2V35.8z"/>
							<path fill="#5C5D5E" d="M60.7,35.9"/>
						</g>
						<path fill="#5C5D5E" d="M61.4,35.9"/>
						<g>
							<g>
								<path fill="#5C5D5E" d="M62.4,33h-0.6c-0.1,0-0.2,0.1-0.2,0.2v2.5c0,0.1,0.1,0.2,0.2,0.2c0.1,0,0.2-0.1,0.2-0.2v-0.9h0.5
									c0.5,0,0.8-0.4,0.8-0.9C63.2,33.4,62.9,33,62.4,33z M62.4,34.5h-0.5v-1.2h0.5c0.4,0,0.5,0.3,0.5,0.6
									C62.9,34.3,62.7,34.5,62.4,34.5z"/>
							</g>
						</g>
						<path fill="#5C5D5E" d="M63.3,35.9"/>
						<path fill="#5C5D5E" d="M57.2,35.9"/>
						<g>
							<g>
								<path fill="#5C5D5E" d="M58.9,35.7l-0.8-1l0.1,0c0.4,0,0.7-0.2,0.7-0.8c0-0.5-0.4-0.8-0.8-0.8h-0.6c-0.1,0-0.2,0.1-0.2,0.2
									v2.5c0,0.1,0.1,0.2,0.2,0.2c0.1,0,0.2-0.1,0.2-0.2v-1.1l1,1.2c0,0,0.1,0.1,0.1,0.1c0.1,0,0.1-0.1,0.1-0.1
									C59,35.8,59,35.7,58.9,35.7z M57.7,33.3h0.4c0.3,0,0.5,0.2,0.5,0.5c0,0.4-0.1,0.5-0.5,0.5h-0.4V33.3z"/>
							</g>
						</g>
						<path fill="#5C5D5E" d="M59.1,35.9"/>
						<g>
							<path fill="#5C5D5E" d="M51.9,35.9"/>
							<path fill="#5C5D5E" d="M53.4,33.4c0,0.1-0.1,0.2-0.1,0.2c-0.1,0-0.2-0.2-0.5-0.2c-0.2,0-0.4,0.2-0.4,0.4
								c0,0.6,1.2,0.3,1.2,1.3c0,0.5-0.3,0.9-0.9,0.9c-0.3,0-0.7-0.1-0.7-0.3c0-0.1,0-0.2,0.1-0.2c0.1,0,0.3,0.2,0.6,0.2
								c0.3,0,0.5-0.3,0.5-0.6c0-0.7-1.2-0.4-1.2-1.3c0-0.3,0.3-0.7,0.8-0.7C53.1,33,53.4,33.2,53.4,33.4z"/>
							<path fill="#5C5D5E" d="M53.7,35.9"/>
						</g>
						<g>
							<path fill="#5C5D5E" d="M63.8,35.9"/>
							<path fill="#5C5D5E" d="M64.5,33.4H64c-0.1,0-0.2-0.1-0.2-0.2c0-0.1,0.1-0.2,0.2-0.2h1.3c0.1,0,0.2,0.1,0.2,0.2
								c0,0.1-0.1,0.2-0.2,0.2h-0.5v2.4c0,0.1-0.1,0.2-0.2,0.2c-0.1,0-0.2-0.1-0.2-0.2V33.4z"/>
							<path fill="#5C5D5E" d="M65.4,35.9"/>
						</g>
						<path fill="#5C5D5E" d="M56.3,41.4"/>
						<g>
							<g>
								<path fill="#5C5D5E" d="M58.5,41.1l-0.8-2.4c0-0.1-0.1-0.2-0.2-0.2c-0.1,0-0.2,0.1-0.2,0.2l-0.8,2.4c0,0,0,0.1,0,0.2
									c0,0.1,0.1,0.2,0.2,0.2c0.1,0,0.1-0.1,0.2-0.1l0.2-0.5H58l0.2,0.5c0,0.1,0.1,0.1,0.2,0.1c0.1,0,0.2-0.1,0.2-0.2
									C58.5,41.2,58.5,41.1,58.5,41.1z M56.9,40.4l0.5-1.6h0l0.5,1.6H56.9z"/>
							</g>
						</g>
						<path fill="#5C5D5E" d="M58.5,41.4"/>
						<g>
							<path fill="#5C5D5E" d="M62.8,41.4"/>
							<path fill="#5C5D5E" d="M63.3,41h0.8c0.1,0,0.2,0.1,0.2,0.2c0,0.1-0.1,0.2-0.2,0.2h-0.9c-0.1,0-0.2-0.1-0.2-0.2v-2.5
								c0-0.1,0.1-0.2,0.2-0.2h0.9c0.1,0,0.2,0.1,0.2,0.2c0,0.1-0.1,0.2-0.2,0.2h-0.8v0.9H64c0.1,0,0.2,0.1,0.2,0.2
								c0,0.1-0.1,0.2-0.2,0.2h-0.7V41z"/>
							<path fill="#5C5D5E" d="M64.4,41.4"/>
						</g>
						<g>
							<path fill="#5C5D5E" d="M52.3,41.4"/>
							<path fill="#5C5D5E" d="M52.7,41.2c0,0.1-0.1,0.2-0.2,0.2c-0.1,0-0.2-0.1-0.2-0.2c0,0,0-0.1,0-0.2l0.4-2.3
								c0-0.2,0.1-0.3,0.3-0.3c0.1,0,0.2,0.1,0.2,0.2l0.6,2.1h0l0.6-2.1c0-0.1,0.1-0.2,0.2-0.2c0.1,0,0.2,0.1,0.3,0.3l0.4,2.3
								c0,0.1,0,0.1,0,0.2c0,0.1-0.1,0.2-0.2,0.2c-0.1,0-0.2,0-0.2-0.2l-0.3-2.3h0L54,41.3c0,0.1-0.1,0.1-0.2,0.1
								c-0.1,0-0.1,0-0.2-0.1L53,38.9h0L52.7,41.2z"/>
							<path fill="#5C5D5E" d="M55.4,41.4"/>
						</g>
						<g>
							<path fill="#5C5D5E" d="M59.3,41.4"/>
							<path fill="#5C5D5E" d="M59.8,41.2c0,0.1-0.1,0.2-0.2,0.2c-0.1,0-0.2-0.1-0.2-0.2v-2.5c0-0.1,0-0.2,0.1-0.2
								c0.1,0,0.1,0,0.2,0.2l1.3,2.1h0v-2.1c0-0.1,0.1-0.2,0.2-0.2c0.1,0,0.2,0.1,0.2,0.2v2.5c0,0.1,0,0.2-0.1,0.2
								c-0.1,0-0.1,0-0.2-0.2l-1.3-2.1h0V41.2z"/>
							<path fill="#5C5D5E" d="M61.8,41.4"/>
						</g>
						<g>
							<path fill="#5C5D5E" d="M65.4,41.4"/>
							<path fill="#5C5D5E" d="M66.1,38.8h-0.5c-0.1,0-0.2-0.1-0.2-0.2c0-0.1,0.1-0.2,0.2-0.2h1.3c0.1,0,0.2,0.1,0.2,0.2
								c0,0.1-0.1,0.2-0.2,0.2h-0.5v2.4c0,0.1-0.1,0.2-0.2,0.2c-0.1,0-0.2-0.1-0.2-0.2V38.8z"/>
							<path fill="#5C5D5E" d="M67.1,41.4"/>
						</g>
					</g>
				</g>
				<g>
					<g>
						<g>
							<path fill="none" stroke="#000000" stroke-width="0.1734" stroke-linecap="round" d="M60.4,82.1c0-1,1.4-1.2,1.4-1.2
								s1.9,0,4.6,0c2.7,0,2.5-2.1,2.5-2.1V60.8h-8.6"/>
						</g>
						<g>
							<g>
								<path fill="none" stroke="#000000" stroke-width="0.1734" stroke-linecap="round" d="M60.3,82.1c0-1-1.4-1.2-1.4-1.2
									s-1.9,0-4.6,0c-2.7,0-2.5-2.1-2.5-2.1V60.8h8.6"/>
							</g>
							<g>

									<line fill="none" stroke="#000000" stroke-width="0.1734" stroke-linecap="round" x1="51.7" y1="67.1" x2="68.9" y2="67.1"/>
							</g>
							<g>

									<line fill="none" stroke="#000000" stroke-width="0.1734" stroke-linecap="round" x1="51.7" y1="66.2" x2="68.9" y2="66.2"/>
							</g>
							<g>

									<line fill="none" stroke="#000000" stroke-width="0.1734" stroke-linecap="round" x1="51.7" y1="65.3" x2="68.9" y2="65.3"/>
							</g>
							<g>

									<line fill="none" stroke="#000000" stroke-width="0.1734" stroke-linecap="round" x1="51.7" y1="64.4" x2="68.9" y2="64.4"/>
							</g>
							<g>

									<line fill="none" stroke="#000000" stroke-width="0.1734" stroke-linecap="round" x1="51.7" y1="63.5" x2="68.9" y2="63.5"/>
							</g>
							<g>

									<line fill="none" stroke="#000000" stroke-width="0.1734" stroke-linecap="round" x1="51.7" y1="62.6" x2="68.9" y2="62.6"/>
							</g>
							<g>

									<line fill="none" stroke="#000000" stroke-width="0.1734" stroke-linecap="round" x1="51.7" y1="61.7" x2="68.9" y2="61.7"/>
							</g>
							<g>

									<line fill="none" stroke="#000000" stroke-width="0.1734" stroke-linecap="round" x1="67.2" y1="80.8" x2="67.2" y2="67.1"/>

									<line fill="none" stroke="#000000" stroke-width="0.1734" stroke-linecap="round" x1="66.3" y1="80.9" x2="66.3" y2="67.1"/>

									<line fill="none" stroke="#000000" stroke-width="0.1734" stroke-linecap="round" x1="64.7" y1="80.9" x2="64.7" y2="67.1"/>

									<line fill="none" stroke="#000000" stroke-width="0.1734" stroke-linecap="round" x1="63.8" y1="80.9" x2="63.8" y2="67.1"/>

									<line fill="none" stroke="#000000" stroke-width="0.1734" stroke-linecap="round" x1="62.2" y1="80.9" x2="62.2" y2="67.1"/>
								<line fill="none" stroke="#000000" stroke-width="0.1734" stroke-linecap="round" x1="61.3" y1="81" x2="61.3" y2="67.1"/>
							</g>
							<g>

									<line fill="none" stroke="#000000" stroke-width="0.1734" stroke-linecap="round" x1="53.5" y1="80.8" x2="53.5" y2="67.1"/>

									<line fill="none" stroke="#000000" stroke-width="0.1734" stroke-linecap="round" x1="54.4" y1="80.9" x2="54.4" y2="67.1"/>

									<line fill="none" stroke="#000000" stroke-width="0.1734" stroke-linecap="round" x1="55.9" y1="80.9" x2="55.9" y2="67.1"/>

									<line fill="none" stroke="#000000" stroke-width="0.1734" stroke-linecap="round" x1="56.8" y1="80.9" x2="56.8" y2="67.1"/>

									<line fill="none" stroke="#000000" stroke-width="0.1734" stroke-linecap="round" x1="58.4" y1="80.9" x2="58.4" y2="67.1"/>
								<line fill="none" stroke="#000000" stroke-width="0.1734" stroke-linecap="round" x1="59.3" y1="81" x2="59.3" y2="67.1"/>
							</g>
						</g>
					</g>
					<g>
						<g>
							<path fill="#5C5D5E" d="M47.2,59.7c-0.3-0.6,0.3-3.9,0.3-3.9s1-1.5,1.2-2.4c0.1-0.9,0.3-1.3-1.2-3.2
								c-3.5-4.7-10.2-7.5-10.2-7.5c-2.4-2.9-7.5-3.9-8.4-3.9c-0.9,0-1.2,0.2-1.3,0.7c-0.1,0.5,3.6,3.5,3.6,3.5l-0.3,0.2
								c0,0-0.1,0.2,0,0.7c0.1,0.5,2.7,2.2,2.2,2.4c-0.5,0.2-0.7,0.5-0.6,0.8c0.1,0.3,2.1,2.3,2.1,2.3l-0.7,0.8c0,0,1.7,1.6,1.4,1.6
								c-0.3,0-1,1.2-1,1.2l0.8,1.2L34.4,55l0.9,1.3c0,0-0.6,0.9-0.6,1.3c0,0.3,1.5,1,1.5,1c-0.5,0.1-0.8,1.2-0.8,1.2l1,1
								c0,0-0.5,0.7-0.3,1c0.1,0.3,1,0.8,1,0.8s-0.5,0.7-0.6,1c-0.1,0.3,1.6,1,1.6,1l-0.1,1l1.3,0.5l0.1,1.7l1.6,0.5l0.2,1l1.4,0.1
								l0.2,1.6l1.5,0.1l0.3,1l2.1-0.1c0,0,0.5,1.4,0.7,1.5c0.2,0.1,1.3-0.8,1.3-0.8s0.8,0.9,1.2,0.9c0.3,0,1.7-1.6,1.7-1.6v-9.4
								C49.3,62.9,47.6,60.3,47.2,59.7z M28.7,39.6c0,0-0.1-0.4,0.4-0.3c0.4,0.1,7.1,2,7.8,3.4c0,0-0.1,0.4-0.2,0.3
								c-0.2-0.1-5.8-3.2-6.5-2.9c0,0-0.2,0.1-0.1,0.3c0.1,0.1,3.4,2.3,4,2.6c0.6,0.3,0.6,0.5,0.6,0.5
								C33.5,43.3,28.9,40.8,28.7,39.6z M35.6,43.2L35.6,43.2c-0.1,0-2.1-1-2.5-1.4c-0.3-0.4-0.3-0.2-0.2-0.3c0.2-0.1,0.2,0,0.4,0.1
								c0.1,0.1,2.2,1,2.4,1.2C35.9,43.1,35.6,43.2,35.6,43.2z M31.5,43.6c1.8-0.6,4,0.3,5.3,1.6c0.1,0.1-0.1,0.4-0.2,0.4
								c-1.2-0.5-2.4-0.9-3.5-1.6c0.2,1.2,1.4,1,2.2,1.5c0.6,0.4,1.4,0.6,2,1.1c0,0-0.2,0.4-0.2,0.4C35,46.2,32.8,45.5,31.5,43.6z
								 M33.4,47c-0.2-0.4,0.3-0.6,0.4-0.6c1.7-0.1,3,0.9,4.4,1.8c0.2,0.1,0,0.4-0.2,0.4c-1.2-0.2-2.1-0.9-3.2-1.1
								c0.2,1.1,1.3,0.8,1.9,1.3c0.5,0.4,1.4,0.1,2,0.6c0,0-0.1,0.4-0.2,0.4C36.4,49.4,34.3,49.1,33.4,47z M39.3,46.9
								c0,0.1,0.1,0.2,0.3,0.3c0.2,0.1,2.2,0.7,2.6,1.3c0.4,0.6,0.3,0.5,0.3,0.5c-0.6,0-4.2-1.1-4.7-2.6c0,0-0.1-0.3,0.2-0.4
								c0.3-0.1,1.8-0.3,2.8,0.5c0,0,0.4,0.5,0.3,0.6c-0.1,0.1-0.8,0-0.9-0.1c-0.2-0.1-0.8-0.5-0.9-0.3
								C39.2,46.8,39.3,46.7,39.3,46.9z M44.4,63.4c-0.1,0.3-0.3,0.8-0.8,0.7c-0.9-0.1-0.4-0.8-0.6-1.3c-0.1-0.2-0.4,0.4-0.6,0.4
								c-0.5-0.1-0.6-0.6-0.5-1.1c0.1-0.4,0.6-0.5,0.9-0.7c0.2-0.1,0.3,0,0.4,0.2c-0.2,0.1-0.3,0.3-0.2,0.4c0.3,0.3,1.1-0.5,1,0
								C43.9,62.7,44.5,62.9,44.4,63.4z M45.2,64.6c0-0.2,0.1-0.4,0.2-0.4c0.6-0.1,0.4,1.2,0.3,1.6c-0.1,0.6,1.2-1.1,1.1-0.3
								c0,0.3-0.2,0.8-1,1.2c-0.2,0.1-0.5,0.3-0.7,0.2c-0.6-0.5-0.1-1.3,0.1-1.8C45.4,64.9,45.2,64.8,45.2,64.6z M47.9,65.8
								c0.5,1.2-0.6,2.1-0.8,1.9c-1.5-0.8,0-1.2,0.1-1.9c0.3,0.1,0.2,0.7,0.2,1C47.3,66.3,47.8,66,47.9,65.8z M45,64.8
								c-0.3,0.3-0.7,0.3-0.9,0.7c-0.2-0.2-0.4-0.3-0.4-0.5c-0.2-0.7,0.5-1,0.9-1.4c0.2-0.1,0.3,0,0.4,0.2c0.1,0.2-0.1,0.3-0.2,0.5
								C44.7,64.6,44.9,64.7,45,64.8z M43.7,60.7c0.2,0.6-0.7,0.5-1.1,0.6c-0.6,0.2-1.7-0.1-1.3-0.9c0.1-0.3,0.6-0.9,1-0.2
								c0,0-0.1,0.1-0.2,0.2C42.6,60.8,43.5,60,43.7,60.7z M43.5,58.8c-0.5,0.1-0.9,0-1.4,0c0.3,0.5,1.5,0.1,1.2,0.6
								c-0.4,0.7-2,0.4-2.2-0.4c-0.2-0.9,1.7-1.3,2.6-0.6C43.9,58.5,43.7,58.8,43.5,58.8z M42.6,52.6c-0.9,0.2-2.1,0.1-2.5-0.7
								c-0.2-0.4,0-0.9,0.4-1.1c1-0.3,1.7,0.4,2.5,0.9c-0.1,0.1-0.2,0.1-0.2,0.2c-0.4,0.5-1-0.6-1.1,0
								C41.8,52.1,42.4,52.2,42.6,52.6z M42.4,53.1c0.3,0.1,0.8,0,0.9,0.4c0.1,0.2,0,0.4-0.2,0.4c-0.5,0.2-0.9-0.4-1.4-0.2
								c-0.1,0.1,0,0.3,0.2,0.4c0.4,0.1,1.7,0.2,1.1,0.6c-0.2,0.1-2.2,0.1-2.6-0.8C40,52.8,41.6,52.9,42.4,53.1z M40.8,55.3
								c0.1-0.2,0.1-0.3,0.4-0.3c0.1,0,0.4-0.2,0.7,0c0.3,0.1,0.7,0.1,0.6,0.4l-0.5,0c0,0-0.4-0.1-0.5,0c-0.1,0.1-0.1,0.2,0.1,0.3
								c0.1,0.1,0.3,0,0.5,0c0.2,0,0.4,0.1,0.4,0.1c0.1,0.3-0.3,0.2-0.8,0.1c-0.5-0.1-0.4,0.1-0.8-0.1
								C40.7,55.7,40.7,55.5,40.8,55.3z M42.2,56.3c0.2,0,0.3,0.2,0.2,0.4c-0.1,0.2-0.9,0.3-0.8,0.4c0.2,0.1,1.3,0,1.2,0.2
								c-0.5,0.7-1.7,0.7-1.9-0.2C40.8,56.6,41.5,56.3,42.2,56.3z M43.4,50.7c-0.1,0-0.6-0.3-0.9-0.5c-0.3-0.2-1-0.7-1.2-0.8
								c-0.3-0.1-0.6-0.3-0.8-0.3c-0.2,0.1-0.4,0.1-0.3,0.2c0.1,0.1,0.2,0.2,0.4,0.3c0.2,0.1,0.5,0.3,0.7,0.3
								c0.2,0.1,0.4,0.3,0.5,0.3c0.1,0,0.5,0.2,0.6,0.3c0.1,0.1,0.2,0.3,0.2,0.3c-0.4,0.1-1.5-0.2-2.4-0.6c-0.9-0.4-1.2-0.9-1.1-1.1
								c0-0.2,0.3-0.3,0.6-0.3c0.2,0,1.6,0.1,2.2,0.5c0.6,0.3,1.5,0.8,1.6,1.1C43.5,50.7,43.5,50.6,43.4,50.7z M34.8,50.2
								c-0.2-0.4,0.4-0.8,0.6-0.8c1.3,0.1,2.5,0.6,3.7,1.3c-0.2,0.2-0.3,0.4-0.4,0.4c-0.9-0.2-1.7-0.7-2.6-0.9
								c0.6,1.5,2.7,0.8,3.7,1.8C37.9,52.5,35.9,51.8,34.8,50.2z M35.9,52.1c1.3,0.4,2.7,0.4,3.9,1.2c-0.9,1.2-2.1-1-3.5-0.2
								c0.8,0.4,1.8,0.6,2.5,1.2c-1.3,0.1-3.5,0.1-3.7-1.6C35.2,52.2,35.8,52.5,35.9,52.1z M35.1,55c0,0-0.1-0.2,0-0.2
								c0.1,0,0.3-0.2,0.5-0.2c0.2,0,2.3,0.1,2.7,0.2c0.4,0.1,1.6,0.5,1.6,0.6c0,0.2,0,0.2-0.1,0.3c-0.1,0.1-0.2,0-0.3,0
								c-0.1-0.1-1-0.4-1.2-0.4c-0.1,0-1-0.2-1.1-0.3c-0.1,0-0.7-0.1-0.9-0.1c-0.2,0-0.4,0-0.4,0s0,0.1,0,0.2c0,0.1-0.1,0.3,0.1,0.3
								c0.1,0.1,0.1,0.1,0.3,0.2c0.2,0.1,0.4,0.1,0.6,0.2c0.2,0.1,0.4,0.1,0.6,0.1c0.2,0,1.5,0.3,1.6,0.4c0.1,0,0.6,0.2,0.6,0.3
								c0,0,0,0.2-0.2,0.2c-0.2,0-0.3,0-0.4,0C38.9,56.7,35.4,56,35.1,55z M35.9,57.6c-0.1-0.2-0.2-0.3-0.2-0.6c0-0.3,0-0.3,0.2-0.4
								c0.2,0,0.5,0,0.8,0.1c0.2,0,1.7,0.2,1.8,0.4c0.2,0.2,0.1,0.3,0,0.3c0,0.1-0.1,0.1-0.3,0.1c-0.2,0-0.4-0.1-0.5-0.2
								c-0.1,0-0.6-0.1-0.6-0.1s-0.4-0.2-0.6-0.1c-0.1,0.1-0.1,0.1-0.1,0.3c0.1,0.2,0.1,0.2,0.2,0.3c0.1,0.1,1.2,0.3,1.4,0.3
								c0.2,0,0.3,0.1,0.3,0.1c0,0,0.2,0.2,0.2,0.2c-0.1,0.2,0,0.1-0.2,0.1c-0.2,0-0.6,0-0.7,0c-0.1-0.1-0.8,0-1-0.2
								C36.3,58,36,57.8,35.9,57.6z M36.3,59.5c0-0.2,0-0.5,0.2-0.5c0.2,0,1.9-0.2,2.4,0c0.5,0.2,0.4,0.2,0.5,0.3
								c0,0.1,0,0.1-0.1,0.1c-0.1,0-1.8-0.1-2,0.1c-0.2,0.2-0.1,0.1-0.1,0.2c0,0,0,0.1,0.1,0.2c0.2,0.1,1.3,0,1.6,0
								c0.2,0,0.6-0.1,0.6,0c0.1,0.1,0,0.1-0.2,0.2c-0.1,0-0.9,0-1,0c-0.1,0-1.2,0.1-1.6-0.2C36.4,59.6,36.3,59.6,36.3,59.5z
								 M37,61.8c0-0.1-0.3-0.2-0.3-0.4c0-0.2,0.1-0.5,0.2-0.5c0.1,0,0.9-0.1,1.1-0.1c0.3,0,0.6-0.2,0.9-0.2
								c0.3,0.1,0.3,0.1,0.3,0.2c0,0-0.1,0.1-0.2,0.1c-0.1,0-0.3,0.1-0.4,0.1c-0.1,0-0.6,0-0.8,0.1c-0.1,0.1-0.3,0-0.3,0.2
								c0,0.1,0,0.1,0.1,0.2c0.1,0.1,0,0,0.2,0.1c0.2,0.1,1.3-0.1,1.5-0.1c0.2-0.1,0.8-0.2,0.9-0.2c0.1,0,0.3,0.2,0.3,0.2
								c0,0.2,0,0.2-0.2,0.2c-0.2,0-0.8,0.2-1,0.2c-0.2,0-1.8,0.1-2,0C37.3,61.9,37.1,61.8,37,61.8z M37.6,63.5
								C37.6,63.5,37.6,63.5,37.6,63.5c0,0,0-0.1,0.1-0.4c0.1-0.6,1.9-0.7,2.3-0.8c0.4,0,0.7,0.1,0.7,0.1s-0.3,0.2-0.4,0.2
								c-0.1,0-0.2,0.1-0.4,0.1c-0.2,0-0.3,0-0.5,0c-0.3,0-0.4,0-0.6,0.1c-0.2,0.1-0.1,0.2-0.2,0.4c0,0.2,0.1,0.1,0.3,0.2
								c0.2,0,0.5-0.1,0.6-0.1c0.1,0,0.3-0.1,0.5-0.1c0.2,0,0.2,0,0.5,0c0.2,0,0.2,0,0.2,0.1c0,0.1-0.1,0.1-0.2,0.2
								c-0.1,0.1-1,0.3-1.2,0.4c-0.2,0.1-0.5,0-0.9-0.1C38,63.9,37.7,63.6,37.6,63.5z M39,65.5c-0.3-0.1-0.2-0.3-0.2-0.6
								c0-0.2,0.5-0.6,0.7-0.7c0.2-0.1,0.9,0.1,0.9,0.1c0,0-0.1,0.2-0.2,0.3c-0.1,0.1-0.1,0.1-0.3,0.1c-0.2,0-0.2,0-0.4,0
								c-0.1,0,0,0,0,0.2c0,0.2,0,0.2,0.1,0.2c0.1,0,0.5,0,0.7,0c0.2,0,0.8-0.4,1-0.5c0.1,0,0.4,0,0.5,0c0.1,0,0,0.1,0,0.3
								c-0.1,0.1-1,0.7-1.3,0.7C40.1,65.7,39.3,65.7,39,65.5z M40.7,67.6C40,67.5,40,67.4,40,67.2c0-0.2,0.2-0.6,0.5-0.9
								c0.3-0.3,1.3-1,1.5-0.9c0.2,0.1,0.2,0.1,0.1,0.1c0,0-0.4,0.4-0.5,0.5c-0.1,0.1-0.5,0.3-0.6,0.4c-0.1,0.1-0.3,0.2-0.3,0.3
								c0.1,0.1,0,0.2,0.2,0.2c0.2,0,0.3,0.1,0.4,0c0.1-0.1,1.1-0.9,1.2-1c0.1-0.1,0.2-0.3,0.5-0.1c0.1,0.1,0.1,0.3,0,0.4
								C42.9,66.3,41.4,67.7,40.7,67.6z M42.1,69.1c-0.5-0.1-0.6-0.3-0.6-0.5c0-0.2,0-0.4,0.2-0.7c0.2-0.2,1.7-1.5,1.9-1.5
								c0.2,0,0.2,0,0.2,0.1c0,0.1,0,0.2,0,0.3c-0.1,0.1-1.3,1-1.4,1.2c0,0.2,0,0.2,0,0.2s0.4,0.3,1.4-0.7c0.3-0.3,0.5-0.1,0.5-0.1
								c0,0.1,0,0.2,0,0.2C44.3,67.7,42.6,69.2,42.1,69.1z M43.9,70.7c-0.4-0.1-0.6-0.4-0.6-0.7c-0.1-0.3,0.1-0.7,0.3-0.9
								c0.2-0.2,1.5-1.4,1.5-1.4s0.4-0.2,0.4,0c0,0.2,0,0.2-0.1,0.3c-0.1,0.1-1.3,1.2-1.3,1.4c0,0.2,0,0.3,0,0.3
								c0,0.1,0.2,0.1,0.5,0c0.2-0.1,0.5-0.5,0.6-0.6c0.1-0.1,0.4-0.3,0.4-0.2c0.1,0.1,0.1,0.4,0.1,0.5
								C45.6,69.4,44.3,70.8,43.9,70.7z M46.7,71.3c-0.8,0.5-0.8,0.4-0.9,0.4c-0.1,0-0.5-0.2-0.5-0.5c0-0.3-0.1-0.5,0.2-0.8
								c0.3-0.2,1.1-1.3,1.2-1.3c0.1,0,0.1-0.1,0.2,0c0,0.1,0,0.2,0,0.2s-0.1,0.3-0.2,0.4c-0.1,0.1-0.8,0.7-0.9,0.9
								c-0.1,0.3-0.1,0.4,0,0.4c0.1,0.1,0.2,0.1,0.3,0c0.1-0.1,0.5-0.3,0.9-0.9c0.3-0.5,0.8-1.5,0.9-1.4C48,69,48,69.2,48,69.2
								C48,69.3,47.5,70.8,46.7,71.3z M49,72c-0.2,0.2-0.3,0.3-0.5,0.5c-0.2,0.2-0.4,0.3-0.4,0.3h-0.4c0,0-0.2-0.5-0.1-1.2
								c0.1-0.7,0.2-0.8,0.3-1.1c0.2-0.3,0.5-0.8,0.6-1c0.2-0.2,0.4-0.4,0.4-0.4l0.2,0.3c0,0-0.5,0.6-0.8,1.2
								c-0.3,0.6-0.4,0.8-0.3,1.2c0.1,0.4,0,0.5,0,0.5s0.3-0.1,0.5-0.4c0.2-0.2,0.4-0.5,0.5-0.7c0.1-0.3,0.1-0.1,0.3-0.5
								c0.1-0.4,0.2-0.8,0.2-0.8l0.3-0.2c0,0,0.1,0.4,0,0.9C49.4,71.2,49.2,71.8,49,72z M48.8,67c0.7,0.4,0.2-0.6,0.7-0.7
								c0.2-0.1,0.4,0.1,0.4,0.2c-0.4,0.6-0.2,0.8-0.4,1.7c-0.2,0.6-1.2,0.3-1.4-0.3c-0.2-0.6,0-1.1,0.5-1.5
								C48.9,66.2,48.7,66.9,48.8,67z M51.5,71.6c-0.1,0.2-0.3,1-0.5,1.1c-0.3,0.3-0.6,0.4-0.9,0.4c-0.2,0.1-0.6-0.5-0.6-0.5
								s-0.2-0.3-0.1-0.6c0.1-0.3,0.8-2,1.1-2.1c0.2-0.2,0.3,0.3,0.3,0.3l-0.6,1.1c0,0-0.2,0.4-0.1,1.1c0,0.3,0.1,0.3,0.1,0.3
								s0.3-0.3,0.5-0.8c0.2-0.5,0.3-0.9,0.3-0.9s-0.2-0.5,0.3-0.3C51.3,70.7,51.5,71.4,51.5,71.6z M51.2,68.5
								c-0.5,0.4-1,0.2-1.1-0.3c-0.2-0.7-0.3-1.8,0.4-1.9c0.4-0.1,0.1,0.9,0.2,1.4c0.4-0.2,0.4-1.3,0.6-1
								C51.6,67.1,51.7,68.1,51.2,68.5z M51.2,65.7c-0.6,0.2-1.2,0.1-1.6-0.5c-0.1-0.2,0-0.6,0-0.9c-0.8,0.6-1.2-0.4-1.9-0.6
								c-0.1,0-0.3,0.3-0.4,0.1c-0.6-0.6-1.5-1.1-1.2-2.1c-0.4,0.1-0.8-0.2-0.9-0.5c-0.1-0.5-0.1-0.9-0.5-1.1
								c0.3-0.3,0.8-0.7,0.6-1.1c0-0.1-0.3,0-0.4,0.2c-0.3-0.4-0.7-0.9-0.6-1.4c0-0.7,1.3-0.7,1-1.4c-0.1-0.2-0.7-0.2-0.7-0.5
								c-0.1-0.8,1-1,0-1.9c-0.3-0.3,1-0.3,0.9-0.9c-0.1-0.5-0.9-1-0.5-1.6c0.4-0.7,1.4-0.7,0.5-1.3c-0.4-0.3-1-0.3-1.3-0.8
								c-0.1-0.2,0-0.5-0.1-0.6c-1.6-1.1-2.6-2.4-4.1-3.3c-0.7-0.4-1.8-0.6-2.4-1.4c-0.1-0.2-0.1-0.6,0.2-0.6c0.5,0,1.3,0.1,1.2,0.9
								c1.4,0.1,2.3,0.8,3.3,1.6c-0.2,0.1-0.3,0.4-0.2,0.4c0.7,0.1,1.3,0.3,1.8,0.8c0.1,0.1,0,0.4,0,0.7c0.3,0,0.7,0.2,0.8,0.3
								c0.7,0.6,1.3,1.1,1.9,1.8c-0.2,0.1-0.3,0.2-0.2,0.5c0.2,0.4,0.7,0.4,0.9,0.7c0.1,0.2,0,0.4-0.2,0.4c-0.1,0-0.3,0-0.5,0
								c0.1,0.6,0.8,0.6,0.9,1.2c0,0.2-0.1,0.5-0.2,0.4c-0.5-0.2-0.9-0.5-1.4-0.6c0.1,0.8,1.3,0.8,1.3,1.4c0,0.8-0.9-0.5-1.3,0.2
								c0.5,0.1,1,0.4,1.4,0.7c0.1,0.1-0.1,0.4-0.2,0.4c-0.5-0.2-1-0.6-1.6-0.6c0.3,0.7,1.3,0.5,1.6,1.2c0.1,0.2-0.1,0.4-0.2,0.4
								c-0.4-0.2-0.9-0.3-1.2-0.6c-0.3,0.9,1,0.7,0.8,1.1c-0.2,0.6,0,1.2-0.4,1.6c-0.1-0.4-0.6-0.1-0.7-0.5c-0.3,0.9,1,1.1,0.9,1.8
								c0,0.3-0.5,0.7-0.3,0.9c0.2,0.2,0.8-0.2,1.1,0.3c0.2,0.4-0.6,0.4-0.4,0.6c0.2,0.2,0.7,0.1,1.1,0.1c0,0.3,0.9,0.3,0.2,0.7
								c-0.2,0.1-0.5-0.1-0.7,0.3c-0.1,0.2,0.1,0.4,0.2,0.4c0.6-0.1,1.3-0.8,1.8-0.2c0.3,0.4-0.6,0.4-0.4,0.6c0.3,0.2,0.9,0,1.3,0.1
								c0.6,0.2,0.5,0.6,0.2,1.1c0.2,0,0.5-0.1,0.7,0C52,64.9,51.5,65.6,51.2,65.7z"/>
						</g>
					</g>
					<g>
						<g>
							<path fill="#5C5D5E" d="M66.4,59.7c-1.1-0.5-1.4-2-1.6-2.7c-0.1-0.7,0.3-1.4,0.2-1.7c-0.1-0.3-0.1-0.6-0.2-1.1
								c-0.1-0.5-0.1-0.9-0.1-1.1c0.1-0.2,0.5-0.3,0.7-0.6c0.2-0.3,0.1-0.4-0.4-1c-0.5-0.6-0.4-0.8-0.4-0.8l0.1-0.5l0.5-0.1l0.3-0.2
								c0,0,0.1-0.2,0.1-0.4c0-0.2,0-0.1-0.9-0.2c-0.9-0.1-3.6-1.2-3.9-1.3c-0.2-0.1-1.5-0.1-2-0.1c-0.5,0-0.5,0.1-0.9,0.3
								c-0.5,0.2-0.8,0.6-1,0.7c-0.3,0.1-0.7-0.1-1-0.1c-0.3,0-1.1,0.1-1.8,0.6c-0.7,0.5-0.8,1.3-0.7,2c0.1,0.6,0.7,1.1,0.7,1.1h0.3
								c0,0,0.1,0,0.1-0.3c0.2-0.8,1-0.6,1-0.6c2,0.3,3.1,1.4,3.3,1.7c0.2,0.3-0.1,1.7-0.3,2c-0.3,0.3-0.1,0.1-0.4,0.2
								c-2.9,1-2.2,1.9-2.2,1.9c-1.9,1.6-1.4,3.4-1.4,3.4h13.8C68.1,60.6,67.5,60.3,66.4,59.7z M54.4,51.6c0,0-0.3-0.1-0.4-0.2
								c-0.3-1,0.8-1.8,1.6-2c1-0.2,1.2,0.5,1.4,1.1C57.3,51.4,55.4,50.2,54.4,51.6z M57.3,51.7L57,51.6c0,0-0.2-0.6-0.5-0.5
								c0,0,0.5-0.1,0.7,0.2C57.5,51.5,57.3,51.7,57.3,51.7z M58,50.2c-0.8,0.2-0.9-0.7-0.8-0.8c2.4-1.4,3.9-0.7,6.7,0
								c0.7,0.2-0.1,1.1-0.4,1c-3.5-1.7-3.2-0.7-4.9-1.1c0,0.2-0.1,0.5,0,0.7c0.9,1.3,2.3,0.4,3.4,0.5c1.3,0.2,2.6,2.4,1.7,2.8
								c-0.3,0.1-0.1-1.2-0.8-0.9c-0.3,0.1,0.6,0.9,0,0.9c-0.4,0-0.8-1.7-1.2-1.2c0.1,0.7,0.1,1.6-0.6,1.9c-0.2,0.1-0.4-0.1-0.4-0.2
								c0.1-1-0.4-1.8-1.2-2.3c-0.2-0.1-0.5,0-0.6-0.1C58.4,51.3,57.9,50.9,58,50.2z M62.7,54.4c-0.2,0.2-0.5,0.4-0.6,0
								c-0.1-0.2-0.1-0.5,0.2-0.7c0.2-0.1,0.4,0.1,0.4,0.2C62.8,54.1,62.8,54.3,62.7,54.4z M58.7,52.4c0.1-0.6,0.8-0.2,1,0.2
								c0.1,0.2-0.1,0.4-0.2,0.4C59.1,53,58.6,52.6,58.7,52.4z M56.2,58.8c-0.1,0.2-0.3,0.2-0.4,0.3c-0.1,0.2-0.2,0.7-0.5,0.6
								c-0.2-0.1-0.3-0.2-0.2-0.4c0.3-0.4,0.5-0.7,0.9-0.9C56.1,58.4,56.4,58.6,56.2,58.8z M60.4,60.2c-0.1,0.1-0.6-0.1-0.4-0.4
								c0.1-0.1,0.3-0.9,0.6-0.3C60.7,59.7,60.7,59.9,60.4,60.2z M61.5,58.8c-0.1,0.2-0.4,0.4-0.7,0c-0.3-0.4,0.7-0.8,0-1.2
								c-0.1,0.4-0.3,0.9-0.4,0.9c-0.8-0.2,0.3-1,0-1.5c-1.2,0.8-0.5,2.2-1.2,2.5c-0.1,0-0.3-0.2-0.4-0.4c-0.2-0.5,0.7-1,0-1.4
								c-0.2,0.5-0.2,1.2-0.5,1.3c-0.6,0.1-0.4-0.7-0.2-1.3c-0.2-0.1-0.5,0-0.5,0.2c0,0.6-0.1,1.5-0.8,1.3C56.1,59,56.6,57,57.9,57
								c0.1,0,0-0.8,0.2-0.7c1,0.6,2.6-0.1,3.3,0.2C62,56.8,61.8,58.2,61.5,58.8z M62.1,60.3c-0.1,0-0.2-0.1-0.2-0.2
								c0-0.1,0.1-0.2,0.2-0.2c0.1,0,0.2,0.1,0.2,0.2C62.3,60.1,62.2,60.3,62.1,60.3z M62.9,59.1c0,0.3-0.5,0.3-0.6,0.2
								c-0.8-1,0.1-1.7,0.2-2.5C63.3,57.2,62.9,58.3,62.9,59.1z M62.3,56.4c-0.2,0-0.4-0.5-0.7-0.6c-0.2-0.1-0.5-0.1-0.7,0.2
								c-0.6-0.6-0.9-0.2-1.6,0.2c-0.5,0.3-0.3-0.5-0.7-0.6c0.3-0.4,0.9-0.2,1.2-0.7c0.4-0.6-0.5-1.2,0.2-1.6
								c0.3,1.7,2.1,1.3,3.1,2.2C63.3,55.7,62.8,56.4,62.3,56.4z M63.4,53.8c0.3,0.1,0.7,0.5,0.4,0.8c-0.1,0.2-0.5,0.1-0.6-0.2
								C63.2,54.2,63.1,53.8,63.4,53.8z M63.3,55.8c0.3,0,0.6-0.8,0.4-0.2c-0.2,0.8,0.8,1.5,0.1,1.7C63.1,57.5,63.3,56.4,63.3,55.8z
								 M63.5,58.8c-0.1-0.2-0.1-0.5,0.2-0.7c0.2-0.1,0.3,0,0.3,0.1c0.1,0.2,0,0.3-0.1,0.7C63.8,59.2,63.5,58.9,63.5,58.8z
								 M64.1,60.2c-0.1,0-0.2-0.1-0.2-0.2c0-0.1,0.1-0.2,0.2-0.2c0.1,0,0.2,0.1,0.2,0.2C64.3,60.1,64.2,60.2,64.1,60.2z M64.3,56.2
								c-0.2-0.1-0.2,0-0.2-0.3c0-0.3,0-0.5,0.1-0.5c0.1,0,0.1-0.1,0.1,0c0.1,0.1,0,0.1,0.1,0.3C64.4,55.8,64.3,56.2,64.3,56.2z
								 M64.2,51.9c-0.3-0.5-0.8-0.8,0-1.1c0.2,0.4,0.7,0.7,0.6,1.1C64.7,52.1,64.5,52.5,64.2,51.9z"/>
						</g>
					</g>
					<g>
						<g>
							<path fill="#5C5D5E" d="M93,39.4c-0.1-0.5-0.3-0.7-1.3-0.7c-0.9,0-6,1-8.4,3.9c0,0-6.7,2.8-10.2,7.5c-1.4,2-1.3,2.3-1.2,3.2
								c0.1,0.9,1.2,2.4,1.2,2.4s0.7,3.4,0.3,3.9c-0.3,0.6-2.1,3.1-4.5,3.1v9.4c0,0,1.4,1.6,1.7,1.6c0.3,0,1.2-0.9,1.2-0.9
								s1,0.9,1.3,0.8c0.2-0.1,0.7-1.5,0.7-1.5l2.1,0.1l0.3-1l1.5-0.1l0.2-1.6l1.4-0.1l0.2-1l1.6-0.5l0.1-1.7l1.3-0.5l-0.1-1
								c0,0,1.7-0.7,1.6-1c-0.1-0.3-0.6-1-0.6-1s0.9-0.5,1-0.8c0.1-0.3-0.3-1-0.3-1l1-1c0,0-0.3-1-0.8-1.2c0,0,1.5-0.7,1.5-1
								c0-0.3-0.6-1.3-0.6-1.3l0.9-1.3l-0.7-0.9l0.8-1.2c0,0-0.7-1.2-1-1.2c-0.3,0,1.4-1.6,1.4-1.6L86,49.3c0,0,2-2,2.1-2.3
								c0.1-0.3-0.1-0.6-0.6-0.8c-0.5-0.2,2.1-2,2.2-2.4c0.1-0.5,0-0.7,0-0.7l-0.3-0.2C89.4,42.9,93.1,39.9,93,39.4z M69.3,64.6
								c0.2-0.1,0.4,0,0.7,0c-0.2-0.5-0.3-0.9,0.2-1.1c0.4-0.1,1,0.1,1.3-0.1c0.2-0.2-0.7-0.2-0.4-0.6c0.5-0.6,1.2,0,1.8,0.2
								c0.1,0,0.3-0.2,0.2-0.4c-0.1-0.3-0.5-0.2-0.7-0.3c-0.6-0.4,0.2-0.4,0.2-0.7c0.4,0,0.9,0.1,1.1-0.1c0.2-0.2-0.6-0.2-0.4-0.6
								c0.3-0.5,0.9-0.1,1.1-0.3c0.2-0.2-0.3-0.6-0.3-0.9c-0.1-0.7,1.1-0.9,0.9-1.8c-0.1,0.4-0.6,0.1-0.7,0.5
								c-0.3-0.5-0.2-1.1-0.4-1.6c-0.2-0.5,1.2-0.2,0.8-1.1c-0.3,0.4-0.8,0.4-1.2,0.6c-0.1,0-0.3-0.2-0.2-0.4
								c0.3-0.6,1.3-0.4,1.6-1.2c-0.6,0-1.1,0.4-1.6,0.6c-0.1,0-0.3-0.2-0.2-0.4c0.4-0.4,0.8-0.6,1.4-0.7c-0.4-0.7-1.2,0.6-1.3-0.2
								c0-0.6,1.2-0.6,1.3-1.4c-0.5,0.1-0.9,0.5-1.4,0.6c-0.1,0-0.3-0.2-0.2-0.4c0.1-0.6,0.9-0.6,0.9-1.2c-0.2,0-0.3,0-0.5,0
								c-0.2-0.1-0.3-0.2-0.2-0.4c0.2-0.3,0.7-0.3,0.9-0.7c0.1-0.2-0.1-0.3-0.2-0.5c0.6-0.6,1.3-1.2,1.9-1.8
								c0.1-0.1,0.5-0.4,0.8-0.3c0-0.2-0.1-0.5,0-0.7c0.5-0.5,1.1-0.7,1.8-0.8c0.1,0-0.1-0.3-0.2-0.4c0.9-0.8,1.9-1.5,3.3-1.6
								c-0.2-0.8,0.7-0.8,1.2-0.9c0.3,0,0.3,0.4,0.2,0.6c-0.6,0.8-1.7,1-2.4,1.4c-1.5,0.9-2.4,2.2-4.1,3.3c-0.1,0.1,0,0.4-0.1,0.6
								c-0.3,0.5-0.9,0.5-1.3,0.8c-0.8,0.6,0.2,0.7,0.5,1.3c0.3,0.6-0.5,1-0.5,1.6c-0.1,0.5,1.2,0.6,0.9,0.9c-0.9,0.9,0.2,1.1,0,1.9
								c0,0.3-0.7,0.3-0.7,0.5c-0.2,0.6,1,0.7,1,1.4c0,0.5-0.3,1-0.6,1.4c-0.1-0.2-0.4-0.3-0.4-0.2c-0.1,0.4,0.3,0.8,0.6,1.1
								c-0.4,0.3-0.4,0.7-0.5,1.1c-0.1,0.3-0.4,0.6-0.9,0.5c0.3,1-0.6,1.4-1.2,2.1C73.2,64,73,63.7,73,63.7
								c-0.7,0.2-1.1,1.2-1.9,0.6c0,0.3,0.1,0.7,0,0.9c-0.3,0.5-1,0.7-1.6,0.5C69.1,65.6,68.7,64.9,69.3,64.6z M77.1,64.1
								c-0.5,0.1-0.8-0.4-0.8-0.7c-0.1-0.5,0.5-0.7,0.3-1.4c-0.1-0.5,0.6,0.3,1,0c0.1-0.2,0-0.3-0.2-0.4c0.1-0.2,0.3-0.3,0.4-0.2
								c0.3,0.2,0.8,0.3,0.9,0.7c0.1,0.5,0,1-0.5,1.1c-0.2,0-0.5-0.6-0.6-0.4C77.5,63.3,78.1,64,77.1,64.1z M73.4,65.8
								c0.1,0.7,1.6,1.1,0.1,1.9c-0.2,0.1-1.3-0.7-0.8-1.9c0.1,0.2,0.6,0.6,0.5,1C73.3,66.5,73.1,65.9,73.4,65.8z M73.8,65.5
								c-0.1-0.8,1.2,0.9,1.1,0.3c0-0.4-0.3-1.6,0.3-1.6c0.2,0,0.2,0.3,0.2,0.4c0,0.2-0.2,0.3-0.2,0.4c0.2,0.6,0.8,1.3,0.1,1.8
								c-0.2,0.2-0.5-0.1-0.7-0.2C74,66.3,73.8,65.8,73.8,65.5z M75.6,64.8c0.2-0.1,0.3-0.3,0.2-0.4c-0.1-0.2-0.3-0.3-0.2-0.5
								c0.1-0.2,0.3-0.4,0.4-0.2c0.4,0.4,1.1,0.6,0.9,1.4c-0.1,0.2-0.3,0.3-0.4,0.5C76.4,65.2,75.9,65.1,75.6,64.8z M78.1,61.3
								c-0.4-0.1-1.2,0-1.1-0.6c0.2-0.7,1,0.1,1.5-0.3c-0.1-0.1-0.2-0.2-0.2-0.2c0.4-0.6,0.9,0,1,0.2C79.7,61.3,78.6,61.5,78.1,61.3
								z M77.3,59.4c-0.2-0.5,0.9-0.1,1.2-0.6c-0.5,0-0.9,0.1-1.4,0c-0.2,0-0.4-0.3-0.2-0.4c0.8-0.7,2.8-0.3,2.6,0.6
								C79.3,59.8,77.7,60.2,77.3,59.4z M77.9,57.4c-0.1-0.2,1-0.1,1.2-0.2c0.2-0.1-0.7-0.3-0.8-0.4c-0.1-0.2,0-0.4,0.2-0.4
								c0.7,0,1.4,0.3,1.3,0.9C79.6,58.1,78.4,58.1,77.9,57.4z M79.7,55.8c-0.3,0.3-0.3,0-0.8,0.1c-0.5,0.1-0.9,0.1-0.8-0.1
								c0,0,0.2-0.1,0.4-0.1c0.2,0,0.4,0,0.5,0c0.1-0.1,0.1-0.2,0.1-0.3c-0.1-0.1-0.5,0-0.5,0l-0.5,0c-0.1-0.2,0.3-0.2,0.6-0.4
								c0.3-0.1,0.5,0,0.7,0c0.3,0,0.3,0.1,0.4,0.3C79.9,55.5,79.9,55.7,79.7,55.8z M77.6,54.8c-0.6-0.3,0.7-0.5,1.1-0.6
								c0.2,0,0.4-0.3,0.2-0.4c-0.4-0.2-0.9,0.4-1.4,0.2c-0.2-0.1-0.3-0.2-0.2-0.4c0.2-0.4,0.6-0.3,0.9-0.4c0.8-0.2,2.4-0.3,1.9,0.8
								C79.9,54.8,77.8,54.9,77.6,54.8z M78,52.6c0.2-0.4,0.9-0.4,0.8-0.7c-0.1-0.6-0.7,0.4-1.1,0c-0.1-0.1-0.2-0.2-0.2-0.2
								c0.8-0.5,1.6-1.2,2.5-0.9c0.5,0.2,0.6,0.7,0.4,1.1C80.1,52.7,79,52.8,78,52.6z M80.4,50.2c-0.9,0.4-2,0.7-2.4,0.6
								c0,0,0.1-0.2,0.2-0.3c0.1-0.1,0.5-0.2,0.6-0.3c0.1,0,0.4-0.2,0.6-0.3c0.2-0.1,0.5-0.2,0.7-0.3c0.2-0.1,0.3-0.2,0.4-0.3
								c0.1-0.1-0.1-0.1-0.3-0.2c-0.2-0.1-0.6,0.1-0.8,0.3c-0.3,0.1-0.9,0.6-1.2,0.8c-0.3,0.2-0.8,0.5-0.9,0.5c-0.1,0-0.2,0-0.1-0.3
								c0.1-0.3,1-0.8,1.6-1.1c0.6-0.3,1.9-0.5,2.2-0.5c0.2,0,0.5,0.1,0.6,0.3C81.6,49.3,81.3,49.8,80.4,50.2z M78.2,49
								c0,0-0.1,0.1,0.3-0.5c0.4-0.6,2.4-1.2,2.6-1.3c0.2-0.1,0.3-0.2,0.3-0.3c0-0.1,0.1-0.1,0-0.2c-0.1-0.1-0.7,0.3-0.9,0.3
								c-0.2,0.1-0.8,0.2-0.9,0.1c-0.1-0.1,0.3-0.6,0.3-0.6c1-0.8,2.5-0.6,2.8-0.5c0.3,0.1,0.2,0.4,0.2,0.4
								C82.4,47.9,78.7,49,78.2,49z M72,66.3c0.5,0.4,0.6,1,0.5,1.5c-0.2,0.5-1.2,0.9-1.3,0.3c-0.2-0.9,0-1.1-0.4-1.7
								c0,0,0.2-0.3,0.4-0.2c0.5,0.2,0.1,1.2,0.7,0.7C72,66.9,71.8,66.2,72,66.3z M69.3,66.8c0.2-0.3,0.2,0.8,0.6,1
								c0.1-0.5-0.2-1.4,0.2-1.4c0.7,0.1,0.6,1.2,0.4,1.9c-0.1,0.4-0.6,0.7-1.1,0.3C69,68.1,69.1,67.1,69.3,66.8z M71.1,72.7
								c0,0-0.3,0.5-0.6,0.5c-0.2-0.1-0.5-0.1-0.9-0.4c-0.2-0.2-0.4-0.9-0.5-1.1c-0.1-0.2,0.1-0.9,0.1-0.9c0.5-0.1,0.3,0.3,0.3,0.3
								s0.1,0.4,0.3,0.9c0.2,0.5,0.5,0.8,0.5,0.8s0,0,0.1-0.3c0.1-0.6-0.1-1.1-0.1-1.1l-0.6-1.1c0,0,0.1-0.5,0.3-0.3
								c0.2,0.2,0.9,1.8,1.1,2.1C71.3,72.3,71.1,72.7,71.1,72.7z M73.1,72.8h-0.4c0,0-0.2-0.1-0.4-0.3c-0.2-0.2-0.3-0.3-0.5-0.5
								c-0.2-0.2-0.5-0.8-0.6-1.3c-0.1-0.5,0-0.9,0-0.9l0.3,0.2c0,0,0.1,0.4,0.2,0.8c0.2,0.5,0.1,0.3,0.3,0.5
								c0.1,0.2,0.3,0.5,0.5,0.7c0.2,0.2,0.5,0.4,0.5,0.4s-0.1-0.1,0-0.5c0.1-0.4-0.1-0.6-0.3-1.2c-0.3-0.6-0.8-1.2-0.8-1.2l0.2-0.3
								c0,0,0.2,0.2,0.4,0.4c0.2,0.2,0.4,0.6,0.6,1c0.2,0.3,0.3,0.4,0.3,1.1C73.2,72.3,73.1,72.8,73.1,72.8z M75.4,71.1
								c0,0.3-0.4,0.5-0.5,0.5c-0.1,0-0.1,0.1-0.9-0.4c-0.8-0.5-1.4-2-1.3-2.1c0-0.1,0-0.3,0.2-0.4c0.1-0.1,0.5,0.9,0.9,1.4
								c0.3,0.5,0.8,0.8,0.9,0.9c0.1,0.1,0.2,0,0.3,0c0.1-0.1,0-0.2,0-0.4c-0.1-0.3-0.8-0.9-0.9-0.9c-0.1-0.1-0.2-0.4-0.2-0.4
								s0-0.1,0-0.2c0-0.1,0.1,0,0.2,0c0.1,0,0.9,1,1.2,1.3C75.5,70.6,75.4,70.8,75.4,71.1z M77.4,70c-0.1,0.3-0.3,0.6-0.6,0.7
								c-0.4,0.1-1.7-1.3-1.8-1.4c-0.1-0.1,0-0.4,0.1-0.5c0.1-0.1,0.3,0,0.4,0.2c0.1,0.1,0.4,0.5,0.6,0.6c0.2,0.1,0.4,0.1,0.5,0
								c0-0.1,0-0.1,0-0.3c0-0.2-1.2-1.3-1.3-1.4c-0.1-0.1-0.1-0.1-0.1-0.3c0-0.2,0.4,0,0.4,0s1.3,1.2,1.5,1.4
								C77.3,69.4,77.5,69.8,77.4,70z M78.5,69.1c-0.5,0.1-2.2-1.4-2.2-1.4c0,0,0-0.1,0-0.2c0-0.1,0.1-0.2,0.5,0.1
								c1.1,1,1.4,0.7,1.4,0.7s0,0,0-0.2c0-0.2-1.3-1.1-1.4-1.2c-0.1-0.1-0.1-0.2,0-0.3c0-0.1,0-0.1,0.2-0.1c0.2,0,1.7,1.3,1.9,1.5
								c0.2,0.2,0.2,0.5,0.2,0.7C79.1,68.8,79,69,78.5,69.1z M79.9,67.6c-0.7,0.1-2.2-1.3-2.2-1.3c-0.1-0.1-0.1-0.3,0-0.4
								c0.3-0.2,0.4,0.1,0.5,0.1c0.1,0.1,1.1,0.9,1.2,1c0.1,0.1,0.2,0,0.4,0c0.2,0,0.1-0.1,0.2-0.2c0.1-0.1-0.2-0.2-0.3-0.3
								c-0.1-0.1-0.4-0.3-0.6-0.4c-0.1-0.1-0.5-0.4-0.5-0.5c0,0-0.1-0.1,0.1-0.1c0.2-0.1,1.2,0.6,1.5,0.9c0.3,0.3,0.5,0.7,0.5,0.9
								C80.7,67.4,80.7,67.5,79.9,67.6z M81.7,65.5c-0.3,0.1-1.1,0.2-1.4,0.1c-0.3,0-1.2-0.6-1.3-0.7c-0.1-0.1-0.1-0.2,0-0.3
								c0.1,0,0.4,0,0.5,0c0.1,0,0.7,0.4,1,0.5c0.2,0,0.6,0,0.7,0c0.1,0,0.1-0.1,0.1-0.2c0-0.2,0.1-0.2,0-0.2c-0.1,0-0.2,0-0.4,0
								c-0.2,0-0.2,0-0.3-0.1c-0.1-0.1-0.3-0.2-0.2-0.3c0-0.1,0.7-0.2,0.9-0.1c0.2,0.1,0.7,0.5,0.7,0.7C81.9,65.2,82,65.4,81.7,65.5
								z M83,63.5c-0.1,0.1-0.3,0.4-0.7,0.5c-0.4,0-0.7,0.1-0.9,0.1c-0.2-0.1-1.1-0.3-1.2-0.4c-0.1-0.1-0.3-0.1-0.2-0.2
								c0-0.1,0-0.1,0.2-0.1c0.2,0,0.3,0,0.5,0c0.2,0,0.4,0.1,0.5,0.1c0.1,0,0.5,0.1,0.7,0.1c0.2,0,0.3,0,0.3-0.2
								c0-0.2,0-0.3-0.2-0.4c-0.2-0.1-0.3-0.1-0.6-0.1c-0.3,0-0.3,0-0.5,0c-0.2,0-0.3-0.1-0.4-0.1c-0.1,0-0.4-0.2-0.4-0.2
								s0.2-0.2,0.7-0.1c0.4,0,2.2,0.2,2.3,0.8C83,63.4,83,63.5,83,63.5C83,63.5,83,63.5,83,63.5z M83.6,61.8c0,0.1-0.3,0.2-0.5,0.2
								c-0.2,0-1.8,0-2,0c-0.2,0-0.8-0.2-1-0.2c-0.2,0-0.1-0.1-0.2-0.2c0,0,0.2-0.2,0.3-0.2c0.1,0,0.7,0.1,0.9,0.2
								c0.2,0.1,1.3,0.2,1.5,0.1c0.2-0.1,0.2,0,0.2-0.1c0.1-0.1,0.1-0.1,0.1-0.2c0-0.1-0.1-0.1-0.3-0.2C82.6,61,82.1,61,82,60.9
								c-0.1,0-0.3-0.1-0.4-0.1c-0.1,0-0.2-0.1-0.2-0.1c0,0,0-0.1,0.3-0.2c0.3-0.1,0.6,0.2,0.9,0.2c0.3,0,1,0.1,1.1,0.1
								c0.1,0,0.2,0.4,0.2,0.5C84,61.6,83.7,61.7,83.6,61.8z M83.9,59.9c-0.3,0.3-1.5,0.1-1.6,0.2c-0.1,0-0.9,0-1,0
								c-0.1,0-0.2-0.1-0.2-0.2c0.1-0.1,0.4-0.1,0.7,0c0.2,0,1.4,0,1.6,0c0.2-0.1,0.1-0.2,0.1-0.2c0,0,0.1,0-0.1-0.2
								c-0.2-0.2-1.9,0-2-0.1c-0.1,0-0.1,0-0.1-0.1c0-0.1,0-0.1,0.5-0.3c0.5-0.2,2.2,0,2.4,0c0.2,0,0.1,0.3,0.2,0.5
								C84.4,59.6,84.2,59.6,83.9,59.9z M84.7,57.6c-0.1,0.2-0.4,0.4-0.7,0.6c-0.3,0.2-0.9,0.1-1,0.2c-0.1,0.1-0.5,0-0.7,0
								c-0.2,0-0.1,0-0.2-0.1c0,0,0.1-0.2,0.2-0.2c0,0,0.1-0.1,0.3-0.1c0.2,0,1.3-0.3,1.4-0.3c0.1-0.1,0.1-0.1,0.2-0.3
								c0.1-0.2,0.1-0.2-0.1-0.3c-0.1-0.1-0.6,0.1-0.6,0.1s-0.4,0.1-0.6,0.1c-0.1,0-0.3,0.1-0.5,0.2c-0.2,0-0.3,0-0.3-0.1
								c0-0.1-0.1-0.1,0-0.3c0.2-0.2,1.6-0.4,1.8-0.4c0.2,0,0.5-0.1,0.7-0.1c0.2,0,0.2,0.1,0.2,0.4C84.9,57.3,84.9,57.4,84.7,57.6z
								 M85.5,55c-0.3,1-3.8,1.7-3.9,1.8c-0.1,0.1-0.2,0.1-0.4,0c-0.2,0-0.2-0.2-0.2-0.2c0-0.1,0.5-0.3,0.6-0.3
								c0.1,0,1.4-0.4,1.6-0.4c0.2,0,0.4-0.1,0.6-0.1c0.2-0.1,0.4-0.1,0.6-0.2c0.2-0.1,0.2-0.1,0.3-0.2c0.1-0.1,0.1-0.2,0.1-0.3
								c0-0.1,0-0.2,0-0.2s-0.2,0-0.4,0c-0.2,0-0.8,0.1-0.9,0.1c-0.1,0-0.9,0.2-1.1,0.3c-0.1,0-1.1,0.4-1.2,0.4
								c-0.1,0.1-0.2,0.1-0.3,0c-0.1-0.1-0.1-0.1-0.1-0.3c0-0.2,1.2-0.5,1.6-0.6c0.4-0.1,2.5-0.2,2.7-0.2c0.2,0,0.4,0.2,0.5,0.2
								C85.6,54.8,85.5,55,85.5,55z M85.4,52.6c-0.1,1.7-2.3,1.7-3.7,1.6c0.8-0.5,1.7-0.8,2.5-1.2c-1.3-0.8-2.5,1.5-3.5,0.2
								c1.2-0.8,2.6-0.8,3.9-1.2C84.8,52.5,85.4,52.2,85.4,52.6z M85.8,50.2c-1,1.6-3.1,2.3-5,1.9c1-1.1,3.1-0.4,3.7-1.8
								c-0.9,0.1-1.7,0.6-2.6,0.9c-0.1,0-0.3-0.2-0.4-0.4c1.2-0.6,2.4-1.2,3.7-1.3C85.4,49.5,86.1,49.8,85.8,50.2z M87.3,47
								c-0.9,2.1-3,2.4-5.1,2.7c-0.1,0-0.2-0.3-0.2-0.4c0.5-0.5,1.4-0.2,2-0.6c0.6-0.5,1.7-0.2,1.9-1.3c-1.1,0.2-2.1,1-3.2,1.1
								c-0.1,0-0.3-0.3-0.2-0.4c1.4-0.9,2.7-1.9,4.4-1.8C87,46.4,87.4,46.7,87.3,47z M83.6,47c0,0-0.2-0.3-0.2-0.4
								c0.6-0.5,1.4-0.7,2-1.1c0.7-0.5,2-0.3,2.2-1.5c-1.1,0.6-2.3,1.1-3.5,1.6c-0.1,0-0.3-0.2-0.2-0.4c1.3-1.3,3.4-2.2,5.3-1.6
								C87.9,45.5,85.6,46.2,83.6,47z M84.9,42.9c0.2-0.2,2.2-1.2,2.4-1.2c0.1-0.1,0.2-0.1,0.4-0.1c0.2,0.1,0.2-0.1-0.2,0.3
								c-0.3,0.4-2.4,1.3-2.4,1.3l-0.1,0C85,43.2,84.8,43.1,84.9,42.9z M91.9,39.6c-0.1,1.2-4.8,3.7-6,3.8c0,0,0-0.2,0.6-0.5
								c0.6-0.3,3.9-2.5,4-2.6c0.1-0.1-0.1-0.3-0.1-0.3c-0.8-0.3-6.4,2.8-6.5,2.9c-0.2,0.1-0.2-0.3-0.2-0.3c0.7-1.4,7.3-3.3,7.8-3.4
								C92,39.2,91.9,39.6,91.9,39.6z"/>
						</g>
					</g>
					<path fill="#FFFFFF" d="M74.3,77.5c0.2-0.1,0.3-0.3,0.2-0.4c-0.3-0.3-0.7-0.6-1.1-0.5c-0.2,0-0.3,0.2-0.2,0.4
						c0.2,0.3,0.4,0.6,0.7,0.7C73.9,77.8,74.1,77.6,74.3,77.5z"/>
					<path fill="#FFFFFF" d="M72.6,81.2c-0.1-0.5-0.5-1.1-0.8-1c-0.7,0.1,0,1.2,0.5,1.4C72.3,81.7,72.6,81.4,72.6,81.2z"/>
					<g>
						<g>
							<path fill="#5C5D5E" d="M61.3,96.7L61.3,96.7C61.2,96.8,61.3,96.8,61.3,96.7z M69.6,86.9c-1.1-1.3-3.5-3.8-4-3.8v-0.5
								c0,0,0-0.1,0.2-0.2c0.2-0.1,0.2-0.3,0.2-0.3l0.1-1.2H62c0,0-1.4,0-1.6,1.2c0,0-0.1-0.9-1.4-1.2c-0.1,0-3.7,0-3.7,0
								s-0.1,1.4,0.4,1.7C56.1,83,56,83,56,83s-4.7,3.1-4.6,7.4l0.3,0.2l0.9-0.1c0,0-0.1,2.5,0.3,2.7c0.4,0.2,1.6-0.3,1.6-0.3
								s-0.2,1.3,0.7,1.9c0.9,0.6,2-0.6,2-0.6s0.4,1.7,0.7,1.9c0.4,0.2,1-0.4,1.5-0.9c0.5-0.5,0.4-0.1,0.4-0.1s0.8,1.3,1.2,1.4
								c0.2,0.1,0.2,0.1,0.3,0.1l0.8-1.6c0,0,1.6,1,2,0.8c0.5-0.2,0.3-0.2,0.3-0.2s0.2-0.8,0.3-2c0,0,1.3,0.5,2,0.4
								c0.7-0.1,0.6-1.6,0.7-1.6c0.1,0,1.6,0.2,1.7,0.1c0.2-0.1-0.1-2.1-0.1-2.1h1.2C70.3,90.4,70.7,88.2,69.6,86.9z M63,81.5
								c0.4,0,0.9-0.3,1.1,0.2c0.1,0.2,0,0.4-0.2,0.4c-0.4,0.2-0.8,0.5-1.1,0C62.7,81.9,62.6,81.5,63,81.5z M63.9,87.4
								c0,0-0.2-0.1-0.2-0.2c-0.2-0.4-0.5-1,0-1C64.1,86.1,64.5,87.1,63.9,87.4z M63.8,89.3c-0.1,0-0.2-0.2-0.2-0.4
								c-0.2-0.3-0.1-0.7-0.4-1c-0.1-0.1,0.1-0.4,0.2-0.4C64,87.8,64.6,88.7,63.8,89.3z M63.5,85.1c-0.6-0.2-0.2-1,0.2-1.3
								c0.1,0.2,0.6,0.3,0.4,0.7C63.9,84.7,63.6,85.1,63.5,85.1z M62.5,84.9c0.2-0.1,0.4,0.1,0.4,0.2c0,0.1,0,0.3,0,0.5
								c-0.2,0.8-1,0.5-1.1,0c-0.1-0.5-0.4-1.2,0.2-1.6c0.2-0.1,0.4,0,0.4,0.2C62.6,84.5,62.5,84.7,62.5,84.9z M62,81.9
								c0,0.3,0.9,0.3,0.2,0.7c-0.2,0.1-0.6,0.1-0.6-0.2C61.6,82.2,61.9,82.1,62,81.9z M60.6,85.6c0.2-0.2-0.2-0.8,0.3-1.1
								c0.2-0.1,0.4,0,0.4,0.2c0.1,0.8,0.1,2.1-0.7,2.1c-0.4,0-1.5-1-0.7-1.6C60.4,84.9,60.4,85.8,60.6,85.6z M59.5,82.4
								c0.2-0.1,0.6-0.1,0.7,0.2c0,0.1-0.1,0.2-0.2,0.2c-0.2,0.2-0.5,0.4-0.7,0C59.2,82.6,59.3,82.5,59.5,82.4z M59.3,84.5
								c0.4,0.2,0.2,0.6,0.2,0.9c-0.4,0-0.3,0.9-0.9,0.5c0.3-0.4-0.7-0.8,0-1.1C58.8,84.6,59.1,84.8,59.3,84.5z M58.6,81.7
								c0.2-0.1,0.4,0,0.4,0.2c0,0.3-0.2,0.8-0.4,0.8C57.8,82.8,58.1,82,58.6,81.7z M57,81.9c0.1-0.2,0.3-0.3,0.4-0.5
								c0.1,0.2,0.6,0.3,0.4,0.7c-0.1,0.2-0.4,0.3-0.7,0.2C57,82.3,56.9,82.1,57,81.9z M57.8,84.5c0,0.1-0.1,0.3-0.2,0.4
								c-0.2,0.1-0.4,0-0.4-0.2c-0.1-0.2,0-0.4,0.2-0.4C57.6,84.2,57.8,84.3,57.8,84.5z M55.8,82.2c-0.1-0.2,0-0.4,0.2-0.4
								c0.2-0.1,0.4,0.1,0.4,0.2c0,0.1-0.1,0.3-0.2,0.4C56.1,82.5,55.9,82.3,55.8,82.2z M52.5,90c-0.1,0.2-0.6,0.1-0.6-0.2
								c0.1-1.6,1-3.4,2.3-4c0.4-0.2-0.9,1.8-0.7,1.7c1.1-0.2,1.9-2.8,3-3.2c0.1,0,0.3,0.2,0.2,0.4C55.6,86.7,53.8,88,52.5,90z
								 M53.9,92.3c-0.1,0.1-0.3,0.2-0.4,0.2c-0.9-0.4-0.6-1.5-0.4-2.2c0.3-1.4,1.3-2.4,2.5-3.2c0.1,0,0.3,0.2,0.2,0.4
								c-0.1,0.2-1.3,2.2-1.2,2.2c1.3,0,1.7-3.6,2.6-3.9c0.3-0.1,0.3,0.4,0.2,0.6C56.1,88.4,55.8,90.7,53.9,92.3z M55.8,94.3
								c-0.4,0-0.8-0.6-0.8-1.1c0-2,1.2-3.6,2.2-5.3l1-1.8l0.2,0.1c0,0,0.2-0.1,0,0.1c-0.2,0.2-1.8,4.8-1.8,4.8l0.1,0.1
								c0.6-0.6,1.3-3.6,1.7-4.3c0.7,2.1-0.9,3.9-1,6C57.3,93.8,56.5,94.3,55.8,94.3z M59.4,94.2c-0.1,0.5-0.6,1.3-1.1,1.3
								c-0.5,0-0.8-0.8-0.7-1.5c0.2-1.4,0.1-3,1-4.1c0.2-0.2-0.1,2.9,0.1,2.7c0.7-0.8,0.3-4.1,0.9-5.1
								C60.4,89.7,59.6,91.9,59.4,94.2z M61.5,95.3c0,0.2-0.3,0.6-0.6,0.4c-0.6-0.4-1.1-1-1-1.8c0.3-1.9,0-3.7,0.5-5.5
								c0.7,0.8-0.2,3.7,0.5,4.5c0.2-1.2,0-4,0.1-5.2C61.8,90.2,62.2,92.7,61.5,95.3z M64.1,94.9c-0.1,0.4-0.5,0.3-0.6,0.2
								c-0.5-0.3-1.1-0.8-1.1-1.4c-0.1-1.9-0.9-3.7-0.5-5.5c0.5,0.6,0.5,3.3,1.5,3.6c0.1-1.2-1.8-3.9-1-5
								C63.6,89.2,64.8,91.9,64.1,94.9z M66.6,93.4c-0.4,0.1-0.9,0.3-1.4-0.1c-1.1-1.1-0.8-2.8-1.1-4.2c0.4,0.1,1.2,2.3,1.6,2.2
								c0.2,0-0.8-1.8-0.9-2c-0.2-0.5-0.9-1.5-0.5-1.4c1.5,0.6,2,2.6,2.6,4.2C67,92.5,67.2,93.2,66.6,93.4z M66.9,91.4
								c-0.7-1.6-1.5-3-2.6-4.4c-0.1-0.2,0.1-0.5,0.2-0.4c0.7,0.6,1.5,2.2,2.5,2.5c-0.5-1-2.5-2.6-2.9-3.7c-0.1-0.3,0.1-0.7,0.1-0.6
								c2,2,4.4,4,4.5,6.9C68.8,92.4,67.3,92.1,66.9,91.4z M69.2,89.5c-2-1.2-2.7-3.3-4.4-4.8c-0.2-0.1,0.1-0.4,0.2-0.4
								c0.7,0.5,2,1.9,2.6,2.5c-0.1-1.2-2.1-2.1-2.6-3c-0.1-0.2,0.1-0.4,0.2-0.4c1.9,1.7,4.4,3.2,4.6,6
								C69.9,89.6,69.4,89.6,69.2,89.5z"/>
						</g>
					</g>
					<g>
						<g>
							<path fill="#5C5D5E" d="M31.5,86.9C31.5,86.9,31.5,87,31.5,86.9C31.5,87,31.5,87,31.5,86.9z M52.7,80.7c-0.9-0.6-1-1.6-1-1.6
								v-4.9l-0.8,0.1c0,0-0.9,0.2-1,0.4c-0.2,0.2-0.6,0.2-1,0.3c-0.3,0.1-1,1.2-1,1.2c-1.5,0-1.4,0.9-1.4,0.9
								c-0.1,3.1-1.8,3.2-2.1,3.5l-1.6,0.2c0,0-0.5,0.1-0.6-0.2c-0.2-0.2-0.1-1.1-0.1-1.3c0-0.2-0.2-0.6-0.3-0.8
								c-0.1-0.2-0.7-0.4-1-0.3c-0.3,0.1-0.8,0.6-1,0.7c-0.2,0.1-0.3,0.2-0.3,0.2l-0.1-0.8c0,0,2.4-1.3,2.5-2.2
								c0.1-0.9-0.1-1.2,0.1-1.6c0.1-0.4,0.6-0.8,0.7-1c0.1-0.2-0.1-0.9-0.1-0.9s-2.8,1-3.2,1.7c0,0-0.2-2.8-0.3-3.1
								c-0.1-0.3-2.3,0.9-2.5,2.3l-0.2-2.8c0,0-1.5-0.1-2.1,1.3c-0.6,1.4-0.5,2-1.4,2.4c0,0-0.3-0.2-0.4-0.3
								c-0.1-0.2,0.2-0.5,0.5-0.8c0.2-0.3,0.2-1,0.1-1.2c-0.1-0.2-0.5-0.5-0.5-0.5s2-0.3,2-5.8c0,0-0.8-0.2-1.7,0.7
								c0,0-0.5-3.4-0.1-4.1c0,0-2,0.1-2.4,2.3c0,0-1.7-3.8-1.9-3.6c-0.3,0.2-1.7,3.3-0.7,6.2c0,0-2.1-0.8-2.7-0.6
								c-0.4,0.1,0.9,4.4,3.4,5.1c0,0-2.6,0.4-2.8,0.1c-0.2-0.3,0.3,1.4,2.5,2.3v0.3c0,0-1.4,0.5-1.6,0.8c-0.1,0.3,2.2,1.3,2.5,1.6
								c0.3,0.3,0.1,0.3,0.1,0.3s-0.5-0.3-0.4,1c0,0-0.3,0.4-0.9,0.3c-0.6-0.1-0.2,0.7-0.2,0.7l2.4,1.2c0,0-0.1,0.9-1.3,1.3
								c-1.2,0.3-0.2,0.5-0.2,0.5s2.4,0.3,3.1,0.2c0,0,1.3-0.9,1.7-0.9c0.3,0.1,0.5,0.2,0.5,0.4c-0.1,0.2-0.3,0-0.8,0.3
								c-0.4,0.3-1.6,1.8-1.6,3.4c0,1,0,1.3,0,1.3c0.1-0.1,2.1-1.9,2.4-1.7c0.3,0.2,0.6,2.4,1.1,2.6c0.5,0.2,0.7-0.3,0.7-0.3
								s1.2-1,1.2-2.7c0,0,0.4,0.1,0.6-0.2c0.2-0.2,0.9,0.1,0.9,0.1l0,0c0,0,0.3,0.2,0.5,0.4c0.3,0.2,0.9-0.1,1.2-0.2
								c0.3-0.2,0.2,0.3,0.8,0.8c0.5,0.4,1.6-0.5,2.1-0.3c0.5,0.2,1.2,2.1,1.4,2.4c0.2,0.3,0.1,1.4-0.2,1.6
								c-0.3,0.2,0.1,1.4,0.1,1.4c0.5,0.1,3.4,2.9,3.4,2.9h0.5c0-0.5-1-1.9-1.2-2.1c0,0,0,0-0.3-1.5c-0.8-4.6-3.7-6.8-3.7-6.8
								c-0.4-0.3-0.1-0.6-0.1-0.6l3.4-0.2l0.2,0.5c0,0,0.6-0.1,0.9-0.1c0.2,0,0.2,0.8,0.2,0.8h0.7l0.7-0.5L50,83
								c0.6-0.1,0.5-0.3,0.9-0.3c0.5,0,0.5-0.2,0.6-0.2C53.2,82.4,52.7,80.7,52.7,80.7z M44.7,89.6c0.6-0.7-0.3-1.6,0.2-2.3
								c0.8,1.3,0.9,2.9,1.5,4.2C45.5,91.1,45.5,89.9,44.7,89.6z M44.9,87.2c0,0.1-0.4,0.1-0.4,0c-0.1-0.3-0.6-1,0-1
								C44.9,86.2,45.1,86.8,44.9,87.2z M44.2,85.7c0.2,0,0.4,0.5,0,0.5C43.9,86.2,43.9,85.7,44.2,85.7z M43.5,84.5
								c0,0.2-0.5,0.4-0.5,0C42.9,84.1,43.5,84.1,43.5,84.5z M50.7,75.8c0.1-0.3,0.8,0.7,0.2,0.9c-0.3,0.1-0.5,0.3-0.9-0.1
								C49.8,76.3,50.6,76,50.7,75.8z M50.3,77.5c0-0.3,0.4-0.6,0.4-0.5c1.2,0.9-0.5,2.7-1.3,3.5c-0.2,0.2-0.7-0.3-0.6-0.4
								C49.2,79.5,50.3,78.6,50.3,77.5z M48.7,78.9c-0.2-0.6-0.2-1.5,0.4-1.5c0.9-0.1,0.8,1.1,0,1.5C49,79,48.7,79,48.7,78.9z
								 M49.7,76c0,0.2,0.1,0.9-0.2,0.8c-0.4,0-0.8,0.5-1.2,0C48.9,76.6,49.7,75.2,49.7,76z M47.1,77.9c0.1-0.1,0.2-0.1,0.3-0.3
								c0.1-0.2,0.2-0.5,0.2-0.6c0-0.1,0.1-0.1,0.1-0.1s0.3,0.7,0.1,0.9c-0.2,0.1-0.4,0.1-0.4,0.1l-0.1,0.2c0,0-0.2,0.1-0.3,0
								C47.1,78,47,78,47.1,77.9z M47.5,78.5c0.2-0.1,0.4,0,0.4,0.2c0.1,0.2,0,0.5-0.2,0.5c-0.3-0.1-0.7,0.9-0.8,0.2
								C46.8,79.2,47.1,78.6,47.5,78.5z M41.2,78.9c0.2,0,0.3,0.1,0.4,0.2c0.1,0.2,0,0.3-0.2,0.4c-0.2-0.5-1.1,0-1.1-0.5
								C40.4,78.8,40.9,78.9,41.2,78.9z M41.4,80.1c0,0.1-0.2,0.2-0.4,0.2c-0.3,0-0.8,0.4-0.8,0C40.2,79.8,41.1,79.3,41.4,80.1z
								 M41.7,73.6c0.6,1.5-0.6,3.2-1.9,4.2c-0.2,0.2-0.6,0.4-0.6,0c-0.2-1,1.2-1.3,1.3-2.3c-0.2,0-0.3-0.1-0.4,0
								c-0.3,0.2-0.3,0.6-0.5,0.8c-0.2,0.2-0.6,1.1-0.7,0.5C38.5,75.1,40.5,74.5,41.7,73.6z M38.7,79.8c-0.4,0.2-0.8-0.1-0.9-0.5
								c-0.1-0.5,0.3-0.8,0.9-0.7C39.4,78.9,39.1,79.6,38.7,79.8z M38.5,72.2c0.8,1.5,0.2,2.6-0.5,4.6c-1.4-1.2,0.5-2.1-0.2-3.2
								c-0.7,0.4-0.2,1.7-0.9,2.3C36.1,74.5,37.5,73.1,38.5,72.2z M36.8,77.6c0.4-0.2,0.7,0.1,0.9,0.5c0.3,0.6-0.2,1-0.7,1.4
								c-0.1-0.4-0.6-0.1-0.7-0.5C36.3,78.4,36.3,77.8,36.8,77.6z M36.4,77.1c0.2,0.5,0,1-0.5,1.1c-0.7,0.2-1-1-0.4-1.3
								C35.7,76.8,36.2,76.7,36.4,77.1z M34.3,81.7c0.3-0.6,1.4-0.2,1.3,0.4c0,0.2-0.2,0.2-0.4,0.3C34.8,82.5,34,82.3,34.3,81.7z
								 M33.9,80.1c0.1-0.3,0.4-0.6,0.6-0.6c0.5-0.1,0.8,0.3,0.7,0.9c0,0.2-0.1,0.4-0.2,0.4C34.5,80.9,33.7,80.7,33.9,80.1z
								 M34.8,72.5c0.4-0.4,0.5-0.9,0.9-1.2c0.2,1.1,0.7,3.1,0,4.1c0,0-0.3-0.1-0.4-0.2c-0.3-0.8,0.4-1.7,0.1-2.5
								c0-0.1-0.3,0.1-0.4,0.2C34.8,72.9,34.6,72.6,34.8,72.5z M33,75c0.1-0.3,0.5-0.5,0.9-0.4c0.5,0.1,0.7,0.7,0.4,1.1
								C33.9,76.3,32.6,75.8,33,75z M33.1,76.6c0.3,0.1,0.5,0.2,0.7,0.5c-0.4,0.1-0.1,0.6-0.5,0.7c-0.5,0.1-1-0.2-0.9-0.7
								C32.6,76.9,32.7,76.5,33.1,76.6z M32.7,72.7c-0.3,0.3-0.3,0.9-0.9,0.7c-0.7-0.3-0.5-0.9,0-1.1C32.2,72.1,32.4,72.4,32.7,72.7
								z M31.3,69.4c-0.7,0.2-0.8-0.2-0.7-0.4c0.1-0.2,0.3-0.3,0.4-0.5c0.2,0.2,0.3,0.3,0.4,0.5C31.6,69.2,31.5,69.4,31.3,69.4z
								 M31.8,69.5c0.3,0,0.2,0.4,0.2,0.6h-0.5C31.5,69.9,31.4,69.5,31.8,69.5z M31.1,71.7c-0.4,0-0.4-0.5,0-0.8
								C31.2,71.1,31.5,71.7,31.1,71.7z M31.1,74.3c0.2,0,0.3,0.2,0.3,0.4c0,0.3,0.1,0.6-0.3,0.7c-0.4,0.2-0.8-0.1-0.9-0.5
								C30.1,74.5,30.5,74.2,31.1,74.3z M31.8,76.9c0.2,0,0.4,0.1,0.4,0.2c0.2,0.7-0.6,1.1-1.1,0.9c-0.3-0.2-0.6-0.5-0.4-0.9
								C30.9,76.6,31.4,76.9,31.8,76.9z M33.4,66.9c0.2-0.1,0.5,0,0.4,0.2c-0.5,1.4,0,2.6-0.9,3.7c-0.2,0.3-0.6,0.9-0.8,0.2
								c-0.2-0.7,0.6-1.4,0.4-2.3c-0.1,0.1-0.2,0.2-0.2,0.2c-0.4-0.1-0.3-0.5-0.2-0.6C32.4,67.8,32.9,67.3,33.4,66.9z M31.8,63.4
								c0.4,1.2,0.5,2.3,0.4,3.5c0,0.2-0.4,0.9-0.8,0.2c-0.3-0.6,0.7-1.3-0.1-1.8c0,0-0.1,0-0.2,0.1C30.5,64.7,31.4,64,31.8,63.4z
								 M30.8,65.3c0.4,0.8,0.4,1.7,0,2.5c-0.1-0.1-0.2-0.2-0.2-0.2C30.7,66.8,30.3,66,30.8,65.3z M28.5,62.3c1,2,1.8,4.2,2,6.5
								c0,0.1-0.3,0.2-0.4,0.2c-1.6-1.1-0.7-3.2-1.6-4.6c-0.1,1.1,0.4,1.8,0.1,3.1c-0.2,0.7-0.3-0.7-0.4-1
								C27.9,65.1,28,63.6,28.5,62.3z M30.1,70.2c0.1,0.3,0.3,0.9-0.2,1.1c-0.1,0-0.3-0.2-0.4-0.4c-0.5-1.1-1.4-1.8-2.3-2.5
								C28.5,67.5,29.6,69.2,30.1,70.2z M30.1,72.9c0,0.2-0.2,0.3-0.4,0.3c-0.3,0-0.6,0.1-0.7-0.3c-0.2-0.4,0.1-0.8,0.5-0.9
								C30,71.9,30.2,72.4,30.1,72.9z M25.8,67.8c0-0.1,0.3-0.3,0.4-0.2c1,1.3,2.2,2.2,3,3.4C27.3,71.8,26.5,69.1,25.8,67.8z
								 M27,72.6c-0.1-0.3,0.6-0.3,0.7-0.1c0.7,0.9,1.8,0.7,2.3,1.6c0.1,0.2-0.5,0.2-0.8,0.1C28.2,74,27.3,73.5,27,72.6z M28,75.6
								c-0.6-0.3,0.9-0.7,1.5-0.7c0.4,0,0.5,0.6,0.5,1.1c0.5-0.1,1,0,1.1,0.5c0,0.1-0.2,0.4-0.4,0.4C29.5,76.9,28.7,75.9,28,75.6z
								 M29.2,77.8c0.1-0.2,0.3-0.3,0.5-0.5c0.2-0.1,0.4,0,0.4,0.2c0.1,0.3,0.1,0.6-0.2,0.7c-0.1,0.1-0.3,0-0.4,0
								C29.3,78.2,29.1,78,29.2,77.8z M29,79.4c1.1-1.1,2.9-1.5,4.4-0.9c-0.8,0.6-1.9,0.2-2.8,0.7c0.4,0.1,0.9-0.2,1.1,0.2
								c0,0-0.1,0.1-0.2,0.2C30.8,80.4,29.7,79.8,29,79.4z M32.4,81.7c-0.4,0.2-0.8,0.5-1.2,0c0.6-0.4,1.8-1.7,2.2-0.9
								C33.4,80.6,33.1,81.3,32.4,81.7z M32,80.6c-0.5,0.2-0.6,0.8-1.1,1c-0.1,0,0,0.3,0.2,0.4c0.2,0,0.2-0.1,0,0c0,0,0,0,0,0
								c-0.3,0.1-1,0.3-1,0.2c0-1.4,2-3.2,3.5-2.5C33.2,80.1,32.6,80.3,32,80.6z M33.6,78c0.3-0.1,0.1-0.7,0.7-0.7
								c0.5,0,0.4,0.6,0.7,0.7C34.7,78.6,33.9,78.6,33.6,78z M32.4,85.6c-0.7-1.2,0.5-2.8,1.6-3.2c0.1,0,0.3,0.2,0.2,0.4
								c-0.5,0.6-1.2,1-1.1,1.9c0.7-0.7,1.4-1.4,2.1-2.1c0.2,0.2,0.4,0.3,0.4,0.4c-0.2,0.6-0.6,1-1.1,1.4C33.9,85,33,85,32.4,85.6z
								 M36.1,86.1c-0.1,0.3-0.4,0.6-0.7,0.6c-0.2,0-0.6-0.4-0.6-0.6c-0.1-0.7-0.3-1.7,0.4-1.7c0.5,0,0,1,0.3,1.1
								C36,85.8,36.2,85.8,36.1,86.1z M36.6,83.1c0.1,0.9,0,1.7-0.4,2.5c-0.4-1-0.5-2.4,0.3-3.2c0.1-0.1,0.3,0,0.4,0.2
								C36.7,82.7,36.6,82.9,36.6,83.1z M36.4,80.9c-0.2,0.1-0.5-0.1-0.6-0.4c-0.2-0.4,0.3-0.5,0.5-0.6c0.3-0.2,0.5,0.2,0.6,0.4
								C37,80.7,36.5,80.9,36.4,80.9z M37.3,80.6c0.4-0.2,0.8,0.1,0.9,0.5c0,0.1-0.2,0.3-0.4,0.4c-0.1,0.1-0.3,0.2-0.4,0.2
								C36.7,81.5,36.7,80.8,37.3,80.6z M37.2,83.5c0-0.7,1.4-0.6,1.2,0.2C38.2,84.7,37.2,84,37.2,83.5z M38.5,82.8
								c-0.5,0.2-0.7-0.2-0.9-0.5c-0.1-0.2,0.1-0.4,0.2-0.4c0.3,0.1,0.8,0.2,0.9,0.7C38.7,82.7,38.5,82.8,38.5,82.8z M38.5,81.5
								c0.1-0.4,0.6-0.3,0.9-0.2c0.2,0,0.4,0.2,0.2,0.4c-0.2,0.2-0.3,0.6-0.7,0.5C38.1,81.9,38.5,81.7,38.5,81.5z M39.4,84.7
								c-0.1,0-0.3-0.1-0.4-0.2c-0.1-0.2,0-0.3,0.2-0.4C39.1,84.3,40,84.3,39.4,84.7z M39.9,84c-0.3-0.1-0.8-0.2-0.7-0.7
								c0.3-0.8,1-0.3,1.3,0.2C40.3,83.7,40.2,84.1,39.9,84z M40.3,82.8c-0.2-0.1-0.4-0.3-0.4-0.4c0-0.2,0.3-0.3,0.4-0.5
								c0.2,0.2,0.4,0.3,0.4,0.5C40.7,82.6,40.7,83,40.3,82.8z M40.5,81.2c-0.1-0.2,0-0.4,0.2-0.4c0.2-0.1,0.6-0.1,0.7,0.2
								c0.1,0.2,0,0.4-0.2,0.4C41,81.6,40.7,81.5,40.5,81.2z M42.1,84.9c-0.3,0.5-0.8,0.2-1.1-0.2c0.2-0.1,0.3-0.6,0.7-0.4
								C41.9,84.4,42.3,84.6,42.1,84.9z M42,83.5c-0.5-0.2-0.6-0.9,0-1c0.1,0,0.2,0.2,0.2,0.4C42.2,83.1,42.2,83.5,42,83.5z
								 M42.8,82.1c-0.2,0.1-0.6,0.1-0.7-0.2c0-0.1-0.1-0.3,0-0.4c0.3-0.6,1-0.2,1.1,0.2C43.3,81.8,43,82.1,42.8,82.1z M43.8,82.3
								c-0.6-0.2-0.2-0.9,0.2-1.1c0.2-0.1,0.6-0.1,0.6,0.2C44.8,82.3,44,82.4,43.8,82.3z M46.2,82c0,0-0.6,0.1-0.6,0.1
								c-0.3-0.1-0.6-0.3-0.4-0.6c0.2-0.2,0.4-0.7,0.9-0.3C46.1,81.3,46.3,81.7,46.2,82z M45.9,80.9c0-0.3-0.9-0.4-0.2-0.6
								c0.4-0.1,0.7,0.2,1.4-0.3c0.1-0.1,0.3,0.2,0.2,0.4C46.9,81.2,46.4,80.8,45.9,80.9z M47.4,81.9c-0.1,0.2-0.3,0.8-0.6,0.2
								c-0.2-0.4,0.1-0.8,0.4-0.8C47.6,81.3,47.5,81.7,47.4,81.9z M47.5,79.9c0.1-0.2,0.3-0.4,0.5-0.4c0.1,0,0.3,0.2,0.2,0.4
								c-0.1,0.2-0.3,0.4-0.5,0.4C47.5,80.3,47.4,80.1,47.5,79.9z M48,82c-0.6-0.1,0.1-1.1,0.4-1.5C49,81.2,48.4,82.1,48,82z
								 M49.8,82c-0.2,0.3-1.1,0.5-1.2,0.5l0.4-0.8l0.3-0.7l0.6-0.4c0,0,0.2,0.4,0.2,0.5C50.1,81.4,50,81.7,49.8,82z M50.3,80.3
								c0.1-0.1,0.8-0.8,0.9-1.1c0,0,0.1,0.2,0.1,0.4c0.1,0.1,0.2,0.3,0.2,0.4c0,0.1-0.5,0.4-0.5,0.4l-0.5,0.6l-0.1-0.2
								c0-0.1-0.2-0.2-0.2-0.3C50.2,80.4,50.2,80.4,50.3,80.3z M51.6,81.2c-0.5,0.1-0.6,0.8-0.9,1.1c-0.1,0.2-0.4-0.1-0.4-0.2
								c0.3-0.7,0.7-1.5,1.4-1.8c0.1,0,0.3,0.2,0.2,0.4C51.7,80.9,51.8,81.2,51.6,81.2z M52.5,81.5c-0.1,0.2,0,0.3-0.2,0.4
								c-0.2,0.1-0.4-0.1-0.4-0.2c-0.1-0.2,0-0.3,0.2-0.5c0.2-0.1,0.2-0.1,0.3-0.1C52.6,81.1,52.6,81.3,52.5,81.5z"/>
						</g>
					</g>
					<g>
						<g>
							<path fill="#5C5D5E" d="M95.1,68.9l0.5-2.2l-0.8-0.1l0.9-3.5l-2,1.2L93.4,62l-2.9,2.6l0.9,0.5L90,66.7l-0.8-1.4l-2.6,2.4
								l0.1,0.2l-3.1,3.5l0.7,0.3l-1.8,6.6c0,0-0.9-0.6-1.6-0.2c-0.7,0.4-1.3,2-1.7,2.3c-0.4,0.2-2,0.6-2.2,0.2
								c-0.2-0.3-2.2-2.6-2-3.6c0,0-0.3-0.9-1.8-0.9c0,0-0.8-1.2-1.2-1.2c-0.3-0.1-1,0.1-1.2-0.1c-0.2-0.2-1-0.4-1-0.4L69,74.2v4.9
								c0,0-0.1,0.9-1,1.6c0,0,0,1.5,1.7,1.5c1.7,0.1,1.3,0.6,1.7,0.3c0.4-0.3,1.4,0.4,1.4,0.1c0-0.4,1.5,0.4,1.5,0.4l0.2-0.5
								l5.1,0.1c0,0,0.3,0.7-0.1,1c-0.3,0.3-1.1,0.9-1.1,0.9h-1.4L73.4,88l0.1,0.4l1,0.1l-0.1,1l0.7,0.2v1.2l1.6,0.1l0.7,1.1
								l1.2-0.4l1.4,1.6l0.9-0.9l0.6,0.3l1.1-1.3l-0.1-6.6c0,0,0.6-0.2,0.8,0.1c0.2,0.2,0.9,0.1,0.9,0.1s1.2-1,0.9-2
								c0,0,1.6-0.5,1.5-1.3c-0.1-0.8-0.6-0.7-0.7-1.2l3.5-3.2l0.7,0.3l1.6-2.4l1,0.6l0.6-2.7h0.5l0.1-1.3l0.9,0.5l1.3-3.4
								L95.1,68.9z M74.1,79c0.4-0.8,1.4,0,1.3,0.7c0,0.2-0.3,0.3-0.4,0.5C74.8,79.6,73.7,79.6,74.1,79z M69.9,74.8
								c0.5,0.6,1.7,1.4,1.2,1.9C70.3,77.6,69.1,75.8,69.9,74.8z M70.1,81c0,0.2-0.1,0.3-0.2,0.5c-0.3-0.5-0.9-1.5-0.2-1.7
								C70.1,79.7,70.2,80.5,70.1,81z M69.7,78.9c-0.1-0.5-0.4-1.4,0.2-1.5c0.5-0.1,0.9,0.8,0.8,1.2C70.5,79.5,69.8,79.3,69.7,78.9z
								 M71.3,81.4c-0.7,0.3-0.6-0.5-0.9-0.9c0.4-0.1,0.1-0.7,0.4-0.6c0.4,0.1,0.4,0.7,0.7,1.1C71.5,81.1,71.4,81.4,71.3,81.4z
								 M72.4,79.4c-0.1,0.2-0.2,0.3-0.4,0.2c-0.6-0.2-0.9-0.7-1.1-1.2C70.7,78.3,70.9,78,71,78c0.5,0,1,0.3,1.3,0.7
								C72.5,78.9,72.5,79.2,72.4,79.4z M72.5,77.5c-0.7-0.4-1.6-1.6-0.7-1.9c0.4-0.1,0.9,0.8,1,1.4C72.9,77.3,72.8,77.7,72.5,77.5z
								 M72.7,78.5c0-0.2,0.2-0.3,0.4-0.2c0.7,0.4,1,1.1,0.9,1.8c0,0.2-0.4,0.4-0.6,0.2C72.7,79.9,72.5,79.2,72.7,78.5z M74.1,82.4
								c-0.4-0.4-1.3-0.3-1.1-1.2c0.1-0.4,0.5-0.3,0.6-0.2c0.4,0.2,0.6,0.6,0.9,0.9C74.4,82.1,74.2,82.2,74.1,82.4z M75.6,81.2
								c-0.4,0.3-0.9-0.1-0.8-0.6c0-0.2,0.2-0.3,0.4-0.2C75.5,80.5,75.9,80.9,75.6,81.2z M76.8,81.2c-0.1,0.2-0.1,0.3-0.2,0.4
								c-0.2,0.1-0.4,0-0.4-0.2c0-0.1,0-0.3,0-0.5c0.1-0.2,0.2-0.3,0.4-0.2C76.8,80.9,76.9,81,76.8,81.2z M78,81.7
								c-0.2,0.2-0.5,0.4-0.7,0c-0.1-0.1-0.1-0.3,0-0.4c0.1-0.2,0.3-0.4,0.4-0.2C77.8,81.2,78.6,81.2,78,81.7z M78.7,81.9
								c-0.6-0.2-0.1-0.9,0.2-1.1c0.1,0.2,0.6,0.3,0.5,0.7C79.2,82.2,78.9,81.9,78.7,81.9z M93.6,64.9l1.2-0.6l-0.2,1.2l-0.5-0.1
								l-1.6,2.1l-0.3-0.3l1.7-2L93.6,64.9z M94.5,66.3v0.9l-0.8,0.1l-0.1-0.5L94.5,66.3z M93.1,68.3L93,69l-1.2,0.9l0.1-0.8
								l0.6-0.9L93.1,68.3z M92.1,66.2l0.1-0.5H93L92.9,66L92.1,66.2z M91.3,64.5l1.7-1.4l0.1,1L92,65L91.3,64.5z M91.6,65.5
								l0.1,0.7l-0.5,0.6h-0.6L91.6,65.5z M90.7,67.3h1.1v1.2l-4.3,5.7l-0.1-0.2l3.7-5.5L90.6,68L90.7,67.3z M87.5,76l-1.7,1.9
								l-0.3-0.1l1.7-2L87.5,76z M90.1,67.6l0.1,0.9l-2.1,2.7l-2.4,5.5l-0.5-0.1l0.2-0.5l0.8-1.3l0.4-1.3l1.6-3.2l0.9-1.8l-0.5-0.3
								l1.2-1L90.1,67.6z M84.3,79.4c-0.2-0.6,0.4-1,0.7-1c0.6,0,0.4,0.6,0,1C84.7,79.6,84.4,79.8,84.3,79.4z M84.2,81
								c-0.4,0.7-1.3,0.2-1.3-0.4c0-0.2,0.4-0.6,0.6-0.6C84,80,84.5,80.4,84.2,81z M89,66.3l0.3,0.6l-0.9,0.9l-0.5-0.6L89,66.3z
								 M88.3,69L88,69.8l-0.5,0.7l-0.2-0.9l0.3-0.5L88.3,69z M87.6,67.8v0.8l-0.5,0.1L87,68.1L87.6,67.8z M86.1,69.7l0.5-0.8
								l0.2,0.3l0.1,1l-0.3,0.3l-0.5-0.3L86.1,69.7z M86.4,71.4l0.6,0.1l-0.2,0.6L86.3,73l-0.2,1.2l-0.5,0.1l0.5-1L86.4,71.4z
								 M84.9,71.6l-0.4-0.4l1-0.9l0.3,0.9L83.4,79l-0.6-0.4L84.9,71.6z M82.8,82.2c-0.1,0.2-0.3,0.4-0.4,0.4
								c-0.5,0.2-0.7-0.2-0.6-0.7c0-0.2,0.3-0.3,0.4-0.5C82.3,81.8,83,81.6,82.8,82.2z M81.5,79.9c0.1-0.2,0.2-0.3,0.4-0.2
								c0.3,0.2,0.5,0.4,0.7,0.7c0.1,0.2,0,0.3-0.2,0.4C82.2,80.9,82,81,81.9,81C81.5,80.8,81.3,80.3,81.5,79.9z M80.1,82.2
								c0.1-0.2,0.2-0.4,0.4-0.2c0.3,0.2,0.5,0.5,0.4,0.9c0,0.2-0.3,0.4-0.4,0.4C80.1,83.2,79.9,82.6,80.1,82.2z M74.8,88.1
								c-0.2,0-0.4-0.2-0.2-0.4c0.8-0.9,1.3-1.4,2.3-2.3c0.1-0.1,0.4,0.1,0.3,0.3c-0.7,0.9-1.2,1.4-1.9,2.2
								C75.1,88.1,74.9,88.2,74.8,88.1z M75.2,89.1c-0.1-0.3-0.1-0.7,0-0.9c0.9-0.9,2.1-1.5,2.5-2.8c-0.3,0-0.7,0-0.6-0.2
								c0.4-0.5,1.9-0.6,1.6-0.1c-0.8,1.3-1.7,2.7-2.8,4C75.7,89.3,75.4,89.5,75.2,89.1z M75.8,89.9c1.3-1.8,2.6-3.2,3.8-4.9
								c-0.4,1.9-1.8,3.3-2.6,5.1C76.8,90.5,75.4,90.5,75.8,89.9z M77.8,90.7c-0.2-0.1-0.7-0.3-0.4-0.6c1-1.5,1.5-3.2,2.8-4
								c0.3-0.2-0.1,0.7-0.2,0.9c-0.6,1.2-1.3,2.2-1.8,3.5C78.1,90.6,77.9,90.7,77.8,90.7z M78.7,91.1c-0.2,0-0.4-0.3-0.4-0.4
								c0.6-0.9,0.8-2,1.6-2.8c0.2,1.1-0.4,1.9-0.7,2.8C79,90.9,78.8,91.1,78.7,91.1z M80.2,92c-0.1,0.4-0.7-0.2-0.8-0.4
								c0-2,1.8-3.8,1.1-5.8c0.4-0.1,0.1-0.7,0.5-0.6c0.2,0,0.4,0.3,0.4,0.4C80.8,87.8,80.9,89.8,80.2,92z M81.6,91.1
								c-0.1,0.2-0.6,0.1-0.6-0.2c0.2-1.7,0.2-3.4,0.7-5.1c0-0.1,0.4,0,0.4,0.2C82,87.8,82.1,89.4,81.6,91.1z M82.6,83.5
								c-0.2-0.1-0.4-0.3-0.2-0.4c0.2-0.2,0.3-0.5,0.7-0.5c0.3,0,0.7,0,0.6,0.2C83.6,83.2,83.2,83.7,82.6,83.5z M84.4,83.8
								c-0.1,0.3-0.5,0.5-0.9,0.5c-0.2,0-0.3-0.2-0.2-0.4c0.2-0.3,0.4-0.6,0.7-0.6C84.7,83.2,84.5,83.6,84.4,83.8z M84.9,81.5
								c-0.1,0-0.3,0-0.5,0c0-0.3-0.1-0.6,0.2-0.7c0.2-0.1,0.4,0.1,0.4,0.2C85.2,81.2,85.1,81.4,84.9,81.5z M85.8,81.5
								c0,0.1-0.1,0.2-0.2,0.2c-0.1,0-0.4,0.1-0.4,0c-0.1-0.1,0-0.3,0.2-0.4C85.6,81.2,85.8,81.3,85.8,81.5z M89.9,76.8l-0.7-0.2
								l-3.2,2.8l-0.3-0.3l3.4-2.9l-0.2-0.5l1.9-0.6L89.9,76.8z M89.3,74.6l0.9-0.9l0.3,0.3l-0.9,0.8L89.3,74.6z M90.6,72.1
								l-2.5,3.2l-0.6-0.3l2.7-3.3L90,71.3l1.4-0.8l-0.2,1.7L90.6,72.1z M92.1,74.5l-0.8-0.4l1.2-1.2L92.1,74.5z M92.7,72.6
								l-0.8-0.3l-0.2-0.6l1.2-0.4L92.7,72.6z M94.4,71.3l-1-0.6l1.5-1L94.4,71.3z M94.7,68.7L93,70.4l-0.3-0.2l1.2-1.8l-0.3-0.7
								l1.4-0.2L94.7,68.7z"/>
						</g>
					</g>
				</g>
			</g>
		</g>
	</g>
</g>
</svg>
