<svg aria-hidden="true" style="position: absolute; width: 0; height: 0; overflow: hidden;" version="1.1" xmlns="http://www.w3.org/2000/svg" xmlns:xlink="http://www.w3.org/1999/xlink">
<defs>

  <symbol id="home" viewBox="0 0 512 512">
    <path d="M 91.082031 322.703125 L 91.082031 473.867188 L 208.195312 473.867188 L 208.195312 336.507812 L 301.695312 336.507812 L 301.695312 473.867188 L 418.808594 473.867188 L 418.808594 322.691406 L 254.972656 158.847656 Z M 254.972656 36.976562 L 25.167969 266.75 L 68.394531 309.984375 L 254.980469 123.445312 L 441.496094 309.972656 L 484.71875 266.757812 Z "></path>
  </symbol>

  <symbol id="thumbnails" viewBox="0 0 512 512">
    <path style=" stroke:none;fill-rule:nonzero;fill:rgb(0%,0%,0%);fill-opacity:1;" d="M 216.765625 220.148438 L 87.898438 220.148438 L 87.898438 91.28125 L 216.765625 91.28125 Z "/>
    <path style=" stroke:none;fill-rule:nonzero;fill:rgb(0%,0%,0%);fill-opacity:1;" d="M 420.835938 220.148438 L 291.964844 220.148438 L 291.964844 91.28125 L 420.835938 91.28125 Z "/>
    <path style=" stroke:none;fill-rule:nonzero;fill:rgb(0%,0%,0%);fill-opacity:1;" d="M 216.765625 420.460938 L 87.898438 420.460938 L 87.898438 291.589844 L 216.765625 291.589844 Z "/>
    <path style=" stroke:none;fill-rule:nonzero;fill:rgb(0%,0%,0%);fill-opacity:1;" d="M 420.835938 420.460938 L 291.964844 420.460938 L 291.964844 291.589844 L 420.835938 291.589844 Z "/>
  </symbol>

  <symbol id="eye" viewBox="0 0 512 512">
    <path style=" stroke:none;fill-rule:nonzero;fill:rgb(0%,0%,0%);fill-opacity:1;" d="M 254.867188 337.410156 C 209.28125 337.410156 172.320312 300.484375 172.320312 254.839844 C 172.320312 209.253906 209.28125 172.304688 254.867188 172.304688 C 300.480469 172.304688 337.4375 209.253906 337.4375 254.839844 C 337.4375 300.484375 300.480469 337.410156 254.867188 337.410156 M 254.867188 139.460938 C 147.589844 139.460938 39.554688 256.105469 39.554688 256.105469 C 39.554688 256.105469 147.589844 372.753906 254.867188 372.753906 C 362.160156 372.753906 470.195312 256.105469 470.195312 256.105469 C 470.195312 256.105469 362.160156 139.460938 254.867188 139.460938 M 254.867188 214.402344 C 232.5625 214.402344 214.417969 232.542969 214.417969 254.839844 C 214.417969 277.15625 232.5625 295.3125 254.867188 295.3125 C 277.1875 295.3125 295.339844 277.15625 295.339844 254.839844 C 295.339844 232.542969 277.1875 214.402344 254.867188 214.402344 "/>
  </symbol>

  <symbol id="search" viewBox="0 0 512 512">
    <path d="M 206.746094 340.769531 C 134.160156 340.304688 75.476562 280.863281 75.933594 208.269531 C 76.398438 136.140625 135.449219 77.457031 207.5625 77.453125 L 208.441406 77.457031 C 243.605469 77.675781 276.585938 91.578125 301.289062 116.601562 C 325.996094 141.628906 339.480469 174.78125 339.253906 209.957031 C 339.03125 244.96875 325.226562 277.847656 300.386719 302.519531 C 275.550781 327.191406 242.605469 340.773438 207.617188 340.773438 Z M 470.703125 407.90625 L 468.011719 405.214844 L 468.019531 405.214844 L 360.503906 297.691406 C 375.441406 271.957031 384.121094 242.128906 384.324219 210.242188 C 384.949219 112.625 306.335938 33 208.726562 32.382812 C 208.332031 32.382812 207.949219 32.382812 207.558594 32.382812 C 110.496094 32.386719 31.492188 110.773438 30.867188 207.980469 C 30.246094 305.589844 108.863281 385.214844 206.464844 385.839844 C 206.851562 385.839844 207.226562 385.84375 207.617188 385.84375 C 240.0625 385.84375 270.464844 377.054688 296.617188 361.769531 L 404.035156 469.199219 L 404.046875 469.191406 L 406.730469 471.875 C 414.855469 480 428.023438 479.992188 436.144531 471.875 L 470.703125 437.324219 C 478.820312 429.207031 478.824219 416.03125 470.703125 407.90625 "/>
  </symbol>

  <symbol id="">
    <path style=" stroke:none;fill-rule:nonzero;fill:rgb(0%,0%,0%);fill-opacity:1;" d="M 189.75 361.589844 C 203.910156 347.441406 226.050781 340.644531 245.605469 334.636719 C 247.628906 334.019531 249.628906 333.398438 251.585938 332.773438 C 259.828125 330.207031 266.664062 326.300781 272.121094 321.054688 C 265.585938 318.269531 259.140625 315.542969 252.960938 313.007812 C 248.515625 311.796875 244 310.570312 239.488281 309.328125 C 234.128906 305.648438 228.894531 293.386719 226.015625 287.285156 C 223.136719 286.894531 220.292969 286.46875 217.445312 286.0625 C 217.902344 276.625 223.726562 276.117188 226.015625 268.910156 C 228.042969 262.566406 226.210938 254.292969 229.449219 248.40625 C 231.3125 244.953125 235.203125 244.367188 237.886719 242.179688 C 237.855469 241.6875 237.785156 241.195312 237.753906 240.6875 C 236.9375 230.320312 235.890625 216.488281 239.097656 195.367188 C 239.0625 195.203125 239.0625 195.054688 239.027344 194.890625 C 238.378906 188.90625 240.796875 169.445312 240.894531 165.246094 C 241.121094 154.335938 240.863281 153.441406 238.246094 142.8125 C 238.246094 142.8125 235.011719 133.183594 230.007812 130.273438 L 219.96875 128.539062 L 213.785156 122.800781 C 188.800781 107.449219 162.050781 118.234375 147.691406 124.039062 C 127.058594 130.730469 114.011719 150.949219 123.136719 194.171875 C 124.675781 201.5625 119.050781 204.859375 119.4375 208.886719 C 120.257812 217.683594 120.421875 238.855469 128.726562 244.074219 C 129.511719 244.550781 135.398438 246.03125 135.363281 245.640625 C 136.183594 254.210938 137.003906 262.792969 137.816406 271.359375 C 139.878906 277.054688 144.882812 277.691406 146.320312 285.734375 L 139.980469 287.285156 C 137.097656 293.386719 131.835938 305.648438 126.46875 309.328125 C 121.992188 310.570312 117.480469 311.796875 112.996094 313.007812 C 97.234375 319.480469 87.230469 327.203125 71.46875 333.84375 C 57.113281 339.902344 39.910156 342.0625 34.710938 357.125 C 34.710938 367.359375 33.765625 391.511719 34.023438 404.917969 L 183.566406 404.917969 C 181.804688 397.492188 177.453125 373.910156 189.75 361.589844 M 466.371094 366.898438 C 452.183594 352.691406 428.113281 346.347656 407.574219 339.917969 C 380.464844 331.4375 370.132812 311.289062 367.058594 291.328125 C 370.035156 287.925781 372.941406 284.347656 375.757812 280.601562 C 393.480469 286.273438 414.769531 287.925781 432.953125 274.730469 C 407.902344 249.652344 428.015625 218.90625 409.894531 163.464844 C 394.492188 116.355469 331.378906 118.695312 323.234375 135.238281 C 289.785156 123.40625 264.507812 139.25 255.21875 189.164062 C 244.523438 246.476562 265.257812 252.527344 240.144531 277.609375 C 259.402344 288.597656 277.0625 285.914062 292.367188 279.832031 C 295.375 283.917969 298.550781 287.828125 301.785156 291.507812 C 298.710938 311.40625 288.34375 331.46875 261.335938 339.917969 C 240.796875 346.347656 216.726562 352.691406 202.53125 366.898438 C 191.320312 378.101562 198.773438 404.917969 198.773438 404.917969 L 470.101562 404.917969 C 470.101562 404.917969 477.589844 378.101562 466.371094 366.898438 "/>
  </symbol>


  <symbol id="test" viewBox="0 0 512 512">
    <path style=" stroke:none;fill-rule:nonzero;fill:rgb(0%,0%,0%);fill-opacity:1;" d="M 189.75 361.589844 C 203.910156 347.441406 226.050781 340.644531 245.605469 334.636719 C 247.628906 334.019531 249.628906 333.398438 251.585938 332.773438 C 259.828125 330.207031 266.664062 326.300781 272.121094 321.054688 C 265.585938 318.269531 259.140625 315.542969 252.960938 313.007812 C 248.515625 311.796875 244 310.570312 239.488281 309.328125 C 234.128906 305.648438 228.894531 293.386719 226.015625 287.285156 C 223.136719 286.894531 220.292969 286.46875 217.445312 286.0625 C 217.902344 276.625 223.726562 276.117188 226.015625 268.910156 C 228.042969 262.566406 226.210938 254.292969 229.449219 248.40625 C 231.3125 244.953125 235.203125 244.367188 237.886719 242.179688 C 237.855469 241.6875 237.785156 241.195312 237.753906 240.6875 C 236.9375 230.320312 235.890625 216.488281 239.097656 195.367188 C 239.0625 195.203125 239.0625 195.054688 239.027344 194.890625 C 238.378906 188.90625 240.796875 169.445312 240.894531 165.246094 C 241.121094 154.335938 240.863281 153.441406 238.246094 142.8125 C 238.246094 142.8125 235.011719 133.183594 230.007812 130.273438 L 219.96875 128.539062 L 213.785156 122.800781 C 188.800781 107.449219 162.050781 118.234375 147.691406 124.039062 C 127.058594 130.730469 114.011719 150.949219 123.136719 194.171875 C 124.675781 201.5625 119.050781 204.859375 119.4375 208.886719 C 120.257812 217.683594 120.421875 238.855469 128.726562 244.074219 C 129.511719 244.550781 135.398438 246.03125 135.363281 245.640625 C 136.183594 254.210938 137.003906 262.792969 137.816406 271.359375 C 139.878906 277.054688 144.882812 277.691406 146.320312 285.734375 L 139.980469 287.285156 C 137.097656 293.386719 131.835938 305.648438 126.46875 309.328125 C 121.992188 310.570312 117.480469 311.796875 112.996094 313.007812 C 97.234375 319.480469 87.230469 327.203125 71.46875 333.84375 C 57.113281 339.902344 39.910156 342.0625 34.710938 357.125 C 34.710938 367.359375 33.765625 391.511719 34.023438 404.917969 L 183.566406 404.917969 C 181.804688 397.492188 177.453125 373.910156 189.75 361.589844 M 466.371094 366.898438 C 452.183594 352.691406 428.113281 346.347656 407.574219 339.917969 C 380.464844 331.4375 370.132812 311.289062 367.058594 291.328125 C 370.035156 287.925781 372.941406 284.347656 375.757812 280.601562 C 393.480469 286.273438 414.769531 287.925781 432.953125 274.730469 C 407.902344 249.652344 428.015625 218.90625 409.894531 163.464844 C 394.492188 116.355469 331.378906 118.695312 323.234375 135.238281 C 289.785156 123.40625 264.507812 139.25 255.21875 189.164062 C 244.523438 246.476562 265.257812 252.527344 240.144531 277.609375 C 259.402344 288.597656 277.0625 285.914062 292.367188 279.832031 C 295.375 283.917969 298.550781 287.828125 301.785156 291.507812 C 298.710938 311.40625 288.34375 331.46875 261.335938 339.917969 C 240.796875 346.347656 216.726562 352.691406 202.53125 366.898438 C 191.320312 378.101562 198.773438 404.917969 198.773438 404.917969 L 470.101562 404.917969 C 470.101562 404.917969 477.589844 378.101562 466.371094 366.898438 "/>
  </symbol>



</defs>
</svg>
