<svg aria-hidden="true" style="position: absolute; width: 0; height: 0; overflow: hidden;" version="1.1" xmlns="http://www.w3.org/2000/svg" xmlns:xlink="http://www.w3.org/1999/xlink">
<defs>
  <symbol id="book" viewBox="0 0 512 512">
    <path d="M 406.339844 397.0625 L 383.683594 398.117188 L 383.683594 117.101562 L 132.195312 97.539062 L 131.621094 97.539062 C 122.898438 97.574219 115.1875 95.191406 110.597656 92.238281 C 108.292969 90.796875 106.800781 89.257812 106.070312 88.148438 C 105.328125 87 105.25 86.433594 105.230469 85.894531 C 105.25 85.355469 105.328125 84.796875 106.070312 83.648438 C 107.136719 81.96875 110.046875 79.390625 114.59375 77.476562 C 119.109375 75.542969 125.078125 74.25 131.621094 74.253906 L 131.746094 74.253906 L 406.339844 66.59375 Z M 327.382812 222.035156 L 146.4375 207.539062 L 148.890625 176.859375 L 329.835938 191.351562 Z M 280.90625 295.371094 L 176.476562 287.253906 L 178.859375 256.570312 L 283.289062 264.691406 Z M 131.40625 46.941406 C 118.097656 47.011719 105.867188 50.289062 96.015625 56.460938 C 91.070312 59.589844 86.6875 63.507812 83.375 68.453125 C 80.0625 73.355469 77.902344 79.453125 77.917969 85.894531 L 77.917969 414.597656 C 77.902344 421.046875 80.0625 427.144531 83.375 432.046875 C 88.382812 439.445312 95.636719 444.589844 103.863281 448.136719 C 111.964844 451.582031 121.175781 453.46875 130.988281 453.550781 L 383.683594 473.199219 L 383.683594 425.460938 L 433.660156 423.132812 L 433.660156 38.511719 Z "/>
  </symbol>

  <symbol id="book-alt-2" viewBox="0 0 512 512">
    <path d="M 291.921875 288.039062 L 305.304688 305.609375 L 307.023438 308.015625 C 307.035156 308 307.066406 307.984375 307.097656 307.964844 C 308.609375 306.941406 326.207031 295.03125 360.984375 295.011719 C 379.964844 295.011719 394.054688 298.570312 403.285156 301.988281 C 407.898438 303.691406 411.289062 305.363281 413.433594 306.546875 C 414.507812 307.136719 415.269531 307.601562 415.707031 307.882812 C 415.917969 308.019531 416.058594 308.113281 416.125 308.160156 C 416.132812 308.164062 416.136719 308.167969 416.144531 308.167969 L 416.167969 308.191406 L 420.21875 302.441406 L 430.808594 287.875 C 429.328125 286.765625 405.332031 269.953125 360.984375 269.96875 C 316.628906 269.945312 293.464844 286.816406 291.921875 288.039062 M 307.023438 253.867188 C 307.851562 253.3125 325.445312 240.882812 360.988281 240.859375 C 379.964844 240.871094 394.0625 244.429688 403.285156 247.84375 C 407.902344 249.539062 411.292969 251.226562 413.4375 252.402344 C 414.507812 252.988281 415.265625 253.457031 415.707031 253.734375 C 415.898438 253.851562 416.027344 253.945312 416.101562 253.992188 C 416.136719 254.019531 416.160156 254.039062 416.164062 254.039062 L 420.148438 248.394531 L 430.808594 233.734375 L 430.808594 233.726562 C 429.328125 232.621094 405.335938 215.808594 360.988281 215.824219 C 316.632812 215.792969 293.460938 232.679688 291.921875 233.898438 L 307.097656 253.8125 L 305.269531 251.417969 Z M 305.269531 197.269531 L 307.023438 199.722656 L 307.023438 199.726562 C 307.847656 199.171875 325.449219 186.738281 360.988281 186.71875 C 379.964844 186.71875 394.0625 190.28125 403.289062 193.691406 C 407.898438 195.394531 411.289062 197.074219 413.433594 198.25 C 414.503906 198.847656 415.269531 199.3125 415.707031 199.59375 C 415.882812 199.695312 416.007812 199.78125 416.082031 199.835938 L 430.808594 179.582031 C 429.324219 178.480469 405.335938 161.664062 360.988281 161.675781 C 316.632812 161.648438 293.460938 178.527344 291.917969 179.753906 L 307.097656 199.664062 Z M 416.164062 199.898438 L 420.316406 194.015625 L 416.082031 199.835938 L 416.082031 199.839844 C 416.132812 199.875 416.160156 199.894531 416.164062 199.898438 M 83.804688 288.039062 L 97.652344 306.21875 L 97.15625 305.574219 L 98.90625 308.015625 L 98.984375 307.964844 C 100.492188 306.941406 118.09375 295.03125 152.867188 295.011719 C 171.847656 295.011719 185.941406 298.570312 195.171875 301.988281 C 199.78125 303.691406 203.171875 305.363281 205.316406 306.546875 C 206.390625 307.136719 207.152344 307.601562 207.59375 307.882812 C 207.804688 308.019531 207.941406 308.113281 208.011719 308.160156 C 208.019531 308.164062 208.023438 308.167969 208.027344 308.167969 L 208.054688 308.191406 L 212.105469 302.441406 L 222.695312 287.875 C 221.207031 286.765625 197.21875 269.953125 152.867188 269.96875 C 108.511719 269.945312 85.347656 286.816406 83.804688 288.039062 M 98.90625 253.867188 C 99.730469 253.3125 117.332031 240.882812 152.863281 240.859375 C 171.84375 240.871094 185.945312 244.429688 195.171875 247.84375 C 199.78125 249.539062 203.171875 251.226562 205.3125 252.402344 C 206.394531 252.988281 207.152344 253.457031 207.589844 253.734375 C 207.8125 253.878906 207.953125 253.976562 208.015625 254.019531 C 208.035156 254.03125 208.046875 254.039062 208.050781 254.039062 L 211.976562 248.46875 L 222.691406 233.734375 L 222.691406 233.726562 C 221.207031 232.621094 197.214844 215.808594 152.863281 215.824219 C 108.515625 215.792969 85.34375 232.679688 83.804688 233.898438 L 98.984375 253.8125 L 97.148438 251.40625 Z M 83.804688 179.753906 L 97.164062 197.277344 L 98.90625 199.726562 C 99.734375 199.171875 117.332031 186.738281 152.867188 186.71875 C 171.847656 186.71875 185.941406 190.28125 195.171875 193.691406 C 199.785156 195.394531 203.175781 197.074219 205.316406 198.25 C 206.390625 198.847656 207.148438 199.3125 207.59375 199.59375 C 207.804688 199.726562 207.941406 199.820312 208.011719 199.867188 C 208.019531 199.875 208.023438 199.875 208.027344 199.878906 L 208.054688 199.898438 L 212.0625 194.203125 L 222.695312 179.582031 C 221.214844 178.480469 197.214844 161.664062 152.867188 161.675781 C 108.519531 161.648438 85.34375 178.527344 83.804688 179.753906 M 445.242188 370.246094 C 425.925781 353.203125 396.265625 335.675781 357.332031 335.675781 C 319.046875 335.664062 290.03125 352.683594 271.066406 369.519531 L 271.066406 164.148438 C 274.371094 159.085938 281.699219 148.9375 292.734375 139.230469 C 307.894531 125.921875 329.058594 113.6875 357.332031 113.675781 C 386.503906 113.675781 408.6875 126.785156 424.332031 140.644531 C 432.082031 147.535156 438.011719 154.519531 441.90625 159.679688 C 443.269531 161.476562 444.382812 163.050781 445.242188 164.316406 Z M 238.511719 370.265625 C 219.191406 353.21875 189.542969 335.675781 150.597656 335.675781 L 150.550781 335.675781 C 112.300781 335.675781 83.277344 352.675781 64.324219 369.496094 L 64.324219 164.144531 C 67.632812 159.078125 74.976562 148.921875 85.992188 139.230469 C 101.160156 125.921875 122.324219 113.6875 150.597656 113.675781 C 179.769531 113.675781 201.953125 126.785156 217.589844 140.644531 C 225.347656 147.535156 231.277344 154.519531 235.171875 159.679688 C 236.542969 161.488281 237.644531 163.0625 238.511719 164.332031 Z M 475.644531 151.492188 C 475.0625 150.523438 465.394531 133.648438 445.96875 116.324219 C 426.664062 99.09375 396.75 81.117188 357.332031 81.117188 C 317.910156 81.105469 288.289062 99.148438 269.375 116.457031 C 263.523438 121.804688 258.59375 127.105469 254.558594 131.910156 C 250.382812 127.074219 245.277344 121.722656 239.230469 116.324219 C 219.929688 99.09375 190.015625 81.117188 150.597656 81.117188 C 111.179688 81.105469 81.546875 99.148438 62.640625 116.457031 C 43.597656 133.851562 34.335938 150.773438 33.765625 151.78125 L 31.777344 159.578125 L 31.777344 414.132812 L 62.273438 421.917969 L 62.328125 421.949219 C 62.753906 421.136719 70.945312 407.019531 85.992188 393.785156 C 101.160156 380.488281 122.324219 368.253906 150.597656 368.230469 C 179.769531 368.230469 201.953125 381.351562 217.589844 395.199219 C 225.347656 402.101562 231.277344 409.074219 235.171875 414.238281 C 237.117188 416.8125 238.5625 418.929688 239.480469 420.347656 C 239.871094 420.941406 240.148438 421.386719 240.351562 421.714844 C 243.066406 426.925781 248.503906 430.488281 254.785156 430.488281 C 261.179688 430.488281 266.699219 426.789062 269.359375 421.429688 C 270.953125 418.707031 278.96875 405.894531 292.734375 393.785156 C 307.894531 380.488281 329.058594 368.253906 357.332031 368.230469 C 386.503906 368.230469 408.6875 381.351562 424.332031 395.199219 C 432.082031 402.101562 438.011719 409.074219 441.90625 414.238281 C 443.859375 416.8125 445.300781 418.929688 446.222656 420.347656 C 446.679688 421.046875 447.007812 421.585938 447.207031 421.90625 C 447.308594 422.070312 447.367188 422.175781 447.398438 422.234375 L 447.441406 422.210938 L 477.800781 414.132812 L 477.800781 159.578125 Z "/>
  </symbol>

  <symbol id="calendar-alt" viewBox="0 0 512 512">
    <path d="M 369.296875 143.640625 C 379.570312 143.640625 387.898438 135.3125 387.898438 125.039062 L 387.898438 58.035156 C 387.898438 47.769531 379.570312 39.4375 369.296875 39.4375 C 359.023438 39.4375 350.695312 47.769531 350.695312 58.035156 L 350.695312 125.039062 C 350.695312 135.3125 359.023438 143.640625 369.296875 143.640625 M 145.246094 143.640625 C 155.519531 143.640625 163.847656 135.3125 163.847656 125.039062 L 163.847656 58.035156 C 163.847656 47.769531 155.519531 39.4375 145.246094 39.4375 C 134.972656 39.4375 126.644531 47.769531 126.644531 58.035156 L 126.644531 125.039062 C 126.644531 135.3125 134.972656 143.640625 145.246094 143.640625 M 215.988281 292.390625 L 171.105469 292.390625 L 171.105469 337.25 L 215.988281 337.25 Z M 279.15625 352.425781 L 234.308594 352.425781 L 234.308594 397.292969 L 279.15625 397.292969 Z M 215.988281 352.425781 L 171.105469 352.425781 L 171.105469 397.292969 L 215.988281 397.292969 Z M 215.988281 232.359375 L 171.105469 232.359375 L 171.105469 277.210938 L 215.988281 277.210938 Z M 434.035156 431.964844 L 77.128906 431.964844 L 77.128906 183.542969 L 434.035156 183.542969 Z M 394.023438 74.207031 L 394.023438 93.898438 C 401.761719 100.746094 406.664062 110.722656 406.664062 121.867188 C 406.664062 142.5 389.933594 159.234375 369.296875 159.234375 C 348.65625 159.234375 331.929688 142.5 331.929688 121.867188 C 331.929688 110.71875 336.832031 100.742188 344.570312 93.898438 L 344.570312 74.207031 L 169.96875 74.207031 L 169.96875 93.898438 C 177.707031 100.746094 182.613281 110.722656 182.613281 121.867188 C 182.613281 142.5 165.878906 159.234375 145.242188 159.234375 C 124.605469 159.234375 107.875 142.5 107.875 121.867188 C 107.875 110.71875 112.78125 100.742188 120.519531 93.898438 L 120.519531 74.207031 L 37.246094 74.207031 L 37.246094 471.851562 L 473.914062 471.851562 L 473.914062 74.207031 Z M 152.761719 292.390625 L 107.90625 292.390625 L 107.90625 337.25 L 152.761719 337.25 Z M 152.761719 352.425781 L 107.90625 352.425781 L 107.90625 397.292969 L 152.761719 397.292969 Z M 405.566406 292.390625 L 360.710938 292.390625 L 360.710938 337.25 L 405.566406 337.25 Z M 342.390625 232.359375 L 297.511719 232.359375 L 297.511719 277.210938 L 342.390625 277.210938 Z M 279.15625 292.390625 L 234.308594 292.390625 L 234.308594 337.25 L 279.15625 337.25 Z M 405.566406 232.359375 L 360.710938 232.359375 L 360.710938 277.210938 L 405.566406 277.210938 Z M 342.390625 292.390625 L 297.511719 292.390625 L 297.511719 337.25 L 342.390625 337.25 Z M 279.15625 232.359375 L 234.308594 232.359375 L 234.308594 277.210938 L 279.15625 277.210938 Z M 342.390625 352.425781 L 297.511719 352.425781 L 297.511719 397.292969 L 342.390625 397.292969 Z "/>
  </symbol>

  <symbol id="chart" viewBox="0 0 512 512">
    <path d="M 72.28125 438.257812 L 72.28125 437.867188 L 71.238281 437.867188 L 71.238281 42.351562 L 41.507812 42.351562 L 41.507812 469.03125 L 468.183594 469.03125 L 468.183594 438.257812 Z M 176.101562 318.488281 C 185.710938 318.488281 194.40625 314.597656 200.710938 308.304688 L 300.734375 345.574219 C 302.5 363.152344 317.332031 376.875 335.371094 376.875 C 354.597656 376.875 370.183594 361.285156 370.183594 342.058594 C 370.183594 337.359375 369.238281 332.875 367.550781 328.785156 L 426.1875 262.164062 L 448.828125 279.625 L 459.757812 195.933594 L 381.578125 227.742188 L 401.769531 243.328125 L 344.421875 308.480469 C 341.53125 307.699219 338.507812 307.246094 335.371094 307.246094 C 326.128906 307.246094 317.75 310.871094 311.515625 316.75 L 210.589844 279.144531 C 208.363281 262.0625 193.796875 248.863281 176.101562 248.863281 C 156.878906 248.863281 141.292969 264.445312 141.292969 283.671875 C 141.292969 284.636719 141.355469 285.582031 141.4375 286.519531 L 96.277344 314.308594 L 96.277344 350.453125 L 157.265625 312.925781 C 162.699219 316.433594 169.15625 318.488281 176.101562 318.488281 M 176.101562 193.542969 C 183.433594 193.542969 190.234375 191.265625 195.839844 187.394531 L 252.003906 221.011719 C 251.929688 221.945312 251.863281 222.875 251.863281 223.828125 C 251.863281 243.054688 267.453125 258.640625 286.679688 258.640625 C 305.902344 258.640625 321.488281 243.054688 321.488281 223.828125 C 321.488281 219.480469 320.652344 215.335938 319.203125 211.492188 L 384.332031 141.605469 L 422.585938 174.679688 L 445.710938 51.527344 L 327.1875 92.207031 L 361.03125 121.464844 L 296.703125 190.496094 C 293.527344 189.542969 290.164062 189.015625 286.679688 189.015625 C 279.71875 189.015625 273.246094 191.082031 267.804688 194.601562 L 210.832031 160.496094 C 210.859375 159.90625 210.917969 159.328125 210.917969 158.730469 C 210.917969 139.503906 195.332031 123.917969 176.101562 123.917969 C 156.878906 123.917969 141.292969 139.503906 141.292969 158.730469 C 141.292969 162.058594 141.789062 165.265625 142.660156 168.3125 L 96.277344 210.9375 L 96.277344 252.738281 L 163.351562 191.101562 C 167.304688 192.660156 171.59375 193.542969 176.101562 193.542969 "/>
  </symbol>

  <symbol id="chat" viewBox="0 0 512 512">
    <path d="M 257.046875 69.15625 C 136.488281 66.78125 37.25 141.070312 35.402344 235.085938 C 34.757812 267.769531 45.976562 298.527344 65.941406 324.859375 L 65.9375 324.859375 C 100.277344 368.976562 62.800781 444.816406 62.800781 444.816406 L 173.449219 397.164062 C 197.285156 404.695312 223.191406 409.082031 250.335938 409.617188 C 370.894531 411.996094 470.132812 337.703125 471.984375 243.6875 C 473.835938 149.671875 377.605469 71.53125 257.046875 69.15625 "/>
  </symbol>

  <symbol id="content-copy" viewBox="0 -960 960 960">
    <path d="M180-81q-24 0-42-18t-18-42v-603h60v603h474v60H180Zm120-120q-24 0-42-18t-18-42v-560q0-24 18-42t42-18h440q24 0 42 18t18 42v560q0 24-18 42t-42 18H300Zm0-60h440v-560H300v560Zm0 0v-560 560Z"/>
  </symbol>

  <symbol id="clipboards" viewBox="0 0 512 512">
    <rect x="329.26" y="149.81" width="80.67" height="31.28"/>
    <rect x="329.26" y="212.37" width="80.67" height="31.28"/>
    <rect x="329.26" y="274.93" width="80.67" height="31.28"/>
    <rect x="55.97" y="256.82" width="181.09" height="31.28"/>
    <rect x="55.97" y="325.97" width="181.09" height="31.28"/>
    <rect x="55.97" y="396.76" width="181.09" height="31.28"/>
    <g>
      <circle cx="329.26" cy="49.39" r="27.99" style="fill:none;"/>
      <path d="m428.04,67.5v279.87h-98.78v32.93h131.7V34.57h-87.25c-3.29-16.46-21.4-34.57-44.45-34.57s-41.16,18.11-44.45,34.57h-87.25v49.39c9.88,6.59,11.52,8.23,16.46,16.46h16.46v-32.93h8.23l19.76,32.93h144.87l16.46-32.93h8.23Zm-98.78,9.88c-14.82,0-27.99-13.17-27.99-27.99,0-16.46,13.17-27.99,27.99-27.99s27.99,13.17,27.99,27.99-11.52,27.99-27.99,27.99Z"/>
    </g>
    <path d="m296.33,133.35v378.65H0V133.35h95.49c3.29-24.69,24.69-44.45,51.04-44.45s46.1,19.76,51.04,44.45h98.78Zm-181.09,8.23c0,18.11,14.82,31.28,31.28,31.28,18.11,0,31.28-14.82,31.28-31.28,0-18.11-14.82-31.28-31.28-31.28-18.11-1.65-31.28,13.17-31.28,31.28Zm-65.85,24.69h-16.46v312.8h230.48V166.28h-16.46l-16.46,32.93H65.85l-16.46-32.93Z"/>
  </symbol>

  <symbol id="conversation-alt" viewBox="0 0 512 512">
    <path d="M 454.667969 247.820312 C 466.949219 231.621094 473.867188 212.699219 473.457031 192.585938 C 472.328125 134.753906 411.242188 89.019531 337.074219 90.523438 C 274.925781 91.734375 223.273438 125.726562 208.867188 170.726562 C 237.890625 176.203125 264.527344 188.09375 285.992188 205.519531 C 316.964844 230.671875 333.675781 264.203125 333.066406 299.925781 C 335.769531 299.980469 338.480469 300.015625 341.195312 299.925781 C 357.921875 299.671875 373.847656 296.957031 388.53125 292.273438 L 456.597656 321.613281 C 456.597656 321.613281 433.542969 274.945312 454.667969 247.820312 M 175.902344 192.324219 C 101.734375 190.871094 40.699219 236.570312 39.554688 294.40625 C 39.164062 314.515625 46.0625 333.449219 58.324219 349.640625 C 79.449219 376.761719 56.394531 423.441406 56.394531 423.441406 L 124.480469 394.113281 C 139.132812 398.753906 155.089844 401.46875 171.785156 401.796875 C 245.953125 403.269531 307.019531 357.535156 308.132812 299.671875 C 309.277344 241.871094 250.085938 193.78125 175.902344 192.324219 "/>
  </symbol>

  <symbol id="doc-code" viewBox="0 0 512 716.08">
    <g>
      <path d="m501.26,157.54L358.04,14.32l-14.32-14.32H0v716.08h512V168.28l-10.74-10.74ZM42.96,676.7V42.96h243.47c89.51,0,42.97,143.22,42.97,143.22,0,0,139.64-46.55,139.64,42.97v447.55H42.96Z"/>
      <path d="m186.18,243.47l-28.64,28.64,128.9,128.9-128.9,128.9,28.64,28.64,157.54-157.54-157.54-157.54Z"/>
    </g>
  </symbol>

  <symbol id="doc-filled" viewBox="0 0 512 716.08">
    <polygon points="501.26 157.54 358.04 14.32 343.72 0 0 0 0 716.08 512 716.08 512 168.28 501.26 157.54"/>
  </symbol>

  <symbol id="doc-generic" viewBox="0 0 512 716.08">
    <path d="m501.26,157.54L358.04,14.32l-14.32-14.32H0v716.08h512V168.28l-10.74-10.74ZM42.96,676.7V42.96h243.47c89.51,0,42.97,143.22,42.97,143.22,0,0,139.64-46.55,139.64,42.97v447.55H42.96Z"/>
  </symbol>

  <symbol id="doc-pdf" viewBox="0 0 512 716.08">
    <g>
      <path style="fill:none;" d="m472.62,422.49v-42.97c-28.64,3.58-60.87,14.32-96.67,25.06,35.81,10.74,68.03,14.32,96.67,17.9Z"/>
      <path style="fill:none;" d="m146.8,515.58c-21.48,78.77-46.55,128.9-68.03,161.12h393.85v-236.31c-39.38,0-85.93-7.16-132.48-21.48-68.03,25.06-136.06,60.87-193.34,96.67Z"/>
      <path style="fill:none;" d="m189.76,311.5c-3.58,35.8-10.74,82.35-25.06,136.06-7.16,25.06-10.74,50.13-17.9,71.61,53.71-39.38,118.15-75.19,175.44-103.83-17.9-7.16-35.8-14.32-50.13-25.06-28.64-21.48-57.29-50.13-82.35-78.77Z"/>
      <path style="fill:none;" d="m332.98,186.18s46.55-143.22-42.97-143.22H46.55v551.38c7.16-10.74,17.9-21.48,32.22-32.22-14.32,14.32-21.48,32.22-32.22,46.55v68.03h10.74c28.64-39.38,57.29-121.73,89.51-247.05,14.32-60.87,21.48-110.99,25.06-150.38-46.55-71.61-75.19-153.96-68.03-196.92s39.38-14.32,64.45,25.06c-21.48-17.9-28.64-25.06-39.38-21.48-14.32,3.58,7.16,68.03,50.13,136.06,0-50.13,0-82.35-3.58-103.83,14.32,42.97,25.06,85.93,25.06,139.64,35.8,50.13,75.19,96.67,114.57,121.73,17.9,10.74,32.22,17.9,50.13,21.48,42.97-17.9,82.35-28.64,114.57-32.22v-136.06c-7.16-96.67-146.8-46.55-146.8-46.55Z"/>
      <path d="m42.96,594.35v14.32c7.16-14.32,17.9-32.22,32.22-46.55-14.32,10.74-25.06,21.48-32.22,32.22Z"/><path d="m307.92,375.94c-39.38-21.48-82.35-71.61-114.57-121.73,0-53.71-10.74-93.09-25.06-139.64,0,21.48,3.58,53.71,3.58,103.83-39.38-68.03-64.45-132.48-50.13-136.06,14.32-3.58,17.9,3.58,39.38,21.48-25.06-39.38-57.29-68.03-64.45-25.06-7.16,42.97,21.48,125.31,68.03,196.92-3.58,42.97-10.74,93.09-25.06,150.38-28.64,125.31-57.29,207.66-89.51,247.05h25.06c21.48-28.64,46.55-78.77,68.03-161.12,57.29-35.8,125.31-71.61,193.34-100.25,42.97,14.32,93.09,21.48,132.48,21.48v-17.9c-28.64,0-60.87-7.16-96.67-17.9,35.8-14.32,68.03-21.48,96.67-25.06v-14.32c-32.22,3.58-71.61,17.9-114.57,32.22-14.32,0-32.22-7.16-46.55-14.32Zm-161.12,139.64c7.16-21.48,10.74-46.55,17.9-71.61,14.32-53.71,21.48-96.67,25.06-136.06,25.06,32.22,53.71,57.29,82.35,78.77,14.32,10.74,32.22,17.9,50.13,25.06-57.29,28.64-118.15,64.45-175.44,103.83Z"/>
      <path d="m501.26,157.54L358.04,14.32l-14.32-14.32H0v716.08h512V168.28l-10.74-10.74Zm-28.64,207.67v311.5H42.96V42.97h243.47c89.51,0,42.97,143.22,42.97,143.22,0,0,139.64-46.55,139.64,42.97,3.58,32.22,3.58,82.35,3.58,136.05Z"/>
    </g>
  </symbol>

  <symbol id="doc-pi-pdf" viewBox="0 0 512 716.08">
    <g>
      <path d="m192,305.78c-3.56,35.56-10.67,81.78-24.89,135.11-7.11,24.89-10.67,49.78-17.78,71.11,53.33-39.11,117.33-74.67,174.22-103.11-17.78-7.11-35.56-14.22-49.78-24.89-28.44-17.78-56.89-46.22-81.78-78.22Z" />
      <rect y="103.11" width="42.67" height="74.67"/>
      <polygon points="56.89 668.44 42.67 668.44 42.67 632.89 0 632.89 0 711.11 74.67 711.11 74.67 668.44 56.89 668.44"/>
      <rect x="465.78" y="529.78" width="42.67" height="74.67"/>
      <polygon points="465.78 668.44 430.22 668.44 430.22 711.11 508.44 711.11 508.44 632.89 465.78 632.89 465.78 668.44"/>
      <rect x="323.56" y="668.44" width="78.22" height="42.67"/>
      <path d="m465.78,362.67h0v14.22h0v17.78h42.67v-74.67h-42.67v42.67Z"/>
      <path d="m497.78,156.44L355.55,14.22l-14.22-14.22h-128v42.67h71.11c88.89,0,32,149.33,32,149.33,0,0,149.33-56.89,149.33,32v64h42.67v-117.33l-10.67-14.22Z"/>
      <rect x="213.33" y="668.44" width="78.22" height="42.67"/>
      <path d="m469.33,437.33q-3.56,0,0,0v64h42.67v-74.67h-42.67v10.67q0-3.56,0,0Z"/>
      <rect x="103.11" width="78.22" height="42.67"/>
      <path d="m42.67,600.89v-3.56h0v-64H0v74.67h42.67v-7.11Z"/>
      <rect y="423.11" width="42.67" height="74.67"/>
      <rect y="209.78" width="42.67" height="74.67"/>
      <rect y="316.44" width="42.67" height="74.67"/>
      <polygon points="42.67 42.67 74.67 42.67 74.67 0 0 0 0 74.67 42.67 74.67 42.67 42.67"/>
      <rect x="103.11" y="668.44" width="78.22" height="42.67"/>
      <path d="m42.67,600.89v14.22c10.67-17.78,21.33-39.11,35.56-56.89-14.22,14.22-24.89,24.89-35.56,35.56h0v7.11Z"/>
      <path d="m469.33,373.33v-10.67h0c-32,3.56-67.56,17.78-106.67,32-17.78-7.11-32-14.22-49.78-21.33-39.11-21.33-81.78-71.11-113.78-120.89,0-53.33-10.67-92.44-24.89-138.67,0,21.33,3.56,53.33,3.56,103.11-39.11-67.56-64-131.56-49.78-135.11,14.22-3.56,17.78,3.56,39.11,21.33-24.89-39.11-56.89-67.56-64-24.89-7.11,42.67,21.33,124.44,67.56,195.56-3.56,42.67-10.67,92.44-24.89,149.33-28.44,120.89-56.89,202.67-85.33,241.78h24.89c21.33-28.44,42.67-78.22,67.56-156.44,56.89-35.56,124.44-71.11,192-99.55,42.67,14.22,85.33,21.33,124.44,21.33h0v-17.78c-28.44,0-60.44-7.11-92.44-17.78,32-7.11,64-14.22,92.44-21.33q-3.56,3.56,0,0h0Zm-316.44,138.67c7.11-21.33,10.67-42.67,17.78-71.11,14.22-53.33,21.33-96,24.89-135.11,24.89,32,53.33,56.89,81.78,78.22,14.22,10.67,32,17.78,49.78,24.89-60.44,24.89-120.89,60.44-174.22,103.11Z"/>
    </g>
  </symbol>

  <symbol id="document" viewBox="0 0 512 512">
    <path d="M 130.738281 439.21875 L 130.738281 72.589844 L 272.351562 72.589844 C 309.554688 72.589844 291.628906 160.769531 291.628906 160.769531 C 291.628906 160.769531 377.628906 139.871094 378.730469 179.304688 L 378.730469 439.21875 Z M 396.441406 138.878906 L 312.445312 54.886719 L 305.113281 47.550781 L 105.703125 47.550781 L 105.703125 464.253906 L 403.773438 464.253906 L 403.773438 146.214844 Z "/>
  </symbol>

  <symbol id="documents" viewBox="0 0 512 512">
    <path d="M 466.808594 118.324219 L 385.542969 37.054688 L 258.9375 37.054688 L 283.980469 62.09375 L 355.460938 62.09375 C 355.527344 62.09375 355.582031 62.101562 355.648438 62.101562 C 355.640625 62.390625 355.621094 62.648438 355.621094 62.941406 C 366.796875 62.941406 372.3125 71.984375 374.742188 83.890625 C 379.097656 106.847656 372.429688 139.71875 372.429688 139.71875 C 372.429688 139.71875 372.566406 139.683594 372.769531 139.636719 C 372.65625 140.234375 372.589844 140.566406 372.589844 140.566406 C 372.589844 140.566406 439.71875 124.242188 448.382812 151.300781 C 448.460938 151.59375 448.542969 151.886719 448.609375 152.1875 C 448.691406 152.488281 448.746094 152.800781 448.816406 153.105469 C 448.96875 154.035156 449.074219 154.996094 449.101562 156.011719 L 449.101562 384.816406 L 361.105469 384.816406 L 361.105469 409.855469 L 474.144531 409.855469 L 474.144531 125.660156 Z M 309.757812 449.1875 L 61.761719 449.1875 L 61.761719 82.566406 L 203.375 82.566406 C 240.578125 82.566406 222.652344 170.746094 222.652344 170.746094 C 222.652344 170.746094 308.652344 149.84375 309.757812 189.277344 Z M 243.46875 64.859375 L 236.132812 57.527344 L 36.722656 57.527344 L 36.722656 474.230469 L 334.792969 474.230469 L 334.792969 156.1875 L 327.460938 148.851562 Z "/>
  </symbol>

  <symbol id="filter" viewBox="0 0 512 512">
    <path d="M 90.671875 88.917969 L 421.710938 88.917969 L 421.710938 132.882812 L 286 294.9375 L 286 363.089844 L 218.683594 422.914062 L 218.683594 294.9375 L 90.671875 131.640625 Z "/>
  </symbol>

  <symbol id="fullscreen" viewBox="0 0 512 512">
    <path d="M 386.988281 300.550781 L 386.988281 213.632812 C 386.988281 177.640625 357.808594 148.460938 321.816406 148.460938 L 186.109375 148.460938 C 150.117188 148.460938 120.9375 177.640625 120.9375 213.632812 L 120.9375 300.550781 C 120.9375 336.542969 150.117188 365.71875 186.109375 365.71875 L 321.816406 365.71875 C 357.808594 365.71875 386.988281 336.542969 386.988281 300.550781 M 108.671875 142.582031 L 141.046875 110.21875 L 106.144531 75.320312 L 142.679688 38.78125 L 36.699219 38.78125 L 36.699219 144.761719 L 73.777344 107.6875 Z M 140.5 400.992188 L 108.132812 368.628906 L 73.234375 403.53125 L 36.699219 366.992188 L 36.699219 472.980469 L 142.679688 472.980469 L 105.601562 435.898438 Z M 435.15625 404.074219 L 400.257812 369.175781 L 367.886719 401.542969 L 402.785156 436.441406 L 366.253906 472.980469 L 472.238281 472.980469 L 472.238281 366.996094 Z M 368.429688 110.765625 L 400.800781 143.125 L 435.695312 108.230469 L 472.234375 144.765625 L 472.234375 38.78125 L 366.257812 38.78125 L 403.332031 75.859375 Z "/>
  </symbol>

  <symbol id="hamburger" viewBox="0 0 1920 1920">
    <path d="M1920 1411.412v225.882H0v-225.882h1920Zm0-564.706v225.882H0V846.706h1920ZM1920 282v225.882H0V282h1920Z" fill-rule="evenodd"/>
  </symbol>

  <symbol id="home" viewBox="0 0 512 512">
    <path d="M 91.082031 322.703125 L 91.082031 473.867188 L 208.195312 473.867188 L 208.195312 336.507812 L 301.695312 336.507812 L 301.695312 473.867188 L 418.808594 473.867188 L 418.808594 322.691406 L 254.972656 158.847656 Z M 254.972656 36.976562 L 25.167969 266.75 L 68.394531 309.984375 L 254.980469 123.445312 L 441.496094 309.972656 L 484.71875 266.757812 Z "></path>
  </symbol>
  
  <symbol id="info-circle" viewBox="0 0 1024 1024">
    <path d="M512 30.172c-265.715 0-481.828 216.115-481.828 481.828 0 265.715 216.115 481.828 481.828 481.828 265.715 0 481.828-216.115 481.828-481.828 0-265.715-216.115-481.828-481.828-481.828zM414.572 873.372c-38.972 0-67.315-19.485-67.315-60.228 0-53.143 37.2-143.485 46.057-162.972l77.943-194.857c7.085-19.485-1.772-30.115-10.628-30.115-40.743 0-93.885 95.657-113.372 95.657-7.085 0-14.172-7.085-14.172-14.172 0-19.485 47.828-65.543 63.772-81.485 44.285-42.515 100.972-74.4 166.515-74.4 47.828 0 99.2 28.343 58.457 136.4l-79.715 216.115c-7.085 15.943-19.485 44.285-19.485 62 0 7.085 3.543 15.943 12.4 15.943 33.657 0 93.885-93.885 109.828-93.885 5.315 0 12.4 7.085 12.4 15.943-1.772 31.885-131.085 170.057-242.685 170.057zM604.115 311.828c-46.057 0-74.4-30.115-74.4-74.4 0-47.828 42.515-88.572 90.343-88.572 44.285 0 76.172 30.115 76.172 74.4 0 51.372-42.515 88.572-92.115 88.572z"/>
  </symbol>

  <symbol id="link" viewBox="0 0 512 512">
    <path d="M 270.507812 338.007812 C 243.191406 338.035156 215.8125 327.335938 195.183594 306.6875 L 191.917969 303.421875 L 238.703125 256.621094 L 241.976562 259.890625 C 250.027344 267.925781 260.207031 271.804688 270.507812 271.832031 C 281.296875 271.789062 291.597656 267.902344 299.628906 259.890625 L 376.332031 183.1875 C 384.355469 175.136719 388.242188 164.882812 388.277344 154.292969 C 388.242188 143.800781 384.363281 133.570312 376.34375 125.523438 L 373.074219 122.257812 C 365.027344 114.234375 354.789062 110.355469 344.246094 110.316406 C 333.695312 110.355469 323.460938 114.234375 315.410156 122.257812 L 283.875 153.800781 C 270.957031 166.722656 250.007812 166.722656 237.085938 153.800781 C 224.164062 140.882812 224.164062 119.933594 237.082031 107.011719 L 268.625 75.46875 C 289.417969 54.648438 316.984375 44.109375 344.246094 44.144531 C 371.503906 44.109375 399.066406 54.648438 419.863281 75.46875 L 423.128906 78.734375 C 443.914062 99.496094 454.488281 127.023438 454.449219 154.292969 C 454.488281 181.542969 443.976562 209.140625 423.125 229.976562 L 346.421875 306.679688 C 325.503906 327.617188 297.832031 338.007812 270.679688 338.007812 Z "/>
    <path d="M 163.964844 468.394531 C 136.65625 468.417969 109.273438 457.722656 88.644531 437.070312 L 85.378906 433.808594 C 64.503906 412.953125 54.015625 385.328125 54.054688 358.082031 C 54.019531 330.816406 64.609375 303.300781 85.378906 282.566406 L 162.082031 205.859375 C 182.875 185.039062 210.445312 174.492188 237.707031 174.53125 C 259.078125 174.5 280.636719 180.976562 298.972656 193.804688 C 302.007812 195.347656 304.855469 197.382812 307.394531 199.921875 L 313.324219 205.855469 L 316.589844 209.117188 L 316.585938 209.117188 L 316.589844 209.121094 L 269.808594 255.917969 L 266.535156 252.644531 C 258.484375 244.621094 248.25 240.742188 237.707031 240.703125 C 227.160156 240.742188 216.925781 244.621094 208.875 252.644531 L 132.164062 329.359375 C 124.140625 337.40625 120.261719 347.621094 120.230469 358.082031 C 120.265625 368.710938 124.152344 378.96875 132.164062 387.015625 L 135.433594 390.277344 C 143.488281 398.3125 153.667969 402.1875 163.964844 402.214844 C 174.761719 402.171875 185.058594 398.289062 193.097656 390.277344 L 226.148438 357.222656 C 239.070312 344.308594 260.019531 344.308594 272.933594 357.230469 C 285.855469 370.148438 285.855469 391.09375 272.933594 404.019531 L 239.882812 437.070312 C 218.96875 458.003906 191.289062 468.394531 164.136719 468.394531 Z "/>
  </symbol>

  <symbol id="male_female_user" viewBox="0 0 512 512">
    <path d="M 189.75 361.589844 C 203.910156 347.441406 226.050781 340.644531 245.605469 334.636719 C 247.628906 334.019531 249.628906 333.398438 251.585938 332.773438 C 259.828125 330.207031 266.664062 326.300781 272.121094 321.054688 C 265.585938 318.269531 259.140625 315.542969 252.960938 313.007812 C 248.515625 311.796875 244 310.570312 239.488281 309.328125 C 234.128906 305.648438 228.894531 293.386719 226.015625 287.285156 C 223.136719 286.894531 220.292969 286.46875 217.445312 286.0625 C 217.902344 276.625 223.726562 276.117188 226.015625 268.910156 C 228.042969 262.566406 226.210938 254.292969 229.449219 248.40625 C 231.3125 244.953125 235.203125 244.367188 237.886719 242.179688 C 237.855469 241.6875 237.785156 241.195312 237.753906 240.6875 C 236.9375 230.320312 235.890625 216.488281 239.097656 195.367188 C 239.0625 195.203125 239.0625 195.054688 239.027344 194.890625 C 238.378906 188.90625 240.796875 169.445312 240.894531 165.246094 C 241.121094 154.335938 240.863281 153.441406 238.246094 142.8125 C 238.246094 142.8125 235.011719 133.183594 230.007812 130.273438 L 219.96875 128.539062 L 213.785156 122.800781 C 188.800781 107.449219 162.050781 118.234375 147.691406 124.039062 C 127.058594 130.730469 114.011719 150.949219 123.136719 194.171875 C 124.675781 201.5625 119.050781 204.859375 119.4375 208.886719 C 120.257812 217.683594 120.421875 238.855469 128.726562 244.074219 C 129.511719 244.550781 135.398438 246.03125 135.363281 245.640625 C 136.183594 254.210938 137.003906 262.792969 137.816406 271.359375 C 139.878906 277.054688 144.882812 277.691406 146.320312 285.734375 L 139.980469 287.285156 C 137.097656 293.386719 131.835938 305.648438 126.46875 309.328125 C 121.992188 310.570312 117.480469 311.796875 112.996094 313.007812 C 97.234375 319.480469 87.230469 327.203125 71.46875 333.84375 C 57.113281 339.902344 39.910156 342.0625 34.710938 357.125 C 34.710938 367.359375 33.765625 391.511719 34.023438 404.917969 L 183.566406 404.917969 C 181.804688 397.492188 177.453125 373.910156 189.75 361.589844 M 466.371094 366.898438 C 452.183594 352.691406 428.113281 346.347656 407.574219 339.917969 C 380.464844 331.4375 370.132812 311.289062 367.058594 291.328125 C 370.035156 287.925781 372.941406 284.347656 375.757812 280.601562 C 393.480469 286.273438 414.769531 287.925781 432.953125 274.730469 C 407.902344 249.652344 428.015625 218.90625 409.894531 163.464844 C 394.492188 116.355469 331.378906 118.695312 323.234375 135.238281 C 289.785156 123.40625 264.507812 139.25 255.21875 189.164062 C 244.523438 246.476562 265.257812 252.527344 240.144531 277.609375 C 259.402344 288.597656 277.0625 285.914062 292.367188 279.832031 C 295.375 283.917969 298.550781 287.828125 301.785156 291.507812 C 298.710938 311.40625 288.34375 331.46875 261.335938 339.917969 C 240.796875 346.347656 216.726562 352.691406 202.53125 366.898438 C 191.320312 378.101562 198.773438 404.917969 198.773438 404.917969 L 470.101562 404.917969 C 470.101562 404.917969 477.589844 378.101562 466.371094 366.898438 "/>
  </symbol>

  <symbol id="network-alt" viewBox="0 0 512 512">
    <path d="M 474.097656 148.039062 L 474.097656 38.179688 L 364.222656 38.179688 L 364.222656 77.128906 L 357.523438 77.128906 C 339.796875 77.207031 322.105469 83.277344 306.535156 92.628906 C 290.972656 102.074219 277.398438 114.898438 269.0625 130.5625 L 231.582031 201.789062 C 226.84375 211.007812 217.035156 220.820312 205.421875 227.765625 C 193.847656 234.816406 180.636719 238.933594 170.269531 238.835938 L 147.050781 238.835938 L 147.050781 199.269531 L 37.203125 199.269531 L 37.203125 309.144531 L 147.050781 309.144531 L 147.050781 269.480469 L 170.269531 269.480469 C 180.636719 269.429688 193.847656 273.53125 205.421875 280.566406 C 217.035156 287.53125 226.84375 297.339844 231.582031 306.527344 L 269.0625 377.777344 C 277.398438 393.441406 290.972656 406.257812 306.535156 415.714844 C 322.105469 425.066406 339.796875 431.113281 357.523438 431.214844 L 364.222656 431.214844 L 364.222656 473.460938 L 474.097656 473.460938 L 474.097656 363.585938 L 364.222656 363.585938 L 364.222656 400.539062 L 357.523438 400.539062 C 347.152344 400.605469 333.945312 396.515625 322.367188 389.488281 C 310.753906 382.523438 300.949219 372.710938 296.203125 363.488281 L 258.726562 292.273438 C 254.214844 283.804688 248.132812 276.214844 241.132812 269.480469 L 364.222656 269.480469 L 364.222656 309.144531 L 474.097656 309.144531 L 474.097656 199.269531 L 364.222656 199.269531 L 364.222656 238.835938 L 241.132812 238.835938 C 248.132812 232.132812 254.246094 224.523438 258.726562 216.042969 L 296.203125 144.851562 C 300.949219 135.632812 310.753906 125.820312 322.367188 118.886719 C 333.945312 111.824219 347.152344 107.707031 357.523438 107.800781 L 364.222656 107.800781 L 364.222656 148.039062 Z "/>
  </symbol>

  <symbol id="previous-media" viewBox="0 0 512 512">
    <path d="M 253.007812 256.042969 L 466.789062 131.566406 L 466.789062 380.523438 Z "/>
    <path d="M 42.484375 256.042969 L 256.273438 131.566406 L 256.273438 380.523438 Z "/>
  </symbol>

  <symbol id="print" viewBox="0 0 512 512">
    <path d="M 377.261719 112.40625 L 131.828125 112.40625 L 131.828125 41.945312 L 377.261719 41.945312 Z "/>
    <path d="M 426.789062 189.957031 C 417.394531 189.957031 409.777344 182.335938 409.777344 172.9375 C 409.777344 163.542969 417.394531 155.925781 426.789062 155.925781 C 436.1875 155.925781 443.808594 163.542969 443.808594 172.9375 C 443.808594 182.335938 436.1875 189.957031 426.789062 189.957031 M 451.730469 137.796875 L 57.359375 137.796875 C 45.613281 137.796875 36.085938 147.320312 36.085938 159.070312 L 36.085938 315.570312 L 100.171875 315.570312 L 100.171875 220.566406 L 408.921875 220.566406 L 408.921875 315.570312 L 473.003906 315.570312 L 473.003906 159.070312 C 473.003906 147.320312 463.476562 137.796875 451.730469 137.796875 "/>
    <path d="M 359.113281 256.433594 L 359.113281 444.085938 L 256.40625 444.085938 C 219.207031 444.085938 237.132812 355.910156 237.132812 355.910156 C 237.132812 355.910156 151.132812 376.808594 150.027344 337.375 L 150.027344 256.433594 L 124.988281 256.433594 L 124.988281 370.464844 L 132.320312 377.800781 L 223.644531 469.128906 L 384.152344 469.128906 L 384.152344 256.433594 Z "/>
  </symbol>

  <symbol id="search" viewBox="0 0 512 512">
    <path d="M 206.746094 340.769531 C 134.160156 340.304688 75.476562 280.863281 75.933594 208.269531 C 76.398438 136.140625 135.449219 77.457031 207.5625 77.453125 L 208.441406 77.457031 C 243.605469 77.675781 276.585938 91.578125 301.289062 116.601562 C 325.996094 141.628906 339.480469 174.78125 339.253906 209.957031 C 339.03125 244.96875 325.226562 277.847656 300.386719 302.519531 C 275.550781 327.191406 242.605469 340.773438 207.617188 340.773438 Z M 470.703125 407.90625 L 468.011719 405.214844 L 468.019531 405.214844 L 360.503906 297.691406 C 375.441406 271.957031 384.121094 242.128906 384.324219 210.242188 C 384.949219 112.625 306.335938 33 208.726562 32.382812 C 208.332031 32.382812 207.949219 32.382812 207.558594 32.382812 C 110.496094 32.386719 31.492188 110.773438 30.867188 207.980469 C 30.246094 305.589844 108.863281 385.214844 206.464844 385.839844 C 206.851562 385.839844 207.226562 385.84375 207.617188 385.84375 C 240.0625 385.84375 270.464844 377.054688 296.617188 361.769531 L 404.035156 469.199219 L 404.046875 469.191406 L 406.730469 471.875 C 414.855469 480 428.023438 479.992188 436.144531 471.875 L 470.703125 437.324219 C 478.820312 429.207031 478.824219 416.03125 470.703125 407.90625 "/>
  </symbol>

  <symbol id="sharing" viewBox="0 0 512 512">
    <path d="M 346.023438 368.660156 L 111.128906 368.660156 L 111.128906 204.304688 L 178.003906 204.304688 C 187.730469 193.117188 198.871094 183.4375 211.425781 175.441406 C 214.84375 173.253906 218.308594 171.261719 221.757812 169.410156 L 76.21875 169.410156 L 76.21875 403.554688 L 380.933594 403.554688 L 380.933594 291.03125 L 346.023438 319.839844 Z M 155.929688 327.996094 C 155.929688 327.996094 173 255.414062 307.894531 255.414062 L 307.894531 321.015625 L 436.558594 214.804688 L 307.894531 108.617188 L 307.894531 172.191406 C 285.429688 171.605469 167.195312 175.953125 155.929688 327.996094 "/>
  </symbol>

  <symbol id="stars" viewBox="0 0 512 512">
    <path d="M120.9,254.1l-23.8,74.4H16.7c-3,0-3,0-3,3s0,3,3,6l62.5,47.6l-23.8,71.4c0,3,0,3,3,6c3,0,3,0,6,0l65.5-47.6l62.5,47.6h3h3c3,0,3-3,3-6l-23.8-74.4l56.6-44.7c3-3,3-3,3-6s-3-3-3-3h-80.4l-23.8-74.4c0-3-3-3-3-3S120.9,251.2,120.9,254.1z"/>
    <path d="M251.7,52.5l-23.8,74.4h-80.4c-3,0-3,0-3,3c0,3,0,3,3,6l62.5,47.6l-23.8,71.4c0,3,0,3,3,6c3,0,3,0,6,0l65.5-47.6l62.5,47.6h3h3c3,0,3-3,3-6l-23.8-74.4l56.6-44.7c3-3,3-3,3-6c0-3-3-3-3-3h-80.4l-23.8-74.4c0-3-3-3-3-3S251.7,49.5,251.7,52.5z"/>
    <path d="M382.2,254.1l-23.8,74.4H278c-3,0-3,0-3,3s0,3,3,6l62.5,47.6l-23.8,71.4c0,3,0,3,3,6c3,0,3,0,6,0l65.5-47.6l62.5,47.6h3h3c3,0,3-3,3-6l-23.8-74.4l56.6-44.7c3-3,3-3,3-6s-3-3-3-3h-80.4l-23.8-74.4c0-3-3-3-3-3S382.2,251.2,382.2,254.1z"/>
  </symbol>
</defs>
</svg>
