<?xml version="1.0" standalone="no"?>
<!DOCTYPE svg PUBLIC "-//W3C//DTD SVG 1.1//EN" "http://www.w3.org/Graphics/SVG/1.1/DTD/svg11.dtd" >
<svg xmlns="http://www.w3.org/2000/svg">
<metadata>Generated by IcoMoon</metadata>
<defs>
<font id="fr2_icons" horiz-adv-x="512">
<font-face units-per-em="512" ascent="480" descent="-32" />
<missing-glyph horiz-adv-x="512" />
<glyph unicode="&#x20;" d="" horiz-adv-x="256" />
<glyph unicode="&#xe000;" d="M56.218 379.955l146.859-355.072 41.284 17.067-146.859 355.089-41.284-17.084zM378.726 405.658c0 0-58.641-80.247-145.408 6.519v-0.171c-61.867 63.488-115.627-8.738-115.627-8.738l87.091-209.169c0 0 36.181 102.758 145.425-6.502v0.171c61.884-63.505 115.61 8.738 115.61 8.738l-87.091 209.152z" />
<glyph unicode="&#xe001;" d="M452.54 313.173v0.29l-383.113-0.324c-7.509-1.468-13.21-8.090-13.21-16.026 0 0 5.393-81.852 6.366-111.343 0.99-29.508 3.652-108.629 3.652-108.629 0-9.011 1.86-16.35 10.906-16.35h367.77c9.045 0 10.906 7.339 10.906 16.35 0 0 2.662 79.138 3.635 108.629 1.007 29.508 6.383 111.343 6.383 111.343-0.017 7.971-5.735 14.61-13.295 16.060zM452.54 353.229c0 8.499-6.861 15.377-15.377 15.377h-194.714c-6.076 0.171-10.786 11.213-10.786 15.445v1.792c0 9.045-7.339 16.367-16.367 16.367h-103.612c-9.062 0-16.367-7.322-16.367-16.367v-1.775c0-4.25-4.762-15.445-10.94-15.445h0.171c-8.363-0.171-15.121-6.98-15.121-15.377v-10.633h383.095l0.001 10.616z" />
<glyph unicode="&#xe002;" d="M379.443 191.061v-38.059h73.779v-113.579l-377.856 0.001v113.579h73.83v38.059l-111.854-0.001v-189.662h453.99v189.662h-111.889zM410.897 288.973h-96.393v122.027h-102.741v-122.027h-96.358l147.746-179.029 147.746 179.029z" />
<glyph unicode="&#xe003;" d="M252.45 432.623c-113.118 0-204.8-91.682-204.8-204.8 0-113.101 91.682-204.8 204.8-204.8 113.101 0 204.8 91.699 204.8 204.8 0 113.118-91.699 204.8-204.8 204.8zM252.45 58.368c-93.457 0-169.472 76.015-169.472 169.472s76.015 169.489 169.472 169.489c93.44 0 169.489-76.032 169.489-169.489s-76.049-169.472-169.489-169.472zM207.138 254.857h89.122v-15.104h-89.122zM207.138 220.45h89.122v-15.104h-89.122zM207.138 186.078h89.122v-15.104h-89.122zM277.333 312.934c-0.631 13.466-11.656 24.201-25.258 24.201-13.619 0-24.644-10.735-25.276-24.201h-47.735v-183.603h146.773v183.603h-48.504zM252.075 327.441c8.636-0.017 15.684-7.014 15.684-15.684 0-8.653-7.031-15.65-15.684-15.684-8.67 0.034-15.667 7.031-15.684 15.684 0.016 8.67 7.014 15.667 15.684 15.684zM310.733 144.435h-116.565v153.395h6.963l11.179-19.473h81.852l9.199 19.473h7.373l-0.001-153.395z" />
<glyph unicode="&#xe004;" d="M250.266 84.873l-202.513 172.322v-234.155h405.026v234.155zM454.485 264.96l-202.496 167.68-202.513-167.68z" />
<glyph unicode="&#xe005;" d="M450.27 151.893c1.041 29.508 15.548 81.852 15.548 81.852 0 8.004-5.751 14.609-13.278 16.077v103.441c-0.051 8.499-6.929 15.343-15.394 15.343h-194.697c-6.076 0.154-10.769 11.213-10.769 15.445v1.809c0 9.028-7.322 16.35-16.367 16.35h-103.646c-9.028 0-16.367-7.322-16.367-16.35v-1.792c0-4.267-4.727-15.462-10.871-15.462h0.119c-8.379-0.154-15.104-6.98-15.104-15.394v-103.424c-7.526-1.434-13.227-8.073-13.227-16.043 0 0 13.892-52.941 14.882-82.398 0.973-29.508-4.881-74.206-4.881-74.206 0-9.028 1.894-16.35 10.94-16.35h367.735c9.028 0 10.94 7.322 10.94 16.35-0.016 0.017-6.536 45.295-5.563 74.752zM433.545 250.112h-345.106v84.207h345.122l0.001-84.207z" />
<glyph unicode="&#xe006;" d="M138.513 287.317h245.026v-260.625h-245.026zM395.708 369.783h-53.248v8.722c-0.085 23.228-18.876 57.805-42.103 57.805h-78.66c-23.211 0-42.103-34.56-42.103-57.805v-8.721h-53.248c-10.906 0-19.78-8.875-19.78-19.814v-36.693h308.941v36.693c-0.019 10.939-8.877 19.813-19.799 19.813zM313.771 369.783h-105.506v8.722c0 7.407 6.007 29.133 13.414 29.167h78.66c7.39-0.034 13.414-21.76 13.414-29.167l0.001-8.722z" />
<glyph unicode="&#xe007;" d="M256 480c-141.38 0-256-114.62-256-256s114.62-256 256-256c141.363 0 256 114.637 256 256 0 141.38-114.637 256-256 256zM256 12.151c-116.804 0-211.849 95.028-211.849 211.849 0 116.838 95.045 211.866 211.849 211.866 116.821 0 211.866-95.027 211.866-211.866 0-116.821-95.045-211.849-211.866-211.849zM288.58 168.124c-7.407-8.055-17.681-12.066-30.839-12.066-9.694 0-17.92 1.877-24.678 5.632-6.758 3.738-12.254 8.721-16.452 14.933s-7.253 13.193-9.182 20.975c-1.911 7.782-2.884 15.787-2.884 24.013 0 8.585 0.973 16.913 2.884 24.969 1.929 8.038 4.983 15.206 9.182 21.504 4.215 6.315 9.694 11.366 16.452 15.104s14.985 5.632 24.678 5.632c5.308 0 10.377-0.87 15.241-2.611 4.83-1.741 9.182-4.164 13.005-7.27 3.857-3.123 7.031-6.741 9.609-10.854 2.526-4.096 4.181-8.636 4.915-13.551h41.711c-1.297 11.332-4.403 21.385-9.353 30.174-4.915 8.772-11.179 16.128-18.79 22.067-7.578 5.939-16.179 10.462-25.788 13.568-9.591 3.123-19.797 4.659-30.583 4.659-14.985 0-28.467-2.662-40.448-7.953-11.981-5.308-22.067-12.612-30.31-21.931-8.226-9.335-14.541-20.275-18.927-32.785s-6.588-26.095-6.588-40.721c0-14.268 2.185-27.563 6.588-39.902s10.684-23.108 18.927-32.239 18.33-16.316 30.31-21.521c11.981-5.239 25.463-7.834 40.448-7.834 12.066 0 23.125 1.843 33.195 5.495 10.052 3.652 18.825 8.943 26.317 15.906s13.534 15.36 18.125 25.242c4.574 9.865 7.407 20.941 8.499 33.195h-41.677c-1.657-13.176-6.146-23.775-13.587-31.83z" />
<glyph unicode="&#xe008;" d="M256 480c-141.397 0-256-114.62-256-256s114.603-256 256-256c141.363 0 256 114.637 256 256 0 141.38-114.637 256-256 256zM256 12.151c-116.821 0-211.849 95.028-211.849 211.849 0 116.838 95.028 211.866 211.849 211.866 116.804 0 211.866-95.027 211.866-211.866 0-116.821-95.062-211.849-211.866-211.849zM295.578 202.223h-0.512l-76.373 122.778h-39.987v-183.023h37.683v122.522h0.512l76.117-122.522h40.243v183.023h-37.683v-122.778z" />
<glyph unicode="&#xe009;" d="M256 480c-141.397 0-256-114.62-256-256s114.603-256 256-256c141.363 0 256 114.637 256 256 0 141.38-114.637 256-256 256zM256 12.151c-116.821 0-211.849 95.028-211.849 211.849 0 116.838 95.028 211.866 211.849 211.866 116.804 0 211.866-95.027 211.866-211.866 0-116.821-95.062-211.849-211.866-211.849zM403.849 268.663c-3.721 10.018-8.892 18.364-15.479 25.054-6.622 6.69-14.438 11.708-23.484 15.036-9.028 3.345-18.79 5.018-29.286 5.018h-70.161v-162.679h70.161c12.459 0 23.279 2.082 32.461 6.263 9.199 4.164 16.862 9.916 23.040 17.203 6.127 7.287 10.735 15.957 13.773 25.958 3.038 10.035 4.574 20.975 4.574 32.819-0.019 13.534-1.879 25.293-5.599 35.328zM370.227 207.155c-2.27-6.246-5.308-11.298-9.097-15.155-3.806-3.891-8.141-6.656-13.005-8.311-4.864-1.69-9.865-2.509-15.036-2.509h-31.898v102.537h25.532c8.806 0 16.196-1.246 22.204-3.772 6.007-2.492 10.837-6.11 14.473-10.82 3.652-4.693 6.263-10.359 7.868-16.964 1.604-6.622 2.406-14.012 2.406-22.221 0.001-8.978-1.16-16.573-3.447-22.785zM230.229 297.591c-4.489 4.847-10.291 8.772-17.425 11.742-7.134 2.953-15.804 4.437-25.975 4.437l-73.37 0.001v-162.679h35.772v58.334h37.598c10.172 0 18.842 1.468 25.975 4.437 7.134 2.97 12.937 6.861 17.425 11.742s7.748 10.445 9.796 16.742 3.072 12.715 3.072 19.251c0 6.69-1.024 13.141-3.072 19.371s-5.307 11.758-9.796 16.622zM205.858 249.071c-1.758-3.191-4.062-5.649-6.946-7.407s-6.229-2.935-10.018-3.533c-3.806-0.614-7.748-0.922-11.844-0.922l-27.802 0.001v48.759h27.785c4.113 0 8.055-0.324 11.844-0.922 3.789-0.614 7.134-1.775 10.018-3.533s5.205-4.215 6.946-7.407c1.741-3.209 2.611-7.373 2.611-12.527s-0.853-9.318-2.594-12.509z" />
<glyph unicode="&#xe00a;" d="M256 480c-141.38 0-256-114.62-256-256s114.62-256 256-256c141.363 0 256 114.637 256 256 0 141.38-114.637 256-256 256zM256 12.151c-116.804 0-211.849 95.028-211.849 211.849 0 116.838 95.045 211.866 211.849 211.866 116.821 0 211.866-95.027 211.866-211.866 0-116.821-95.045-211.849-211.866-211.849zM230.246 297.609c-4.489 4.847-10.291 8.772-17.425 11.742-7.134 2.953-15.804 4.437-25.975 4.437h-73.37v-162.697h35.772v58.351h37.598c10.172 0 18.842 1.468 25.975 4.437 7.134 2.97 12.937 6.861 17.425 11.742s7.748 10.445 9.796 16.742 3.072 12.715 3.072 19.251c0 6.69-1.024 13.141-3.072 19.371s-5.324 11.76-9.796 16.624zM205.858 249.071c-1.758-3.191-4.062-5.649-6.946-7.407s-6.229-2.935-10.018-3.533c-3.806-0.614-7.748-0.922-11.844-0.922l-27.802 0.001v48.759h27.785c4.113 0 8.055-0.324 11.844-0.922 3.789-0.614 7.134-1.775 10.018-3.533s5.205-4.215 6.946-7.407c1.741-3.209 2.611-7.373 2.611-12.527s-0.836-9.301-2.594-12.509zM399.991 169.779c-0.375 3.652-0.649 7.219-0.802 10.701-0.154 3.499-0.324 6.537-0.461 9.114-0.307 4.096-0.87 8.192-1.707 12.305s-2.167 7.885-3.977 11.298c-1.826 3.413-4.181 6.383-7.066 8.892s-6.537 4.369-10.94 5.581v0.444c9.114 3.652 15.684 8.96 19.695 15.957 4.028 6.98 6.042 15.275 6.042 24.832 0 6.229-1.109 12.049-3.311 17.425-2.202 5.393-5.376 10.155-9.574 14.251s-9.182 7.322-15.036 9.677c-5.854 2.355-12.425 3.533-19.712 3.533h-87.706v-162.697h35.772v63.59h35.772c8.96 0 15.411-1.98 19.371-5.922 3.942-3.977 6.537-10.206 7.748-18.705 0.905-6.537 1.587-13.363 2.048-20.514 0.444-7.134 1.673-13.278 3.635-18.449h35.789c-1.69 2.287-2.935 5.052-3.772 8.311s-1.449 6.724-1.808 10.376zM358.844 245.658c-4.096-3.652-10.257-5.461-18.449-5.461h-39.185v45.807h39.185c8.192 0 14.353-1.792 18.449-5.359s6.144-9.301 6.144-17.203c0.017-8.21-2.031-14.132-6.144-17.784z" />
<glyph unicode="&#xe00b;" d="M256 480c-141.397 0-256-114.62-256-256s114.603-256 256-256c141.363 0 256 114.637 256 256 0 141.38-114.637 256-256 256zM256 12.151c-116.804 0-211.849 95.028-211.849 211.849 0 116.838 95.045 211.866 211.849 211.866 116.821 0 211.866-95.027 211.866-211.866 0-116.821-95.045-211.849-211.866-211.849zM332.493 163.021c-0.427 4.096-0.734 8.124-0.905 12.049s-0.341 7.356-0.495 10.257c-0.358 4.625-1.007 9.233-1.929 13.841-0.939 4.625-2.441 8.858-4.489 12.715-2.048 3.84-4.693 7.168-7.953 10.001-3.243 2.816-7.356 4.898-12.305 6.263v0.512c10.257 4.096 17.647 10.086 22.17 17.954 4.54 7.851 6.793 17.169 6.793 27.938 0 6.997-1.246 13.534-3.721 19.593-2.492 6.059-6.059 11.418-10.769 16.026-4.693 4.625-10.325 8.243-16.913 10.889s-13.961 3.977-22.17 3.977h-98.679v-183.023h40.243v71.526h40.243c10.086 0 17.34-2.236 21.777-6.673 4.454-4.454 7.356-11.452 8.721-21.026 1.024-7.356 1.792-15.053 2.304-23.074 0.512-8.038 1.877-14.967 4.096-20.77h40.243c-1.877 2.56-3.294 5.683-4.233 9.353-0.903 3.685-1.585 7.576-2.029 11.672zM286.225 248.388c-4.625-4.096-11.537-6.144-20.753-6.144h-44.083v51.524h44.083c9.216 0 16.128-1.997 20.753-6.025s6.912-10.462 6.912-19.354c0.017-9.232-2.287-15.905-6.912-20.001z" />
<glyph unicode="&#xe00c;" d="M256 480c-141.38 0-256-114.62-256-256s114.62-256 256-256c141.363 0 256 114.637 256 256 0 141.38-114.637 256-256 256zM256 12.151c-116.804 0-211.849 95.011-211.849 211.849s95.045 211.866 211.849 211.866c116.804 0 211.866-95.027 211.866-211.866 0-116.838-95.062-211.849-211.866-211.849zM230.434 118.784h45.756v44.885h-45.756v-44.885zM311.177 312.030c-5.649 5.632-13.073 10.342-22.306 14.148s-20.736 5.683-34.543 5.683c-10.684 0-20.361-1.809-29.013-5.393-8.636-3.601-16.026-8.602-22.135-15.019-6.127-6.4-10.889-13.995-14.285-22.733-3.396-8.755-5.188-18.364-5.376-28.86h42.837c0 5.257 0.58 10.155 1.758 14.729 1.161 4.557 2.97 8.533 5.393 11.947 2.423 3.396 5.547 6.11 9.318 8.175 3.789 2.031 8.311 3.055 13.551 3.055 7.765 0 13.841-2.15 18.21-6.417s6.571-10.889 6.571-19.814c0.188-5.257-0.734-9.609-2.782-13.124-2.031-3.499-4.71-6.707-8.004-9.626-3.311-2.918-6.912-5.837-10.786-8.738-3.891-2.918-7.578-6.383-11.059-10.342-3.499-3.977-6.571-8.789-9.182-14.438-2.628-5.649-4.233-12.646-4.813-20.975v-13.141h39.339v11.076c0.785 5.837 2.662 10.701 5.683 14.575 3.021 3.908 6.468 7.356 10.342 10.359s8.038 6.025 12.407 9.028c4.369 3.004 8.346 6.656 11.93 10.94 3.601 4.267 6.605 9.421 9.028 15.445 2.441 6.025 3.652 13.705 3.652 23.023 0 5.632-1.212 11.708-3.652 18.21-2.424 6.519-6.451 12.595-12.083 18.227z" />
<glyph unicode="&#xe00d;" d="M264.158 52.378l-170.667 293.103h341.334z" />
<glyph unicode="&#xe00e;" d="M492.644 114.428c-15.788 15.806-42.594 22.882-65.421 30.036-30.166 9.443-41.674 31.856-45.091 54.082 3.305 3.772 6.551 7.753 9.685 11.938 19.73-6.307 43.401-8.166 63.656 6.533-27.858 27.914-5.481 62.137-25.661 123.84-17.139 52.43-87.365 49.822-96.432 31.407-37.225 13.178-65.346-4.449-75.69-59.996-11.92-63.769 11.17-70.526-16.801-98.442 21.438-12.221 41.092-9.236 58.137-2.459 3.36-4.543 6.87-8.917 10.493-12.99-3.435-22.151-14.98-44.471-45.015-53.875-22.864-7.151-49.651-14.23-65.439-30.036-12.483-12.464-4.186-42.313-4.186-42.313h301.95c-0.037-0.037 8.298 29.791-4.185 42.275zM184.78 120.341c15.75 15.731 40.397 23.296 62.173 29.998 2.252 0.675 4.468 1.37 6.645 2.046 9.161 2.872 16.782 7.228 22.864 13.046-7.284 3.098-14.454 6.139-21.344 8.973-4.957 1.333-9.949 2.723-14.98 4.093-5.969 4.093-11.789 17.74-14.999 24.535-3.209 0.432-6.382 0.901-9.536 1.351 0.489 10.531 6.983 11.075 9.536 19.091 2.252 7.077 0.207 16.275 3.811 22.827 2.083 3.849 6.421 4.487 9.405 6.946-0.055 0.544-0.131 1.089-0.15 1.652-0.919 11.545-2.065 26.939 1.483 50.441-0.037 0.188-0.037 0.356-0.075 0.526-0.732 6.646 1.952 28.327 2.065 33.002 0.262 12.126-0.037 13.141-2.946 24.948 0 0-3.585 10.738-9.161 13.967l-11.188 1.933-6.87 6.402c-27.782 17.025-57.555 5.047-73.531-1.429-22.958-7.433-37.488-29.941-27.332-78.036 1.727-8.222-4.543-11.901-4.112-16.369 0.901-9.78 1.089-33.358 10.344-39.177 0.882-0.507 7.433-2.178 7.396-1.745 0.901-9.536 1.82-19.091 2.741-28.609 2.272-6.346 7.846-7.058 9.462-15.994l-7.058-1.745c-3.21-6.776-9.067-20.443-15.036-24.535-5.012-1.37-10.006-2.741-14.999-4.093-17.552-7.209-28.684-15.806-46.217-23.183-15.994-6.739-35.142-9.141-40.923-25.905 0-11.394-1.052-38.276-0.751-53.2h166.415c-1.953 8.278-6.815 34.522 6.869 48.244z" />
<glyph unicode="&#xe00f;" d="M255.266 439.535c-113.084 0-204.8-91.699-204.8-204.8 0-113.118 91.716-204.8 204.8-204.8 113.118 0 204.8 91.682 204.8 204.8 0 113.101-91.682 204.8-204.8 204.8zM220.809 80.759l-133.683 135.97 34.167 34.867 77.414-60.604c31.539 37.615 101.922 112.538 198.793 171.964l8.192-26.163c-88.986-81.885-161.861-197.102-184.883-256.034z" />
<glyph unicode="&#xe010;" d="M251.392 439.381c-113.118 0-204.834-91.682-204.834-204.834 0-113.101 91.716-204.766 204.834-204.766 113.152 0 204.834 91.665 204.834 204.766 0 113.152-91.682 204.834-204.834 204.834zM243.729 101.427v86.886l-131.311 0.001v92.535h131.311v86.835l161.28-133.103-161.28-133.154z" />
<glyph unicode="&#xe011;" d="M259.533 439.535c-113.101 0-204.8-91.699-204.8-204.817s91.699-204.783 204.8-204.783c113.135 0 204.8 91.665 204.8 204.783s-91.665 204.817-204.8 204.817zM296.363 197.905v-110.37h-73.66v110.37h-110.336v73.66h110.336v110.336h73.66v-110.336h110.37v-73.66h-110.37z" />
<glyph unicode="&#xe012;" d="M255.659 439.381c-113.101 0-204.8-91.682-204.8-204.817 0-113.101 91.699-204.783 204.8-204.783 113.118 0 204.8 91.682 204.8 204.783 0 113.135-91.682 204.817-204.8 204.817zM387.328 155.631l-52.719-52.719-78.95 78.985-78.967-78.985-52.702 52.719 78.95 78.95-78.934 78.985 52.702 52.685 78.967-78.95 78.95 78.95 52.719-52.685-78.985-78.985 78.969-78.95z" />
<glyph unicode="&#xe013;" d="M262.554 413.423l-204.8-353.434h409.6l-204.8 353.434zM262.554 366.711l164.164-283.307-328.329 0.001 164.165 283.306zM243.268 102.963h38.571v37.291h-38.571v-37.291zM242.364 292.42v-48.179l10.718-88.644h19.2l10.445 88.644v48.179h-40.363z" />
<glyph unicode="&#xe014;" d="M260.267 415.164l-204.8-353.399h409.6l-204.8 353.399zM280.917 104.755h-43.281v41.83h43.281v-41.83zM270.199 163.823h-21.572l-11.998 99.499v54.101h45.295v-54.101l-11.725-99.499z" />
<glyph unicode="&#xe015;" d="M466.935 359.495h-428.113l212.919-182.118 215.194 182.118zM251.667 144.465l-218.399 186.814v-246.070h436.906v244.194l-218.507-184.938z" />
<glyph unicode="&#xe016;" d="M251.699 432.623c-113.118 0-204.8-91.682-204.8-204.8 0-113.101 91.682-204.8 204.8-204.8 113.101 0 204.8 91.699 204.8 204.8 0 113.118-91.699 204.8-204.8 204.8zM251.699 58.368c-93.457 0-169.472 76.015-169.472 169.472s76.015 169.489 169.472 169.489c93.44 0 169.489-76.032 169.489-169.489s-76.049-169.472-169.489-169.472zM176.367 331.025v-200.243h149.504v200.243h-149.504zM312.269 147.746h-122.3v166.315h122.3v-166.315zM203.503 303.206h50.432v-58.009h-50.432zM265.335 296.090h35.141v-11.077h-35.141zM265.335 265.387h35.141v-11.060h-35.141zM202.854 232.687h96.837v-11.059h-96.837zM202.854 202.974h96.837v-11.025h-96.837zM202.854 173.295h96.837v-11.025h-96.837z" />
<glyph unicode="&#xe017;" d="M45.466 79.206c0-31.019 25.146-56.166 56.166-56.166s56.166 25.147 56.166 56.166c0 31.019-25.147 56.166-56.166 56.166s-56.166-25.147-56.166-56.166zM316.962 23.040h-79.565c0 106.001-85.931 191.932-191.932 191.932v0 79.582c149.948-0.017 271.497-121.566 271.497-271.514zM373.146 23.040c0 180.975-146.705 327.68-327.68 327.68v81.92c226.219 0 409.6-183.381 409.6-409.6h-81.92z" />
<glyph unicode="&#xe018;" d="M458.837 319.778c-0.529 0.905-9.421 16.401-27.255 32.307-17.732 15.838-45.21 32.341-81.391 32.341-36.215 0.017-63.403-16.555-80.777-32.444-5.359-4.915-9.899-9.779-13.602-14.199-3.84 4.454-8.516 9.37-14.080 14.319-17.715 15.838-45.21 32.341-81.391 32.341-36.215-0.016-63.419-16.571-80.793-32.477-17.476-15.974-25.975-31.522-26.522-32.427l-1.826-7.168v-233.779l28.074-7.185c0.393 0.751 7.919 13.722 21.743 25.873 13.926 12.22 33.365 23.45 59.324 23.467 26.778 0 47.155-12.049 61.525-24.764 7.117-6.332 12.561-12.732 16.145-17.476 1.775-2.372 3.106-4.301 3.942-5.598 0.358-0.546 0.614-0.973 0.802-1.263 2.475-4.779 7.475-8.055 13.244-8.055 5.888 0 10.957 3.379 13.397 8.311 1.451 2.492 8.823 14.268 21.47 25.378 13.909 12.22 33.348 23.45 59.324 23.467 26.778 0 47.155-12.049 61.525-24.764 7.1-6.332 12.544-12.732 16.128-17.476 1.792-2.372 3.123-4.301 3.977-5.598 0.41-0.649 0.717-1.143 0.905-1.451 0.085-0.137 0.154-0.239 0.188-0.29l0.034 0.017 27.853 7.407v233.779l-1.963 7.407zM241.067 118.886c-17.749 15.65-44.971 31.761-80.742 31.761h-0.035c-35.14 0-61.781-15.599-79.189-31.044v188.587c3.038 4.642 9.779 13.978 19.9 22.869 13.926 12.237 33.365 23.467 59.324 23.467 26.778 0 47.155-12.032 61.525-24.747 7.117-6.349 12.561-12.749 16.145-17.476 1.246-1.673 2.27-3.123 3.072-4.284v-189.133zM430.916 118.903c-17.749 15.65-44.988 31.744-80.725 31.744-35.174 0.017-61.815-15.616-79.223-31.078l-0.001 188.604c3.038 4.659 9.762 13.978 19.9 22.886 13.909 12.237 33.348 23.467 59.324 23.467 26.778 0 47.155-12.032 61.525-24.747 7.1-6.349 12.544-12.749 16.128-17.476 1.246-1.655 2.27-3.106 3.072-4.267v-189.133zM98.987 293.837l12.271-16.077 1.604-2.253c0.768 0.512 16.93 11.93 49.562 11.947 17.425 0 30.362-3.26 38.844-6.4 4.233-1.57 7.356-3.123 9.318-4.198 0.99-0.546 1.69-0.973 2.082-1.229 0.205-0.119 0.324-0.205 0.393-0.256h0.017l0.034-0.034 3.669 5.239 9.762 13.431c-1.348 1.007-23.398 16.452-64.119 16.435-40.739 0.018-62.021-15.479-63.437-16.605zM112.845 225.792c0.768 0.495 16.93 11.913 49.545 11.93 17.425 0 30.379-3.26 38.861-6.4 4.233-1.57 7.356-3.123 9.318-4.198 0.99-0.529 1.69-0.973 2.082-1.212 0.205-0.137 0.341-0.222 0.393-0.273 0.034 0 0.034-0.017 0.034-0.017l3.618 5.12 9.83 13.534v0.017c-1.365 1.007-23.398 16.452-64.137 16.435-40.704-0.001-61.986-15.497-63.402-16.606l13.943-18.278-1.707 2.202 1.622-2.254zM98.987 194.406l12.271-16.128 1.604-2.236 0.085 0.051c1.382 0.939 17.527 11.878 49.476 11.895 17.442 0 30.362-3.26 38.844-6.417 4.233-1.57 7.356-3.106 9.318-4.181 0.99-0.529 1.69-0.973 2.082-1.212 0.205-0.137 0.324-0.222 0.393-0.273h0.017l0.034-0.017 3.721 5.274 9.711 13.38c-1.365 1.024-23.398 16.452-64.119 16.452-40.739 0.018-62.021-15.478-63.437-16.588zM404.224 275.337l3.806 5.393-3.891-5.325c0.051-0.034 0.068-0.068 0.085-0.068zM302.37 277.743l1.621-2.253c0.751 0.512 16.913 11.93 49.545 11.947 17.425 0 30.379-3.26 38.844-6.4 4.233-1.57 7.356-3.123 9.318-4.198 0.99-0.546 1.69-0.973 2.099-1.229 0.154-0.085 0.273-0.171 0.324-0.222l13.534 18.603c-1.365 1.007-23.398 16.452-64.137 16.435-40.738 0.034-62.020-15.462-63.42-16.606l13.926-18.278-1.654 2.201zM303.974 225.792c0.751 0.495 16.913 11.913 49.545 11.93 17.425 0 30.379-3.26 38.844-6.4 4.233-1.57 7.356-3.123 9.318-4.198 0.99-0.529 1.69-0.973 2.099-1.212 0.171-0.119 0.29-0.188 0.358-0.239 0.034-0.034 0.051-0.051 0.068-0.051l3.652 5.188 9.796 13.466v0.017c-1.365 1.007-23.398 16.452-64.137 16.435-40.738 0.017-62.020-15.479-63.42-16.606l13.926-18.278-1.69 2.202 1.641-2.254zM290.116 194.406l12.288-16.128 1.587-2.219c0.017 0.017 0.034 0.034 0.068 0.051 1.382 0.939 17.545 11.878 49.476 11.895 17.425 0 30.379-3.26 38.844-6.417 4.233-1.57 7.356-3.106 9.318-4.181 0.99-0.529 1.69-0.973 2.099-1.212 0.188-0.137 0.307-0.222 0.375-0.273v0l0.034-0.017 3.721 5.274 9.728 13.38c-1.365 1.024-23.415 16.452-64.137 16.452-40.719 0.001-62.001-15.495-63.401-16.605z" />
<glyph unicode="&#xe019;" d="M306.91 67.004c-0.836 3.772-1.417 7.475-1.894 10.991h-98.031c-0.905-7.049-2.458-15.002-5.171-22.34-2.765-7.39-6.656-14.080-11.947-18.807-5.308-4.693-11.878-7.663-21.094-7.697v-8.772h174.507v8.772c-9.199 0.034-15.838 3.004-21.129 7.714-7.937 7.030-12.732 18.704-15.241 30.139zM449.143 427.639h-386.286c-6.418 0-11.657-5.205-11.657-11.656v-305.698c0-6.434 5.239-11.674 11.657-11.674h386.304c6.417 0 11.657 5.239 11.657 11.674l-0.001 305.698c-0.017 6.451-5.256 11.656-11.674 11.656zM432.521 178.79h-353.007v220.553h353.007v-220.553z" />
<glyph unicode="&#xe600;" d="M367.257 177.382c-1.623-4.944-4.538-9.815-8.774-14.56-4.195-4.709-9.887-8.94-16.999-12.666-7.112-3.689-16.221-5.931-27.331-6.671v-18.863h-13.104v18.863c-16.594 1.218-29.567 6.331-38.88 15.308-9.35 9.074-14.734 22.315-16.221 39.791h31.324c-0.134-8.43 2.067-15.075 6.671-19.979 4.611-4.875 10.295-7.993 17.108-9.349v46.47c-0.716 0.263-1.764 0.603-3.018 0.974-1.25 0.376-2.61 0.716-4.098 1.019-5.486 1.493-10.87 3.221-16.221 5.215-5.315 1.999-10.094 4.641-14.325 7.994-4.199 3.353-7.584 7.483-10.126 12.459-2.504 4.944-3.762 11.109-3.762 18.561 0 7.517 1.459 14.224 4.373 19.984 2.843 5.752 6.671 10.632 11.412 14.56 4.741 3.863 10.226 6.946 16.428 9.074 6.226 2.136 12.666 3.459 19.337 3.928v17.104h13.104v-17.104c6.671-0.739 12.937-2.196 18.762-4.329 5.894-2.173 11.007-5.149 15.445-8.945 4.466-3.758 8.091-8.435 10.906-14.053 2.807-5.655 4.434-12.33 4.875-20.021h-31.531c-0.17 5.935-2.002 10.979-5.554 15.11-3.555 4.167-7.856 6.23-12.904 6.23v-39.355c1.796-0.4 3.592-0.877 5.454-1.286 1.829-0.469 3.79-0.98 5.862-1.557 10.971-3.013 19.438-6.667 25.365-11.002 5.89-4.401 10.291-8.941 13.104-13.718 2.815-4.704 4.471-9.447 4.981-14.188 0.51-4.745 0.813-8.977 0.813-12.671 0-3.249-0.846-7.342-2.473-12.327zM307.446 353.723c-69.698 0-126.185-56.483-126.185-126.214 0-69.67 56.486-126.225 126.185-126.225 69.702 0 126.226 56.555 126.226 126.225 0 69.731-56.523 126.214-126.226 126.214zM307.446 73.31c-85.034 0-154.191 69.157-154.191 154.2 0 85.039 69.157 154.192 154.191 154.192 85.043 0 154.2-69.152 154.2-154.192 0-85.043-69.157-154.2-154.2-154.2zM307.446 407.576c-46.264 0-88.462-17.509-120.359-46.227-27.368-0.591-52.934-3.334-75.152-7.69-25.434-4.971-46.462-12.12-60.144-19.806-9.147-5.122-14.701-10.433-16.699-13.957-1.117-1.829-1.355-3.047-1.419-3.997 0.065-1.048 0.303-2.2 1.419-4.098 1.153-1.962 3.419-4.571 6.873-7.387 7.011-5.655 18.831-11.816 34.075-16.966 15.915-5.481 35.592-9.92 57.639-12.896-2.743-10.13-4.605-20.591-5.554-31.295-7.657 1.084-15.143 2.269-22.286 3.657-27.768 5.489-51.441 13.176-69.561 23.298-0.877 0.51-1.727 1.052-2.605 1.53v-28.149c0-1.048 0.235-2.265 1.419-4.264 1.153-1.994 3.419-4.605 6.873-7.418 7.011-5.651 18.831-11.817 34.075-16.966 14.863-5.113 32.913-9.276 53.137-12.253 1.554-11.453 4.232-22.493 7.819-33.128-10.838 1.319-21.267 2.95-31.158 4.843-27.768 5.486-51.441 13.176-69.561 23.305-1.254 0.74-2.44 1.423-3.657 2.165v-24.382c0-1.257 0.303-2.682 1.562-4.778 1.251-2.136 3.584-4.875 7.139-7.719 7.112-5.757 19.029-11.959 34.341-17.14 21.272-7.281 49.006-12.763 80.233-15.483 7.245-11.307 15.712-21.736 25.264-31.149-27.027 0.882-52.462 3.689-75.115 8.159-27.671 5.457-51.243 13.104-69.225 23.165-1.084 0.611-2.133 1.218-3.148 1.865v-27.161c0-1.12 0.235-2.269 1.419-4.308 1.153-1.958 3.419-4.571 6.873-7.411 7.011-5.692 18.831-11.82 34.075-16.999 30.51-10.4 74.537-17.238 123.136-17.204 13.783 0 27.165 0.57 39.965 1.623 21.069-8.669 44.128-13.475 68.306-13.475 99.437 0 180.042 80.601 180.042 180.038 0 99.397-80.606 180.067-180.042 180.067zM332.713 204.041c-3.625 2.877-9.822 5.486-18.56 7.885v-42.671c2.678 0.303 5.454 0.911 8.334 1.897 2.909 0.979 5.481 2.339 7.788 4.13 2.306 1.764 4.166 3.965 5.692 6.537 1.457 2.605 2.2 5.692 2.2 9.211 0 5.793-1.829 10.126-5.454 13.010zM287.295 278.952c-1.926-1.557-3.455-3.488-4.567-5.825-1.12-2.269-1.662-4.976-1.662-8.095 0-4.875 1.521-8.666 4.673-11.307 3.083-2.682 8.195-4.815 15.312-6.473v36.234c-2.509 0-4.981-0.363-7.32-1.117-2.404-0.712-4.538-1.929-6.435-3.418z" />
<glyph unicode="&#xe601;" d="M433.101 3.344c-0.477 85.994-23.654 147.795-57.163 190.225-34.173 43.185-79.419 66.774-124.409 74.529-65.621 11.315-100.153 28.824-119.054 45.491-10.312 10.409-14.952 39.451-14.952 39.451s27.703-17.085 38.849-23.241c13.984-9.547 44.847-25.058 99.845-34.483 51.138-8.75 102.818-35.826 141.38-84.623 6.974-8.803 13.496-18.339 19.507-28.553 45.455 99.562-53.072 176.094-164.24 190.791-122.1 16.121-180.653 53.728-180.653 53.728-11.703-118.184 31.243-246.496 132.531-288.301 72.874-30.11 130.161-36.175 170.382-9.065 16.526-35.495 26.651-76.471 26.683-124.389v-1.69z" />
<glyph unicode="&#xe602;" d="M433.755 183.294c-3.641 3.167-7.938 7.407-10.524 11.506-2.765 4.366-1.062 8.863-0.861 13.865 0.171 4.21-1.885 10.198-0.094 13.983 0.819 1.73 2.7 2.303 3.474 3.72 1.647 3.004 1.281 5.030 3.303 7.612 2.169 2.773 5.082 3.451 7.494 5.624 2.529 2.279 2.462 4.077 4.062 6.998 1.173 2.131 3.925 5.692 6.535 7.552 1.411-9.265 2.15-18.755 2.15-28.41 0-16.703-2.223-32.893-6.337-48.321-3.512 0.906-6.399 3.433-9.201 5.871zM431.332 280.49c0.349 0.744 1.161 0.99 1.502 1.608 0.706 1.29 0.546 2.166 1.422 3.276 0.933 1.198 2.192 1.491 3.231 2.427 0.421 0.379 0.656 0.728 0.849 1.085 3.125-8.73 5.617-17.75 7.43-27.014-0.053-0.065-0.087-0.167-0.152-0.224-0.459-0.357-3.429-0.8-4.039-0.819-2.15-0.084-3.751 1.342-5.295 2.685-1.57 1.365-3.421 3.194-4.536 4.961-1.195 1.889-0.459 3.826-0.372 5.984 0.067 1.813-0.812 4.395-0.041 6.030zM397.024 354.916c-7.304-0.22-12.39-0.235-18.257-4.286-2.363-1.631-3.971-3.796-6.971-4.642-2.688-0.755-5.594-0.091-8.264-0.998-9.633-3.265-8.104-23.896-20.795-20.779-5.962 1.459-10.164 8.507-13.164 13.107-2.643 4.047-7.457 7.397-4.206 12.459-1.478-0.383-3.065 0.053-4.524-0.228 2.037 4.468 8.853 4.078 9.986 6.357 2.825 5.719-7.775 6.318-10.778 7.111 3.618 3.857 5.45-1.298 9.022-0.421 3.433 0.842-1.813 5.362-3.872 5.871-0.736 0.182-12.826-3.341-5.829 2.921-8.635 5.507-17.272 11.010-25.911 16.521-1.453-6.126 11.499-9.607 15.728-11.769-0.656-2.526-4.593-6.213-7.603-5.132-2.837 1.017-1.683 5.719-5.97 5.249-3.061-7.115 6.466-5.036 7.349-9.394 1.009-4.964-3.599-2.864-5.37-2.776-0.425 0.022-3.724 3.439-3.906 0.853-0.212-3.072 5.272-1.877 5.659-4.98-6.387-0.257-9.649 2.048-14.845 5.498-6.068 4.029-9.183 3.663-16.615 3.663 2.223 0.913 5.288 1.593 7.187 3.061 1.039 0.803 5.113 4.763 5.382 5.65 1.149 3.813-0.065 3.523-3.712 6.023-3.243 2.219-7.179 6.205-11.108 6.99-14.245 2.845-4.396-12.861-15.208-15.026 0.185-0.008 0.387-0.019 0.546-0.019h-0.618c0.023 0.003 0.046 0.011 0.071 0.019-2.499 0.091-7.187 0.698-8.803-0.622-1.137-0.93-1.232-4.661-2.503-6.011-2.264-2.412-5.635-2.897-8.339-4.634-2.636-1.699-8.447-6.060-9.993-9.019-5.708-10.904 12.857-14.286 19.892-17.473 3.178-1.441 12.47-3.413 14.202-5.817 2.321-3.231-2.002-6.262 2.845-8.534 1.547-0.72 4.741-0.868 6.077 0.63 2.166 2.439-0.88 2.993-1.399 5.814-1.005 5.427 0.652 3.274 3.379 5.287 5.567 4.112 4.317 4.361 2.313 10.907-0.933 3.049-4.437 11.557-1.354 13.805 4.024 2.939 12.603-1.589 15.69-1.969 3.592-0.44 5.628-5.416 7.585-7.448 1.298-1.35 3.622-4.217 5.894-3.906 3.603 0.494 2.097 3.641 4.183 5.094 5.609 3.891 7.084-1.392 9.322-6.674 2.101-4.96 4.088-6.805 7.832-9.986 1.738-1.483 9.352-6.774 8.635-10.031-0.489-2.196-9.19-5.526-11.514-6.265-8.503-2.688-24.455 4.411-26.169-9.072 3.3 1.229 12.682 8.894 15.5 5.26 1.281-1.649-1.021-4.050-0.478-5.689 1.604-4.907 5.389-3.197 9.36-2.405-0.27-0.167-0.546-0.315-0.842-0.445 5.424 2.788 4.863 2.203 7.349 6.725 0.812 1.478 2.022 5.052 3.167 6.11 3.944 3.625 4.551 1.13 6.99-1.669 0.64-0.736 6.679-9.431 4.533-9-7.024 1.411-13.767 1.221-19.593-2.621-3.357-2.215-6.535-5.207-10.543-6.679-0.959-0.352-8.075-1.028-7.233 0.185 1.229 1.771 5.454 2.943 7.118 4.851-4.62 1.901-8.473-2.298-12.106-4.757-3.853-1.824-4.748-5.222-8.029-8.2-1.434-1.298-4.142-1.518-5.545-3.227-1.365-1.657-1.536-4.267-2.829-5.84-0.906-1.104-3.231-0.437-4.179-2.097-1.232-2.173 1.13-4.187 0.611-5.753-0.945-2.841-6.352-5.249-8.43-7.297 0.281 0.27 0.557 0.543 0.827 0.819-2.082-2.181-4.718-3.789-6.346-6.318 0.747-3.573 3.098-12.087 2.442-14.043-2.166-6.447-6.371 3.505-8.078 6.077-5.863 8.832-17.583 2.921-25.584 2.188-10.24-0.936-20.267-14.223-13.953-25.009 3.033-5.173 8.131-7.171 13.983-5.977 5.203 1.065 6.766 8.351 11.67 8.481 9.008 0.243 0.197-8.826-0.581-12.155-0.72-3.084 1.123-3.368 4.298-4.13 2.344-0.562 5.662 1.001 7.691-0.337 1.281-0.846 1.218-5.469 2.981-4.009-3.466-2.875-2.659-9.683 0.895-12.144 3.936-2.735 8.579-0.202 12.701-1.252 7.783-1.987 4.065 0.591 10.904 4.721 4.615 2.779 5.375-0.527 8.526-0.538 2.147-0.008 3.512 3.087 7.099 2.185 2.928-0.736 4.086-2.997 7.577-3.512 1.43-0.212 2.909 0.535 4.274 0.387 6.459-0.717 11.408-4.846 16.497-8.579 4.195-3.072 6.974-2.45 11.875-3.849 3.58-1.021 10.187-6.201 9.849-10.752-0.061-0.812-3.19-4.904-3.724-6.747 0.913-0.637 7.286 0.789 9.151 0.925-0.614-0.713-4.952-3.766-4.952-2.147 0-0.827 3.072-2.529 3.819-3.065 2.264 7.349 5.981 2.621 10.456 0.8 3.8-1.547 8.483-1.631 12.543-2.598 3.443-0.819 11.041-3.144 13.589-5.959 3.075-3.387 0.949-8.89-1.323-12.262-2.974-4.418-7.457-6.118-9.311-11.313-1.464-4.123-0.363-8.287-1.202-12.853-1.135-6.182-2.040-4.017-6.023-7.786-3.349-3.178-0.057-2.625-4.615-4.65-4.585-2.037-8.616-1.43-11.787-6.459 0.125 0.318 0.228 0.637 0.318 0.963-1.339-1.87-2.010-5.707-2.643-6.963-1.601-3.212-3.805-5.241-6.334-7.916-0.971-1.024-9.884-13.199-10.396-12.221-0.663 1.271-7.688-1.279-8.025 0.535 0.281-1.521-0.067-1.012 1.68-1.893-1.62-10.005-5.848-11.495-15.675-11.598 0.846-4.809-3.561-3.849-5.609-6.435-1.195-1.51-1.767-5.753-2.594-7.711-0.52-1.226-4.358-6.147-4.358-7.123-0.003-0.899 1.289-2.215 2.503-3.474-6.925-1.368-13.991-2.325-21.163-2.909 1.342 1.691 1.664 3.178-2.613 3.383 1.146 3.11 3.834 4.885 4.973 7.896 0.543 1.418 0.094 1.983 0.55 3.39 1.567 4.863 0.887 3.031 0.003 6.805-2.063 8.848 0.736 11.272 3.147 19.373 2.476 8.329 2.245 19.126 3.834 28.091 0.75 4.298 1.987 13.225 0.497 17.283-1.68 4.57-9.069 8.168-12.455 11.241-4.789 4.361-7.335 9.079-10.892 14.476-1.809 2.738-3.865 5.427-5.275 8.408-3.011 6.372 0.003 2.579 0.512 6.337 0.486 3.633-0.437 6.88 1.009 10.692 1.593 4.217 5.579 6.842 6.884 11.094 1.179 3.786 0.284 8.541-3.603 9.803-2.169 0.706-4.559-0.921-6.731-0.565-3.038 0.493-6.474 2.757-8.856 4.57-3.327 2.534-4.571 6.648-8.113 9.048-2.962 2.007-5.071 0.803-8.245 1.74-3.304 0.979-5.349 5.055-8.013 6.334-4.005 1.914-6.262-0.834-10.487-0.281-3.595 0.474-9.076 4.457-12.432 5.962-6.831 3.057-10.99 6.428-13.718 13.358-2.339 5.946-5.75 8.715-9.762 13.669-4.065 5.014-5.344 9.288-11.613 10.623-0.736 0.159 1.536-5.264 1.771-5.701 2.238-4.145 5.601-7.938 8.31-11.799 3.982-5.689 2.283-6.755-1.764-1.255-4.634 6.292-10.009 12.554-14.025 19.214-1.518 2.522-1.226 4.149-3.728 6.543-2.423 2.31-5.59 3.437-8.025 5.632-8.768 7.885-10.366 18.413-9.363 29.654 0.322 3.663 1.649 6.595 1.062 10.119-0.477 2.925-2.207 5.344-4.361 7.498-0.698 1.103-2.442 3.834-2.545 4.008-1.991 3.304-3.538 6.557-6.701 9.269-1.813 1.563-6.508 5.215-10.926 8.275 19.858 24.766 45.84 44.397 75.65 56.582 0.239-1.495 0.883-2.993 1.847-4.422 2.45-3.637 4.786-3.349 9.569-4.358-0.508-5.553-7-5.594-11.397-4.991-5.242 0.717-10.76 2.462-15.303-2.139 2.511-1.505 9.394-7.38 8.483-1.245 5.022 0.255 9.875 0.401 14.794-0.197 1.969-0.243 8.564-2.457 10.353-1.445 0.75 0.421 1.551 4.123 2.344 5.264-1.399-0.008-2.901 0.698-4.298 0.565 3.254 4.167 6.496 0.899 10.639-1.017-4.559-2.773-1.855-9.413 2.605-4.020 3.66 4.437-0.899 7.657-5.548 10.24 4.688 5.867 7.582 6.399 11.992-0.224 0.728 4.086 4.020 2.447 7.467 2.147v1.021c-1.518-0.035-3.137 0.838-4.634 0.679 3.507 5.598 1.266 6.875 6.28 8.704 3.998 1.453 15.391 0.103 16.793 3.853-7.976-1.551-17.609-1.919-24.804-5.544-3.098-1.567-6.797-6.501-9.891-3.288-3.178 3.288 2.268 8.579 5.055 10.195h-0.667c12.618 2.681 25.684 4.123 39.091 4.123 8.663 0 17.176-0.641 25.531-1.783-2.894-1.521-0.75-2.545-2.86-4.096-4.024-2.959-11.161-5.427-15.949-7.297 6.083 0.016 20.81-5.703 23.647 2.83-1.964 0.299-3.925 0.603-5.887 0.906 3.663 2.431 7.755 4.4 12.049 5.841 38.745-7.676 73.205-27.33 99.423-54.905-0.185 0.003-0.372 0.011-0.553 0.003zM261.622 437.728c-117.078 0-211.983-94.91-211.983-211.984s94.906-211.979 211.983-211.979c117.074 0 211.983 94.906 211.983 211.979s-94.909 211.983-211.983 211.983zM340.928 172.587c-0.509 0.079-1.639-0.067-2.086 0.257-0.277-0.952 0.139-1.312 2.086-0.257zM338.842 172.845c0.003 0 0.003 0.003 0.003 0.008-0.011 0.003-0.049 0.003-0.057 0.019 0.011-0.015 0.041-0.015 0.053-0.026zM257.426 261.748c0.019 0.035 0.053 0.065 0.075 0.103-0.087 0.417-0.159 0.781-0.19 1.042 0.038-0.379 0.079-0.762 0.114-1.146z" />
<glyph unicode="&#xe603;" d="M162.733 388.099l-2.791-2.135 0.023-0.031zM114.325 409.623c13.198 0.034 24.629-5.678 32.966-11.833 4.145-3.053 7.438-6.152 9.618-8.423 1.091-1.13 1.911-2.056 2.423-2.662 0.262-0.3 0.44-0.524 0.538-0.653 0.038-0.041 0.057-0.067 0.071-0.087l19.293 14.794c-0.466 0.591-6.535 8.481-17.506 16.589-10.926 8.056-27.125 16.566-47.403 16.585-20.298 0.084-43.445-8.962-66.302-31.979l17.195-17.188c19.76 19.623 35.931 24.781 49.106 24.857zM196.912 382.026l-2.768-2.162 2.795 2.135c-0.008 0.003-0.026 0.026-0.026 0.026zM195.15 350.613c10.926-8.055 27.12-16.555 47.4-16.582h0.273c20.237 0 43.27 9.072 66.030 31.973l-17.181 17.192c-19.775-19.615-35.951-24.769-49.121-24.853-13.191-0.034-24.625 5.678-32.97 11.833-4.138 3.053-7.422 6.152-9.607 8.416-1.091 1.138-1.911 2.059-2.423 2.666-0.262 0.299-0.44 0.52-0.543 0.652-0.038 0.049-0.057 0.067-0.067 0.091l-19.293-14.799c0.466-0.591 6.535-8.483 17.503-16.589zM376.584 409.623c13.199 0.034 24.63-5.673 32.966-11.833 4.142-3.053 7.433-6.152 9.615-8.419 1.091-1.13 1.911-2.059 2.423-2.666 0.257-0.3 0.44-0.524 0.546-0.652 0.026-0.035 0.049-0.065 0.067-0.084l-0.008-0.003 0.034-0.027 2.499 1.965 16.763 12.853c-0.463 0.591-6.538 8.484-17.507 16.6-10.926 8.052-27.118 16.551-47.399 16.577-20.298 0.088-43.445-8.962-66.305-31.975l17.203-17.192c19.748 19.623 35.927 24.781 49.103 24.857zM398.805 372.721v-175.752l-91.049 48.606v-59.024l-128.167 59.024v-63.784l-138.506 63.785v-235.66h421.964v362.807z" />
<glyph unicode="&#xe604;" d="M355.235 50.927c-19.687 0-35.663 15.958-35.663 35.649 0 19.695 15.976 35.663 35.663 35.663 19.695 0 35.668-15.967 35.668-35.663 0-19.69-15.971-35.649-35.668-35.649zM286.534 124.048c-12.387 0-22.425 10.021-22.425 22.425 0 12.39 10.038 22.411 22.425 22.411 12.373 0 22.43-10.021 22.43-22.411 0-12.406-10.058-22.425-22.43-22.425zM247.152 218.221l-87.352-141.918-30.020 18.485 86.897 141.15c11.309 20.299 21.923 61.917 21.615 84.898v48.707h35.257v-48.707c-0.285-31.782-11.152-74.202-26.162-102.262zM435.274 95.519l-0.231 0.441-0.267 0.441-83.928 141.066c-10.757 19.925-20.156 56.785-20.156 79.227v65.161h17.707v35.257h-176.463v-35.257h20.677v-65.161c0-22.389-9.344-59.101-20.096-79.072l-87.43-142.106c-11.41-20.827-12.064-42.709-1.814-60.067 10.293-17.307 29.79-27.257 53.522-27.257h246.766c23.737 0 43.234 9.952 53.526 27.257 10.247 17.358 9.592 39.238-1.814 60.067z" />
<glyph unicode="&#xe605;" d="M347.543 410c0 12.974-10.478 23.476-23.435 23.476h-142.333c-12.959 0-23.469-10.502-23.469-23.476v-62.134h189.235zM332.271 136.142h-53.627v-53.642h-51.367v53.642h-53.665v51.37h53.665v53.642h51.367v-53.642h53.627zM358.911 254.978l-14.476 30.356c-2.476 5.272-9.56 21.357-16.957 38.324h-149.069c-7.397-16.968-14.476-33.052-16.953-38.324l-14.48-30.356c-6.004-12.603-10.922-34.353-10.922-48.337v-176.056c0-12.967 10.51-23.461 23.465-23.461h186.82c12.982 0 23.465 10.495 23.465 23.461v176.056c0 13.983-4.889 35.734-10.892 48.337z" />
<glyph unicode="&#xe606;" d="M277.18 177.176v111.392c0 9.36-7.546 16.923-16.906 16.923-9.355 0-16.941-7.563-16.941-16.923v-111.392c-23.95-7.262-41.4-29.494-41.4-55.811 0-32.225 26.115-58.345 58.341-58.345 32.221 0 58.324 26.12 58.324 58.345 0 26.317-17.433 48.55-41.416 55.811zM260.274 31.127c-49.835 0-90.221 40.389-90.221 90.238 0 33.978 18.8 63.579 46.542 78.967v168.847c0 24.13 19.565 43.691 43.679 43.691 24.13 0 43.673-19.561 43.673-43.691v-168.881c27.759-15.392 46.543-44.955 46.543-78.933 0-49.847-40.365-90.238-90.216-90.238zM337.833 218.231v150.947c0 42.771-34.788 77.565-77.56 77.565-42.754 0-77.526-34.794-77.526-77.565v-150.947c-29.131-23.32-46.565-58.863-46.565-96.865 0-68.438 55.669-124.108 124.090-124.108s124.086 55.67 124.086 124.108c0 38.004-17.411 73.547-46.526 96.865z" />
<glyph unicode="&#xe607;" d="M413.483 180.24c-15.902 0-30.481-5.905-41.563-15.614l-56.514 32.37c0.224 2.059 0.383 4.171 0.383 6.299 0 5.461-0.827 10.737-2.348 15.686l33.875 19.634c9.239-9.637 22.224-15.698 36.64-15.698 28.005 0 50.703 22.698 50.703 50.719 0 27.986-22.699 50.691-50.703 50.691-28.034 0-50.707-22.707-50.707-50.691 0-5.002 0.728-9.796 2.094-14.367l-34.005-19.683c-4.983 5.253-10.983 9.488-17.776 12.349v62.597c24.796 8.536 42.635 32.051 42.635 59.737 0 34.888-28.315 63.189-63.215 63.189-34.862 0-63.15-28.3-63.15-63.189 0-27.686 17.814-51.2 42.579-59.726v-62.608c-6.35-2.696-12.098-6.607-16.858-11.446l-33.181 19c1.271 4.49 2.032 9.242 2.032 14.146 0 27.986-22.732 50.691-50.707 50.691-28.005 0-50.703-22.707-50.703-50.691 0-28.019 22.698-50.719 50.703-50.719 14.483 0 27.53 6.129 36.769 15.875l32.48-18.611c-1.744-5.298-2.731-10.983-2.731-16.888 0-2.226 0.125-4.399 0.41-6.543l-55.148-31.938c-11.078 9.618-25.524 15.425-41.339 15.425-34.892 0-63.181-28.255-63.181-63.161 0-34.914 28.289-63.17 63.181-63.17 34.895 0 63.185 28.255 63.185 63.169 0 4.138-0.445 8.203-1.175 12.128l55.088 31.922c6.193-4.664 13.399-8.002 21.273-9.591v-35.108c-22.194-5.375-38.733-25.327-38.733-49.216 0-28.008 22.698-50.703 50.703-50.703s50.673 22.694 50.673 50.703c0 23.89-16.51 43.842-38.733 49.216v35.809c6.793 1.775 13.085 4.889 18.542 9.048l56.483-32.355c-0.731-3.857-1.111-7.813-1.111-11.855 0-34.914 28.289-63.169 63.15-63.169 34.892 0 63.185 28.255 63.185 63.169 0 34.907-28.293 63.161-63.185 63.161z" />
<glyph unicode="&#xe608;" d="M469.051 224.5c-0.020 120.031-96.84 217.652-217.012 218.531-0.656 0.008-1.203 0.008-1.574 0.008-61.855 0.012-117.969-25.852-157.691-67.277l-31.879 32.547-20-132.691 130.754 20-32.355 33.023c27.891 29.734 67.273 48.215 111.172 48.227 0.406 0 0.629 0 0.723-0.008h0.277c83.816-0.508 151.435-68.676 151.41-152.359 0.004-0.102-0.004-0.508 0.004-1.203-0.625-83.711-68.754-151.223-152.359-151.203-0.27-0.004-0.711 0-1.312 0l0.207-66.176c0.195 0.004 0.566 0.004 1.105 0 120.078 0.023 217.738 96.922 218.531 217.168v0.359l-0.004 0.434c-0.001 0.112 0.003 0.315 0.003 0.62zM251.887 443.035c0.051 0 0.102-0.004 0.152-0.004 0.047-0.004 0.082-0.004 0.133-0.004l-0.285 0.008zM292.886 284.167v-11.719l-57.181-119.617h-18.387l56.98 116.181v0.404h-64.255v14.75l82.843 0.001z" />
<glyph unicode="&#xe609;" d="M264.166 398.258c-117.051 2.305-213.401-69.821-215.195-161.102-0.626-31.733 10.266-61.595 29.651-87.161h-0.003c33.341-42.834-3.046-116.466-3.046-116.466l107.43 46.266c23.143-7.312 48.295-11.571 74.649-12.091 117.051-2.31 213.401 69.822 215.2 161.102s-91.632 167.147-208.683 169.453z" />
<glyph unicode="&#xe60a;" d="M357.27 15.099h106.663v106.678h-37.817v6.505c-0.075 17.211-5.97 34.387-15.049 49.505-9.171 15.11-21.622 28.289-36.829 36.382l-69.154 36.39c-8.95 4.6-18.478 14.124-25.221 25.399-6.846 11.238-10.843 24.065-10.748 34.13v22.543h38.416v106.651h-106.678v-106.651h38.51v-22.543c0.049-10.066-3.933-22.892-10.763-34.13-6.762-11.275-16.285-20.798-25.206-25.399l-69.177-36.39c-15.208-8.094-27.651-21.272-36.834-36.382-9.079-15.118-14.951-32.294-15.049-49.505v-6.505h-41.017v-106.678h106.677v106.678h-35.878v6.505c-0.065 10.070 3.906 22.892 10.729 34.133 6.762 11.275 16.29 20.795 25.243 25.402l69.143 36.387c8.222 4.381 15.591 10.286 22.129 17.082v-119.509h-38.51v-106.678h106.677v106.678h-38.416v119.509c6.509-6.797 13.896-12.732 22.129-17.082l69.12-36.387c8.95-4.608 18.478-14.127 25.209-25.402 6.857-11.241 10.855-24.065 10.764-34.134v-6.505h-39.067z" />
<glyph unicode="&#xe60b;" d="M236.256 34.108h-201.671v155.312c0 57.177 11.896 102.3 35.698 135.375 23.796 33.069 64.594 62.276 122.394 87.623l43.579-82.522c-35.546-16.69-60.118-33.311-73.714-49.84-13.603-16.537-21.174-36.090-22.717-58.648h96.431v-187.3zM471.313 34.108h-201.675v155.312c0 57.177 11.895 102.3 35.699 135.375 23.796 33.069 64.596 62.276 122.394 87.623l43.582-82.522c-35.547-16.69-60.12-33.311-73.716-49.84-13.602-16.537-21.174-36.090-22.717-58.648h96.433v-187.3z" />
<glyph unicode="&#xe60c;" d="M92.082 265.146h211.495v-23.659h-211.494v23.659zM92.082 183.054h211.495v-23.659h-211.494v23.659zM92.082 102.591h211.495v-23.659h-211.494v23.659zM322.517 380.366v22.097h-64.702c0 1.567 0 1.567 0 3.156 0 33.146-26.838 59.986-59.987 59.986-33.146 0-59.987-26.838-59.987-59.986 0-1.567 0-3.156 0-3.156h-64.703v-22.097l31.569-53.656h194.129l23.659 53.656zM197.754 367.746c-20.529 0-36.309 17.368-37.891 36.309 0 20.529 17.368 36.309 37.891 37.891 20.529 0 36.309-17.368 36.309-37.891 0-18.934-15.774-36.309-36.309-36.309zM366.707-20.524h-336.181v422.978h124.684v-23.659h-101.036v-375.642h288.83v375.642h-99.431v23.659h123.099z" horiz-adv-x="396" />
<glyph unicode="&#xe60d;" d="M253.885 129.906c-50.358 0-91.187 40.791-91.187 91.213 0 50.358 40.829 91.175 91.187 91.175 50.387 0 91.213-40.816 91.213-91.175 0-50.423-40.825-91.213-91.213-91.213zM253.885 348.576c-118.507 0-237.85-128.854-237.85-128.854s119.345-128.859 237.85-128.859c118.523 0 237.867 128.859 237.867 128.859s-119.344 128.854-237.867 128.854zM253.885 265.789c-24.639 0-44.683-20.039-44.683-44.67 0-24.652 20.043-44.709 44.683-44.709 24.656 0 44.709 20.057 44.709 44.709 0 24.631-20.053 44.671-44.709 44.671z" />
<glyph unicode="&#xe60e;" d="M486.19 366.191c-17.022-7.55-35.317-12.652-54.517-14.945 19.599 11.747 34.65 30.35 41.736 52.513-18.341-10.877-38.655-18.777-60.274-23.034-17.317 18.448-41.985 29.975-69.285 29.975-52.421 0-94.919-42.498-94.919-94.917 0-7.44 0.839-14.683 2.455-21.63-78.886 3.958-148.825 41.746-195.641 99.174-8.172-14.019-12.851-30.325-12.851-47.719 0-32.93 16.758-61.984 42.226-79.005-15.561 0.493-30.195 4.762-42.992 11.872-0.007-0.398-0.009-0.793-0.009-1.193 0-45.99 32.718-84.353 76.142-93.073-7.965-2.168-16.351-3.327-25.008-3.327-6.117 0-12.063 0.594-17.858 1.701 12.079-37.71 47.133-65.153 88.668-65.921-32.487-25.457-73.413-40.632-117.883-40.632-7.662 0-15.217 0.45-22.642 1.326 42.007-26.931 91.898-42.644 145.502-42.644 174.59 0 270.063 144.637 270.063 270.066 0 4.115-0.091 8.209-0.274 12.279 18.546 13.384 34.639 30.102 47.365 49.137z" />
<glyph unicode="&#xe60f;" d="M383.961 97.955h-304.755v213.238h86.764c12.62 14.515 27.073 27.073 43.363 37.447 4.435 2.837 8.929 5.423 13.405 7.825h-188.826v-303.782h395.341v145.99l-45.293-37.377zM137.329 150.714c0 0 22.147 94.169 197.161 94.169v-85.111l166.93 137.799-166.93 137.769v-82.481c-29.145 0.761-182.546-4.881-197.161-202.143z" />
<glyph unicode="&#xe610;" d="M481.896 233.73c13.99 18.453 21.87 40.007 21.403 62.917-1.285 65.878-70.87 117.975-155.356 116.261-70.795-1.38-129.633-40.1-146.043-91.362 33.060-6.239 63.404-19.784 87.854-39.633 35.281-28.653 54.317-66.848 53.623-107.54 3.079-0.063 6.166-0.103 9.26 0 19.054 0.289 37.195 3.382 53.922 8.717l77.536-33.422c0 0-26.261 53.161-2.199 84.058zM164.349 296.946c-84.486 1.654-154.013-50.402-155.316-116.285-0.445-22.907 7.413-44.474 21.381-62.918 24.063-30.895-2.198-84.068-2.198-84.068l77.558 33.409c16.691-5.286 34.868-8.379 53.886-8.752 84.486-1.678 154.048 50.419 155.316 116.331 1.303 65.841-66.122 120.622-150.627 122.282z" />
<glyph unicode="&#xe611;" d="M381.583 372.711h-254.179v72.971h254.179zM432.875 292.395c-9.729 0-17.618 7.893-17.618 17.625 0 9.729 7.889 17.619 17.618 17.619 9.734 0 17.625-7.889 17.625-17.619 0-9.734-7.893-17.625-17.625-17.625zM458.704 346.414h-408.423c-12.165 0-22.031-9.863-22.031-22.031v-162.076h66.37v98.389h319.751v-98.389h66.365v162.076c0 12.168-9.866 22.031-22.031 22.031zM362.787 223.551v-194.339h-106.367c-38.525 0-19.96 91.317-19.96 91.317s-89.064-21.643-90.209 19.197v83.825h-25.931v-118.094l102.171-102.179h166.227v220.274z" />
<glyph unicode="&#xe612;" d="M336.531 382.442v-359.52l126.662 48.097v359.527zM47.685 18.423l126.355 47.983v359.524l-126.355-47.983zM198.333 66.407l113.905-43.255v359.52l-113.906 43.258z" />
</font>
</defs>
</svg>
